%TF.GenerationSoftware,KiCad,Pcbnew,(5.1.10)-1*%
%TF.CreationDate,2021-10-07T14:53:58-07:00*%
%TF.ProjectId,RC_Filter_Dsub,52435f46-696c-4746-9572-5f447375622e,1*%
%TF.SameCoordinates,Original*%
%TF.FileFunction,Copper,L2,Bot*%
%TF.FilePolarity,Positive*%
%FSLAX46Y46*%
G04 Gerber Fmt 4.6, Leading zero omitted, Abs format (unit mm)*
G04 Created by KiCad (PCBNEW (5.1.10)-1) date 2021-10-07 14:53:58*
%MOMM*%
%LPD*%
G01*
G04 APERTURE LIST*
%TA.AperFunction,ComponentPad*%
%ADD10C,1.397000*%
%TD*%
%TA.AperFunction,ViaPad*%
%ADD11C,0.635000*%
%TD*%
%TA.AperFunction,Conductor*%
%ADD12C,0.254000*%
%TD*%
%TA.AperFunction,Conductor*%
%ADD13C,0.250000*%
%TD*%
%TA.AperFunction,NonConductor*%
%ADD14C,0.254000*%
%TD*%
%TA.AperFunction,NonConductor*%
%ADD15C,0.100000*%
%TD*%
G04 APERTURE END LIST*
D10*
%TO.P,J1,25*%
%TO.N,Net-(J1-Pad25)*%
X153670000Y-117094000D03*
%TO.P,J1,23*%
%TO.N,Net-(J1-Pad23)*%
X151130000Y-117094000D03*
%TO.P,J1,21*%
%TO.N,Net-(J1-Pad21)*%
X148590000Y-117094000D03*
%TO.P,J1,20*%
%TO.N,Net-(J1-Pad20)*%
X146050000Y-117094000D03*
%TO.P,J1,19*%
%TO.N,Net-(J1-Pad19)*%
X143510000Y-117094000D03*
%TO.P,J1,18*%
%TO.N,Net-(J1-Pad18)*%
X140970000Y-117094000D03*
%TO.P,J1,16*%
%TO.N,Net-(J1-Pad16)*%
X138430000Y-117094000D03*
%TO.P,J1,14*%
%TO.N,Net-(J1-Pad14)*%
X135890000Y-117094000D03*
%TO.P,J1,13*%
%TO.N,Net-(J1-Pad13)*%
X154940000Y-119634000D03*
%TO.P,J1,24*%
%TO.N,Net-(J1-Pad24)*%
X152400000Y-119634000D03*
%TO.P,J1,22*%
%TO.N,Net-(J1-Pad22)*%
X149860000Y-119634000D03*
%TO.P,J1,9*%
%TO.N,Net-(J1-Pad9)*%
X147320000Y-119634000D03*
%TO.P,J1,7*%
%TO.N,Net-(J1-Pad7)*%
X144780000Y-119634000D03*
%TO.P,J1,5*%
%TO.N,Net-(J1-Pad5)*%
X142240000Y-119634000D03*
%TO.P,J1,17*%
%TO.N,Net-(J1-Pad17)*%
X139700000Y-119634000D03*
%TO.P,J1,15*%
%TO.N,Net-(J1-Pad15)*%
X137160000Y-119634000D03*
%TO.P,J1,1*%
%TO.N,Net-(J1-Pad1)*%
X134620000Y-119634000D03*
%TO.P,J1,12*%
%TO.N,Net-(J1-Pad12)*%
X153670000Y-122174000D03*
%TO.P,J1,11*%
%TO.N,Net-(J1-Pad11)*%
X151130000Y-122174000D03*
%TO.P,J1,10*%
%TO.N,Net-(J1-Pad10)*%
X148590000Y-122174000D03*
%TO.P,J1,8*%
%TO.N,Net-(J1-Pad8)*%
X146050000Y-122174000D03*
%TO.P,J1,6*%
%TO.N,Net-(J1-Pad6)*%
X143510000Y-122174000D03*
%TO.P,J1,4*%
%TO.N,Net-(J1-Pad4)*%
X140970000Y-122174000D03*
%TO.P,J1,3*%
%TO.N,Net-(J1-Pad3)*%
X138430000Y-122174000D03*
%TO.P,J1,2*%
%TO.N,Net-(J1-Pad2)*%
X135890000Y-122174000D03*
%TD*%
D11*
%TO.N,Net-(J1-Pad3)*%
X135890000Y-110871000D03*
%TO.N,Net-(J1-Pad4)*%
X136779000Y-110871000D03*
%TO.N,Net-(J1-Pad6)*%
X138568231Y-110859769D03*
%TO.N,Net-(J1-Pad8)*%
X140346231Y-110859769D03*
%TO.N,Net-(J1-Pad10)*%
X142124231Y-110859769D03*
%TO.N,Net-(J1-Pad11)*%
X143002000Y-110871000D03*
%TO.N,Net-(J1-Pad12)*%
X143902231Y-110859769D03*
%TO.N,Net-(J1-Pad5)*%
X137668000Y-110871000D03*
%TO.N,Net-(J1-Pad7)*%
X139446000Y-110871000D03*
%TO.N,Net-(J1-Pad9)*%
X141224000Y-110871000D03*
%TO.N,Net-(J1-Pad13)*%
X144780000Y-110871000D03*
%TD*%
D12*
%TO.N,Net-(J1-Pad3)*%
X137160000Y-117475000D02*
X138430000Y-118745000D01*
X138430000Y-118745000D02*
X138430000Y-122174000D01*
X135890000Y-110871000D02*
X135890000Y-114681000D01*
X137160000Y-115951000D02*
X137160000Y-117475000D01*
X135890000Y-114681000D02*
X137160000Y-115951000D01*
%TO.N,Net-(J1-Pad4)*%
X140970000Y-119386258D02*
X140970000Y-122174000D01*
X139455501Y-117871759D02*
X140970000Y-119386258D01*
X139455501Y-116601759D02*
X139455501Y-117871759D01*
X136779000Y-113925258D02*
X139455501Y-116601759D01*
X136779000Y-110871000D02*
X136779000Y-113925258D01*
%TO.N,Net-(J1-Pad6)*%
X143510000Y-119386258D02*
X143510000Y-122174000D01*
X141995501Y-117871759D02*
X143510000Y-119386258D01*
X141995501Y-114556435D02*
X141995501Y-117871759D01*
X138568231Y-111129165D02*
X141995501Y-114556435D01*
X138568231Y-110859769D02*
X138568231Y-111129165D01*
%TO.N,Net-(J1-Pad8)*%
X140346231Y-110947093D02*
X140346231Y-110859769D01*
X144535501Y-115136363D02*
X140346231Y-110947093D01*
X144535501Y-117739309D02*
X144535501Y-115136363D01*
X146050000Y-119253808D02*
X144535501Y-117739309D01*
X146050000Y-122174000D02*
X146050000Y-119253808D01*
%TO.N,Net-(J1-Pad10)*%
X148590000Y-119386258D02*
X148590000Y-122174000D01*
X147320000Y-118116258D02*
X148590000Y-119386258D01*
X147320000Y-116142862D02*
X147320000Y-116840000D01*
X142124231Y-110947093D02*
X147320000Y-116142862D01*
X142124231Y-110859769D02*
X142124231Y-110947093D01*
X147320000Y-116840000D02*
X147320000Y-118116258D01*
%TO.N,Net-(J1-Pad11)*%
X149860000Y-116332000D02*
X149860000Y-117602000D01*
X151130000Y-118872000D02*
X151130000Y-122174000D01*
X149860000Y-117602000D02*
X151130000Y-118872000D01*
X143002000Y-110871000D02*
X147574000Y-115443000D01*
X148971000Y-115443000D02*
X149860000Y-116332000D01*
X147574000Y-115443000D02*
X148971000Y-115443000D01*
%TO.N,Net-(J1-Pad12)*%
X143902231Y-110947093D02*
X147944128Y-114988990D01*
X143902231Y-110859769D02*
X143902231Y-110947093D01*
X150542732Y-114988990D02*
X152155501Y-116601759D01*
X147944128Y-114988990D02*
X150542732Y-114988990D01*
X152155501Y-116601759D02*
X152155501Y-117745567D01*
X153670000Y-119260066D02*
X153670000Y-122174000D01*
X152155501Y-117745567D02*
X153670000Y-119260066D01*
D13*
%TO.N,Net-(J1-Pad5)*%
X141995218Y-119634000D02*
X142240000Y-119634000D01*
D12*
X141992258Y-119634000D02*
X142240000Y-119634000D01*
X139944499Y-113147499D02*
X139944499Y-117586241D01*
X139944499Y-117586241D02*
X141992258Y-119634000D01*
X137668000Y-110871000D02*
X139944499Y-113147499D01*
%TO.N,Net-(J1-Pad7)*%
X144532258Y-119634000D02*
X144780000Y-119634000D01*
X142484499Y-117586241D02*
X144532258Y-119634000D01*
X142484499Y-113909499D02*
X142484499Y-117586241D01*
X139446000Y-110871000D02*
X142484499Y-113909499D01*
D13*
%TO.N,Net-(J1-Pad9)*%
X147523511Y-119430489D02*
X147320000Y-119634000D01*
D12*
X147072258Y-119634000D02*
X147320000Y-119634000D01*
X145024499Y-117586241D02*
X147072258Y-119634000D01*
X145024499Y-114671499D02*
X145024499Y-117586241D01*
X141224000Y-110871000D02*
X145024499Y-114671499D01*
%TO.N,Net-(J1-Pad13)*%
X154940000Y-119626934D02*
X154940000Y-119634000D01*
X152644499Y-116448691D02*
X152644499Y-117586241D01*
X147066808Y-110871000D02*
X152644499Y-116448691D01*
X144780000Y-110871000D02*
X147066808Y-110871000D01*
X153177759Y-118119501D02*
X153177759Y-118125759D01*
X152644499Y-117586241D02*
X153177759Y-118119501D01*
X154686000Y-119634000D02*
X154940000Y-119634000D01*
X153177759Y-118125759D02*
X154686000Y-119634000D01*
%TD*%
D14*
X160249001Y-114387500D02*
X160249000Y-124689000D01*
X129311000Y-124689000D01*
X129311000Y-122072997D01*
X134864500Y-122072997D01*
X134864500Y-122275003D01*
X134903909Y-122473127D01*
X134981214Y-122659756D01*
X135093442Y-122827718D01*
X135236282Y-122970558D01*
X135404244Y-123082786D01*
X135590873Y-123160091D01*
X135788997Y-123199500D01*
X135991003Y-123199500D01*
X136189127Y-123160091D01*
X136375756Y-123082786D01*
X136543718Y-122970558D01*
X136686558Y-122827718D01*
X136798786Y-122659756D01*
X136876091Y-122473127D01*
X136915500Y-122275003D01*
X136915500Y-122072997D01*
X136876091Y-121874873D01*
X136798786Y-121688244D01*
X136686558Y-121520282D01*
X136543718Y-121377442D01*
X136375756Y-121265214D01*
X136189127Y-121187909D01*
X135991003Y-121148500D01*
X135788997Y-121148500D01*
X135590873Y-121187909D01*
X135404244Y-121265214D01*
X135236282Y-121377442D01*
X135093442Y-121520282D01*
X134981214Y-121688244D01*
X134903909Y-121874873D01*
X134864500Y-122072997D01*
X129311000Y-122072997D01*
X129311000Y-118973713D01*
X130978300Y-118973713D01*
X130978300Y-119278287D01*
X131037720Y-119577010D01*
X131154276Y-119858400D01*
X131323488Y-120111645D01*
X131538855Y-120327012D01*
X131792100Y-120496224D01*
X132073490Y-120612780D01*
X132372213Y-120672200D01*
X132676787Y-120672200D01*
X132975510Y-120612780D01*
X133256900Y-120496224D01*
X133510145Y-120327012D01*
X133713692Y-120123465D01*
X133823442Y-120287718D01*
X133966282Y-120430558D01*
X134134244Y-120542786D01*
X134320873Y-120620091D01*
X134518997Y-120659500D01*
X134721003Y-120659500D01*
X134919127Y-120620091D01*
X135105756Y-120542786D01*
X135273718Y-120430558D01*
X135416558Y-120287718D01*
X135528786Y-120119756D01*
X135606091Y-119933127D01*
X135645500Y-119735003D01*
X135645500Y-119532997D01*
X135606091Y-119334873D01*
X135528786Y-119148244D01*
X135416558Y-118980282D01*
X135273718Y-118837442D01*
X135105756Y-118725214D01*
X134919127Y-118647909D01*
X134721003Y-118608500D01*
X134518997Y-118608500D01*
X134320873Y-118647909D01*
X134134244Y-118725214D01*
X134034524Y-118791844D01*
X134011280Y-118674990D01*
X133894724Y-118393600D01*
X133725512Y-118140355D01*
X133510145Y-117924988D01*
X133256900Y-117755776D01*
X132975510Y-117639220D01*
X132676787Y-117579800D01*
X132372213Y-117579800D01*
X132073490Y-117639220D01*
X131792100Y-117755776D01*
X131538855Y-117924988D01*
X131323488Y-118140355D01*
X131154276Y-118393600D01*
X131037720Y-118674990D01*
X130978300Y-118973713D01*
X129311000Y-118973713D01*
X129311000Y-116992997D01*
X134864500Y-116992997D01*
X134864500Y-117195003D01*
X134903909Y-117393127D01*
X134981214Y-117579756D01*
X135093442Y-117747718D01*
X135236282Y-117890558D01*
X135404244Y-118002786D01*
X135590873Y-118080091D01*
X135788997Y-118119500D01*
X135991003Y-118119500D01*
X136189127Y-118080091D01*
X136375756Y-118002786D01*
X136543718Y-117890558D01*
X136686558Y-117747718D01*
X136744576Y-117660888D01*
X136748820Y-117668828D01*
X136780688Y-117728449D01*
X136795459Y-117746447D01*
X136822558Y-117779467D01*
X136837422Y-117797579D01*
X136854738Y-117811790D01*
X137976000Y-118933053D01*
X137976000Y-119009379D01*
X137956558Y-118980282D01*
X137813718Y-118837442D01*
X137645756Y-118725214D01*
X137459127Y-118647909D01*
X137261003Y-118608500D01*
X137058997Y-118608500D01*
X136860873Y-118647909D01*
X136674244Y-118725214D01*
X136506282Y-118837442D01*
X136363442Y-118980282D01*
X136251214Y-119148244D01*
X136173909Y-119334873D01*
X136134500Y-119532997D01*
X136134500Y-119735003D01*
X136173909Y-119933127D01*
X136251214Y-120119756D01*
X136363442Y-120287718D01*
X136506282Y-120430558D01*
X136674244Y-120542786D01*
X136860873Y-120620091D01*
X137058997Y-120659500D01*
X137261003Y-120659500D01*
X137459127Y-120620091D01*
X137645756Y-120542786D01*
X137813718Y-120430558D01*
X137956558Y-120287718D01*
X137976000Y-120258620D01*
X137976001Y-121252060D01*
X137944244Y-121265214D01*
X137776282Y-121377442D01*
X137633442Y-121520282D01*
X137521214Y-121688244D01*
X137443909Y-121874873D01*
X137404500Y-122072997D01*
X137404500Y-122275003D01*
X137443909Y-122473127D01*
X137521214Y-122659756D01*
X137633442Y-122827718D01*
X137776282Y-122970558D01*
X137944244Y-123082786D01*
X138130873Y-123160091D01*
X138328997Y-123199500D01*
X138531003Y-123199500D01*
X138729127Y-123160091D01*
X138915756Y-123082786D01*
X139083718Y-122970558D01*
X139226558Y-122827718D01*
X139338786Y-122659756D01*
X139416091Y-122473127D01*
X139455500Y-122275003D01*
X139455500Y-122072997D01*
X139416091Y-121874873D01*
X139338786Y-121688244D01*
X139226558Y-121520282D01*
X139083718Y-121377442D01*
X138915756Y-121265214D01*
X138884000Y-121252060D01*
X138884000Y-120258621D01*
X138903442Y-120287718D01*
X139046282Y-120430558D01*
X139214244Y-120542786D01*
X139400873Y-120620091D01*
X139598997Y-120659500D01*
X139801003Y-120659500D01*
X139999127Y-120620091D01*
X140185756Y-120542786D01*
X140353718Y-120430558D01*
X140496558Y-120287718D01*
X140516000Y-120258620D01*
X140516001Y-121252060D01*
X140484244Y-121265214D01*
X140316282Y-121377442D01*
X140173442Y-121520282D01*
X140061214Y-121688244D01*
X139983909Y-121874873D01*
X139944500Y-122072997D01*
X139944500Y-122275003D01*
X139983909Y-122473127D01*
X140061214Y-122659756D01*
X140173442Y-122827718D01*
X140316282Y-122970558D01*
X140484244Y-123082786D01*
X140670873Y-123160091D01*
X140868997Y-123199500D01*
X141071003Y-123199500D01*
X141269127Y-123160091D01*
X141455756Y-123082786D01*
X141623718Y-122970558D01*
X141766558Y-122827718D01*
X141878786Y-122659756D01*
X141956091Y-122473127D01*
X141995500Y-122275003D01*
X141995500Y-122072997D01*
X141956091Y-121874873D01*
X141878786Y-121688244D01*
X141766558Y-121520282D01*
X141623718Y-121377442D01*
X141455756Y-121265214D01*
X141424000Y-121252060D01*
X141424000Y-120258621D01*
X141443442Y-120287718D01*
X141586282Y-120430558D01*
X141754244Y-120542786D01*
X141940873Y-120620091D01*
X142138997Y-120659500D01*
X142341003Y-120659500D01*
X142539127Y-120620091D01*
X142725756Y-120542786D01*
X142893718Y-120430558D01*
X143036558Y-120287718D01*
X143056000Y-120258620D01*
X143056001Y-121252060D01*
X143024244Y-121265214D01*
X142856282Y-121377442D01*
X142713442Y-121520282D01*
X142601214Y-121688244D01*
X142523909Y-121874873D01*
X142484500Y-122072997D01*
X142484500Y-122275003D01*
X142523909Y-122473127D01*
X142601214Y-122659756D01*
X142713442Y-122827718D01*
X142856282Y-122970558D01*
X143024244Y-123082786D01*
X143210873Y-123160091D01*
X143408997Y-123199500D01*
X143611003Y-123199500D01*
X143809127Y-123160091D01*
X143995756Y-123082786D01*
X144163718Y-122970558D01*
X144306558Y-122827718D01*
X144418786Y-122659756D01*
X144496091Y-122473127D01*
X144535500Y-122275003D01*
X144535500Y-122072997D01*
X144496091Y-121874873D01*
X144418786Y-121688244D01*
X144306558Y-121520282D01*
X144163718Y-121377442D01*
X143995756Y-121265214D01*
X143964000Y-121252060D01*
X143964000Y-120258621D01*
X143983442Y-120287718D01*
X144126282Y-120430558D01*
X144294244Y-120542786D01*
X144480873Y-120620091D01*
X144678997Y-120659500D01*
X144881003Y-120659500D01*
X145079127Y-120620091D01*
X145265756Y-120542786D01*
X145433718Y-120430558D01*
X145576558Y-120287718D01*
X145596001Y-120258620D01*
X145596000Y-121252060D01*
X145564244Y-121265214D01*
X145396282Y-121377442D01*
X145253442Y-121520282D01*
X145141214Y-121688244D01*
X145063909Y-121874873D01*
X145024500Y-122072997D01*
X145024500Y-122275003D01*
X145063909Y-122473127D01*
X145141214Y-122659756D01*
X145253442Y-122827718D01*
X145396282Y-122970558D01*
X145564244Y-123082786D01*
X145750873Y-123160091D01*
X145948997Y-123199500D01*
X146151003Y-123199500D01*
X146349127Y-123160091D01*
X146535756Y-123082786D01*
X146703718Y-122970558D01*
X146846558Y-122827718D01*
X146958786Y-122659756D01*
X147036091Y-122473127D01*
X147075500Y-122275003D01*
X147075500Y-122072997D01*
X147036091Y-121874873D01*
X146958786Y-121688244D01*
X146846558Y-121520282D01*
X146703718Y-121377442D01*
X146535756Y-121265214D01*
X146504000Y-121252060D01*
X146504000Y-120258621D01*
X146523442Y-120287718D01*
X146666282Y-120430558D01*
X146834244Y-120542786D01*
X147020873Y-120620091D01*
X147218997Y-120659500D01*
X147421003Y-120659500D01*
X147619127Y-120620091D01*
X147805756Y-120542786D01*
X147973718Y-120430558D01*
X148116558Y-120287718D01*
X148136000Y-120258620D01*
X148136001Y-121252060D01*
X148104244Y-121265214D01*
X147936282Y-121377442D01*
X147793442Y-121520282D01*
X147681214Y-121688244D01*
X147603909Y-121874873D01*
X147564500Y-122072997D01*
X147564500Y-122275003D01*
X147603909Y-122473127D01*
X147681214Y-122659756D01*
X147793442Y-122827718D01*
X147936282Y-122970558D01*
X148104244Y-123082786D01*
X148290873Y-123160091D01*
X148488997Y-123199500D01*
X148691003Y-123199500D01*
X148889127Y-123160091D01*
X149075756Y-123082786D01*
X149243718Y-122970558D01*
X149386558Y-122827718D01*
X149498786Y-122659756D01*
X149576091Y-122473127D01*
X149615500Y-122275003D01*
X149615500Y-122072997D01*
X149576091Y-121874873D01*
X149498786Y-121688244D01*
X149386558Y-121520282D01*
X149243718Y-121377442D01*
X149075756Y-121265214D01*
X149044000Y-121252060D01*
X149044000Y-120258621D01*
X149063442Y-120287718D01*
X149206282Y-120430558D01*
X149374244Y-120542786D01*
X149560873Y-120620091D01*
X149758997Y-120659500D01*
X149961003Y-120659500D01*
X150159127Y-120620091D01*
X150345756Y-120542786D01*
X150513718Y-120430558D01*
X150656558Y-120287718D01*
X150676000Y-120258620D01*
X150676001Y-121252060D01*
X150644244Y-121265214D01*
X150476282Y-121377442D01*
X150333442Y-121520282D01*
X150221214Y-121688244D01*
X150143909Y-121874873D01*
X150104500Y-122072997D01*
X150104500Y-122275003D01*
X150143909Y-122473127D01*
X150221214Y-122659756D01*
X150333442Y-122827718D01*
X150476282Y-122970558D01*
X150644244Y-123082786D01*
X150830873Y-123160091D01*
X151028997Y-123199500D01*
X151231003Y-123199500D01*
X151429127Y-123160091D01*
X151615756Y-123082786D01*
X151783718Y-122970558D01*
X151926558Y-122827718D01*
X152038786Y-122659756D01*
X152116091Y-122473127D01*
X152155500Y-122275003D01*
X152155500Y-122072997D01*
X152116091Y-121874873D01*
X152038786Y-121688244D01*
X151926558Y-121520282D01*
X151783718Y-121377442D01*
X151615756Y-121265214D01*
X151584000Y-121252060D01*
X151584000Y-120258621D01*
X151603442Y-120287718D01*
X151746282Y-120430558D01*
X151914244Y-120542786D01*
X152100873Y-120620091D01*
X152298997Y-120659500D01*
X152501003Y-120659500D01*
X152699127Y-120620091D01*
X152885756Y-120542786D01*
X153053718Y-120430558D01*
X153196558Y-120287718D01*
X153216000Y-120258620D01*
X153216001Y-121252060D01*
X153184244Y-121265214D01*
X153016282Y-121377442D01*
X152873442Y-121520282D01*
X152761214Y-121688244D01*
X152683909Y-121874873D01*
X152644500Y-122072997D01*
X152644500Y-122275003D01*
X152683909Y-122473127D01*
X152761214Y-122659756D01*
X152873442Y-122827718D01*
X153016282Y-122970558D01*
X153184244Y-123082786D01*
X153370873Y-123160091D01*
X153568997Y-123199500D01*
X153771003Y-123199500D01*
X153969127Y-123160091D01*
X154155756Y-123082786D01*
X154323718Y-122970558D01*
X154466558Y-122827718D01*
X154578786Y-122659756D01*
X154656091Y-122473127D01*
X154695500Y-122275003D01*
X154695500Y-122072997D01*
X154656091Y-121874873D01*
X154578786Y-121688244D01*
X154466558Y-121520282D01*
X154323718Y-121377442D01*
X154155756Y-121265214D01*
X154124000Y-121252060D01*
X154124000Y-120258621D01*
X154143442Y-120287718D01*
X154286282Y-120430558D01*
X154454244Y-120542786D01*
X154640873Y-120620091D01*
X154838997Y-120659500D01*
X155041003Y-120659500D01*
X155239127Y-120620091D01*
X155425756Y-120542786D01*
X155593718Y-120430558D01*
X155736558Y-120287718D01*
X155846308Y-120123465D01*
X156049855Y-120327012D01*
X156303100Y-120496224D01*
X156584490Y-120612780D01*
X156883213Y-120672200D01*
X157187787Y-120672200D01*
X157486510Y-120612780D01*
X157767900Y-120496224D01*
X158021145Y-120327012D01*
X158236512Y-120111645D01*
X158405724Y-119858400D01*
X158522280Y-119577010D01*
X158581700Y-119278287D01*
X158581700Y-118973713D01*
X158522280Y-118674990D01*
X158405724Y-118393600D01*
X158236512Y-118140355D01*
X158021145Y-117924988D01*
X157767900Y-117755776D01*
X157486510Y-117639220D01*
X157187787Y-117579800D01*
X156883213Y-117579800D01*
X156584490Y-117639220D01*
X156303100Y-117755776D01*
X156049855Y-117924988D01*
X155834488Y-118140355D01*
X155665276Y-118393600D01*
X155548720Y-118674990D01*
X155525476Y-118791844D01*
X155425756Y-118725214D01*
X155239127Y-118647909D01*
X155041003Y-118608500D01*
X154838997Y-118608500D01*
X154640873Y-118647909D01*
X154454244Y-118725214D01*
X154433277Y-118739224D01*
X153806493Y-118112441D01*
X153969127Y-118080091D01*
X154155756Y-118002786D01*
X154323718Y-117890558D01*
X154466558Y-117747718D01*
X154578786Y-117579756D01*
X154656091Y-117393127D01*
X154695500Y-117195003D01*
X154695500Y-116992997D01*
X154656091Y-116794873D01*
X154578786Y-116608244D01*
X154466558Y-116440282D01*
X154323718Y-116297442D01*
X154155756Y-116185214D01*
X153969127Y-116107909D01*
X153771003Y-116068500D01*
X153568997Y-116068500D01*
X153370873Y-116107909D01*
X153184244Y-116185214D01*
X153062082Y-116266840D01*
X153038353Y-116222446D01*
X153023812Y-116195242D01*
X152967078Y-116126112D01*
X152949763Y-116111902D01*
X147403603Y-110565743D01*
X147389387Y-110548421D01*
X147320257Y-110491687D01*
X147241387Y-110449530D01*
X147155807Y-110423570D01*
X147089103Y-110417000D01*
X147089096Y-110417000D01*
X147066808Y-110414805D01*
X147044520Y-110417000D01*
X145237460Y-110417000D01*
X145190845Y-110370385D01*
X145085285Y-110299852D01*
X144967994Y-110251268D01*
X144843478Y-110226500D01*
X144716522Y-110226500D01*
X144592006Y-110251268D01*
X144474715Y-110299852D01*
X144369155Y-110370385D01*
X144346731Y-110392809D01*
X144313076Y-110359154D01*
X144207516Y-110288621D01*
X144090225Y-110240037D01*
X143965709Y-110215269D01*
X143838753Y-110215269D01*
X143714237Y-110240037D01*
X143596946Y-110288621D01*
X143491386Y-110359154D01*
X143446500Y-110404040D01*
X143412845Y-110370385D01*
X143307285Y-110299852D01*
X143189994Y-110251268D01*
X143065478Y-110226500D01*
X142938522Y-110226500D01*
X142814006Y-110251268D01*
X142696715Y-110299852D01*
X142591155Y-110370385D01*
X142568731Y-110392809D01*
X142535076Y-110359154D01*
X142429516Y-110288621D01*
X142312225Y-110240037D01*
X142187709Y-110215269D01*
X142060753Y-110215269D01*
X141936237Y-110240037D01*
X141818946Y-110288621D01*
X141713386Y-110359154D01*
X141668500Y-110404040D01*
X141634845Y-110370385D01*
X141529285Y-110299852D01*
X141411994Y-110251268D01*
X141287478Y-110226500D01*
X141160522Y-110226500D01*
X141036006Y-110251268D01*
X140918715Y-110299852D01*
X140813155Y-110370385D01*
X140790731Y-110392809D01*
X140757076Y-110359154D01*
X140651516Y-110288621D01*
X140534225Y-110240037D01*
X140409709Y-110215269D01*
X140282753Y-110215269D01*
X140158237Y-110240037D01*
X140040946Y-110288621D01*
X139935386Y-110359154D01*
X139890500Y-110404040D01*
X139856845Y-110370385D01*
X139751285Y-110299852D01*
X139633994Y-110251268D01*
X139509478Y-110226500D01*
X139382522Y-110226500D01*
X139258006Y-110251268D01*
X139140715Y-110299852D01*
X139035155Y-110370385D01*
X139012731Y-110392809D01*
X138979076Y-110359154D01*
X138873516Y-110288621D01*
X138756225Y-110240037D01*
X138631709Y-110215269D01*
X138504753Y-110215269D01*
X138380237Y-110240037D01*
X138262946Y-110288621D01*
X138157386Y-110359154D01*
X138112500Y-110404040D01*
X138078845Y-110370385D01*
X137973285Y-110299852D01*
X137855994Y-110251268D01*
X137731478Y-110226500D01*
X137604522Y-110226500D01*
X137480006Y-110251268D01*
X137362715Y-110299852D01*
X137257155Y-110370385D01*
X137223500Y-110404040D01*
X137189845Y-110370385D01*
X137084285Y-110299852D01*
X136966994Y-110251268D01*
X136842478Y-110226500D01*
X136715522Y-110226500D01*
X136591006Y-110251268D01*
X136473715Y-110299852D01*
X136368155Y-110370385D01*
X136334500Y-110404040D01*
X136300845Y-110370385D01*
X136195285Y-110299852D01*
X136077994Y-110251268D01*
X135953478Y-110226500D01*
X135826522Y-110226500D01*
X135702006Y-110251268D01*
X135584715Y-110299852D01*
X135479155Y-110370385D01*
X135389385Y-110460155D01*
X135318852Y-110565715D01*
X135270268Y-110683006D01*
X135245500Y-110807522D01*
X135245500Y-110934478D01*
X135270268Y-111058994D01*
X135318852Y-111176285D01*
X135389385Y-111281845D01*
X135436000Y-111328460D01*
X135436001Y-114658702D01*
X135433805Y-114681000D01*
X135442570Y-114769999D01*
X135468530Y-114855578D01*
X135468531Y-114855579D01*
X135510688Y-114934449D01*
X135567422Y-115003579D01*
X135584738Y-115017790D01*
X136706000Y-116139053D01*
X136706000Y-116469380D01*
X136686558Y-116440282D01*
X136543718Y-116297442D01*
X136375756Y-116185214D01*
X136189127Y-116107909D01*
X135991003Y-116068500D01*
X135788997Y-116068500D01*
X135590873Y-116107909D01*
X135404244Y-116185214D01*
X135236282Y-116297442D01*
X135093442Y-116440282D01*
X134981214Y-116608244D01*
X134903909Y-116794873D01*
X134864500Y-116992997D01*
X129311000Y-116992997D01*
X129311000Y-114387498D01*
X133241782Y-108737000D01*
X156318220Y-108737000D01*
X160249001Y-114387500D01*
%TA.AperFunction,NonConductor*%
D15*
G36*
X160249001Y-114387500D02*
G01*
X160249000Y-124689000D01*
X129311000Y-124689000D01*
X129311000Y-122072997D01*
X134864500Y-122072997D01*
X134864500Y-122275003D01*
X134903909Y-122473127D01*
X134981214Y-122659756D01*
X135093442Y-122827718D01*
X135236282Y-122970558D01*
X135404244Y-123082786D01*
X135590873Y-123160091D01*
X135788997Y-123199500D01*
X135991003Y-123199500D01*
X136189127Y-123160091D01*
X136375756Y-123082786D01*
X136543718Y-122970558D01*
X136686558Y-122827718D01*
X136798786Y-122659756D01*
X136876091Y-122473127D01*
X136915500Y-122275003D01*
X136915500Y-122072997D01*
X136876091Y-121874873D01*
X136798786Y-121688244D01*
X136686558Y-121520282D01*
X136543718Y-121377442D01*
X136375756Y-121265214D01*
X136189127Y-121187909D01*
X135991003Y-121148500D01*
X135788997Y-121148500D01*
X135590873Y-121187909D01*
X135404244Y-121265214D01*
X135236282Y-121377442D01*
X135093442Y-121520282D01*
X134981214Y-121688244D01*
X134903909Y-121874873D01*
X134864500Y-122072997D01*
X129311000Y-122072997D01*
X129311000Y-118973713D01*
X130978300Y-118973713D01*
X130978300Y-119278287D01*
X131037720Y-119577010D01*
X131154276Y-119858400D01*
X131323488Y-120111645D01*
X131538855Y-120327012D01*
X131792100Y-120496224D01*
X132073490Y-120612780D01*
X132372213Y-120672200D01*
X132676787Y-120672200D01*
X132975510Y-120612780D01*
X133256900Y-120496224D01*
X133510145Y-120327012D01*
X133713692Y-120123465D01*
X133823442Y-120287718D01*
X133966282Y-120430558D01*
X134134244Y-120542786D01*
X134320873Y-120620091D01*
X134518997Y-120659500D01*
X134721003Y-120659500D01*
X134919127Y-120620091D01*
X135105756Y-120542786D01*
X135273718Y-120430558D01*
X135416558Y-120287718D01*
X135528786Y-120119756D01*
X135606091Y-119933127D01*
X135645500Y-119735003D01*
X135645500Y-119532997D01*
X135606091Y-119334873D01*
X135528786Y-119148244D01*
X135416558Y-118980282D01*
X135273718Y-118837442D01*
X135105756Y-118725214D01*
X134919127Y-118647909D01*
X134721003Y-118608500D01*
X134518997Y-118608500D01*
X134320873Y-118647909D01*
X134134244Y-118725214D01*
X134034524Y-118791844D01*
X134011280Y-118674990D01*
X133894724Y-118393600D01*
X133725512Y-118140355D01*
X133510145Y-117924988D01*
X133256900Y-117755776D01*
X132975510Y-117639220D01*
X132676787Y-117579800D01*
X132372213Y-117579800D01*
X132073490Y-117639220D01*
X131792100Y-117755776D01*
X131538855Y-117924988D01*
X131323488Y-118140355D01*
X131154276Y-118393600D01*
X131037720Y-118674990D01*
X130978300Y-118973713D01*
X129311000Y-118973713D01*
X129311000Y-116992997D01*
X134864500Y-116992997D01*
X134864500Y-117195003D01*
X134903909Y-117393127D01*
X134981214Y-117579756D01*
X135093442Y-117747718D01*
X135236282Y-117890558D01*
X135404244Y-118002786D01*
X135590873Y-118080091D01*
X135788997Y-118119500D01*
X135991003Y-118119500D01*
X136189127Y-118080091D01*
X136375756Y-118002786D01*
X136543718Y-117890558D01*
X136686558Y-117747718D01*
X136744576Y-117660888D01*
X136748820Y-117668828D01*
X136780688Y-117728449D01*
X136795459Y-117746447D01*
X136822558Y-117779467D01*
X136837422Y-117797579D01*
X136854738Y-117811790D01*
X137976000Y-118933053D01*
X137976000Y-119009379D01*
X137956558Y-118980282D01*
X137813718Y-118837442D01*
X137645756Y-118725214D01*
X137459127Y-118647909D01*
X137261003Y-118608500D01*
X137058997Y-118608500D01*
X136860873Y-118647909D01*
X136674244Y-118725214D01*
X136506282Y-118837442D01*
X136363442Y-118980282D01*
X136251214Y-119148244D01*
X136173909Y-119334873D01*
X136134500Y-119532997D01*
X136134500Y-119735003D01*
X136173909Y-119933127D01*
X136251214Y-120119756D01*
X136363442Y-120287718D01*
X136506282Y-120430558D01*
X136674244Y-120542786D01*
X136860873Y-120620091D01*
X137058997Y-120659500D01*
X137261003Y-120659500D01*
X137459127Y-120620091D01*
X137645756Y-120542786D01*
X137813718Y-120430558D01*
X137956558Y-120287718D01*
X137976000Y-120258620D01*
X137976001Y-121252060D01*
X137944244Y-121265214D01*
X137776282Y-121377442D01*
X137633442Y-121520282D01*
X137521214Y-121688244D01*
X137443909Y-121874873D01*
X137404500Y-122072997D01*
X137404500Y-122275003D01*
X137443909Y-122473127D01*
X137521214Y-122659756D01*
X137633442Y-122827718D01*
X137776282Y-122970558D01*
X137944244Y-123082786D01*
X138130873Y-123160091D01*
X138328997Y-123199500D01*
X138531003Y-123199500D01*
X138729127Y-123160091D01*
X138915756Y-123082786D01*
X139083718Y-122970558D01*
X139226558Y-122827718D01*
X139338786Y-122659756D01*
X139416091Y-122473127D01*
X139455500Y-122275003D01*
X139455500Y-122072997D01*
X139416091Y-121874873D01*
X139338786Y-121688244D01*
X139226558Y-121520282D01*
X139083718Y-121377442D01*
X138915756Y-121265214D01*
X138884000Y-121252060D01*
X138884000Y-120258621D01*
X138903442Y-120287718D01*
X139046282Y-120430558D01*
X139214244Y-120542786D01*
X139400873Y-120620091D01*
X139598997Y-120659500D01*
X139801003Y-120659500D01*
X139999127Y-120620091D01*
X140185756Y-120542786D01*
X140353718Y-120430558D01*
X140496558Y-120287718D01*
X140516000Y-120258620D01*
X140516001Y-121252060D01*
X140484244Y-121265214D01*
X140316282Y-121377442D01*
X140173442Y-121520282D01*
X140061214Y-121688244D01*
X139983909Y-121874873D01*
X139944500Y-122072997D01*
X139944500Y-122275003D01*
X139983909Y-122473127D01*
X140061214Y-122659756D01*
X140173442Y-122827718D01*
X140316282Y-122970558D01*
X140484244Y-123082786D01*
X140670873Y-123160091D01*
X140868997Y-123199500D01*
X141071003Y-123199500D01*
X141269127Y-123160091D01*
X141455756Y-123082786D01*
X141623718Y-122970558D01*
X141766558Y-122827718D01*
X141878786Y-122659756D01*
X141956091Y-122473127D01*
X141995500Y-122275003D01*
X141995500Y-122072997D01*
X141956091Y-121874873D01*
X141878786Y-121688244D01*
X141766558Y-121520282D01*
X141623718Y-121377442D01*
X141455756Y-121265214D01*
X141424000Y-121252060D01*
X141424000Y-120258621D01*
X141443442Y-120287718D01*
X141586282Y-120430558D01*
X141754244Y-120542786D01*
X141940873Y-120620091D01*
X142138997Y-120659500D01*
X142341003Y-120659500D01*
X142539127Y-120620091D01*
X142725756Y-120542786D01*
X142893718Y-120430558D01*
X143036558Y-120287718D01*
X143056000Y-120258620D01*
X143056001Y-121252060D01*
X143024244Y-121265214D01*
X142856282Y-121377442D01*
X142713442Y-121520282D01*
X142601214Y-121688244D01*
X142523909Y-121874873D01*
X142484500Y-122072997D01*
X142484500Y-122275003D01*
X142523909Y-122473127D01*
X142601214Y-122659756D01*
X142713442Y-122827718D01*
X142856282Y-122970558D01*
X143024244Y-123082786D01*
X143210873Y-123160091D01*
X143408997Y-123199500D01*
X143611003Y-123199500D01*
X143809127Y-123160091D01*
X143995756Y-123082786D01*
X144163718Y-122970558D01*
X144306558Y-122827718D01*
X144418786Y-122659756D01*
X144496091Y-122473127D01*
X144535500Y-122275003D01*
X144535500Y-122072997D01*
X144496091Y-121874873D01*
X144418786Y-121688244D01*
X144306558Y-121520282D01*
X144163718Y-121377442D01*
X143995756Y-121265214D01*
X143964000Y-121252060D01*
X143964000Y-120258621D01*
X143983442Y-120287718D01*
X144126282Y-120430558D01*
X144294244Y-120542786D01*
X144480873Y-120620091D01*
X144678997Y-120659500D01*
X144881003Y-120659500D01*
X145079127Y-120620091D01*
X145265756Y-120542786D01*
X145433718Y-120430558D01*
X145576558Y-120287718D01*
X145596001Y-120258620D01*
X145596000Y-121252060D01*
X145564244Y-121265214D01*
X145396282Y-121377442D01*
X145253442Y-121520282D01*
X145141214Y-121688244D01*
X145063909Y-121874873D01*
X145024500Y-122072997D01*
X145024500Y-122275003D01*
X145063909Y-122473127D01*
X145141214Y-122659756D01*
X145253442Y-122827718D01*
X145396282Y-122970558D01*
X145564244Y-123082786D01*
X145750873Y-123160091D01*
X145948997Y-123199500D01*
X146151003Y-123199500D01*
X146349127Y-123160091D01*
X146535756Y-123082786D01*
X146703718Y-122970558D01*
X146846558Y-122827718D01*
X146958786Y-122659756D01*
X147036091Y-122473127D01*
X147075500Y-122275003D01*
X147075500Y-122072997D01*
X147036091Y-121874873D01*
X146958786Y-121688244D01*
X146846558Y-121520282D01*
X146703718Y-121377442D01*
X146535756Y-121265214D01*
X146504000Y-121252060D01*
X146504000Y-120258621D01*
X146523442Y-120287718D01*
X146666282Y-120430558D01*
X146834244Y-120542786D01*
X147020873Y-120620091D01*
X147218997Y-120659500D01*
X147421003Y-120659500D01*
X147619127Y-120620091D01*
X147805756Y-120542786D01*
X147973718Y-120430558D01*
X148116558Y-120287718D01*
X148136000Y-120258620D01*
X148136001Y-121252060D01*
X148104244Y-121265214D01*
X147936282Y-121377442D01*
X147793442Y-121520282D01*
X147681214Y-121688244D01*
X147603909Y-121874873D01*
X147564500Y-122072997D01*
X147564500Y-122275003D01*
X147603909Y-122473127D01*
X147681214Y-122659756D01*
X147793442Y-122827718D01*
X147936282Y-122970558D01*
X148104244Y-123082786D01*
X148290873Y-123160091D01*
X148488997Y-123199500D01*
X148691003Y-123199500D01*
X148889127Y-123160091D01*
X149075756Y-123082786D01*
X149243718Y-122970558D01*
X149386558Y-122827718D01*
X149498786Y-122659756D01*
X149576091Y-122473127D01*
X149615500Y-122275003D01*
X149615500Y-122072997D01*
X149576091Y-121874873D01*
X149498786Y-121688244D01*
X149386558Y-121520282D01*
X149243718Y-121377442D01*
X149075756Y-121265214D01*
X149044000Y-121252060D01*
X149044000Y-120258621D01*
X149063442Y-120287718D01*
X149206282Y-120430558D01*
X149374244Y-120542786D01*
X149560873Y-120620091D01*
X149758997Y-120659500D01*
X149961003Y-120659500D01*
X150159127Y-120620091D01*
X150345756Y-120542786D01*
X150513718Y-120430558D01*
X150656558Y-120287718D01*
X150676000Y-120258620D01*
X150676001Y-121252060D01*
X150644244Y-121265214D01*
X150476282Y-121377442D01*
X150333442Y-121520282D01*
X150221214Y-121688244D01*
X150143909Y-121874873D01*
X150104500Y-122072997D01*
X150104500Y-122275003D01*
X150143909Y-122473127D01*
X150221214Y-122659756D01*
X150333442Y-122827718D01*
X150476282Y-122970558D01*
X150644244Y-123082786D01*
X150830873Y-123160091D01*
X151028997Y-123199500D01*
X151231003Y-123199500D01*
X151429127Y-123160091D01*
X151615756Y-123082786D01*
X151783718Y-122970558D01*
X151926558Y-122827718D01*
X152038786Y-122659756D01*
X152116091Y-122473127D01*
X152155500Y-122275003D01*
X152155500Y-122072997D01*
X152116091Y-121874873D01*
X152038786Y-121688244D01*
X151926558Y-121520282D01*
X151783718Y-121377442D01*
X151615756Y-121265214D01*
X151584000Y-121252060D01*
X151584000Y-120258621D01*
X151603442Y-120287718D01*
X151746282Y-120430558D01*
X151914244Y-120542786D01*
X152100873Y-120620091D01*
X152298997Y-120659500D01*
X152501003Y-120659500D01*
X152699127Y-120620091D01*
X152885756Y-120542786D01*
X153053718Y-120430558D01*
X153196558Y-120287718D01*
X153216000Y-120258620D01*
X153216001Y-121252060D01*
X153184244Y-121265214D01*
X153016282Y-121377442D01*
X152873442Y-121520282D01*
X152761214Y-121688244D01*
X152683909Y-121874873D01*
X152644500Y-122072997D01*
X152644500Y-122275003D01*
X152683909Y-122473127D01*
X152761214Y-122659756D01*
X152873442Y-122827718D01*
X153016282Y-122970558D01*
X153184244Y-123082786D01*
X153370873Y-123160091D01*
X153568997Y-123199500D01*
X153771003Y-123199500D01*
X153969127Y-123160091D01*
X154155756Y-123082786D01*
X154323718Y-122970558D01*
X154466558Y-122827718D01*
X154578786Y-122659756D01*
X154656091Y-122473127D01*
X154695500Y-122275003D01*
X154695500Y-122072997D01*
X154656091Y-121874873D01*
X154578786Y-121688244D01*
X154466558Y-121520282D01*
X154323718Y-121377442D01*
X154155756Y-121265214D01*
X154124000Y-121252060D01*
X154124000Y-120258621D01*
X154143442Y-120287718D01*
X154286282Y-120430558D01*
X154454244Y-120542786D01*
X154640873Y-120620091D01*
X154838997Y-120659500D01*
X155041003Y-120659500D01*
X155239127Y-120620091D01*
X155425756Y-120542786D01*
X155593718Y-120430558D01*
X155736558Y-120287718D01*
X155846308Y-120123465D01*
X156049855Y-120327012D01*
X156303100Y-120496224D01*
X156584490Y-120612780D01*
X156883213Y-120672200D01*
X157187787Y-120672200D01*
X157486510Y-120612780D01*
X157767900Y-120496224D01*
X158021145Y-120327012D01*
X158236512Y-120111645D01*
X158405724Y-119858400D01*
X158522280Y-119577010D01*
X158581700Y-119278287D01*
X158581700Y-118973713D01*
X158522280Y-118674990D01*
X158405724Y-118393600D01*
X158236512Y-118140355D01*
X158021145Y-117924988D01*
X157767900Y-117755776D01*
X157486510Y-117639220D01*
X157187787Y-117579800D01*
X156883213Y-117579800D01*
X156584490Y-117639220D01*
X156303100Y-117755776D01*
X156049855Y-117924988D01*
X155834488Y-118140355D01*
X155665276Y-118393600D01*
X155548720Y-118674990D01*
X155525476Y-118791844D01*
X155425756Y-118725214D01*
X155239127Y-118647909D01*
X155041003Y-118608500D01*
X154838997Y-118608500D01*
X154640873Y-118647909D01*
X154454244Y-118725214D01*
X154433277Y-118739224D01*
X153806493Y-118112441D01*
X153969127Y-118080091D01*
X154155756Y-118002786D01*
X154323718Y-117890558D01*
X154466558Y-117747718D01*
X154578786Y-117579756D01*
X154656091Y-117393127D01*
X154695500Y-117195003D01*
X154695500Y-116992997D01*
X154656091Y-116794873D01*
X154578786Y-116608244D01*
X154466558Y-116440282D01*
X154323718Y-116297442D01*
X154155756Y-116185214D01*
X153969127Y-116107909D01*
X153771003Y-116068500D01*
X153568997Y-116068500D01*
X153370873Y-116107909D01*
X153184244Y-116185214D01*
X153062082Y-116266840D01*
X153038353Y-116222446D01*
X153023812Y-116195242D01*
X152967078Y-116126112D01*
X152949763Y-116111902D01*
X147403603Y-110565743D01*
X147389387Y-110548421D01*
X147320257Y-110491687D01*
X147241387Y-110449530D01*
X147155807Y-110423570D01*
X147089103Y-110417000D01*
X147089096Y-110417000D01*
X147066808Y-110414805D01*
X147044520Y-110417000D01*
X145237460Y-110417000D01*
X145190845Y-110370385D01*
X145085285Y-110299852D01*
X144967994Y-110251268D01*
X144843478Y-110226500D01*
X144716522Y-110226500D01*
X144592006Y-110251268D01*
X144474715Y-110299852D01*
X144369155Y-110370385D01*
X144346731Y-110392809D01*
X144313076Y-110359154D01*
X144207516Y-110288621D01*
X144090225Y-110240037D01*
X143965709Y-110215269D01*
X143838753Y-110215269D01*
X143714237Y-110240037D01*
X143596946Y-110288621D01*
X143491386Y-110359154D01*
X143446500Y-110404040D01*
X143412845Y-110370385D01*
X143307285Y-110299852D01*
X143189994Y-110251268D01*
X143065478Y-110226500D01*
X142938522Y-110226500D01*
X142814006Y-110251268D01*
X142696715Y-110299852D01*
X142591155Y-110370385D01*
X142568731Y-110392809D01*
X142535076Y-110359154D01*
X142429516Y-110288621D01*
X142312225Y-110240037D01*
X142187709Y-110215269D01*
X142060753Y-110215269D01*
X141936237Y-110240037D01*
X141818946Y-110288621D01*
X141713386Y-110359154D01*
X141668500Y-110404040D01*
X141634845Y-110370385D01*
X141529285Y-110299852D01*
X141411994Y-110251268D01*
X141287478Y-110226500D01*
X141160522Y-110226500D01*
X141036006Y-110251268D01*
X140918715Y-110299852D01*
X140813155Y-110370385D01*
X140790731Y-110392809D01*
X140757076Y-110359154D01*
X140651516Y-110288621D01*
X140534225Y-110240037D01*
X140409709Y-110215269D01*
X140282753Y-110215269D01*
X140158237Y-110240037D01*
X140040946Y-110288621D01*
X139935386Y-110359154D01*
X139890500Y-110404040D01*
X139856845Y-110370385D01*
X139751285Y-110299852D01*
X139633994Y-110251268D01*
X139509478Y-110226500D01*
X139382522Y-110226500D01*
X139258006Y-110251268D01*
X139140715Y-110299852D01*
X139035155Y-110370385D01*
X139012731Y-110392809D01*
X138979076Y-110359154D01*
X138873516Y-110288621D01*
X138756225Y-110240037D01*
X138631709Y-110215269D01*
X138504753Y-110215269D01*
X138380237Y-110240037D01*
X138262946Y-110288621D01*
X138157386Y-110359154D01*
X138112500Y-110404040D01*
X138078845Y-110370385D01*
X137973285Y-110299852D01*
X137855994Y-110251268D01*
X137731478Y-110226500D01*
X137604522Y-110226500D01*
X137480006Y-110251268D01*
X137362715Y-110299852D01*
X137257155Y-110370385D01*
X137223500Y-110404040D01*
X137189845Y-110370385D01*
X137084285Y-110299852D01*
X136966994Y-110251268D01*
X136842478Y-110226500D01*
X136715522Y-110226500D01*
X136591006Y-110251268D01*
X136473715Y-110299852D01*
X136368155Y-110370385D01*
X136334500Y-110404040D01*
X136300845Y-110370385D01*
X136195285Y-110299852D01*
X136077994Y-110251268D01*
X135953478Y-110226500D01*
X135826522Y-110226500D01*
X135702006Y-110251268D01*
X135584715Y-110299852D01*
X135479155Y-110370385D01*
X135389385Y-110460155D01*
X135318852Y-110565715D01*
X135270268Y-110683006D01*
X135245500Y-110807522D01*
X135245500Y-110934478D01*
X135270268Y-111058994D01*
X135318852Y-111176285D01*
X135389385Y-111281845D01*
X135436000Y-111328460D01*
X135436001Y-114658702D01*
X135433805Y-114681000D01*
X135442570Y-114769999D01*
X135468530Y-114855578D01*
X135468531Y-114855579D01*
X135510688Y-114934449D01*
X135567422Y-115003579D01*
X135584738Y-115017790D01*
X136706000Y-116139053D01*
X136706000Y-116469380D01*
X136686558Y-116440282D01*
X136543718Y-116297442D01*
X136375756Y-116185214D01*
X136189127Y-116107909D01*
X135991003Y-116068500D01*
X135788997Y-116068500D01*
X135590873Y-116107909D01*
X135404244Y-116185214D01*
X135236282Y-116297442D01*
X135093442Y-116440282D01*
X134981214Y-116608244D01*
X134903909Y-116794873D01*
X134864500Y-116992997D01*
X129311000Y-116992997D01*
X129311000Y-114387498D01*
X133241782Y-108737000D01*
X156318220Y-108737000D01*
X160249001Y-114387500D01*
G37*
%TD.AperFunction*%
D14*
X149438530Y-117776578D02*
X149458154Y-117813291D01*
X149480688Y-117855449D01*
X149537422Y-117924579D01*
X149554738Y-117938790D01*
X150337912Y-118721965D01*
X150159127Y-118647909D01*
X149961003Y-118608500D01*
X149758997Y-118608500D01*
X149560873Y-118647909D01*
X149374244Y-118725214D01*
X149206282Y-118837442D01*
X149063442Y-118980282D01*
X148965021Y-119127580D01*
X148912579Y-119063679D01*
X148895264Y-119049469D01*
X147774000Y-117928206D01*
X147774000Y-117718621D01*
X147793442Y-117747718D01*
X147936282Y-117890558D01*
X148104244Y-118002786D01*
X148290873Y-118080091D01*
X148488997Y-118119500D01*
X148691003Y-118119500D01*
X148889127Y-118080091D01*
X149075756Y-118002786D01*
X149243718Y-117890558D01*
X149386558Y-117747718D01*
X149416281Y-117703234D01*
X149438530Y-117776578D01*
%TA.AperFunction,NonConductor*%
D15*
G36*
X149438530Y-117776578D02*
G01*
X149458154Y-117813291D01*
X149480688Y-117855449D01*
X149537422Y-117924579D01*
X149554738Y-117938790D01*
X150337912Y-118721965D01*
X150159127Y-118647909D01*
X149961003Y-118608500D01*
X149758997Y-118608500D01*
X149560873Y-118647909D01*
X149374244Y-118725214D01*
X149206282Y-118837442D01*
X149063442Y-118980282D01*
X148965021Y-119127580D01*
X148912579Y-119063679D01*
X148895264Y-119049469D01*
X147774000Y-117928206D01*
X147774000Y-117718621D01*
X147793442Y-117747718D01*
X147936282Y-117890558D01*
X148104244Y-118002786D01*
X148290873Y-118080091D01*
X148488997Y-118119500D01*
X148691003Y-118119500D01*
X148889127Y-118080091D01*
X149075756Y-118002786D01*
X149243718Y-117890558D01*
X149386558Y-117747718D01*
X149416281Y-117703234D01*
X149438530Y-117776578D01*
G37*
%TD.AperFunction*%
D14*
X139008071Y-117960758D02*
X139034031Y-118046337D01*
X139052073Y-118080091D01*
X139076189Y-118125208D01*
X139132923Y-118194338D01*
X139150239Y-118208549D01*
X139558287Y-118616598D01*
X139400873Y-118647909D01*
X139214244Y-118725214D01*
X139046282Y-118837442D01*
X138903442Y-118980282D01*
X138884000Y-119009379D01*
X138884000Y-118767287D01*
X138886195Y-118744999D01*
X138884000Y-118722711D01*
X138884000Y-118722705D01*
X138877430Y-118656001D01*
X138874976Y-118647909D01*
X138851470Y-118570421D01*
X138840245Y-118549421D01*
X138809313Y-118491551D01*
X138788460Y-118466142D01*
X138766791Y-118439738D01*
X138766790Y-118439737D01*
X138752579Y-118422421D01*
X138735264Y-118408211D01*
X138446553Y-118119500D01*
X138531003Y-118119500D01*
X138729127Y-118080091D01*
X138915756Y-118002786D01*
X139006255Y-117942317D01*
X139008071Y-117960758D01*
%TA.AperFunction,NonConductor*%
D15*
G36*
X139008071Y-117960758D02*
G01*
X139034031Y-118046337D01*
X139052073Y-118080091D01*
X139076189Y-118125208D01*
X139132923Y-118194338D01*
X139150239Y-118208549D01*
X139558287Y-118616598D01*
X139400873Y-118647909D01*
X139214244Y-118725214D01*
X139046282Y-118837442D01*
X138903442Y-118980282D01*
X138884000Y-119009379D01*
X138884000Y-118767287D01*
X138886195Y-118744999D01*
X138884000Y-118722711D01*
X138884000Y-118722705D01*
X138877430Y-118656001D01*
X138874976Y-118647909D01*
X138851470Y-118570421D01*
X138840245Y-118549421D01*
X138809313Y-118491551D01*
X138788460Y-118466142D01*
X138766791Y-118439738D01*
X138766790Y-118439737D01*
X138752579Y-118422421D01*
X138735264Y-118408211D01*
X138446553Y-118119500D01*
X138531003Y-118119500D01*
X138729127Y-118080091D01*
X138915756Y-118002786D01*
X139006255Y-117942317D01*
X139008071Y-117960758D01*
G37*
%TD.AperFunction*%
D14*
X151750621Y-117951181D02*
X151776189Y-117999016D01*
X151783325Y-118007711D01*
X151815025Y-118046337D01*
X151832923Y-118068146D01*
X151850239Y-118082357D01*
X152376382Y-118608500D01*
X152298997Y-118608500D01*
X152100873Y-118647909D01*
X151914244Y-118725214D01*
X151746282Y-118837442D01*
X151603442Y-118980282D01*
X151584000Y-119009379D01*
X151584000Y-118894287D01*
X151586195Y-118871999D01*
X151584000Y-118849711D01*
X151584000Y-118849705D01*
X151577430Y-118783001D01*
X151565903Y-118744999D01*
X151551470Y-118697421D01*
X151525005Y-118647909D01*
X151509313Y-118618551D01*
X151469814Y-118570422D01*
X151466791Y-118566738D01*
X151466790Y-118566737D01*
X151452579Y-118549421D01*
X151435264Y-118535211D01*
X151017208Y-118117155D01*
X151028997Y-118119500D01*
X151231003Y-118119500D01*
X151429127Y-118080091D01*
X151615756Y-118002786D01*
X151735454Y-117922807D01*
X151750621Y-117951181D01*
%TA.AperFunction,NonConductor*%
D15*
G36*
X151750621Y-117951181D02*
G01*
X151776189Y-117999016D01*
X151783325Y-118007711D01*
X151815025Y-118046337D01*
X151832923Y-118068146D01*
X151850239Y-118082357D01*
X152376382Y-118608500D01*
X152298997Y-118608500D01*
X152100873Y-118647909D01*
X151914244Y-118725214D01*
X151746282Y-118837442D01*
X151603442Y-118980282D01*
X151584000Y-119009379D01*
X151584000Y-118894287D01*
X151586195Y-118871999D01*
X151584000Y-118849711D01*
X151584000Y-118849705D01*
X151577430Y-118783001D01*
X151565903Y-118744999D01*
X151551470Y-118697421D01*
X151525005Y-118647909D01*
X151509313Y-118618551D01*
X151469814Y-118570422D01*
X151466791Y-118566738D01*
X151466790Y-118566737D01*
X151452579Y-118549421D01*
X151435264Y-118535211D01*
X151017208Y-118117155D01*
X151028997Y-118119500D01*
X151231003Y-118119500D01*
X151429127Y-118080091D01*
X151615756Y-118002786D01*
X151735454Y-117922807D01*
X151750621Y-117951181D01*
G37*
%TD.AperFunction*%
D14*
X146866001Y-118093960D02*
X146863805Y-118116258D01*
X146872570Y-118205257D01*
X146898530Y-118290836D01*
X146903609Y-118300337D01*
X146940688Y-118369707D01*
X146997422Y-118438837D01*
X147014738Y-118453048D01*
X147178287Y-118616598D01*
X147020873Y-118647909D01*
X146834244Y-118725214D01*
X146817028Y-118736717D01*
X146191713Y-118111402D01*
X146349127Y-118080091D01*
X146535756Y-118002786D01*
X146703718Y-117890558D01*
X146846558Y-117747718D01*
X146866001Y-117718620D01*
X146866001Y-118093960D01*
%TA.AperFunction,NonConductor*%
D15*
G36*
X146866001Y-118093960D02*
G01*
X146863805Y-118116258D01*
X146872570Y-118205257D01*
X146898530Y-118290836D01*
X146903609Y-118300337D01*
X146940688Y-118369707D01*
X146997422Y-118438837D01*
X147014738Y-118453048D01*
X147178287Y-118616598D01*
X147020873Y-118647909D01*
X146834244Y-118725214D01*
X146817028Y-118736717D01*
X146191713Y-118111402D01*
X146349127Y-118080091D01*
X146535756Y-118002786D01*
X146703718Y-117890558D01*
X146846558Y-117747718D01*
X146866001Y-117718620D01*
X146866001Y-118093960D01*
G37*
%TD.AperFunction*%
D14*
X144156188Y-117992757D02*
X144212922Y-118061888D01*
X144230243Y-118076103D01*
X144762640Y-118608500D01*
X144678997Y-118608500D01*
X144480873Y-118647909D01*
X144294244Y-118725214D01*
X144277028Y-118736717D01*
X143651713Y-118111402D01*
X143809127Y-118080091D01*
X143995756Y-118002786D01*
X144117919Y-117921160D01*
X144156188Y-117992757D01*
%TA.AperFunction,NonConductor*%
D15*
G36*
X144156188Y-117992757D02*
G01*
X144212922Y-118061888D01*
X144230243Y-118076103D01*
X144762640Y-118608500D01*
X144678997Y-118608500D01*
X144480873Y-118647909D01*
X144294244Y-118725214D01*
X144277028Y-118736717D01*
X143651713Y-118111402D01*
X143809127Y-118080091D01*
X143995756Y-118002786D01*
X144117919Y-117921160D01*
X144156188Y-117992757D01*
G37*
%TD.AperFunction*%
D14*
X141548071Y-117960758D02*
X141574031Y-118046337D01*
X141592073Y-118080091D01*
X141616189Y-118125208D01*
X141672923Y-118194338D01*
X141690239Y-118208549D01*
X142098287Y-118616598D01*
X141940873Y-118647909D01*
X141754244Y-118725214D01*
X141737028Y-118736717D01*
X141111713Y-118111402D01*
X141269127Y-118080091D01*
X141455756Y-118002786D01*
X141546255Y-117942317D01*
X141548071Y-117960758D01*
%TA.AperFunction,NonConductor*%
D15*
G36*
X141548071Y-117960758D02*
G01*
X141574031Y-118046337D01*
X141592073Y-118080091D01*
X141616189Y-118125208D01*
X141672923Y-118194338D01*
X141690239Y-118208549D01*
X142098287Y-118616598D01*
X141940873Y-118647909D01*
X141754244Y-118725214D01*
X141737028Y-118736717D01*
X141111713Y-118111402D01*
X141269127Y-118080091D01*
X141455756Y-118002786D01*
X141546255Y-117942317D01*
X141548071Y-117960758D01*
G37*
%TD.AperFunction*%
D14*
X146866000Y-116330915D02*
X146866000Y-116469380D01*
X146846558Y-116440282D01*
X146703718Y-116297442D01*
X146535756Y-116185214D01*
X146349127Y-116107909D01*
X146151003Y-116068500D01*
X145948997Y-116068500D01*
X145750873Y-116107909D01*
X145564244Y-116185214D01*
X145478499Y-116242507D01*
X145478499Y-114943414D01*
X146866000Y-116330915D01*
%TA.AperFunction,NonConductor*%
D15*
G36*
X146866000Y-116330915D02*
G01*
X146866000Y-116469380D01*
X146846558Y-116440282D01*
X146703718Y-116297442D01*
X146535756Y-116185214D01*
X146349127Y-116107909D01*
X146151003Y-116068500D01*
X145948997Y-116068500D01*
X145750873Y-116107909D01*
X145564244Y-116185214D01*
X145478499Y-116242507D01*
X145478499Y-114943414D01*
X146866000Y-116330915D01*
G37*
%TD.AperFunction*%
D14*
X136357530Y-114099836D02*
X136358560Y-114101763D01*
X136399688Y-114178707D01*
X136456422Y-114247837D01*
X136473738Y-114262048D01*
X138288287Y-116076598D01*
X138130873Y-116107909D01*
X137944244Y-116185214D01*
X137776282Y-116297442D01*
X137633442Y-116440282D01*
X137614000Y-116469379D01*
X137614000Y-115973287D01*
X137616195Y-115950999D01*
X137614000Y-115928711D01*
X137614000Y-115928705D01*
X137607430Y-115862001D01*
X137581470Y-115776421D01*
X137539313Y-115697551D01*
X137482579Y-115628421D01*
X137465264Y-115614211D01*
X136344000Y-114492948D01*
X136344000Y-114055233D01*
X136357530Y-114099836D01*
%TA.AperFunction,NonConductor*%
D15*
G36*
X136357530Y-114099836D02*
G01*
X136358560Y-114101763D01*
X136399688Y-114178707D01*
X136456422Y-114247837D01*
X136473738Y-114262048D01*
X138288287Y-116076598D01*
X138130873Y-116107909D01*
X137944244Y-116185214D01*
X137776282Y-116297442D01*
X137633442Y-116440282D01*
X137614000Y-116469379D01*
X137614000Y-115973287D01*
X137616195Y-115950999D01*
X137614000Y-115928711D01*
X137614000Y-115928705D01*
X137607430Y-115862001D01*
X137581470Y-115776421D01*
X137539313Y-115697551D01*
X137482579Y-115628421D01*
X137465264Y-115614211D01*
X136344000Y-114492948D01*
X136344000Y-114055233D01*
X136357530Y-114099836D01*
G37*
%TD.AperFunction*%
D14*
X149067913Y-116181965D02*
X148889127Y-116107909D01*
X148691003Y-116068500D01*
X148488997Y-116068500D01*
X148290873Y-116107909D01*
X148104244Y-116185214D01*
X147936282Y-116297442D01*
X147793442Y-116440282D01*
X147774000Y-116469379D01*
X147774000Y-116165150D01*
X147776195Y-116142862D01*
X147774000Y-116120574D01*
X147774000Y-116120567D01*
X147767430Y-116053863D01*
X147763225Y-116039999D01*
X147741470Y-115968283D01*
X147732231Y-115950999D01*
X147703368Y-115897000D01*
X148782948Y-115897000D01*
X149067913Y-116181965D01*
%TA.AperFunction,NonConductor*%
D15*
G36*
X149067913Y-116181965D02*
G01*
X148889127Y-116107909D01*
X148691003Y-116068500D01*
X148488997Y-116068500D01*
X148290873Y-116107909D01*
X148104244Y-116185214D01*
X147936282Y-116297442D01*
X147793442Y-116440282D01*
X147774000Y-116469379D01*
X147774000Y-116165150D01*
X147776195Y-116142862D01*
X147774000Y-116120574D01*
X147774000Y-116120567D01*
X147767430Y-116053863D01*
X147763225Y-116039999D01*
X147741470Y-115968283D01*
X147732231Y-115950999D01*
X147703368Y-115897000D01*
X148782948Y-115897000D01*
X149067913Y-116181965D01*
G37*
%TD.AperFunction*%
D14*
X150988287Y-116076598D02*
X150830873Y-116107909D01*
X150644244Y-116185214D01*
X150476282Y-116297442D01*
X150333442Y-116440282D01*
X150314000Y-116469379D01*
X150314000Y-116354288D01*
X150316195Y-116332000D01*
X150314000Y-116309712D01*
X150314000Y-116309705D01*
X150307430Y-116243001D01*
X150292943Y-116195241D01*
X150281470Y-116157421D01*
X150264735Y-116126112D01*
X150239313Y-116078551D01*
X150182579Y-116009421D01*
X150165264Y-115995211D01*
X149613042Y-115442990D01*
X150354680Y-115442990D01*
X150988287Y-116076598D01*
%TA.AperFunction,NonConductor*%
D15*
G36*
X150988287Y-116076598D02*
G01*
X150830873Y-116107909D01*
X150644244Y-116185214D01*
X150476282Y-116297442D01*
X150333442Y-116440282D01*
X150314000Y-116469379D01*
X150314000Y-116354288D01*
X150316195Y-116332000D01*
X150314000Y-116309712D01*
X150314000Y-116309705D01*
X150307430Y-116243001D01*
X150292943Y-116195241D01*
X150281470Y-116157421D01*
X150264735Y-116126112D01*
X150239313Y-116078551D01*
X150182579Y-116009421D01*
X150165264Y-115995211D01*
X149613042Y-115442990D01*
X150354680Y-115442990D01*
X150988287Y-116076598D01*
G37*
%TD.AperFunction*%
D14*
X141541501Y-114744488D02*
X141541502Y-116242507D01*
X141455756Y-116185214D01*
X141269127Y-116107909D01*
X141071003Y-116068500D01*
X140868997Y-116068500D01*
X140670873Y-116107909D01*
X140484244Y-116185214D01*
X140398499Y-116242507D01*
X140398499Y-113601486D01*
X141541501Y-114744488D01*
%TA.AperFunction,NonConductor*%
D15*
G36*
X141541501Y-114744488D02*
G01*
X141541502Y-116242507D01*
X141455756Y-116185214D01*
X141269127Y-116107909D01*
X141071003Y-116068500D01*
X140868997Y-116068500D01*
X140670873Y-116107909D01*
X140484244Y-116185214D01*
X140398499Y-116242507D01*
X140398499Y-113601486D01*
X141541501Y-114744488D01*
G37*
%TD.AperFunction*%
D14*
X144081502Y-115324417D02*
X144081502Y-116242507D01*
X143995756Y-116185214D01*
X143809127Y-116107909D01*
X143611003Y-116068500D01*
X143408997Y-116068500D01*
X143210873Y-116107909D01*
X143024244Y-116185214D01*
X142938499Y-116242507D01*
X142938499Y-114181414D01*
X144081502Y-115324417D01*
%TA.AperFunction,NonConductor*%
D15*
G36*
X144081502Y-115324417D02*
G01*
X144081502Y-116242507D01*
X143995756Y-116185214D01*
X143809127Y-116107909D01*
X143611003Y-116068500D01*
X143408997Y-116068500D01*
X143210873Y-116107909D01*
X143024244Y-116185214D01*
X142938499Y-116242507D01*
X142938499Y-114181414D01*
X144081502Y-115324417D01*
G37*
%TD.AperFunction*%
D14*
X137257155Y-111371615D02*
X137362715Y-111442148D01*
X137480006Y-111490732D01*
X137604522Y-111515500D01*
X137670448Y-111515500D01*
X139490499Y-113335552D01*
X139490500Y-115994705D01*
X137233000Y-113737206D01*
X137233000Y-111347460D01*
X137257155Y-111371615D01*
%TA.AperFunction,NonConductor*%
D15*
G36*
X137257155Y-111371615D02*
G01*
X137362715Y-111442148D01*
X137480006Y-111490732D01*
X137604522Y-111515500D01*
X137670448Y-111515500D01*
X139490499Y-113335552D01*
X139490500Y-115994705D01*
X137233000Y-113737206D01*
X137233000Y-111347460D01*
X137257155Y-111371615D01*
G37*
%TD.AperFunction*%
D14*
X150088745Y-114534990D02*
X148132181Y-114534990D01*
X145052796Y-111455606D01*
X145085285Y-111442148D01*
X145190845Y-111371615D01*
X145237460Y-111325000D01*
X146878756Y-111325000D01*
X150088745Y-114534990D01*
%TA.AperFunction,NonConductor*%
D15*
G36*
X150088745Y-114534990D02*
G01*
X148132181Y-114534990D01*
X145052796Y-111455606D01*
X145085285Y-111442148D01*
X145190845Y-111371615D01*
X145237460Y-111325000D01*
X146878756Y-111325000D01*
X150088745Y-114534990D01*
G37*
%TD.AperFunction*%
M02*
