M48
; DRILL file {KiCad (5.1.10)-1} date 10/07/21 14:54:47
; FORMAT={-:-/ absolute / inch / decimal}
; #@! TF.CreationDate,2021-10-07T14:54:47-07:00
; #@! TF.GenerationSoftware,Kicad,Pcbnew,(5.1.10)-1
; #@! TF.FileFunction,Plated,1,2,PTH
FMAT,2
INCH
T1C0.0200
T2C0.0320
%
G90
G05
T1
X5.35Y-4.365
X5.385Y-4.365
X5.42Y-4.365
X5.4554Y-4.3646
X5.49Y-4.365
X5.5254Y-4.3646
X5.56Y-4.365
X5.5954Y-4.3646
X5.63Y-4.365
X5.6654Y-4.3646
X5.7Y-4.365
T2
X5.3Y-4.71
X5.35Y-4.61
X5.35Y-4.81
X5.4Y-4.71
X5.45Y-4.61
X5.45Y-4.81
X5.5Y-4.71
X5.55Y-4.61
X5.55Y-4.81
X5.6Y-4.71
X5.65Y-4.61
X5.65Y-4.81
X5.7Y-4.71
X5.75Y-4.61
X5.75Y-4.81
X5.8Y-4.71
X5.85Y-4.61
X5.85Y-4.81
X5.9Y-4.71
X5.95Y-4.61
X5.95Y-4.81
X6.0Y-4.71
X6.05Y-4.61
X6.05Y-4.81
X6.1Y-4.71
T0
M30
