%TF.GenerationSoftware,KiCad,Pcbnew,(5.1.10)-1*%
%TF.CreationDate,2021-10-07T14:53:58-07:00*%
%TF.ProjectId,RC_Filter_Dsub,52435f46-696c-4746-9572-5f447375622e,1*%
%TF.SameCoordinates,Original*%
%TF.FileFunction,Legend,Bot*%
%TF.FilePolarity,Positive*%
%FSLAX46Y46*%
G04 Gerber Fmt 4.6, Leading zero omitted, Abs format (unit mm)*
G04 Created by KiCad (PCBNEW (5.1.10)-1) date 2021-10-07 14:53:58*
%MOMM*%
%LPD*%
G01*
G04 APERTURE LIST*
%ADD10C,0.150000*%
%ADD11C,0.010000*%
G04 APERTURE END LIST*
D10*
X158646095Y-124372619D02*
X158741333Y-124325000D01*
X158836571Y-124229761D01*
X158979428Y-124086904D01*
X159074666Y-124039285D01*
X159169904Y-124039285D01*
X159122285Y-124277380D02*
X159217523Y-124229761D01*
X159312761Y-124134523D01*
X159360380Y-123944047D01*
X159360380Y-123610714D01*
X159312761Y-123420238D01*
X159217523Y-123325000D01*
X159122285Y-123277380D01*
X158931809Y-123277380D01*
X158836571Y-123325000D01*
X158741333Y-123420238D01*
X158693714Y-123610714D01*
X158693714Y-123944047D01*
X158741333Y-124134523D01*
X158836571Y-124229761D01*
X158931809Y-124277380D01*
X159122285Y-124277380D01*
X158265142Y-124277380D02*
X158265142Y-123277380D01*
X158027047Y-123277380D01*
X157884190Y-123325000D01*
X157788952Y-123420238D01*
X157741333Y-123515476D01*
X157693714Y-123705952D01*
X157693714Y-123848809D01*
X157741333Y-124039285D01*
X157788952Y-124134523D01*
X157884190Y-124229761D01*
X158027047Y-124277380D01*
X158265142Y-124277380D01*
X156884190Y-124229761D02*
X156979428Y-124277380D01*
X157169904Y-124277380D01*
X157265142Y-124229761D01*
X157312761Y-124134523D01*
X157312761Y-123753571D01*
X157265142Y-123658333D01*
X157169904Y-123610714D01*
X156979428Y-123610714D01*
X156884190Y-123658333D01*
X156836571Y-123753571D01*
X156836571Y-123848809D01*
X157312761Y-123944047D01*
X156503238Y-123610714D02*
X156265142Y-124277380D01*
X156027047Y-123610714D01*
X155598476Y-124229761D02*
X155598476Y-124277380D01*
X155646095Y-124372619D01*
X155693714Y-124420238D01*
X154408000Y-123277380D02*
X154408000Y-124086904D01*
X154360380Y-124182142D01*
X154312761Y-124229761D01*
X154217523Y-124277380D01*
X154027047Y-124277380D01*
X153931809Y-124229761D01*
X153884190Y-124182142D01*
X153836571Y-124086904D01*
X153836571Y-123277380D01*
X153027047Y-123753571D02*
X152884190Y-123801190D01*
X152836571Y-123848809D01*
X152788952Y-123944047D01*
X152788952Y-124086904D01*
X152836571Y-124182142D01*
X152884190Y-124229761D01*
X152979428Y-124277380D01*
X153360380Y-124277380D01*
X153360380Y-123277380D01*
X153027047Y-123277380D01*
X152931809Y-123325000D01*
X152884190Y-123372619D01*
X152836571Y-123467857D01*
X152836571Y-123563095D01*
X152884190Y-123658333D01*
X152931809Y-123705952D01*
X153027047Y-123753571D01*
X153360380Y-123753571D01*
X151788952Y-124182142D02*
X151836571Y-124229761D01*
X151979428Y-124277380D01*
X152074666Y-124277380D01*
X152217523Y-124229761D01*
X152312761Y-124134523D01*
X152360380Y-124039285D01*
X152408000Y-123848809D01*
X152408000Y-123705952D01*
X152360380Y-123515476D01*
X152312761Y-123420238D01*
X152217523Y-123325000D01*
X152074666Y-123277380D01*
X151979428Y-123277380D01*
X151836571Y-123325000D01*
X151788952Y-123372619D01*
X150646095Y-123372619D02*
X150598476Y-123325000D01*
X150503238Y-123277380D01*
X150265142Y-123277380D01*
X150169904Y-123325000D01*
X150122285Y-123372619D01*
X150074666Y-123467857D01*
X150074666Y-123563095D01*
X150122285Y-123705952D01*
X150693714Y-124277380D01*
X150074666Y-124277380D01*
X149455619Y-123277380D02*
X149360380Y-123277380D01*
X149265142Y-123325000D01*
X149217523Y-123372619D01*
X149169904Y-123467857D01*
X149122285Y-123658333D01*
X149122285Y-123896428D01*
X149169904Y-124086904D01*
X149217523Y-124182142D01*
X149265142Y-124229761D01*
X149360380Y-124277380D01*
X149455619Y-124277380D01*
X149550857Y-124229761D01*
X149598476Y-124182142D01*
X149646095Y-124086904D01*
X149693714Y-123896428D01*
X149693714Y-123658333D01*
X149646095Y-123467857D01*
X149598476Y-123372619D01*
X149550857Y-123325000D01*
X149455619Y-123277380D01*
X148741333Y-123372619D02*
X148693714Y-123325000D01*
X148598476Y-123277380D01*
X148360380Y-123277380D01*
X148265142Y-123325000D01*
X148217523Y-123372619D01*
X148169904Y-123467857D01*
X148169904Y-123563095D01*
X148217523Y-123705952D01*
X148788952Y-124277380D01*
X148169904Y-124277380D01*
X147217523Y-124277380D02*
X147788952Y-124277380D01*
X147503238Y-124277380D02*
X147503238Y-123277380D01*
X147598476Y-123420238D01*
X147693714Y-123515476D01*
X147788952Y-123563095D01*
D11*
%TO.C,U26*%
G36*
X132387500Y-112665449D02*
G01*
X132395230Y-112666042D01*
X132466606Y-112674589D01*
X132536551Y-112688445D01*
X132604799Y-112707443D01*
X132671082Y-112731420D01*
X132735136Y-112760208D01*
X132796692Y-112793643D01*
X132855485Y-112831560D01*
X132911249Y-112873794D01*
X132963717Y-112920178D01*
X133012622Y-112970547D01*
X133057698Y-113024737D01*
X133098679Y-113082582D01*
X133118958Y-113115188D01*
X133153708Y-113179214D01*
X133183230Y-113245215D01*
X133207453Y-113312970D01*
X133226309Y-113382255D01*
X133239728Y-113452848D01*
X133247640Y-113524524D01*
X133247935Y-113528804D01*
X133248909Y-113542147D01*
X133249886Y-113553296D01*
X133250756Y-113561124D01*
X133251407Y-113564505D01*
X133251434Y-113564539D01*
X133254618Y-113565629D01*
X133261782Y-113567330D01*
X133270978Y-113569196D01*
X133286689Y-113572315D01*
X133298359Y-113575165D01*
X133307522Y-113578342D01*
X133315714Y-113582445D01*
X133324471Y-113588071D01*
X133330555Y-113592369D01*
X133342932Y-113602005D01*
X133351502Y-113610683D01*
X133357595Y-113619783D01*
X133358326Y-113621168D01*
X133360588Y-113625749D01*
X133362330Y-113630094D01*
X133363631Y-113635012D01*
X133364569Y-113641309D01*
X133365226Y-113649793D01*
X133365679Y-113661271D01*
X133366009Y-113676550D01*
X133366295Y-113696437D01*
X133366379Y-113703012D01*
X133366632Y-113724344D01*
X133366740Y-113740923D01*
X133366639Y-113753639D01*
X133366262Y-113763382D01*
X133365543Y-113771043D01*
X133364415Y-113777513D01*
X133362814Y-113783683D01*
X133360673Y-113790442D01*
X133359683Y-113793412D01*
X133349911Y-113819181D01*
X133338957Y-113840502D01*
X133325946Y-113858371D01*
X133310004Y-113873783D01*
X133290253Y-113887732D01*
X133265819Y-113901216D01*
X133264122Y-113902063D01*
X133249554Y-113909559D01*
X133235487Y-113917259D01*
X133223359Y-113924345D01*
X133214610Y-113930000D01*
X133213397Y-113930883D01*
X133201638Y-113938331D01*
X133192085Y-113941492D01*
X133190567Y-113941578D01*
X133186616Y-113941882D01*
X133183450Y-113943404D01*
X133180373Y-113947056D01*
X133176687Y-113953752D01*
X133171695Y-113964405D01*
X133169576Y-113969095D01*
X133137497Y-114033528D01*
X133100725Y-114095013D01*
X133059498Y-114153310D01*
X133014056Y-114208179D01*
X132964638Y-114259383D01*
X132911482Y-114306681D01*
X132854829Y-114349835D01*
X132794918Y-114388606D01*
X132731987Y-114422755D01*
X132701178Y-114437255D01*
X132690049Y-114442357D01*
X132681650Y-114446748D01*
X132674735Y-114451411D01*
X132668059Y-114457332D01*
X132660376Y-114465495D01*
X132650440Y-114476884D01*
X132649165Y-114478365D01*
X132624253Y-114507328D01*
X132632667Y-114509508D01*
X132640151Y-114513467D01*
X132646291Y-114519916D01*
X132653634Y-114528524D01*
X132665817Y-114539024D01*
X132682461Y-114551154D01*
X132703185Y-114564655D01*
X132727610Y-114579266D01*
X132755358Y-114594729D01*
X132755922Y-114595033D01*
X132787479Y-114612241D01*
X132815076Y-114627753D01*
X132839870Y-114642256D01*
X132863019Y-114656438D01*
X132885682Y-114670984D01*
X132899791Y-114680350D01*
X132917408Y-114691639D01*
X132937819Y-114703870D01*
X132958740Y-114715721D01*
X132977888Y-114725870D01*
X132981700Y-114727775D01*
X133000281Y-114737008D01*
X133021278Y-114747567D01*
X133042354Y-114758269D01*
X133061176Y-114767934D01*
X133064608Y-114769714D01*
X133081427Y-114778249D01*
X133099445Y-114787052D01*
X133116789Y-114795229D01*
X133131586Y-114801885D01*
X133135163Y-114803416D01*
X133172003Y-114819407D01*
X133205636Y-114835118D01*
X133237582Y-114851354D01*
X133269363Y-114868919D01*
X133302499Y-114888617D01*
X133335600Y-114909384D01*
X133353374Y-114921167D01*
X133366573Y-114930934D01*
X133375689Y-114939155D01*
X133381215Y-114946301D01*
X133383642Y-114952841D01*
X133383856Y-114955462D01*
X133385619Y-114959642D01*
X133387603Y-114960400D01*
X133398720Y-114961213D01*
X133413381Y-114963397D01*
X133429765Y-114966567D01*
X133446051Y-114970342D01*
X133460417Y-114974337D01*
X133470064Y-114977748D01*
X133484387Y-114984326D01*
X133494080Y-114990522D01*
X133499984Y-114997336D01*
X133502942Y-115005766D01*
X133503798Y-115016814D01*
X133503801Y-115017778D01*
X133503376Y-115027068D01*
X133501807Y-115035819D01*
X133498633Y-115045711D01*
X133493393Y-115058426D01*
X133491474Y-115062762D01*
X133485675Y-115074804D01*
X133479832Y-115085344D01*
X133474756Y-115092996D01*
X133472126Y-115095867D01*
X133465011Y-115099607D01*
X133455366Y-115102517D01*
X133451399Y-115103216D01*
X133437705Y-115105032D01*
X133441623Y-115114410D01*
X133443793Y-115121862D01*
X133445841Y-115132718D01*
X133447354Y-115144742D01*
X133447450Y-115145810D01*
X133448250Y-115157752D01*
X133447960Y-115166320D01*
X133446281Y-115173727D01*
X133442915Y-115182188D01*
X133442394Y-115183356D01*
X133433875Y-115198204D01*
X133423154Y-115208901D01*
X133409545Y-115215799D01*
X133392360Y-115219251D01*
X133371630Y-115219638D01*
X133347660Y-115218634D01*
X133340455Y-115233325D01*
X133332832Y-115245791D01*
X133323808Y-115253614D01*
X133311911Y-115257785D01*
X133302383Y-115258976D01*
X133277248Y-115258056D01*
X133251265Y-115251885D01*
X133232564Y-115244330D01*
X133219628Y-115237377D01*
X133209957Y-115229819D01*
X133202550Y-115220396D01*
X133196402Y-115207845D01*
X133190761Y-115191697D01*
X133185997Y-115178091D01*
X133180300Y-115164102D01*
X133174774Y-115152408D01*
X133173894Y-115150774D01*
X133169310Y-115143218D01*
X133164386Y-115137263D01*
X133158257Y-115132489D01*
X133150056Y-115128478D01*
X133138920Y-115124810D01*
X133123982Y-115121065D01*
X133104376Y-115116824D01*
X133103485Y-115116639D01*
X133089406Y-115113460D01*
X133074678Y-115109580D01*
X133071086Y-115108505D01*
X133206471Y-115108505D01*
X133207584Y-115115660D01*
X133210689Y-115123776D01*
X133215620Y-115133550D01*
X133221859Y-115146652D01*
X133227885Y-115161503D01*
X133231787Y-115172963D01*
X133236054Y-115185893D01*
X133240458Y-115194689D01*
X133246169Y-115200766D01*
X133254357Y-115205539D01*
X133261100Y-115208428D01*
X133274482Y-115212637D01*
X133286439Y-115214245D01*
X133295832Y-115213235D01*
X133301522Y-115209594D01*
X133301923Y-115208941D01*
X133304044Y-115204485D01*
X133303917Y-115201434D01*
X133300676Y-115198697D01*
X133293453Y-115195188D01*
X133289601Y-115193477D01*
X133276203Y-115186589D01*
X133267704Y-115179664D01*
X133263404Y-115171969D01*
X133262511Y-115165216D01*
X133265068Y-115155652D01*
X133271739Y-115148142D01*
X133281025Y-115144144D01*
X133284473Y-115143845D01*
X133289628Y-115144972D01*
X133298689Y-115148054D01*
X133310455Y-115152643D01*
X133323727Y-115158294D01*
X133326134Y-115159367D01*
X133341424Y-115166049D01*
X133352945Y-115170554D01*
X133361955Y-115173269D01*
X133369713Y-115174584D01*
X133376520Y-115174889D01*
X133389567Y-115173748D01*
X133397956Y-115169924D01*
X133402274Y-115162817D01*
X133403109Y-115151827D01*
X133402806Y-115148038D01*
X133399642Y-115131952D01*
X133393846Y-115120592D01*
X133385214Y-115113587D01*
X133383294Y-115112741D01*
X133371164Y-115106057D01*
X133361958Y-115097261D01*
X133358133Y-115090653D01*
X133357068Y-115081067D01*
X133359739Y-115070036D01*
X133365488Y-115059659D01*
X133369107Y-115055566D01*
X133378056Y-115048909D01*
X133387628Y-115046216D01*
X133399079Y-115047381D01*
X133412578Y-115051858D01*
X133425372Y-115056712D01*
X133434389Y-115058847D01*
X133440837Y-115057729D01*
X133445924Y-115052825D01*
X133450859Y-115043600D01*
X133455434Y-115032935D01*
X133459894Y-115022214D01*
X133447986Y-115017121D01*
X133440309Y-115014643D01*
X133428725Y-115011867D01*
X133414930Y-115009168D01*
X133403304Y-115007295D01*
X133389445Y-115005192D01*
X133376878Y-115003101D01*
X133367104Y-115001284D01*
X133362073Y-115000136D01*
X133357954Y-114999397D01*
X133353585Y-114999971D01*
X133347925Y-115002315D01*
X133339932Y-115006882D01*
X133328564Y-115014126D01*
X133325703Y-115015995D01*
X133311792Y-115024687D01*
X133294982Y-115034557D01*
X133277463Y-115044346D01*
X133262511Y-115052249D01*
X133244340Y-115061701D01*
X133230662Y-115069408D01*
X133220821Y-115075937D01*
X133214162Y-115081854D01*
X133210027Y-115087726D01*
X133207760Y-115094119D01*
X133206821Y-115100303D01*
X133206471Y-115108505D01*
X133071086Y-115108505D01*
X133058492Y-115104737D01*
X133040039Y-115098667D01*
X133018510Y-115091110D01*
X132993095Y-115081802D01*
X132974645Y-115074891D01*
X132959572Y-115069229D01*
X132942997Y-115063036D01*
X132927850Y-115057404D01*
X132923845Y-115055922D01*
X132913659Y-115051924D01*
X132899625Y-115046082D01*
X132883009Y-115038941D01*
X132865077Y-115031047D01*
X132847095Y-115022942D01*
X132846234Y-115022549D01*
X132820451Y-115010846D01*
X132799501Y-115001525D01*
X132783146Y-114994488D01*
X132771148Y-114989635D01*
X132763269Y-114986869D01*
X132759272Y-114986091D01*
X132758740Y-114986275D01*
X132758473Y-114989373D01*
X132758559Y-114997073D01*
X132758967Y-115008343D01*
X132759664Y-115022154D01*
X132760024Y-115028272D01*
X132761007Y-115044705D01*
X132762180Y-115064940D01*
X132763440Y-115087146D01*
X132764682Y-115109489D01*
X132765630Y-115126912D01*
X132767329Y-115154101D01*
X132769457Y-115181055D01*
X132771920Y-115206999D01*
X132774625Y-115231157D01*
X132777477Y-115252755D01*
X132780382Y-115271015D01*
X132783246Y-115285165D01*
X132785900Y-115294233D01*
X132789024Y-115303354D01*
X132790969Y-115311251D01*
X132791279Y-115313988D01*
X132792056Y-115318867D01*
X132794138Y-115328001D01*
X132797238Y-115340232D01*
X132801070Y-115354399D01*
X132802572Y-115359745D01*
X132807739Y-115377971D01*
X132813458Y-115398177D01*
X132819023Y-115417870D01*
X132823624Y-115434180D01*
X132828071Y-115449406D01*
X132831784Y-115460408D01*
X132835332Y-115468455D01*
X132839284Y-115474815D01*
X132844207Y-115480756D01*
X132844787Y-115481389D01*
X132852714Y-115491645D01*
X132855769Y-115500428D01*
X132854162Y-115508720D01*
X132851585Y-115513118D01*
X132849456Y-115516547D01*
X132848480Y-115520056D01*
X132848764Y-115524910D01*
X132850412Y-115532375D01*
X132853532Y-115543716D01*
X132854400Y-115546766D01*
X132856347Y-115554631D01*
X132857192Y-115561868D01*
X132856945Y-115570259D01*
X132855614Y-115581583D01*
X132854627Y-115588361D01*
X132850141Y-115610456D01*
X132843847Y-115627693D01*
X132835356Y-115640677D01*
X132824280Y-115650015D01*
X132811213Y-115655993D01*
X132803432Y-115658000D01*
X132791529Y-115660372D01*
X132776993Y-115662843D01*
X132761310Y-115665142D01*
X132757765Y-115665611D01*
X132743342Y-115667565D01*
X132730994Y-115669414D01*
X132721768Y-115670986D01*
X132716708Y-115672111D01*
X132716099Y-115672384D01*
X132714359Y-115676515D01*
X132712090Y-115685581D01*
X132709396Y-115698906D01*
X132706381Y-115715816D01*
X132703151Y-115735634D01*
X132699809Y-115757688D01*
X132696460Y-115781301D01*
X132693209Y-115805800D01*
X132690160Y-115830509D01*
X132687418Y-115854753D01*
X132686497Y-115863512D01*
X132684503Y-115883470D01*
X132683049Y-115899942D01*
X132682102Y-115914303D01*
X132681630Y-115927928D01*
X132681597Y-115942193D01*
X132681973Y-115958473D01*
X132682723Y-115978144D01*
X132683375Y-115992951D01*
X132684274Y-116012038D01*
X132685152Y-116029170D01*
X132685962Y-116043567D01*
X132686659Y-116054450D01*
X132687198Y-116061041D01*
X132687464Y-116062694D01*
X132690455Y-116062554D01*
X132697747Y-116061396D01*
X132708130Y-116059430D01*
X132716539Y-116057694D01*
X132735868Y-116054452D01*
X132756989Y-116052407D01*
X132778949Y-116051507D01*
X132800799Y-116051703D01*
X132821587Y-116052943D01*
X132840363Y-116055176D01*
X132856174Y-116058353D01*
X132868070Y-116062423D01*
X132873896Y-116066070D01*
X132877641Y-116069871D01*
X132880609Y-116074245D01*
X132883121Y-116080163D01*
X132885499Y-116088598D01*
X132888065Y-116100521D01*
X132891139Y-116116905D01*
X132891657Y-116119771D01*
X132896585Y-116152135D01*
X132899602Y-116183418D01*
X132900744Y-116212998D01*
X132900049Y-116240249D01*
X132897552Y-116264548D01*
X132893291Y-116285271D01*
X132887302Y-116301794D01*
X132880337Y-116312704D01*
X132870855Y-116321880D01*
X132858281Y-116331870D01*
X132844658Y-116341153D01*
X132833781Y-116347350D01*
X132812389Y-116356462D01*
X132787229Y-116364504D01*
X132759983Y-116371130D01*
X132732335Y-116375997D01*
X132705970Y-116378759D01*
X132682570Y-116379071D01*
X132679722Y-116378906D01*
X132664428Y-116377366D01*
X132646783Y-116374795D01*
X132628211Y-116371481D01*
X132610138Y-116367711D01*
X132593986Y-116363775D01*
X132581182Y-116359960D01*
X132575758Y-116357875D01*
X132560771Y-116348226D01*
X132547288Y-116333404D01*
X132535526Y-116313730D01*
X132525703Y-116289527D01*
X132522537Y-116279251D01*
X132517974Y-116255341D01*
X132516741Y-116227290D01*
X132518840Y-116194949D01*
X132522818Y-116166477D01*
X132527650Y-116133171D01*
X132531495Y-116096571D01*
X132534436Y-116055785D01*
X132535755Y-116030023D01*
X132536561Y-116015051D01*
X132537792Y-115996082D01*
X132539332Y-115974736D01*
X132541063Y-115952633D01*
X132542869Y-115931394D01*
X132542971Y-115930251D01*
X132547031Y-115868254D01*
X132548530Y-115801879D01*
X132548538Y-115797606D01*
X132548678Y-115771471D01*
X132549077Y-115750316D01*
X132549768Y-115733483D01*
X132550779Y-115720312D01*
X132552143Y-115710144D01*
X132552771Y-115706879D01*
X132554825Y-115697042D01*
X132556317Y-115689622D01*
X132556951Y-115686103D01*
X132556956Y-115686029D01*
X132554305Y-115685674D01*
X132546937Y-115685979D01*
X132535733Y-115686865D01*
X132521572Y-115688248D01*
X132505332Y-115690049D01*
X132487894Y-115692186D01*
X132482167Y-115692932D01*
X132469368Y-115694374D01*
X132452440Y-115695915D01*
X132432893Y-115697436D01*
X132412239Y-115698820D01*
X132391989Y-115699950D01*
X132391856Y-115699957D01*
X132361363Y-115701697D01*
X132334621Y-115703805D01*
X132309735Y-115706483D01*
X132284816Y-115709933D01*
X132259421Y-115714104D01*
X132241959Y-115717145D01*
X132235292Y-115758578D01*
X132230015Y-115799979D01*
X132227458Y-115842433D01*
X132227571Y-115887370D01*
X132229451Y-115924649D01*
X132231663Y-115961592D01*
X132232790Y-115993969D01*
X132232711Y-116022776D01*
X132231304Y-116049008D01*
X132228447Y-116073660D01*
X132224017Y-116097729D01*
X132217893Y-116122209D01*
X132209952Y-116148097D01*
X132200072Y-116176388D01*
X132197853Y-116182423D01*
X132181775Y-116222197D01*
X132164713Y-116257056D01*
X132146246Y-116287700D01*
X132125953Y-116314829D01*
X132104011Y-116338562D01*
X132082990Y-116357281D01*
X132060473Y-116374081D01*
X132037327Y-116388504D01*
X132014423Y-116400090D01*
X131992630Y-116408381D01*
X131972818Y-116412919D01*
X131961660Y-116413643D01*
X131953513Y-116412915D01*
X131941672Y-116411110D01*
X131927919Y-116408525D01*
X131917722Y-116406321D01*
X131887937Y-116397993D01*
X131862629Y-116387452D01*
X131840870Y-116374112D01*
X131821735Y-116357389D01*
X131804296Y-116336700D01*
X131801827Y-116333300D01*
X131790802Y-116316726D01*
X131783569Y-116302891D01*
X131779727Y-116290753D01*
X131778877Y-116279268D01*
X131779309Y-116274448D01*
X131781272Y-116263016D01*
X131784235Y-116252812D01*
X131788649Y-116243433D01*
X131794961Y-116234480D01*
X131803619Y-116225553D01*
X131815073Y-116216250D01*
X131829771Y-116206171D01*
X131848162Y-116194916D01*
X131870693Y-116182084D01*
X131897813Y-116167275D01*
X131901626Y-116165223D01*
X131918081Y-116156525D01*
X131930572Y-116150325D01*
X131939997Y-116146250D01*
X131947252Y-116143928D01*
X131953235Y-116142988D01*
X131955454Y-116142915D01*
X131967786Y-116142912D01*
X131966029Y-116113984D01*
X131965042Y-116094523D01*
X131964207Y-116071676D01*
X131963528Y-116046313D01*
X131963009Y-116019306D01*
X131962656Y-115991527D01*
X131962474Y-115963847D01*
X131962467Y-115937138D01*
X131962640Y-115912271D01*
X131962998Y-115890118D01*
X131963546Y-115871550D01*
X131964288Y-115857439D01*
X131964602Y-115853634D01*
X131966372Y-115833721D01*
X131967449Y-115818121D01*
X131967875Y-115805550D01*
X131967694Y-115794725D01*
X131966963Y-115784489D01*
X131966935Y-115775348D01*
X131968186Y-115767242D01*
X131969118Y-115762816D01*
X131967734Y-115760372D01*
X131962818Y-115758952D01*
X131956529Y-115758038D01*
X131942783Y-115754165D01*
X131933320Y-115746846D01*
X131928563Y-115737141D01*
X131928119Y-115730461D01*
X131928737Y-115719290D01*
X131930011Y-115707050D01*
X131975578Y-115707050D01*
X131975578Y-115714608D01*
X132005917Y-115712695D01*
X132021862Y-115711553D01*
X132038940Y-115710110D01*
X132054400Y-115708607D01*
X132060225Y-115707960D01*
X132075634Y-115705800D01*
X132095356Y-115702499D01*
X132118228Y-115698282D01*
X132143087Y-115693376D01*
X132168771Y-115688005D01*
X132194115Y-115682394D01*
X132204178Y-115680067D01*
X132244399Y-115671459D01*
X132282970Y-115665025D01*
X132322250Y-115660433D01*
X132364596Y-115657352D01*
X132366456Y-115657252D01*
X132386169Y-115656014D01*
X132409767Y-115654229D01*
X132435532Y-115652044D01*
X132461748Y-115649609D01*
X132486698Y-115647072D01*
X132496278Y-115646024D01*
X132518650Y-115643573D01*
X132541565Y-115641164D01*
X132563684Y-115638930D01*
X132583667Y-115637006D01*
X132600175Y-115635524D01*
X132607756Y-115634910D01*
X132630695Y-115633112D01*
X132648495Y-115631574D01*
X132661649Y-115630235D01*
X132670654Y-115629037D01*
X132676004Y-115627920D01*
X132678196Y-115626825D01*
X132678311Y-115626492D01*
X132680057Y-115623254D01*
X132684347Y-115617951D01*
X132685232Y-115616979D01*
X132694266Y-115610683D01*
X132704033Y-115609737D01*
X132713477Y-115614138D01*
X132716626Y-115617066D01*
X132723627Y-115624620D01*
X132753685Y-115621126D01*
X132772719Y-115618484D01*
X132786781Y-115615459D01*
X132796544Y-115611818D01*
X132802678Y-115607331D01*
X132805284Y-115603308D01*
X132808109Y-115594255D01*
X132810214Y-115582852D01*
X132811378Y-115571151D01*
X132811379Y-115561203D01*
X132810411Y-115555929D01*
X132808466Y-115550050D01*
X132805598Y-115540414D01*
X132802307Y-115528723D01*
X132800946Y-115523715D01*
X132794203Y-115498597D01*
X132763774Y-115469919D01*
X132751883Y-115458751D01*
X132740404Y-115448037D01*
X132730460Y-115438821D01*
X132723173Y-115432146D01*
X132721746Y-115430861D01*
X132710148Y-115420481D01*
X132696178Y-115449380D01*
X132689440Y-115463543D01*
X132682617Y-115478258D01*
X132676696Y-115491383D01*
X132673910Y-115497782D01*
X132664920Y-115515663D01*
X132655533Y-115527954D01*
X132645710Y-115534694D01*
X132638300Y-115536134D01*
X132633980Y-115535541D01*
X132628531Y-115533496D01*
X132621273Y-115529597D01*
X132611522Y-115523444D01*
X132598596Y-115514636D01*
X132583273Y-115503815D01*
X132567250Y-115492100D01*
X132551005Y-115479719D01*
X132535813Y-115467679D01*
X132522950Y-115456986D01*
X132514975Y-115449874D01*
X132491991Y-115428253D01*
X132478612Y-115439066D01*
X132462469Y-115452338D01*
X132449547Y-115463672D01*
X132438785Y-115474256D01*
X132429121Y-115485277D01*
X132419492Y-115497920D01*
X132408835Y-115513374D01*
X132399802Y-115527103D01*
X132387847Y-115545180D01*
X132378206Y-115558907D01*
X132370332Y-115568799D01*
X132363680Y-115575374D01*
X132357704Y-115579147D01*
X132351859Y-115580636D01*
X132345599Y-115580355D01*
X132343859Y-115580061D01*
X132334939Y-115576952D01*
X132322530Y-115570562D01*
X132307333Y-115561392D01*
X132290049Y-115549941D01*
X132271379Y-115536710D01*
X132252027Y-115522199D01*
X132232692Y-115506907D01*
X132214076Y-115491335D01*
X132196882Y-115475983D01*
X132193765Y-115473068D01*
X132181941Y-115461916D01*
X132157076Y-115484043D01*
X132144431Y-115495502D01*
X132129854Y-115509029D01*
X132115407Y-115522698D01*
X132106106Y-115531680D01*
X132095276Y-115542401D01*
X132087919Y-115550183D01*
X132083375Y-115555937D01*
X132080985Y-115560569D01*
X132080092Y-115564989D01*
X132080000Y-115567696D01*
X132079870Y-115572501D01*
X132078966Y-115576283D01*
X132076515Y-115579826D01*
X132071745Y-115583915D01*
X132063884Y-115589333D01*
X132052159Y-115596864D01*
X132049783Y-115598375D01*
X132034990Y-115606221D01*
X132022921Y-115609261D01*
X132013659Y-115607510D01*
X132007285Y-115600980D01*
X132004071Y-115590937D01*
X132003269Y-115587021D01*
X132002341Y-115585643D01*
X132001041Y-115587374D01*
X131999122Y-115592783D01*
X131996339Y-115602441D01*
X131992446Y-115616918D01*
X131991791Y-115619389D01*
X131985624Y-115644189D01*
X131980781Y-115666814D01*
X131977433Y-115686350D01*
X131975748Y-115701879D01*
X131975578Y-115707050D01*
X131930011Y-115707050D01*
X131930262Y-115704647D01*
X131932537Y-115687552D01*
X131935406Y-115669025D01*
X131938714Y-115650085D01*
X131942304Y-115631752D01*
X131946020Y-115615047D01*
X131949049Y-115603286D01*
X131956130Y-115577107D01*
X131963019Y-115549990D01*
X131969417Y-115523231D01*
X131975023Y-115498124D01*
X131979536Y-115475964D01*
X131982391Y-115459754D01*
X131985126Y-115446648D01*
X131989697Y-115429572D01*
X131995704Y-115409739D01*
X132002745Y-115388360D01*
X132010419Y-115366648D01*
X132018324Y-115345815D01*
X132026059Y-115327073D01*
X132027202Y-115324467D01*
X132030349Y-115316652D01*
X132034781Y-115304692D01*
X132040058Y-115289816D01*
X132045743Y-115273254D01*
X132050311Y-115259556D01*
X132056291Y-115241534D01*
X132062455Y-115223249D01*
X132068280Y-115206229D01*
X132073246Y-115192000D01*
X132075893Y-115184624D01*
X132081030Y-115169720D01*
X132086241Y-115153192D01*
X132090563Y-115138127D01*
X132091319Y-115135235D01*
X132099004Y-115109861D01*
X132109359Y-115082630D01*
X132121411Y-115055994D01*
X132127350Y-115044442D01*
X132132485Y-115034655D01*
X132135396Y-115027975D01*
X132135653Y-115024356D01*
X132132824Y-115023753D01*
X132126480Y-115026119D01*
X132116188Y-115031411D01*
X132101520Y-115039581D01*
X132098345Y-115041374D01*
X132086951Y-115047793D01*
X132072900Y-115055679D01*
X132058465Y-115063755D01*
X132051778Y-115067486D01*
X132019324Y-115086375D01*
X131985656Y-115107616D01*
X131966357Y-115120445D01*
X131933975Y-115142217D01*
X131905557Y-115161075D01*
X131880465Y-115177379D01*
X131858064Y-115191487D01*
X131837716Y-115203759D01*
X131818786Y-115214553D01*
X131800637Y-115224229D01*
X131782634Y-115233144D01*
X131764140Y-115241659D01*
X131744518Y-115250132D01*
X131723132Y-115258923D01*
X131715372Y-115262037D01*
X131696079Y-115269677D01*
X131680858Y-115275515D01*
X131668579Y-115279934D01*
X131658112Y-115283320D01*
X131648327Y-115286056D01*
X131638092Y-115288529D01*
X131636385Y-115288915D01*
X131631336Y-115290704D01*
X131629752Y-115294199D01*
X131630353Y-115300174D01*
X131630532Y-115306683D01*
X131628647Y-115314178D01*
X131624243Y-115324167D01*
X131621397Y-115329724D01*
X131610496Y-115347773D01*
X131599081Y-115360838D01*
X131586641Y-115369031D01*
X131572665Y-115372462D01*
X131556643Y-115371242D01*
X131538065Y-115365483D01*
X131516421Y-115355294D01*
X131512778Y-115353336D01*
X131481945Y-115336530D01*
X131472176Y-115343481D01*
X131461779Y-115348813D01*
X131450665Y-115349988D01*
X131437763Y-115346963D01*
X131425898Y-115341730D01*
X131412668Y-115333658D01*
X131399298Y-115323078D01*
X131386644Y-115310951D01*
X131375565Y-115298236D01*
X131366917Y-115285895D01*
X131361559Y-115274887D01*
X131360216Y-115268176D01*
X131359613Y-115264807D01*
X131357363Y-115261662D01*
X131352624Y-115258131D01*
X131344553Y-115253608D01*
X131332308Y-115247486D01*
X131329877Y-115246303D01*
X131305617Y-115233865D01*
X131285283Y-115222048D01*
X131269228Y-115211096D01*
X131257801Y-115201253D01*
X131251352Y-115192763D01*
X131250693Y-115191255D01*
X131248824Y-115185466D01*
X131248499Y-115180529D01*
X131249955Y-115174900D01*
X131298245Y-115174900D01*
X131300683Y-115177755D01*
X131307651Y-115182800D01*
X131318631Y-115189704D01*
X131333102Y-115198134D01*
X131344496Y-115204472D01*
X131354176Y-115209644D01*
X131361284Y-115212683D01*
X131367880Y-115214007D01*
X131376020Y-115214034D01*
X131387517Y-115213200D01*
X131399159Y-115212357D01*
X131406662Y-115212301D01*
X131411508Y-115213280D01*
X131415176Y-115215544D01*
X131418172Y-115218360D01*
X131423791Y-115226390D01*
X131424568Y-115235005D01*
X131420464Y-115245074D01*
X131416778Y-115250641D01*
X131411892Y-115258096D01*
X131408834Y-115264129D01*
X131408311Y-115266178D01*
X131410290Y-115269887D01*
X131415435Y-115276016D01*
X131422558Y-115283394D01*
X131430469Y-115290848D01*
X131437980Y-115297208D01*
X131443903Y-115301302D01*
X131443992Y-115301350D01*
X131447546Y-115302501D01*
X131451640Y-115301660D01*
X131457457Y-115298291D01*
X131466181Y-115291858D01*
X131467907Y-115290523D01*
X131480580Y-115281653D01*
X131490150Y-115277166D01*
X131494207Y-115276515D01*
X131503541Y-115278903D01*
X131511095Y-115285089D01*
X131515224Y-115293519D01*
X131515556Y-115296703D01*
X131516085Y-115300848D01*
X131518329Y-115304366D01*
X131523275Y-115308119D01*
X131531907Y-115312969D01*
X131537428Y-115315825D01*
X131550901Y-115322360D01*
X131560539Y-115325945D01*
X131567286Y-115326635D01*
X131572086Y-115324484D01*
X131575881Y-115319548D01*
X131576663Y-115318117D01*
X131580326Y-115309027D01*
X131583052Y-115298667D01*
X131583310Y-115297174D01*
X131584228Y-115289733D01*
X131583173Y-115286050D01*
X131579076Y-115284311D01*
X131575300Y-115283556D01*
X131568246Y-115280956D01*
X131560293Y-115275436D01*
X131551134Y-115266645D01*
X131540461Y-115254231D01*
X131527968Y-115237841D01*
X131513347Y-115217122D01*
X131499764Y-115196973D01*
X131484052Y-115173421D01*
X131470999Y-115154195D01*
X131460224Y-115138863D01*
X131451350Y-115126995D01*
X131443997Y-115118159D01*
X131437786Y-115111924D01*
X131432338Y-115107857D01*
X131427275Y-115105527D01*
X131422217Y-115104504D01*
X131418402Y-115104334D01*
X131411839Y-115105894D01*
X131408610Y-115108207D01*
X131404237Y-115110469D01*
X131395888Y-115112563D01*
X131385664Y-115114025D01*
X131375185Y-115115389D01*
X131366818Y-115117602D01*
X131358550Y-115121454D01*
X131348368Y-115127736D01*
X131344985Y-115129980D01*
X131335086Y-115137210D01*
X131324737Y-115145769D01*
X131314910Y-115154725D01*
X131306575Y-115163144D01*
X131300702Y-115170094D01*
X131298263Y-115174641D01*
X131298245Y-115174900D01*
X131249955Y-115174900D01*
X131250012Y-115174682D01*
X131253651Y-115166163D01*
X131255482Y-115162221D01*
X131265469Y-115145145D01*
X131278956Y-115128259D01*
X131295008Y-115112275D01*
X131312686Y-115097902D01*
X131331055Y-115085853D01*
X131349177Y-115076840D01*
X131366115Y-115071573D01*
X131376284Y-115070495D01*
X131385248Y-115070109D01*
X131390628Y-115068423D01*
X131393785Y-115065261D01*
X131453384Y-115065261D01*
X131471171Y-115082681D01*
X131480265Y-115092701D01*
X131491906Y-115107397D01*
X131505900Y-115126509D01*
X131522052Y-115149776D01*
X131530412Y-115162189D01*
X131544450Y-115183230D01*
X131555758Y-115200090D01*
X131564783Y-115213254D01*
X131571972Y-115223205D01*
X131577773Y-115230428D01*
X131582632Y-115235408D01*
X131586997Y-115238629D01*
X131591315Y-115240575D01*
X131596032Y-115241730D01*
X131601596Y-115242580D01*
X131605075Y-115243077D01*
X131617432Y-115244508D01*
X131627097Y-115244368D01*
X131636836Y-115242517D01*
X131641407Y-115241257D01*
X131657133Y-115236136D01*
X131676625Y-115228930D01*
X131698640Y-115220161D01*
X131721937Y-115210349D01*
X131745275Y-115200016D01*
X131767413Y-115189684D01*
X131785078Y-115180921D01*
X131801186Y-115172250D01*
X131819988Y-115161490D01*
X131840421Y-115149307D01*
X131861423Y-115136369D01*
X131881932Y-115123342D01*
X131900885Y-115110892D01*
X131917219Y-115099687D01*
X131929872Y-115090392D01*
X131931834Y-115088848D01*
X131940573Y-115082512D01*
X131951590Y-115075385D01*
X131960056Y-115070401D01*
X131970234Y-115064494D01*
X131979681Y-115058609D01*
X131985456Y-115054660D01*
X131988745Y-115052346D01*
X131993335Y-115049392D01*
X131999689Y-115045534D01*
X132008270Y-115040505D01*
X132019543Y-115034039D01*
X132033970Y-115025869D01*
X132052015Y-115015730D01*
X132074141Y-115003355D01*
X132096635Y-114990806D01*
X132111702Y-114982445D01*
X132122822Y-114976481D01*
X132130973Y-114972547D01*
X132137130Y-114970280D01*
X132142269Y-114969314D01*
X132147368Y-114969285D01*
X132152913Y-114969777D01*
X132163149Y-114971655D01*
X132172078Y-114974679D01*
X132175638Y-114976671D01*
X132182811Y-114985362D01*
X132185923Y-114997727D01*
X132184968Y-115013814D01*
X132179942Y-115033670D01*
X132170836Y-115057343D01*
X132163457Y-115073306D01*
X132156539Y-115087999D01*
X132150132Y-115102476D01*
X132144880Y-115115223D01*
X132141427Y-115124727D01*
X132141044Y-115125984D01*
X132136588Y-115140801D01*
X132130612Y-115159901D01*
X132123461Y-115182242D01*
X132115481Y-115206781D01*
X132107017Y-115232474D01*
X132098415Y-115258278D01*
X132090021Y-115283150D01*
X132082179Y-115306046D01*
X132075235Y-115325924D01*
X132070180Y-115339989D01*
X132070408Y-115341513D01*
X132073395Y-115338964D01*
X132076172Y-115335760D01*
X132082520Y-115328065D01*
X132090475Y-115318529D01*
X132096159Y-115311771D01*
X132104334Y-115301899D01*
X132113728Y-115290265D01*
X132121264Y-115280723D01*
X132128136Y-115272458D01*
X132137611Y-115261849D01*
X132148958Y-115249637D01*
X132161445Y-115236562D01*
X132174343Y-115223367D01*
X132186920Y-115210791D01*
X132198447Y-115199577D01*
X132208192Y-115190463D01*
X132215425Y-115184193D01*
X132218854Y-115181751D01*
X132230160Y-115178153D01*
X132241391Y-115178603D01*
X132246400Y-115180474D01*
X132251450Y-115185805D01*
X132255452Y-115194787D01*
X132257620Y-115205434D01*
X132257800Y-115209271D01*
X132259930Y-115220354D01*
X132265867Y-115233961D01*
X132274933Y-115249189D01*
X132286448Y-115265136D01*
X132299734Y-115280900D01*
X132314111Y-115295579D01*
X132328902Y-115308271D01*
X132336387Y-115313690D01*
X132343426Y-115318436D01*
X132357287Y-115298168D01*
X132370311Y-115280661D01*
X132384114Y-115264792D01*
X132397539Y-115251811D01*
X132406813Y-115244625D01*
X132412251Y-115240001D01*
X132420112Y-115232066D01*
X132429328Y-115221944D01*
X132438546Y-115211113D01*
X132451958Y-115195536D01*
X132463185Y-115184303D01*
X132472912Y-115176898D01*
X132481820Y-115172804D01*
X132490593Y-115171504D01*
X132490889Y-115171503D01*
X132499127Y-115172657D01*
X132505997Y-115176667D01*
X132512374Y-115184355D01*
X132519132Y-115196540D01*
X132520441Y-115199244D01*
X132526960Y-115210577D01*
X132536621Y-115223546D01*
X132549983Y-115238867D01*
X132557315Y-115246681D01*
X132567492Y-115257211D01*
X132576314Y-115266094D01*
X132583049Y-115272611D01*
X132586963Y-115276043D01*
X132587593Y-115276391D01*
X132589799Y-115274128D01*
X132594264Y-115268118D01*
X132600242Y-115259395D01*
X132604364Y-115253107D01*
X132613518Y-115239927D01*
X132624646Y-115225367D01*
X132635727Y-115212038D01*
X132638662Y-115208756D01*
X132647567Y-115199156D01*
X132653883Y-115193006D01*
X132658773Y-115189542D01*
X132663401Y-115187995D01*
X132668929Y-115187598D01*
X132670755Y-115187589D01*
X132679355Y-115188458D01*
X132686845Y-115191569D01*
X132694204Y-115197674D01*
X132702412Y-115207530D01*
X132709373Y-115217336D01*
X132715648Y-115226058D01*
X132721411Y-115233283D01*
X132725038Y-115237092D01*
X132728005Y-115239163D01*
X132729130Y-115238112D01*
X132728763Y-115232963D01*
X132728124Y-115228512D01*
X132727440Y-115222919D01*
X132726675Y-115214599D01*
X132725806Y-115203168D01*
X132724808Y-115188240D01*
X132723658Y-115169431D01*
X132722332Y-115146357D01*
X132720806Y-115118633D01*
X132719057Y-115085874D01*
X132717951Y-115064823D01*
X132716953Y-115046701D01*
X132715913Y-115029548D01*
X132714911Y-115014533D01*
X132714024Y-115002830D01*
X132713338Y-114995678D01*
X132710181Y-114979051D01*
X132705138Y-114962766D01*
X132698869Y-114948608D01*
X132692233Y-114938586D01*
X132684570Y-114927055D01*
X132681594Y-114915837D01*
X132683296Y-114905801D01*
X132689668Y-114897810D01*
X132692655Y-114895848D01*
X132700270Y-114893252D01*
X132708191Y-114894373D01*
X132717230Y-114899553D01*
X132728197Y-114909135D01*
X132731139Y-114912058D01*
X132738433Y-114919115D01*
X132745594Y-114925128D01*
X132753522Y-114930612D01*
X132763117Y-114936077D01*
X132775280Y-114942038D01*
X132790911Y-114949008D01*
X132810848Y-114957472D01*
X132825566Y-114963744D01*
X132839967Y-114970062D01*
X132852442Y-114975709D01*
X132861380Y-114979967D01*
X132861688Y-114980122D01*
X132877251Y-114987566D01*
X132896441Y-114996115D01*
X132917544Y-115005049D01*
X132938848Y-115013651D01*
X132958638Y-115021201D01*
X132965638Y-115023727D01*
X132978645Y-115028393D01*
X132995024Y-115034366D01*
X133012871Y-115040948D01*
X133030282Y-115047438D01*
X133033911Y-115048802D01*
X133050157Y-115054697D01*
X133066531Y-115060257D01*
X133081413Y-115064956D01*
X133093181Y-115068267D01*
X133096000Y-115068942D01*
X133113399Y-115072881D01*
X133129558Y-115076625D01*
X133143274Y-115079888D01*
X133153340Y-115082387D01*
X133156878Y-115083331D01*
X133160915Y-115083503D01*
X133163697Y-115080386D01*
X133166089Y-115073734D01*
X133172267Y-115061825D01*
X133183853Y-115049376D01*
X133200904Y-115036342D01*
X133223473Y-115022676D01*
X133236403Y-115015818D01*
X133250915Y-115008269D01*
X133265042Y-115000678D01*
X133277315Y-114993851D01*
X133286264Y-114988593D01*
X133287391Y-114987886D01*
X133302394Y-114978336D01*
X133291207Y-114973942D01*
X133280194Y-114967521D01*
X133273687Y-114959212D01*
X133271956Y-114949922D01*
X133275273Y-114940556D01*
X133279652Y-114935412D01*
X133281757Y-114933250D01*
X133282437Y-114931274D01*
X133281075Y-114928949D01*
X133277052Y-114925741D01*
X133269753Y-114921116D01*
X133258558Y-114914539D01*
X133249464Y-114909289D01*
X133213051Y-114889462D01*
X133171365Y-114868900D01*
X133124707Y-114847751D01*
X133113234Y-114842789D01*
X133097634Y-114835813D01*
X133078543Y-114826830D01*
X133057409Y-114816557D01*
X133035685Y-114805713D01*
X133014821Y-114795014D01*
X132996268Y-114785179D01*
X132991578Y-114782618D01*
X132982040Y-114777600D01*
X132969430Y-114771280D01*
X132955817Y-114764684D01*
X132949245Y-114761588D01*
X132938175Y-114755946D01*
X132923756Y-114747880D01*
X132907293Y-114738160D01*
X132890091Y-114727554D01*
X132874456Y-114717493D01*
X132857003Y-114706057D01*
X132841747Y-114696240D01*
X132827659Y-114687433D01*
X132813710Y-114679028D01*
X132798872Y-114670417D01*
X132782117Y-114660992D01*
X132762415Y-114650145D01*
X132738989Y-114637403D01*
X132714623Y-114623697D01*
X132690029Y-114608950D01*
X132666491Y-114593984D01*
X132645292Y-114579616D01*
X132627713Y-114566669D01*
X132625198Y-114564685D01*
X132613307Y-114553634D01*
X132605447Y-114542922D01*
X132602187Y-114533355D01*
X132602130Y-114532128D01*
X132601603Y-114527165D01*
X132600755Y-114525778D01*
X132595447Y-114527741D01*
X132586906Y-114533273D01*
X132575778Y-114541841D01*
X132562707Y-114552914D01*
X132548337Y-114565959D01*
X132533314Y-114580442D01*
X132527322Y-114586461D01*
X132510285Y-114603390D01*
X132495937Y-114616593D01*
X132483364Y-114626689D01*
X132471655Y-114634299D01*
X132459897Y-114640043D01*
X132447178Y-114644541D01*
X132438235Y-114647021D01*
X132427563Y-114650219D01*
X132415956Y-114654353D01*
X132412499Y-114655736D01*
X132395177Y-114660248D01*
X132379673Y-114661245D01*
X132369800Y-114660806D01*
X132356076Y-114659592D01*
X132339550Y-114657752D01*
X132321271Y-114655441D01*
X132302288Y-114652808D01*
X132283649Y-114650005D01*
X132266403Y-114647185D01*
X132251599Y-114644499D01*
X132240287Y-114642098D01*
X132233513Y-114640135D01*
X132233417Y-114640095D01*
X132219876Y-114633560D01*
X132203526Y-114624319D01*
X132185856Y-114613331D01*
X132168351Y-114601552D01*
X132152500Y-114589939D01*
X132141338Y-114580828D01*
X132118018Y-114560385D01*
X132108181Y-114567212D01*
X132101922Y-114571079D01*
X132091921Y-114576718D01*
X132079501Y-114583404D01*
X132065982Y-114590413D01*
X132064478Y-114591176D01*
X132050690Y-114598500D01*
X132037692Y-114606024D01*
X132026886Y-114612895D01*
X132019675Y-114618265D01*
X132019322Y-114618579D01*
X132006828Y-114629563D01*
X131991084Y-114642815D01*
X131972870Y-114657728D01*
X131952965Y-114673697D01*
X131932147Y-114690116D01*
X131911197Y-114706378D01*
X131890892Y-114721877D01*
X131872012Y-114736008D01*
X131855337Y-114748165D01*
X131841644Y-114757740D01*
X131834033Y-114762719D01*
X131822390Y-114770475D01*
X131808203Y-114780680D01*
X131793180Y-114792070D01*
X131779027Y-114803378D01*
X131777589Y-114804569D01*
X131764697Y-114815131D01*
X131751855Y-114825376D01*
X131740376Y-114834273D01*
X131731577Y-114840790D01*
X131730045Y-114841862D01*
X131723575Y-114846632D01*
X131713583Y-114854409D01*
X131700861Y-114864559D01*
X131686199Y-114876447D01*
X131670388Y-114889437D01*
X131658078Y-114899665D01*
X131642138Y-114912855D01*
X131626929Y-114925211D01*
X131613197Y-114936147D01*
X131601684Y-114945074D01*
X131593137Y-114951407D01*
X131588934Y-114954210D01*
X131576745Y-114962009D01*
X131561879Y-114972579D01*
X131545765Y-114984820D01*
X131529831Y-114997630D01*
X131515509Y-115009910D01*
X131509843Y-115015089D01*
X131498249Y-115025784D01*
X131485095Y-115037642D01*
X131473104Y-115048210D01*
X131472406Y-115048814D01*
X131453384Y-115065261D01*
X131393785Y-115065261D01*
X131394470Y-115064575D01*
X131396080Y-115062165D01*
X131400191Y-115057122D01*
X131407870Y-115049034D01*
X131418417Y-115038551D01*
X131431133Y-115026321D01*
X131445317Y-115012991D01*
X131460268Y-114999211D01*
X131475286Y-114985629D01*
X131489671Y-114972892D01*
X131502723Y-114961650D01*
X131513742Y-114952552D01*
X131518433Y-114948884D01*
X131531958Y-114938840D01*
X131547294Y-114927815D01*
X131561798Y-114917698D01*
X131566356Y-114914610D01*
X131577069Y-114906996D01*
X131590586Y-114896747D01*
X131605487Y-114884973D01*
X131620353Y-114872783D01*
X131627034Y-114867132D01*
X131642446Y-114854170D01*
X131659568Y-114840144D01*
X131676617Y-114826492D01*
X131691811Y-114814651D01*
X131696178Y-114811338D01*
X131710621Y-114800329D01*
X131726042Y-114788322D01*
X131740609Y-114776758D01*
X131752488Y-114767079D01*
X131752622Y-114766967D01*
X131771628Y-114751681D01*
X131790519Y-114737718D01*
X131811242Y-114723681D01*
X131827359Y-114713392D01*
X131838417Y-114706080D01*
X131849734Y-114697998D01*
X131856992Y-114692389D01*
X131862779Y-114687688D01*
X131872180Y-114680084D01*
X131884410Y-114670212D01*
X131898685Y-114658703D01*
X131914219Y-114646193D01*
X131924778Y-114637696D01*
X131940914Y-114624694D01*
X131956487Y-114612104D01*
X131970668Y-114600600D01*
X131982626Y-114590856D01*
X131991531Y-114583548D01*
X131995181Y-114580513D01*
X132003642Y-114574303D01*
X132015690Y-114566636D01*
X132029794Y-114558438D01*
X132044422Y-114550630D01*
X132046124Y-114549772D01*
X132062207Y-114541617D01*
X132073716Y-114535413D01*
X132081169Y-114530677D01*
X132085085Y-114526924D01*
X132085982Y-114523671D01*
X132084378Y-114520435D01*
X132081156Y-114517072D01*
X132075832Y-114511011D01*
X132069847Y-114502861D01*
X132157611Y-114502861D01*
X132157611Y-114536102D01*
X132173475Y-114549990D01*
X132182396Y-114557084D01*
X132194126Y-114565405D01*
X132207492Y-114574232D01*
X132221322Y-114582839D01*
X132234445Y-114590505D01*
X132245689Y-114596506D01*
X132253880Y-114600119D01*
X132255519Y-114600617D01*
X132264766Y-114602531D01*
X132278162Y-114604808D01*
X132294330Y-114607264D01*
X132311889Y-114609715D01*
X132329461Y-114611975D01*
X132345665Y-114613861D01*
X132359123Y-114615187D01*
X132368455Y-114615769D01*
X132368749Y-114615775D01*
X132393993Y-114613386D01*
X132406849Y-114609991D01*
X132428904Y-114602380D01*
X132446696Y-114594890D01*
X132461519Y-114586666D01*
X132474670Y-114576854D01*
X132487446Y-114564600D01*
X132501140Y-114549051D01*
X132503340Y-114546398D01*
X132519668Y-114528738D01*
X132538843Y-114512219D01*
X132562141Y-114495757D01*
X132564815Y-114494028D01*
X132572267Y-114489565D01*
X132577912Y-114486759D01*
X132579632Y-114486267D01*
X132582230Y-114484079D01*
X132582356Y-114483143D01*
X132580280Y-114481318D01*
X132577820Y-114481759D01*
X132565070Y-114485877D01*
X132547730Y-114490344D01*
X132526828Y-114494974D01*
X132503392Y-114499577D01*
X132478451Y-114503968D01*
X132453033Y-114507958D01*
X132428167Y-114511358D01*
X132404881Y-114513983D01*
X132397500Y-114514666D01*
X132368597Y-114516386D01*
X132336114Y-114516984D01*
X132301526Y-114516525D01*
X132266310Y-114515074D01*
X132231940Y-114512696D01*
X132199893Y-114509456D01*
X132171644Y-114505420D01*
X132166078Y-114504431D01*
X132157611Y-114502861D01*
X132069847Y-114502861D01*
X132069314Y-114502136D01*
X132064055Y-114494038D01*
X132056602Y-114483315D01*
X132050054Y-114477417D01*
X132046636Y-114476010D01*
X132036754Y-114473127D01*
X132022845Y-114468335D01*
X132006018Y-114462073D01*
X131987381Y-114454781D01*
X131968039Y-114446896D01*
X131949102Y-114438858D01*
X131931675Y-114431105D01*
X131922297Y-114426722D01*
X131858800Y-114393249D01*
X131798241Y-114355078D01*
X131740905Y-114312452D01*
X131687077Y-114265617D01*
X131637041Y-114214816D01*
X131591082Y-114160296D01*
X131556189Y-114112323D01*
X131535126Y-114081278D01*
X131517262Y-114080850D01*
X131496203Y-114078477D01*
X131472131Y-114072581D01*
X131446039Y-114063616D01*
X131418921Y-114052035D01*
X131391769Y-114038292D01*
X131365576Y-114022841D01*
X131341336Y-114006134D01*
X131325022Y-113993043D01*
X131317255Y-113986213D01*
X131310308Y-113979706D01*
X131303870Y-113973037D01*
X131297628Y-113965722D01*
X131291271Y-113957277D01*
X131284486Y-113947217D01*
X131276962Y-113935059D01*
X131268387Y-113920317D01*
X131258448Y-113902507D01*
X131246835Y-113881145D01*
X131233234Y-113855747D01*
X131217355Y-113825867D01*
X131214938Y-113817698D01*
X131213807Y-113806059D01*
X131213918Y-113797612D01*
X131258458Y-113797612D01*
X131259456Y-113807237D01*
X131263839Y-113818107D01*
X131267879Y-113825524D01*
X131273781Y-113836006D01*
X131280845Y-113848904D01*
X131287647Y-113861615D01*
X131288340Y-113862931D01*
X131299650Y-113884313D01*
X131308930Y-113901399D01*
X131316682Y-113914938D01*
X131323406Y-113925682D01*
X131329602Y-113934378D01*
X131335771Y-113941778D01*
X131342414Y-113948630D01*
X131350032Y-113955685D01*
X131350629Y-113956219D01*
X131360523Y-113964909D01*
X131368950Y-113971830D01*
X131377133Y-113977794D01*
X131386293Y-113983613D01*
X131397653Y-113990101D01*
X131412435Y-113998069D01*
X131418068Y-114001055D01*
X131434452Y-114009318D01*
X131450857Y-114016878D01*
X131466514Y-114023458D01*
X131480653Y-114028778D01*
X131492504Y-114032560D01*
X131501298Y-114034527D01*
X131506265Y-114034398D01*
X131507089Y-114033253D01*
X131505897Y-114030308D01*
X131502650Y-114023361D01*
X131497844Y-114013449D01*
X131491973Y-114001607D01*
X131491921Y-114001503D01*
X131465359Y-113942823D01*
X131442632Y-113880872D01*
X131424056Y-113816794D01*
X131409947Y-113751731D01*
X131400620Y-113686826D01*
X131398429Y-113662884D01*
X131397368Y-113651538D01*
X131396181Y-113642683D01*
X131395053Y-113637559D01*
X131394535Y-113636778D01*
X131391485Y-113638819D01*
X131385273Y-113644562D01*
X131376423Y-113653434D01*
X131365461Y-113664866D01*
X131352915Y-113678285D01*
X131339308Y-113693121D01*
X131325167Y-113708801D01*
X131311018Y-113724756D01*
X131297386Y-113740414D01*
X131284796Y-113755203D01*
X131277784Y-113763639D01*
X131267421Y-113777070D01*
X131261046Y-113787975D01*
X131258458Y-113797612D01*
X131213918Y-113797612D01*
X131213979Y-113792983D01*
X131215474Y-113780500D01*
X131216892Y-113774538D01*
X131220279Y-113767163D01*
X131226321Y-113757431D01*
X131233866Y-113747151D01*
X131235961Y-113744577D01*
X131244728Y-113733953D01*
X131253516Y-113723129D01*
X131260639Y-113714183D01*
X131261574Y-113712985D01*
X131273815Y-113697877D01*
X131287774Y-113681740D01*
X131302810Y-113665213D01*
X131318283Y-113648936D01*
X131333552Y-113633551D01*
X131347976Y-113619697D01*
X131360915Y-113608016D01*
X131371728Y-113599147D01*
X131379774Y-113593732D01*
X131379940Y-113593654D01*
X131433848Y-113593654D01*
X131434073Y-113608364D01*
X131435239Y-113621888D01*
X131437307Y-113632134D01*
X131437561Y-113632896D01*
X131439564Y-113640807D01*
X131441516Y-113652264D01*
X131443081Y-113665176D01*
X131443441Y-113669234D01*
X131447349Y-113704320D01*
X131453566Y-113742652D01*
X131461722Y-113782508D01*
X131471443Y-113822167D01*
X131482359Y-113859906D01*
X131488831Y-113879489D01*
X131514444Y-113944694D01*
X131544950Y-114007325D01*
X131580121Y-114067126D01*
X131619733Y-114123841D01*
X131663558Y-114177215D01*
X131711371Y-114226992D01*
X131762946Y-114272917D01*
X131818056Y-114314735D01*
X131876476Y-114352189D01*
X131934656Y-114383409D01*
X131951532Y-114391390D01*
X131970234Y-114399805D01*
X131988466Y-114407642D01*
X132003706Y-114413806D01*
X132036067Y-114426273D01*
X132046351Y-114420912D01*
X132056489Y-114417514D01*
X132065440Y-114418991D01*
X132074081Y-114425616D01*
X132078536Y-114430914D01*
X132082349Y-114435475D01*
X132086533Y-114439080D01*
X132092016Y-114442093D01*
X132099724Y-114444875D01*
X132110584Y-114447788D01*
X132125521Y-114451194D01*
X132136445Y-114453544D01*
X132165453Y-114459108D01*
X132196344Y-114463950D01*
X132227856Y-114467940D01*
X132258725Y-114470954D01*
X132287689Y-114472864D01*
X132313486Y-114473543D01*
X132331178Y-114473104D01*
X132338937Y-114472707D01*
X132350747Y-114472151D01*
X132365020Y-114471511D01*
X132380167Y-114470859D01*
X132380567Y-114470842D01*
X132421165Y-114467710D01*
X132464530Y-114461804D01*
X132508919Y-114453484D01*
X132552587Y-114443111D01*
X132593789Y-114431044D01*
X132622542Y-114420899D01*
X132635248Y-114415498D01*
X132644271Y-114410158D01*
X132651437Y-114403696D01*
X132654482Y-114400178D01*
X132665074Y-114390095D01*
X132675862Y-114385578D01*
X132687062Y-114386549D01*
X132689458Y-114387430D01*
X132694309Y-114388881D01*
X132699293Y-114388582D01*
X132706031Y-114386172D01*
X132715377Y-114381680D01*
X132777992Y-114347072D01*
X132837053Y-114308137D01*
X132892408Y-114265038D01*
X132943906Y-114217941D01*
X132991395Y-114167010D01*
X133034723Y-114112411D01*
X133073739Y-114054308D01*
X133108292Y-113992867D01*
X133138228Y-113928251D01*
X133142752Y-113917200D01*
X133156310Y-113881347D01*
X133203241Y-113881347D01*
X133204213Y-113881687D01*
X133207116Y-113880700D01*
X133212612Y-113878119D01*
X133221364Y-113873678D01*
X133234035Y-113867109D01*
X133244989Y-113861414D01*
X133261994Y-113852318D01*
X133274802Y-113844660D01*
X133284381Y-113837605D01*
X133291702Y-113830321D01*
X133297733Y-113821973D01*
X133303445Y-113811728D01*
X133303963Y-113810711D01*
X133309616Y-113799186D01*
X133313933Y-113789093D01*
X133317093Y-113779385D01*
X133319275Y-113769017D01*
X133320655Y-113756942D01*
X133321413Y-113742114D01*
X133321727Y-113723485D01*
X133321778Y-113706109D01*
X133321699Y-113685083D01*
X133321433Y-113669015D01*
X133320940Y-113657221D01*
X133320175Y-113649016D01*
X133319098Y-113643715D01*
X133317756Y-113640759D01*
X133310627Y-113633395D01*
X133300336Y-113625962D01*
X133289157Y-113619923D01*
X133280928Y-113617039D01*
X133273724Y-113615987D01*
X133269460Y-113617542D01*
X133266592Y-113621093D01*
X133260684Y-113627267D01*
X133255416Y-113630638D01*
X133250554Y-113634076D01*
X133248612Y-113639723D01*
X133248397Y-113644479D01*
X133247925Y-113654878D01*
X133246624Y-113669578D01*
X133244653Y-113687323D01*
X133242175Y-113706858D01*
X133239349Y-113726927D01*
X133236339Y-113746274D01*
X133233304Y-113763643D01*
X133232678Y-113766926D01*
X133229679Y-113781336D01*
X133225868Y-113798115D01*
X133221556Y-113816041D01*
X133217054Y-113833888D01*
X133212675Y-113850433D01*
X133208730Y-113864453D01*
X133205532Y-113874723D01*
X133204434Y-113877758D01*
X133203535Y-113879949D01*
X133203241Y-113881347D01*
X133156310Y-113881347D01*
X133156667Y-113880405D01*
X133168495Y-113844129D01*
X133178703Y-113806712D01*
X133187755Y-113766494D01*
X133193695Y-113735556D01*
X133196410Y-113720627D01*
X133198947Y-113706863D01*
X133201048Y-113695644D01*
X133202458Y-113688355D01*
X133202616Y-113687578D01*
X133203580Y-113679527D01*
X133204257Y-113666749D01*
X133204662Y-113650153D01*
X133204811Y-113630650D01*
X133204717Y-113609147D01*
X133204395Y-113586555D01*
X133203860Y-113563784D01*
X133203127Y-113541742D01*
X133202211Y-113521339D01*
X133201125Y-113503485D01*
X133199885Y-113489088D01*
X133199333Y-113484378D01*
X133187308Y-113412939D01*
X133170199Y-113343833D01*
X133148058Y-113277168D01*
X133120937Y-113213051D01*
X133088887Y-113151590D01*
X133051959Y-113092894D01*
X133010206Y-113037068D01*
X132963679Y-112984222D01*
X132956469Y-112976742D01*
X132905983Y-112928611D01*
X132853085Y-112885426D01*
X132797272Y-112846817D01*
X132738036Y-112812417D01*
X132713589Y-112799910D01*
X132676365Y-112782311D01*
X132641553Y-112767583D01*
X132607213Y-112755008D01*
X132571401Y-112743865D01*
X132538611Y-112735048D01*
X132508270Y-112727689D01*
X132480857Y-112721839D01*
X132455063Y-112717342D01*
X132429581Y-112714047D01*
X132403101Y-112711800D01*
X132374315Y-112710448D01*
X132341913Y-112709836D01*
X132322711Y-112709761D01*
X132297618Y-112709815D01*
X132277123Y-112710014D01*
X132260183Y-112710415D01*
X132245751Y-112711071D01*
X132232784Y-112712040D01*
X132220236Y-112713376D01*
X132207062Y-112715135D01*
X132198942Y-112716338D01*
X132158799Y-112723491D01*
X132116768Y-112732909D01*
X132074664Y-112744105D01*
X132034302Y-112756590D01*
X131997497Y-112769875D01*
X131992511Y-112771860D01*
X131932512Y-112798855D01*
X131874123Y-112830627D01*
X131817988Y-112866708D01*
X131764751Y-112906631D01*
X131715056Y-112949925D01*
X131669546Y-112996124D01*
X131644365Y-113025226D01*
X131600818Y-113082388D01*
X131562531Y-113141529D01*
X131529462Y-113202752D01*
X131501570Y-113266156D01*
X131478812Y-113331842D01*
X131461149Y-113399913D01*
X131448537Y-113470468D01*
X131443384Y-113513980D01*
X131441713Y-113530173D01*
X131439982Y-113545113D01*
X131438347Y-113557565D01*
X131436965Y-113566297D01*
X131436376Y-113569045D01*
X131434603Y-113579850D01*
X131433848Y-113593654D01*
X131379940Y-113593654D01*
X131381829Y-113592767D01*
X131388258Y-113590064D01*
X131391901Y-113587097D01*
X131393794Y-113582202D01*
X131394970Y-113573716D01*
X131395234Y-113571214D01*
X131396258Y-113558815D01*
X131396907Y-113545959D01*
X131397026Y-113539703D01*
X131397570Y-113526191D01*
X131399088Y-113508426D01*
X131401416Y-113487683D01*
X131404389Y-113465239D01*
X131407844Y-113442369D01*
X131411616Y-113420349D01*
X131413943Y-113408178D01*
X131430856Y-113337894D01*
X131453051Y-113269567D01*
X131480473Y-113203313D01*
X131513070Y-113139247D01*
X131550787Y-113077487D01*
X131593571Y-113018147D01*
X131597559Y-113013067D01*
X131619022Y-112987526D01*
X131644275Y-112960183D01*
X131672225Y-112932070D01*
X131701779Y-112904217D01*
X131731846Y-112877654D01*
X131761331Y-112853413D01*
X131788467Y-112833004D01*
X131847354Y-112794545D01*
X131909125Y-112760780D01*
X131973366Y-112731824D01*
X132039663Y-112707791D01*
X132107602Y-112688794D01*
X132176769Y-112674948D01*
X132246750Y-112666365D01*
X132317132Y-112663161D01*
X132387500Y-112665449D01*
G37*
X132387500Y-112665449D02*
X132395230Y-112666042D01*
X132466606Y-112674589D01*
X132536551Y-112688445D01*
X132604799Y-112707443D01*
X132671082Y-112731420D01*
X132735136Y-112760208D01*
X132796692Y-112793643D01*
X132855485Y-112831560D01*
X132911249Y-112873794D01*
X132963717Y-112920178D01*
X133012622Y-112970547D01*
X133057698Y-113024737D01*
X133098679Y-113082582D01*
X133118958Y-113115188D01*
X133153708Y-113179214D01*
X133183230Y-113245215D01*
X133207453Y-113312970D01*
X133226309Y-113382255D01*
X133239728Y-113452848D01*
X133247640Y-113524524D01*
X133247935Y-113528804D01*
X133248909Y-113542147D01*
X133249886Y-113553296D01*
X133250756Y-113561124D01*
X133251407Y-113564505D01*
X133251434Y-113564539D01*
X133254618Y-113565629D01*
X133261782Y-113567330D01*
X133270978Y-113569196D01*
X133286689Y-113572315D01*
X133298359Y-113575165D01*
X133307522Y-113578342D01*
X133315714Y-113582445D01*
X133324471Y-113588071D01*
X133330555Y-113592369D01*
X133342932Y-113602005D01*
X133351502Y-113610683D01*
X133357595Y-113619783D01*
X133358326Y-113621168D01*
X133360588Y-113625749D01*
X133362330Y-113630094D01*
X133363631Y-113635012D01*
X133364569Y-113641309D01*
X133365226Y-113649793D01*
X133365679Y-113661271D01*
X133366009Y-113676550D01*
X133366295Y-113696437D01*
X133366379Y-113703012D01*
X133366632Y-113724344D01*
X133366740Y-113740923D01*
X133366639Y-113753639D01*
X133366262Y-113763382D01*
X133365543Y-113771043D01*
X133364415Y-113777513D01*
X133362814Y-113783683D01*
X133360673Y-113790442D01*
X133359683Y-113793412D01*
X133349911Y-113819181D01*
X133338957Y-113840502D01*
X133325946Y-113858371D01*
X133310004Y-113873783D01*
X133290253Y-113887732D01*
X133265819Y-113901216D01*
X133264122Y-113902063D01*
X133249554Y-113909559D01*
X133235487Y-113917259D01*
X133223359Y-113924345D01*
X133214610Y-113930000D01*
X133213397Y-113930883D01*
X133201638Y-113938331D01*
X133192085Y-113941492D01*
X133190567Y-113941578D01*
X133186616Y-113941882D01*
X133183450Y-113943404D01*
X133180373Y-113947056D01*
X133176687Y-113953752D01*
X133171695Y-113964405D01*
X133169576Y-113969095D01*
X133137497Y-114033528D01*
X133100725Y-114095013D01*
X133059498Y-114153310D01*
X133014056Y-114208179D01*
X132964638Y-114259383D01*
X132911482Y-114306681D01*
X132854829Y-114349835D01*
X132794918Y-114388606D01*
X132731987Y-114422755D01*
X132701178Y-114437255D01*
X132690049Y-114442357D01*
X132681650Y-114446748D01*
X132674735Y-114451411D01*
X132668059Y-114457332D01*
X132660376Y-114465495D01*
X132650440Y-114476884D01*
X132649165Y-114478365D01*
X132624253Y-114507328D01*
X132632667Y-114509508D01*
X132640151Y-114513467D01*
X132646291Y-114519916D01*
X132653634Y-114528524D01*
X132665817Y-114539024D01*
X132682461Y-114551154D01*
X132703185Y-114564655D01*
X132727610Y-114579266D01*
X132755358Y-114594729D01*
X132755922Y-114595033D01*
X132787479Y-114612241D01*
X132815076Y-114627753D01*
X132839870Y-114642256D01*
X132863019Y-114656438D01*
X132885682Y-114670984D01*
X132899791Y-114680350D01*
X132917408Y-114691639D01*
X132937819Y-114703870D01*
X132958740Y-114715721D01*
X132977888Y-114725870D01*
X132981700Y-114727775D01*
X133000281Y-114737008D01*
X133021278Y-114747567D01*
X133042354Y-114758269D01*
X133061176Y-114767934D01*
X133064608Y-114769714D01*
X133081427Y-114778249D01*
X133099445Y-114787052D01*
X133116789Y-114795229D01*
X133131586Y-114801885D01*
X133135163Y-114803416D01*
X133172003Y-114819407D01*
X133205636Y-114835118D01*
X133237582Y-114851354D01*
X133269363Y-114868919D01*
X133302499Y-114888617D01*
X133335600Y-114909384D01*
X133353374Y-114921167D01*
X133366573Y-114930934D01*
X133375689Y-114939155D01*
X133381215Y-114946301D01*
X133383642Y-114952841D01*
X133383856Y-114955462D01*
X133385619Y-114959642D01*
X133387603Y-114960400D01*
X133398720Y-114961213D01*
X133413381Y-114963397D01*
X133429765Y-114966567D01*
X133446051Y-114970342D01*
X133460417Y-114974337D01*
X133470064Y-114977748D01*
X133484387Y-114984326D01*
X133494080Y-114990522D01*
X133499984Y-114997336D01*
X133502942Y-115005766D01*
X133503798Y-115016814D01*
X133503801Y-115017778D01*
X133503376Y-115027068D01*
X133501807Y-115035819D01*
X133498633Y-115045711D01*
X133493393Y-115058426D01*
X133491474Y-115062762D01*
X133485675Y-115074804D01*
X133479832Y-115085344D01*
X133474756Y-115092996D01*
X133472126Y-115095867D01*
X133465011Y-115099607D01*
X133455366Y-115102517D01*
X133451399Y-115103216D01*
X133437705Y-115105032D01*
X133441623Y-115114410D01*
X133443793Y-115121862D01*
X133445841Y-115132718D01*
X133447354Y-115144742D01*
X133447450Y-115145810D01*
X133448250Y-115157752D01*
X133447960Y-115166320D01*
X133446281Y-115173727D01*
X133442915Y-115182188D01*
X133442394Y-115183356D01*
X133433875Y-115198204D01*
X133423154Y-115208901D01*
X133409545Y-115215799D01*
X133392360Y-115219251D01*
X133371630Y-115219638D01*
X133347660Y-115218634D01*
X133340455Y-115233325D01*
X133332832Y-115245791D01*
X133323808Y-115253614D01*
X133311911Y-115257785D01*
X133302383Y-115258976D01*
X133277248Y-115258056D01*
X133251265Y-115251885D01*
X133232564Y-115244330D01*
X133219628Y-115237377D01*
X133209957Y-115229819D01*
X133202550Y-115220396D01*
X133196402Y-115207845D01*
X133190761Y-115191697D01*
X133185997Y-115178091D01*
X133180300Y-115164102D01*
X133174774Y-115152408D01*
X133173894Y-115150774D01*
X133169310Y-115143218D01*
X133164386Y-115137263D01*
X133158257Y-115132489D01*
X133150056Y-115128478D01*
X133138920Y-115124810D01*
X133123982Y-115121065D01*
X133104376Y-115116824D01*
X133103485Y-115116639D01*
X133089406Y-115113460D01*
X133074678Y-115109580D01*
X133071086Y-115108505D01*
X133206471Y-115108505D01*
X133207584Y-115115660D01*
X133210689Y-115123776D01*
X133215620Y-115133550D01*
X133221859Y-115146652D01*
X133227885Y-115161503D01*
X133231787Y-115172963D01*
X133236054Y-115185893D01*
X133240458Y-115194689D01*
X133246169Y-115200766D01*
X133254357Y-115205539D01*
X133261100Y-115208428D01*
X133274482Y-115212637D01*
X133286439Y-115214245D01*
X133295832Y-115213235D01*
X133301522Y-115209594D01*
X133301923Y-115208941D01*
X133304044Y-115204485D01*
X133303917Y-115201434D01*
X133300676Y-115198697D01*
X133293453Y-115195188D01*
X133289601Y-115193477D01*
X133276203Y-115186589D01*
X133267704Y-115179664D01*
X133263404Y-115171969D01*
X133262511Y-115165216D01*
X133265068Y-115155652D01*
X133271739Y-115148142D01*
X133281025Y-115144144D01*
X133284473Y-115143845D01*
X133289628Y-115144972D01*
X133298689Y-115148054D01*
X133310455Y-115152643D01*
X133323727Y-115158294D01*
X133326134Y-115159367D01*
X133341424Y-115166049D01*
X133352945Y-115170554D01*
X133361955Y-115173269D01*
X133369713Y-115174584D01*
X133376520Y-115174889D01*
X133389567Y-115173748D01*
X133397956Y-115169924D01*
X133402274Y-115162817D01*
X133403109Y-115151827D01*
X133402806Y-115148038D01*
X133399642Y-115131952D01*
X133393846Y-115120592D01*
X133385214Y-115113587D01*
X133383294Y-115112741D01*
X133371164Y-115106057D01*
X133361958Y-115097261D01*
X133358133Y-115090653D01*
X133357068Y-115081067D01*
X133359739Y-115070036D01*
X133365488Y-115059659D01*
X133369107Y-115055566D01*
X133378056Y-115048909D01*
X133387628Y-115046216D01*
X133399079Y-115047381D01*
X133412578Y-115051858D01*
X133425372Y-115056712D01*
X133434389Y-115058847D01*
X133440837Y-115057729D01*
X133445924Y-115052825D01*
X133450859Y-115043600D01*
X133455434Y-115032935D01*
X133459894Y-115022214D01*
X133447986Y-115017121D01*
X133440309Y-115014643D01*
X133428725Y-115011867D01*
X133414930Y-115009168D01*
X133403304Y-115007295D01*
X133389445Y-115005192D01*
X133376878Y-115003101D01*
X133367104Y-115001284D01*
X133362073Y-115000136D01*
X133357954Y-114999397D01*
X133353585Y-114999971D01*
X133347925Y-115002315D01*
X133339932Y-115006882D01*
X133328564Y-115014126D01*
X133325703Y-115015995D01*
X133311792Y-115024687D01*
X133294982Y-115034557D01*
X133277463Y-115044346D01*
X133262511Y-115052249D01*
X133244340Y-115061701D01*
X133230662Y-115069408D01*
X133220821Y-115075937D01*
X133214162Y-115081854D01*
X133210027Y-115087726D01*
X133207760Y-115094119D01*
X133206821Y-115100303D01*
X133206471Y-115108505D01*
X133071086Y-115108505D01*
X133058492Y-115104737D01*
X133040039Y-115098667D01*
X133018510Y-115091110D01*
X132993095Y-115081802D01*
X132974645Y-115074891D01*
X132959572Y-115069229D01*
X132942997Y-115063036D01*
X132927850Y-115057404D01*
X132923845Y-115055922D01*
X132913659Y-115051924D01*
X132899625Y-115046082D01*
X132883009Y-115038941D01*
X132865077Y-115031047D01*
X132847095Y-115022942D01*
X132846234Y-115022549D01*
X132820451Y-115010846D01*
X132799501Y-115001525D01*
X132783146Y-114994488D01*
X132771148Y-114989635D01*
X132763269Y-114986869D01*
X132759272Y-114986091D01*
X132758740Y-114986275D01*
X132758473Y-114989373D01*
X132758559Y-114997073D01*
X132758967Y-115008343D01*
X132759664Y-115022154D01*
X132760024Y-115028272D01*
X132761007Y-115044705D01*
X132762180Y-115064940D01*
X132763440Y-115087146D01*
X132764682Y-115109489D01*
X132765630Y-115126912D01*
X132767329Y-115154101D01*
X132769457Y-115181055D01*
X132771920Y-115206999D01*
X132774625Y-115231157D01*
X132777477Y-115252755D01*
X132780382Y-115271015D01*
X132783246Y-115285165D01*
X132785900Y-115294233D01*
X132789024Y-115303354D01*
X132790969Y-115311251D01*
X132791279Y-115313988D01*
X132792056Y-115318867D01*
X132794138Y-115328001D01*
X132797238Y-115340232D01*
X132801070Y-115354399D01*
X132802572Y-115359745D01*
X132807739Y-115377971D01*
X132813458Y-115398177D01*
X132819023Y-115417870D01*
X132823624Y-115434180D01*
X132828071Y-115449406D01*
X132831784Y-115460408D01*
X132835332Y-115468455D01*
X132839284Y-115474815D01*
X132844207Y-115480756D01*
X132844787Y-115481389D01*
X132852714Y-115491645D01*
X132855769Y-115500428D01*
X132854162Y-115508720D01*
X132851585Y-115513118D01*
X132849456Y-115516547D01*
X132848480Y-115520056D01*
X132848764Y-115524910D01*
X132850412Y-115532375D01*
X132853532Y-115543716D01*
X132854400Y-115546766D01*
X132856347Y-115554631D01*
X132857192Y-115561868D01*
X132856945Y-115570259D01*
X132855614Y-115581583D01*
X132854627Y-115588361D01*
X132850141Y-115610456D01*
X132843847Y-115627693D01*
X132835356Y-115640677D01*
X132824280Y-115650015D01*
X132811213Y-115655993D01*
X132803432Y-115658000D01*
X132791529Y-115660372D01*
X132776993Y-115662843D01*
X132761310Y-115665142D01*
X132757765Y-115665611D01*
X132743342Y-115667565D01*
X132730994Y-115669414D01*
X132721768Y-115670986D01*
X132716708Y-115672111D01*
X132716099Y-115672384D01*
X132714359Y-115676515D01*
X132712090Y-115685581D01*
X132709396Y-115698906D01*
X132706381Y-115715816D01*
X132703151Y-115735634D01*
X132699809Y-115757688D01*
X132696460Y-115781301D01*
X132693209Y-115805800D01*
X132690160Y-115830509D01*
X132687418Y-115854753D01*
X132686497Y-115863512D01*
X132684503Y-115883470D01*
X132683049Y-115899942D01*
X132682102Y-115914303D01*
X132681630Y-115927928D01*
X132681597Y-115942193D01*
X132681973Y-115958473D01*
X132682723Y-115978144D01*
X132683375Y-115992951D01*
X132684274Y-116012038D01*
X132685152Y-116029170D01*
X132685962Y-116043567D01*
X132686659Y-116054450D01*
X132687198Y-116061041D01*
X132687464Y-116062694D01*
X132690455Y-116062554D01*
X132697747Y-116061396D01*
X132708130Y-116059430D01*
X132716539Y-116057694D01*
X132735868Y-116054452D01*
X132756989Y-116052407D01*
X132778949Y-116051507D01*
X132800799Y-116051703D01*
X132821587Y-116052943D01*
X132840363Y-116055176D01*
X132856174Y-116058353D01*
X132868070Y-116062423D01*
X132873896Y-116066070D01*
X132877641Y-116069871D01*
X132880609Y-116074245D01*
X132883121Y-116080163D01*
X132885499Y-116088598D01*
X132888065Y-116100521D01*
X132891139Y-116116905D01*
X132891657Y-116119771D01*
X132896585Y-116152135D01*
X132899602Y-116183418D01*
X132900744Y-116212998D01*
X132900049Y-116240249D01*
X132897552Y-116264548D01*
X132893291Y-116285271D01*
X132887302Y-116301794D01*
X132880337Y-116312704D01*
X132870855Y-116321880D01*
X132858281Y-116331870D01*
X132844658Y-116341153D01*
X132833781Y-116347350D01*
X132812389Y-116356462D01*
X132787229Y-116364504D01*
X132759983Y-116371130D01*
X132732335Y-116375997D01*
X132705970Y-116378759D01*
X132682570Y-116379071D01*
X132679722Y-116378906D01*
X132664428Y-116377366D01*
X132646783Y-116374795D01*
X132628211Y-116371481D01*
X132610138Y-116367711D01*
X132593986Y-116363775D01*
X132581182Y-116359960D01*
X132575758Y-116357875D01*
X132560771Y-116348226D01*
X132547288Y-116333404D01*
X132535526Y-116313730D01*
X132525703Y-116289527D01*
X132522537Y-116279251D01*
X132517974Y-116255341D01*
X132516741Y-116227290D01*
X132518840Y-116194949D01*
X132522818Y-116166477D01*
X132527650Y-116133171D01*
X132531495Y-116096571D01*
X132534436Y-116055785D01*
X132535755Y-116030023D01*
X132536561Y-116015051D01*
X132537792Y-115996082D01*
X132539332Y-115974736D01*
X132541063Y-115952633D01*
X132542869Y-115931394D01*
X132542971Y-115930251D01*
X132547031Y-115868254D01*
X132548530Y-115801879D01*
X132548538Y-115797606D01*
X132548678Y-115771471D01*
X132549077Y-115750316D01*
X132549768Y-115733483D01*
X132550779Y-115720312D01*
X132552143Y-115710144D01*
X132552771Y-115706879D01*
X132554825Y-115697042D01*
X132556317Y-115689622D01*
X132556951Y-115686103D01*
X132556956Y-115686029D01*
X132554305Y-115685674D01*
X132546937Y-115685979D01*
X132535733Y-115686865D01*
X132521572Y-115688248D01*
X132505332Y-115690049D01*
X132487894Y-115692186D01*
X132482167Y-115692932D01*
X132469368Y-115694374D01*
X132452440Y-115695915D01*
X132432893Y-115697436D01*
X132412239Y-115698820D01*
X132391989Y-115699950D01*
X132391856Y-115699957D01*
X132361363Y-115701697D01*
X132334621Y-115703805D01*
X132309735Y-115706483D01*
X132284816Y-115709933D01*
X132259421Y-115714104D01*
X132241959Y-115717145D01*
X132235292Y-115758578D01*
X132230015Y-115799979D01*
X132227458Y-115842433D01*
X132227571Y-115887370D01*
X132229451Y-115924649D01*
X132231663Y-115961592D01*
X132232790Y-115993969D01*
X132232711Y-116022776D01*
X132231304Y-116049008D01*
X132228447Y-116073660D01*
X132224017Y-116097729D01*
X132217893Y-116122209D01*
X132209952Y-116148097D01*
X132200072Y-116176388D01*
X132197853Y-116182423D01*
X132181775Y-116222197D01*
X132164713Y-116257056D01*
X132146246Y-116287700D01*
X132125953Y-116314829D01*
X132104011Y-116338562D01*
X132082990Y-116357281D01*
X132060473Y-116374081D01*
X132037327Y-116388504D01*
X132014423Y-116400090D01*
X131992630Y-116408381D01*
X131972818Y-116412919D01*
X131961660Y-116413643D01*
X131953513Y-116412915D01*
X131941672Y-116411110D01*
X131927919Y-116408525D01*
X131917722Y-116406321D01*
X131887937Y-116397993D01*
X131862629Y-116387452D01*
X131840870Y-116374112D01*
X131821735Y-116357389D01*
X131804296Y-116336700D01*
X131801827Y-116333300D01*
X131790802Y-116316726D01*
X131783569Y-116302891D01*
X131779727Y-116290753D01*
X131778877Y-116279268D01*
X131779309Y-116274448D01*
X131781272Y-116263016D01*
X131784235Y-116252812D01*
X131788649Y-116243433D01*
X131794961Y-116234480D01*
X131803619Y-116225553D01*
X131815073Y-116216250D01*
X131829771Y-116206171D01*
X131848162Y-116194916D01*
X131870693Y-116182084D01*
X131897813Y-116167275D01*
X131901626Y-116165223D01*
X131918081Y-116156525D01*
X131930572Y-116150325D01*
X131939997Y-116146250D01*
X131947252Y-116143928D01*
X131953235Y-116142988D01*
X131955454Y-116142915D01*
X131967786Y-116142912D01*
X131966029Y-116113984D01*
X131965042Y-116094523D01*
X131964207Y-116071676D01*
X131963528Y-116046313D01*
X131963009Y-116019306D01*
X131962656Y-115991527D01*
X131962474Y-115963847D01*
X131962467Y-115937138D01*
X131962640Y-115912271D01*
X131962998Y-115890118D01*
X131963546Y-115871550D01*
X131964288Y-115857439D01*
X131964602Y-115853634D01*
X131966372Y-115833721D01*
X131967449Y-115818121D01*
X131967875Y-115805550D01*
X131967694Y-115794725D01*
X131966963Y-115784489D01*
X131966935Y-115775348D01*
X131968186Y-115767242D01*
X131969118Y-115762816D01*
X131967734Y-115760372D01*
X131962818Y-115758952D01*
X131956529Y-115758038D01*
X131942783Y-115754165D01*
X131933320Y-115746846D01*
X131928563Y-115737141D01*
X131928119Y-115730461D01*
X131928737Y-115719290D01*
X131930011Y-115707050D01*
X131975578Y-115707050D01*
X131975578Y-115714608D01*
X132005917Y-115712695D01*
X132021862Y-115711553D01*
X132038940Y-115710110D01*
X132054400Y-115708607D01*
X132060225Y-115707960D01*
X132075634Y-115705800D01*
X132095356Y-115702499D01*
X132118228Y-115698282D01*
X132143087Y-115693376D01*
X132168771Y-115688005D01*
X132194115Y-115682394D01*
X132204178Y-115680067D01*
X132244399Y-115671459D01*
X132282970Y-115665025D01*
X132322250Y-115660433D01*
X132364596Y-115657352D01*
X132366456Y-115657252D01*
X132386169Y-115656014D01*
X132409767Y-115654229D01*
X132435532Y-115652044D01*
X132461748Y-115649609D01*
X132486698Y-115647072D01*
X132496278Y-115646024D01*
X132518650Y-115643573D01*
X132541565Y-115641164D01*
X132563684Y-115638930D01*
X132583667Y-115637006D01*
X132600175Y-115635524D01*
X132607756Y-115634910D01*
X132630695Y-115633112D01*
X132648495Y-115631574D01*
X132661649Y-115630235D01*
X132670654Y-115629037D01*
X132676004Y-115627920D01*
X132678196Y-115626825D01*
X132678311Y-115626492D01*
X132680057Y-115623254D01*
X132684347Y-115617951D01*
X132685232Y-115616979D01*
X132694266Y-115610683D01*
X132704033Y-115609737D01*
X132713477Y-115614138D01*
X132716626Y-115617066D01*
X132723627Y-115624620D01*
X132753685Y-115621126D01*
X132772719Y-115618484D01*
X132786781Y-115615459D01*
X132796544Y-115611818D01*
X132802678Y-115607331D01*
X132805284Y-115603308D01*
X132808109Y-115594255D01*
X132810214Y-115582852D01*
X132811378Y-115571151D01*
X132811379Y-115561203D01*
X132810411Y-115555929D01*
X132808466Y-115550050D01*
X132805598Y-115540414D01*
X132802307Y-115528723D01*
X132800946Y-115523715D01*
X132794203Y-115498597D01*
X132763774Y-115469919D01*
X132751883Y-115458751D01*
X132740404Y-115448037D01*
X132730460Y-115438821D01*
X132723173Y-115432146D01*
X132721746Y-115430861D01*
X132710148Y-115420481D01*
X132696178Y-115449380D01*
X132689440Y-115463543D01*
X132682617Y-115478258D01*
X132676696Y-115491383D01*
X132673910Y-115497782D01*
X132664920Y-115515663D01*
X132655533Y-115527954D01*
X132645710Y-115534694D01*
X132638300Y-115536134D01*
X132633980Y-115535541D01*
X132628531Y-115533496D01*
X132621273Y-115529597D01*
X132611522Y-115523444D01*
X132598596Y-115514636D01*
X132583273Y-115503815D01*
X132567250Y-115492100D01*
X132551005Y-115479719D01*
X132535813Y-115467679D01*
X132522950Y-115456986D01*
X132514975Y-115449874D01*
X132491991Y-115428253D01*
X132478612Y-115439066D01*
X132462469Y-115452338D01*
X132449547Y-115463672D01*
X132438785Y-115474256D01*
X132429121Y-115485277D01*
X132419492Y-115497920D01*
X132408835Y-115513374D01*
X132399802Y-115527103D01*
X132387847Y-115545180D01*
X132378206Y-115558907D01*
X132370332Y-115568799D01*
X132363680Y-115575374D01*
X132357704Y-115579147D01*
X132351859Y-115580636D01*
X132345599Y-115580355D01*
X132343859Y-115580061D01*
X132334939Y-115576952D01*
X132322530Y-115570562D01*
X132307333Y-115561392D01*
X132290049Y-115549941D01*
X132271379Y-115536710D01*
X132252027Y-115522199D01*
X132232692Y-115506907D01*
X132214076Y-115491335D01*
X132196882Y-115475983D01*
X132193765Y-115473068D01*
X132181941Y-115461916D01*
X132157076Y-115484043D01*
X132144431Y-115495502D01*
X132129854Y-115509029D01*
X132115407Y-115522698D01*
X132106106Y-115531680D01*
X132095276Y-115542401D01*
X132087919Y-115550183D01*
X132083375Y-115555937D01*
X132080985Y-115560569D01*
X132080092Y-115564989D01*
X132080000Y-115567696D01*
X132079870Y-115572501D01*
X132078966Y-115576283D01*
X132076515Y-115579826D01*
X132071745Y-115583915D01*
X132063884Y-115589333D01*
X132052159Y-115596864D01*
X132049783Y-115598375D01*
X132034990Y-115606221D01*
X132022921Y-115609261D01*
X132013659Y-115607510D01*
X132007285Y-115600980D01*
X132004071Y-115590937D01*
X132003269Y-115587021D01*
X132002341Y-115585643D01*
X132001041Y-115587374D01*
X131999122Y-115592783D01*
X131996339Y-115602441D01*
X131992446Y-115616918D01*
X131991791Y-115619389D01*
X131985624Y-115644189D01*
X131980781Y-115666814D01*
X131977433Y-115686350D01*
X131975748Y-115701879D01*
X131975578Y-115707050D01*
X131930011Y-115707050D01*
X131930262Y-115704647D01*
X131932537Y-115687552D01*
X131935406Y-115669025D01*
X131938714Y-115650085D01*
X131942304Y-115631752D01*
X131946020Y-115615047D01*
X131949049Y-115603286D01*
X131956130Y-115577107D01*
X131963019Y-115549990D01*
X131969417Y-115523231D01*
X131975023Y-115498124D01*
X131979536Y-115475964D01*
X131982391Y-115459754D01*
X131985126Y-115446648D01*
X131989697Y-115429572D01*
X131995704Y-115409739D01*
X132002745Y-115388360D01*
X132010419Y-115366648D01*
X132018324Y-115345815D01*
X132026059Y-115327073D01*
X132027202Y-115324467D01*
X132030349Y-115316652D01*
X132034781Y-115304692D01*
X132040058Y-115289816D01*
X132045743Y-115273254D01*
X132050311Y-115259556D01*
X132056291Y-115241534D01*
X132062455Y-115223249D01*
X132068280Y-115206229D01*
X132073246Y-115192000D01*
X132075893Y-115184624D01*
X132081030Y-115169720D01*
X132086241Y-115153192D01*
X132090563Y-115138127D01*
X132091319Y-115135235D01*
X132099004Y-115109861D01*
X132109359Y-115082630D01*
X132121411Y-115055994D01*
X132127350Y-115044442D01*
X132132485Y-115034655D01*
X132135396Y-115027975D01*
X132135653Y-115024356D01*
X132132824Y-115023753D01*
X132126480Y-115026119D01*
X132116188Y-115031411D01*
X132101520Y-115039581D01*
X132098345Y-115041374D01*
X132086951Y-115047793D01*
X132072900Y-115055679D01*
X132058465Y-115063755D01*
X132051778Y-115067486D01*
X132019324Y-115086375D01*
X131985656Y-115107616D01*
X131966357Y-115120445D01*
X131933975Y-115142217D01*
X131905557Y-115161075D01*
X131880465Y-115177379D01*
X131858064Y-115191487D01*
X131837716Y-115203759D01*
X131818786Y-115214553D01*
X131800637Y-115224229D01*
X131782634Y-115233144D01*
X131764140Y-115241659D01*
X131744518Y-115250132D01*
X131723132Y-115258923D01*
X131715372Y-115262037D01*
X131696079Y-115269677D01*
X131680858Y-115275515D01*
X131668579Y-115279934D01*
X131658112Y-115283320D01*
X131648327Y-115286056D01*
X131638092Y-115288529D01*
X131636385Y-115288915D01*
X131631336Y-115290704D01*
X131629752Y-115294199D01*
X131630353Y-115300174D01*
X131630532Y-115306683D01*
X131628647Y-115314178D01*
X131624243Y-115324167D01*
X131621397Y-115329724D01*
X131610496Y-115347773D01*
X131599081Y-115360838D01*
X131586641Y-115369031D01*
X131572665Y-115372462D01*
X131556643Y-115371242D01*
X131538065Y-115365483D01*
X131516421Y-115355294D01*
X131512778Y-115353336D01*
X131481945Y-115336530D01*
X131472176Y-115343481D01*
X131461779Y-115348813D01*
X131450665Y-115349988D01*
X131437763Y-115346963D01*
X131425898Y-115341730D01*
X131412668Y-115333658D01*
X131399298Y-115323078D01*
X131386644Y-115310951D01*
X131375565Y-115298236D01*
X131366917Y-115285895D01*
X131361559Y-115274887D01*
X131360216Y-115268176D01*
X131359613Y-115264807D01*
X131357363Y-115261662D01*
X131352624Y-115258131D01*
X131344553Y-115253608D01*
X131332308Y-115247486D01*
X131329877Y-115246303D01*
X131305617Y-115233865D01*
X131285283Y-115222048D01*
X131269228Y-115211096D01*
X131257801Y-115201253D01*
X131251352Y-115192763D01*
X131250693Y-115191255D01*
X131248824Y-115185466D01*
X131248499Y-115180529D01*
X131249955Y-115174900D01*
X131298245Y-115174900D01*
X131300683Y-115177755D01*
X131307651Y-115182800D01*
X131318631Y-115189704D01*
X131333102Y-115198134D01*
X131344496Y-115204472D01*
X131354176Y-115209644D01*
X131361284Y-115212683D01*
X131367880Y-115214007D01*
X131376020Y-115214034D01*
X131387517Y-115213200D01*
X131399159Y-115212357D01*
X131406662Y-115212301D01*
X131411508Y-115213280D01*
X131415176Y-115215544D01*
X131418172Y-115218360D01*
X131423791Y-115226390D01*
X131424568Y-115235005D01*
X131420464Y-115245074D01*
X131416778Y-115250641D01*
X131411892Y-115258096D01*
X131408834Y-115264129D01*
X131408311Y-115266178D01*
X131410290Y-115269887D01*
X131415435Y-115276016D01*
X131422558Y-115283394D01*
X131430469Y-115290848D01*
X131437980Y-115297208D01*
X131443903Y-115301302D01*
X131443992Y-115301350D01*
X131447546Y-115302501D01*
X131451640Y-115301660D01*
X131457457Y-115298291D01*
X131466181Y-115291858D01*
X131467907Y-115290523D01*
X131480580Y-115281653D01*
X131490150Y-115277166D01*
X131494207Y-115276515D01*
X131503541Y-115278903D01*
X131511095Y-115285089D01*
X131515224Y-115293519D01*
X131515556Y-115296703D01*
X131516085Y-115300848D01*
X131518329Y-115304366D01*
X131523275Y-115308119D01*
X131531907Y-115312969D01*
X131537428Y-115315825D01*
X131550901Y-115322360D01*
X131560539Y-115325945D01*
X131567286Y-115326635D01*
X131572086Y-115324484D01*
X131575881Y-115319548D01*
X131576663Y-115318117D01*
X131580326Y-115309027D01*
X131583052Y-115298667D01*
X131583310Y-115297174D01*
X131584228Y-115289733D01*
X131583173Y-115286050D01*
X131579076Y-115284311D01*
X131575300Y-115283556D01*
X131568246Y-115280956D01*
X131560293Y-115275436D01*
X131551134Y-115266645D01*
X131540461Y-115254231D01*
X131527968Y-115237841D01*
X131513347Y-115217122D01*
X131499764Y-115196973D01*
X131484052Y-115173421D01*
X131470999Y-115154195D01*
X131460224Y-115138863D01*
X131451350Y-115126995D01*
X131443997Y-115118159D01*
X131437786Y-115111924D01*
X131432338Y-115107857D01*
X131427275Y-115105527D01*
X131422217Y-115104504D01*
X131418402Y-115104334D01*
X131411839Y-115105894D01*
X131408610Y-115108207D01*
X131404237Y-115110469D01*
X131395888Y-115112563D01*
X131385664Y-115114025D01*
X131375185Y-115115389D01*
X131366818Y-115117602D01*
X131358550Y-115121454D01*
X131348368Y-115127736D01*
X131344985Y-115129980D01*
X131335086Y-115137210D01*
X131324737Y-115145769D01*
X131314910Y-115154725D01*
X131306575Y-115163144D01*
X131300702Y-115170094D01*
X131298263Y-115174641D01*
X131298245Y-115174900D01*
X131249955Y-115174900D01*
X131250012Y-115174682D01*
X131253651Y-115166163D01*
X131255482Y-115162221D01*
X131265469Y-115145145D01*
X131278956Y-115128259D01*
X131295008Y-115112275D01*
X131312686Y-115097902D01*
X131331055Y-115085853D01*
X131349177Y-115076840D01*
X131366115Y-115071573D01*
X131376284Y-115070495D01*
X131385248Y-115070109D01*
X131390628Y-115068423D01*
X131393785Y-115065261D01*
X131453384Y-115065261D01*
X131471171Y-115082681D01*
X131480265Y-115092701D01*
X131491906Y-115107397D01*
X131505900Y-115126509D01*
X131522052Y-115149776D01*
X131530412Y-115162189D01*
X131544450Y-115183230D01*
X131555758Y-115200090D01*
X131564783Y-115213254D01*
X131571972Y-115223205D01*
X131577773Y-115230428D01*
X131582632Y-115235408D01*
X131586997Y-115238629D01*
X131591315Y-115240575D01*
X131596032Y-115241730D01*
X131601596Y-115242580D01*
X131605075Y-115243077D01*
X131617432Y-115244508D01*
X131627097Y-115244368D01*
X131636836Y-115242517D01*
X131641407Y-115241257D01*
X131657133Y-115236136D01*
X131676625Y-115228930D01*
X131698640Y-115220161D01*
X131721937Y-115210349D01*
X131745275Y-115200016D01*
X131767413Y-115189684D01*
X131785078Y-115180921D01*
X131801186Y-115172250D01*
X131819988Y-115161490D01*
X131840421Y-115149307D01*
X131861423Y-115136369D01*
X131881932Y-115123342D01*
X131900885Y-115110892D01*
X131917219Y-115099687D01*
X131929872Y-115090392D01*
X131931834Y-115088848D01*
X131940573Y-115082512D01*
X131951590Y-115075385D01*
X131960056Y-115070401D01*
X131970234Y-115064494D01*
X131979681Y-115058609D01*
X131985456Y-115054660D01*
X131988745Y-115052346D01*
X131993335Y-115049392D01*
X131999689Y-115045534D01*
X132008270Y-115040505D01*
X132019543Y-115034039D01*
X132033970Y-115025869D01*
X132052015Y-115015730D01*
X132074141Y-115003355D01*
X132096635Y-114990806D01*
X132111702Y-114982445D01*
X132122822Y-114976481D01*
X132130973Y-114972547D01*
X132137130Y-114970280D01*
X132142269Y-114969314D01*
X132147368Y-114969285D01*
X132152913Y-114969777D01*
X132163149Y-114971655D01*
X132172078Y-114974679D01*
X132175638Y-114976671D01*
X132182811Y-114985362D01*
X132185923Y-114997727D01*
X132184968Y-115013814D01*
X132179942Y-115033670D01*
X132170836Y-115057343D01*
X132163457Y-115073306D01*
X132156539Y-115087999D01*
X132150132Y-115102476D01*
X132144880Y-115115223D01*
X132141427Y-115124727D01*
X132141044Y-115125984D01*
X132136588Y-115140801D01*
X132130612Y-115159901D01*
X132123461Y-115182242D01*
X132115481Y-115206781D01*
X132107017Y-115232474D01*
X132098415Y-115258278D01*
X132090021Y-115283150D01*
X132082179Y-115306046D01*
X132075235Y-115325924D01*
X132070180Y-115339989D01*
X132070408Y-115341513D01*
X132073395Y-115338964D01*
X132076172Y-115335760D01*
X132082520Y-115328065D01*
X132090475Y-115318529D01*
X132096159Y-115311771D01*
X132104334Y-115301899D01*
X132113728Y-115290265D01*
X132121264Y-115280723D01*
X132128136Y-115272458D01*
X132137611Y-115261849D01*
X132148958Y-115249637D01*
X132161445Y-115236562D01*
X132174343Y-115223367D01*
X132186920Y-115210791D01*
X132198447Y-115199577D01*
X132208192Y-115190463D01*
X132215425Y-115184193D01*
X132218854Y-115181751D01*
X132230160Y-115178153D01*
X132241391Y-115178603D01*
X132246400Y-115180474D01*
X132251450Y-115185805D01*
X132255452Y-115194787D01*
X132257620Y-115205434D01*
X132257800Y-115209271D01*
X132259930Y-115220354D01*
X132265867Y-115233961D01*
X132274933Y-115249189D01*
X132286448Y-115265136D01*
X132299734Y-115280900D01*
X132314111Y-115295579D01*
X132328902Y-115308271D01*
X132336387Y-115313690D01*
X132343426Y-115318436D01*
X132357287Y-115298168D01*
X132370311Y-115280661D01*
X132384114Y-115264792D01*
X132397539Y-115251811D01*
X132406813Y-115244625D01*
X132412251Y-115240001D01*
X132420112Y-115232066D01*
X132429328Y-115221944D01*
X132438546Y-115211113D01*
X132451958Y-115195536D01*
X132463185Y-115184303D01*
X132472912Y-115176898D01*
X132481820Y-115172804D01*
X132490593Y-115171504D01*
X132490889Y-115171503D01*
X132499127Y-115172657D01*
X132505997Y-115176667D01*
X132512374Y-115184355D01*
X132519132Y-115196540D01*
X132520441Y-115199244D01*
X132526960Y-115210577D01*
X132536621Y-115223546D01*
X132549983Y-115238867D01*
X132557315Y-115246681D01*
X132567492Y-115257211D01*
X132576314Y-115266094D01*
X132583049Y-115272611D01*
X132586963Y-115276043D01*
X132587593Y-115276391D01*
X132589799Y-115274128D01*
X132594264Y-115268118D01*
X132600242Y-115259395D01*
X132604364Y-115253107D01*
X132613518Y-115239927D01*
X132624646Y-115225367D01*
X132635727Y-115212038D01*
X132638662Y-115208756D01*
X132647567Y-115199156D01*
X132653883Y-115193006D01*
X132658773Y-115189542D01*
X132663401Y-115187995D01*
X132668929Y-115187598D01*
X132670755Y-115187589D01*
X132679355Y-115188458D01*
X132686845Y-115191569D01*
X132694204Y-115197674D01*
X132702412Y-115207530D01*
X132709373Y-115217336D01*
X132715648Y-115226058D01*
X132721411Y-115233283D01*
X132725038Y-115237092D01*
X132728005Y-115239163D01*
X132729130Y-115238112D01*
X132728763Y-115232963D01*
X132728124Y-115228512D01*
X132727440Y-115222919D01*
X132726675Y-115214599D01*
X132725806Y-115203168D01*
X132724808Y-115188240D01*
X132723658Y-115169431D01*
X132722332Y-115146357D01*
X132720806Y-115118633D01*
X132719057Y-115085874D01*
X132717951Y-115064823D01*
X132716953Y-115046701D01*
X132715913Y-115029548D01*
X132714911Y-115014533D01*
X132714024Y-115002830D01*
X132713338Y-114995678D01*
X132710181Y-114979051D01*
X132705138Y-114962766D01*
X132698869Y-114948608D01*
X132692233Y-114938586D01*
X132684570Y-114927055D01*
X132681594Y-114915837D01*
X132683296Y-114905801D01*
X132689668Y-114897810D01*
X132692655Y-114895848D01*
X132700270Y-114893252D01*
X132708191Y-114894373D01*
X132717230Y-114899553D01*
X132728197Y-114909135D01*
X132731139Y-114912058D01*
X132738433Y-114919115D01*
X132745594Y-114925128D01*
X132753522Y-114930612D01*
X132763117Y-114936077D01*
X132775280Y-114942038D01*
X132790911Y-114949008D01*
X132810848Y-114957472D01*
X132825566Y-114963744D01*
X132839967Y-114970062D01*
X132852442Y-114975709D01*
X132861380Y-114979967D01*
X132861688Y-114980122D01*
X132877251Y-114987566D01*
X132896441Y-114996115D01*
X132917544Y-115005049D01*
X132938848Y-115013651D01*
X132958638Y-115021201D01*
X132965638Y-115023727D01*
X132978645Y-115028393D01*
X132995024Y-115034366D01*
X133012871Y-115040948D01*
X133030282Y-115047438D01*
X133033911Y-115048802D01*
X133050157Y-115054697D01*
X133066531Y-115060257D01*
X133081413Y-115064956D01*
X133093181Y-115068267D01*
X133096000Y-115068942D01*
X133113399Y-115072881D01*
X133129558Y-115076625D01*
X133143274Y-115079888D01*
X133153340Y-115082387D01*
X133156878Y-115083331D01*
X133160915Y-115083503D01*
X133163697Y-115080386D01*
X133166089Y-115073734D01*
X133172267Y-115061825D01*
X133183853Y-115049376D01*
X133200904Y-115036342D01*
X133223473Y-115022676D01*
X133236403Y-115015818D01*
X133250915Y-115008269D01*
X133265042Y-115000678D01*
X133277315Y-114993851D01*
X133286264Y-114988593D01*
X133287391Y-114987886D01*
X133302394Y-114978336D01*
X133291207Y-114973942D01*
X133280194Y-114967521D01*
X133273687Y-114959212D01*
X133271956Y-114949922D01*
X133275273Y-114940556D01*
X133279652Y-114935412D01*
X133281757Y-114933250D01*
X133282437Y-114931274D01*
X133281075Y-114928949D01*
X133277052Y-114925741D01*
X133269753Y-114921116D01*
X133258558Y-114914539D01*
X133249464Y-114909289D01*
X133213051Y-114889462D01*
X133171365Y-114868900D01*
X133124707Y-114847751D01*
X133113234Y-114842789D01*
X133097634Y-114835813D01*
X133078543Y-114826830D01*
X133057409Y-114816557D01*
X133035685Y-114805713D01*
X133014821Y-114795014D01*
X132996268Y-114785179D01*
X132991578Y-114782618D01*
X132982040Y-114777600D01*
X132969430Y-114771280D01*
X132955817Y-114764684D01*
X132949245Y-114761588D01*
X132938175Y-114755946D01*
X132923756Y-114747880D01*
X132907293Y-114738160D01*
X132890091Y-114727554D01*
X132874456Y-114717493D01*
X132857003Y-114706057D01*
X132841747Y-114696240D01*
X132827659Y-114687433D01*
X132813710Y-114679028D01*
X132798872Y-114670417D01*
X132782117Y-114660992D01*
X132762415Y-114650145D01*
X132738989Y-114637403D01*
X132714623Y-114623697D01*
X132690029Y-114608950D01*
X132666491Y-114593984D01*
X132645292Y-114579616D01*
X132627713Y-114566669D01*
X132625198Y-114564685D01*
X132613307Y-114553634D01*
X132605447Y-114542922D01*
X132602187Y-114533355D01*
X132602130Y-114532128D01*
X132601603Y-114527165D01*
X132600755Y-114525778D01*
X132595447Y-114527741D01*
X132586906Y-114533273D01*
X132575778Y-114541841D01*
X132562707Y-114552914D01*
X132548337Y-114565959D01*
X132533314Y-114580442D01*
X132527322Y-114586461D01*
X132510285Y-114603390D01*
X132495937Y-114616593D01*
X132483364Y-114626689D01*
X132471655Y-114634299D01*
X132459897Y-114640043D01*
X132447178Y-114644541D01*
X132438235Y-114647021D01*
X132427563Y-114650219D01*
X132415956Y-114654353D01*
X132412499Y-114655736D01*
X132395177Y-114660248D01*
X132379673Y-114661245D01*
X132369800Y-114660806D01*
X132356076Y-114659592D01*
X132339550Y-114657752D01*
X132321271Y-114655441D01*
X132302288Y-114652808D01*
X132283649Y-114650005D01*
X132266403Y-114647185D01*
X132251599Y-114644499D01*
X132240287Y-114642098D01*
X132233513Y-114640135D01*
X132233417Y-114640095D01*
X132219876Y-114633560D01*
X132203526Y-114624319D01*
X132185856Y-114613331D01*
X132168351Y-114601552D01*
X132152500Y-114589939D01*
X132141338Y-114580828D01*
X132118018Y-114560385D01*
X132108181Y-114567212D01*
X132101922Y-114571079D01*
X132091921Y-114576718D01*
X132079501Y-114583404D01*
X132065982Y-114590413D01*
X132064478Y-114591176D01*
X132050690Y-114598500D01*
X132037692Y-114606024D01*
X132026886Y-114612895D01*
X132019675Y-114618265D01*
X132019322Y-114618579D01*
X132006828Y-114629563D01*
X131991084Y-114642815D01*
X131972870Y-114657728D01*
X131952965Y-114673697D01*
X131932147Y-114690116D01*
X131911197Y-114706378D01*
X131890892Y-114721877D01*
X131872012Y-114736008D01*
X131855337Y-114748165D01*
X131841644Y-114757740D01*
X131834033Y-114762719D01*
X131822390Y-114770475D01*
X131808203Y-114780680D01*
X131793180Y-114792070D01*
X131779027Y-114803378D01*
X131777589Y-114804569D01*
X131764697Y-114815131D01*
X131751855Y-114825376D01*
X131740376Y-114834273D01*
X131731577Y-114840790D01*
X131730045Y-114841862D01*
X131723575Y-114846632D01*
X131713583Y-114854409D01*
X131700861Y-114864559D01*
X131686199Y-114876447D01*
X131670388Y-114889437D01*
X131658078Y-114899665D01*
X131642138Y-114912855D01*
X131626929Y-114925211D01*
X131613197Y-114936147D01*
X131601684Y-114945074D01*
X131593137Y-114951407D01*
X131588934Y-114954210D01*
X131576745Y-114962009D01*
X131561879Y-114972579D01*
X131545765Y-114984820D01*
X131529831Y-114997630D01*
X131515509Y-115009910D01*
X131509843Y-115015089D01*
X131498249Y-115025784D01*
X131485095Y-115037642D01*
X131473104Y-115048210D01*
X131472406Y-115048814D01*
X131453384Y-115065261D01*
X131393785Y-115065261D01*
X131394470Y-115064575D01*
X131396080Y-115062165D01*
X131400191Y-115057122D01*
X131407870Y-115049034D01*
X131418417Y-115038551D01*
X131431133Y-115026321D01*
X131445317Y-115012991D01*
X131460268Y-114999211D01*
X131475286Y-114985629D01*
X131489671Y-114972892D01*
X131502723Y-114961650D01*
X131513742Y-114952552D01*
X131518433Y-114948884D01*
X131531958Y-114938840D01*
X131547294Y-114927815D01*
X131561798Y-114917698D01*
X131566356Y-114914610D01*
X131577069Y-114906996D01*
X131590586Y-114896747D01*
X131605487Y-114884973D01*
X131620353Y-114872783D01*
X131627034Y-114867132D01*
X131642446Y-114854170D01*
X131659568Y-114840144D01*
X131676617Y-114826492D01*
X131691811Y-114814651D01*
X131696178Y-114811338D01*
X131710621Y-114800329D01*
X131726042Y-114788322D01*
X131740609Y-114776758D01*
X131752488Y-114767079D01*
X131752622Y-114766967D01*
X131771628Y-114751681D01*
X131790519Y-114737718D01*
X131811242Y-114723681D01*
X131827359Y-114713392D01*
X131838417Y-114706080D01*
X131849734Y-114697998D01*
X131856992Y-114692389D01*
X131862779Y-114687688D01*
X131872180Y-114680084D01*
X131884410Y-114670212D01*
X131898685Y-114658703D01*
X131914219Y-114646193D01*
X131924778Y-114637696D01*
X131940914Y-114624694D01*
X131956487Y-114612104D01*
X131970668Y-114600600D01*
X131982626Y-114590856D01*
X131991531Y-114583548D01*
X131995181Y-114580513D01*
X132003642Y-114574303D01*
X132015690Y-114566636D01*
X132029794Y-114558438D01*
X132044422Y-114550630D01*
X132046124Y-114549772D01*
X132062207Y-114541617D01*
X132073716Y-114535413D01*
X132081169Y-114530677D01*
X132085085Y-114526924D01*
X132085982Y-114523671D01*
X132084378Y-114520435D01*
X132081156Y-114517072D01*
X132075832Y-114511011D01*
X132069847Y-114502861D01*
X132157611Y-114502861D01*
X132157611Y-114536102D01*
X132173475Y-114549990D01*
X132182396Y-114557084D01*
X132194126Y-114565405D01*
X132207492Y-114574232D01*
X132221322Y-114582839D01*
X132234445Y-114590505D01*
X132245689Y-114596506D01*
X132253880Y-114600119D01*
X132255519Y-114600617D01*
X132264766Y-114602531D01*
X132278162Y-114604808D01*
X132294330Y-114607264D01*
X132311889Y-114609715D01*
X132329461Y-114611975D01*
X132345665Y-114613861D01*
X132359123Y-114615187D01*
X132368455Y-114615769D01*
X132368749Y-114615775D01*
X132393993Y-114613386D01*
X132406849Y-114609991D01*
X132428904Y-114602380D01*
X132446696Y-114594890D01*
X132461519Y-114586666D01*
X132474670Y-114576854D01*
X132487446Y-114564600D01*
X132501140Y-114549051D01*
X132503340Y-114546398D01*
X132519668Y-114528738D01*
X132538843Y-114512219D01*
X132562141Y-114495757D01*
X132564815Y-114494028D01*
X132572267Y-114489565D01*
X132577912Y-114486759D01*
X132579632Y-114486267D01*
X132582230Y-114484079D01*
X132582356Y-114483143D01*
X132580280Y-114481318D01*
X132577820Y-114481759D01*
X132565070Y-114485877D01*
X132547730Y-114490344D01*
X132526828Y-114494974D01*
X132503392Y-114499577D01*
X132478451Y-114503968D01*
X132453033Y-114507958D01*
X132428167Y-114511358D01*
X132404881Y-114513983D01*
X132397500Y-114514666D01*
X132368597Y-114516386D01*
X132336114Y-114516984D01*
X132301526Y-114516525D01*
X132266310Y-114515074D01*
X132231940Y-114512696D01*
X132199893Y-114509456D01*
X132171644Y-114505420D01*
X132166078Y-114504431D01*
X132157611Y-114502861D01*
X132069847Y-114502861D01*
X132069314Y-114502136D01*
X132064055Y-114494038D01*
X132056602Y-114483315D01*
X132050054Y-114477417D01*
X132046636Y-114476010D01*
X132036754Y-114473127D01*
X132022845Y-114468335D01*
X132006018Y-114462073D01*
X131987381Y-114454781D01*
X131968039Y-114446896D01*
X131949102Y-114438858D01*
X131931675Y-114431105D01*
X131922297Y-114426722D01*
X131858800Y-114393249D01*
X131798241Y-114355078D01*
X131740905Y-114312452D01*
X131687077Y-114265617D01*
X131637041Y-114214816D01*
X131591082Y-114160296D01*
X131556189Y-114112323D01*
X131535126Y-114081278D01*
X131517262Y-114080850D01*
X131496203Y-114078477D01*
X131472131Y-114072581D01*
X131446039Y-114063616D01*
X131418921Y-114052035D01*
X131391769Y-114038292D01*
X131365576Y-114022841D01*
X131341336Y-114006134D01*
X131325022Y-113993043D01*
X131317255Y-113986213D01*
X131310308Y-113979706D01*
X131303870Y-113973037D01*
X131297628Y-113965722D01*
X131291271Y-113957277D01*
X131284486Y-113947217D01*
X131276962Y-113935059D01*
X131268387Y-113920317D01*
X131258448Y-113902507D01*
X131246835Y-113881145D01*
X131233234Y-113855747D01*
X131217355Y-113825867D01*
X131214938Y-113817698D01*
X131213807Y-113806059D01*
X131213918Y-113797612D01*
X131258458Y-113797612D01*
X131259456Y-113807237D01*
X131263839Y-113818107D01*
X131267879Y-113825524D01*
X131273781Y-113836006D01*
X131280845Y-113848904D01*
X131287647Y-113861615D01*
X131288340Y-113862931D01*
X131299650Y-113884313D01*
X131308930Y-113901399D01*
X131316682Y-113914938D01*
X131323406Y-113925682D01*
X131329602Y-113934378D01*
X131335771Y-113941778D01*
X131342414Y-113948630D01*
X131350032Y-113955685D01*
X131350629Y-113956219D01*
X131360523Y-113964909D01*
X131368950Y-113971830D01*
X131377133Y-113977794D01*
X131386293Y-113983613D01*
X131397653Y-113990101D01*
X131412435Y-113998069D01*
X131418068Y-114001055D01*
X131434452Y-114009318D01*
X131450857Y-114016878D01*
X131466514Y-114023458D01*
X131480653Y-114028778D01*
X131492504Y-114032560D01*
X131501298Y-114034527D01*
X131506265Y-114034398D01*
X131507089Y-114033253D01*
X131505897Y-114030308D01*
X131502650Y-114023361D01*
X131497844Y-114013449D01*
X131491973Y-114001607D01*
X131491921Y-114001503D01*
X131465359Y-113942823D01*
X131442632Y-113880872D01*
X131424056Y-113816794D01*
X131409947Y-113751731D01*
X131400620Y-113686826D01*
X131398429Y-113662884D01*
X131397368Y-113651538D01*
X131396181Y-113642683D01*
X131395053Y-113637559D01*
X131394535Y-113636778D01*
X131391485Y-113638819D01*
X131385273Y-113644562D01*
X131376423Y-113653434D01*
X131365461Y-113664866D01*
X131352915Y-113678285D01*
X131339308Y-113693121D01*
X131325167Y-113708801D01*
X131311018Y-113724756D01*
X131297386Y-113740414D01*
X131284796Y-113755203D01*
X131277784Y-113763639D01*
X131267421Y-113777070D01*
X131261046Y-113787975D01*
X131258458Y-113797612D01*
X131213918Y-113797612D01*
X131213979Y-113792983D01*
X131215474Y-113780500D01*
X131216892Y-113774538D01*
X131220279Y-113767163D01*
X131226321Y-113757431D01*
X131233866Y-113747151D01*
X131235961Y-113744577D01*
X131244728Y-113733953D01*
X131253516Y-113723129D01*
X131260639Y-113714183D01*
X131261574Y-113712985D01*
X131273815Y-113697877D01*
X131287774Y-113681740D01*
X131302810Y-113665213D01*
X131318283Y-113648936D01*
X131333552Y-113633551D01*
X131347976Y-113619697D01*
X131360915Y-113608016D01*
X131371728Y-113599147D01*
X131379774Y-113593732D01*
X131379940Y-113593654D01*
X131433848Y-113593654D01*
X131434073Y-113608364D01*
X131435239Y-113621888D01*
X131437307Y-113632134D01*
X131437561Y-113632896D01*
X131439564Y-113640807D01*
X131441516Y-113652264D01*
X131443081Y-113665176D01*
X131443441Y-113669234D01*
X131447349Y-113704320D01*
X131453566Y-113742652D01*
X131461722Y-113782508D01*
X131471443Y-113822167D01*
X131482359Y-113859906D01*
X131488831Y-113879489D01*
X131514444Y-113944694D01*
X131544950Y-114007325D01*
X131580121Y-114067126D01*
X131619733Y-114123841D01*
X131663558Y-114177215D01*
X131711371Y-114226992D01*
X131762946Y-114272917D01*
X131818056Y-114314735D01*
X131876476Y-114352189D01*
X131934656Y-114383409D01*
X131951532Y-114391390D01*
X131970234Y-114399805D01*
X131988466Y-114407642D01*
X132003706Y-114413806D01*
X132036067Y-114426273D01*
X132046351Y-114420912D01*
X132056489Y-114417514D01*
X132065440Y-114418991D01*
X132074081Y-114425616D01*
X132078536Y-114430914D01*
X132082349Y-114435475D01*
X132086533Y-114439080D01*
X132092016Y-114442093D01*
X132099724Y-114444875D01*
X132110584Y-114447788D01*
X132125521Y-114451194D01*
X132136445Y-114453544D01*
X132165453Y-114459108D01*
X132196344Y-114463950D01*
X132227856Y-114467940D01*
X132258725Y-114470954D01*
X132287689Y-114472864D01*
X132313486Y-114473543D01*
X132331178Y-114473104D01*
X132338937Y-114472707D01*
X132350747Y-114472151D01*
X132365020Y-114471511D01*
X132380167Y-114470859D01*
X132380567Y-114470842D01*
X132421165Y-114467710D01*
X132464530Y-114461804D01*
X132508919Y-114453484D01*
X132552587Y-114443111D01*
X132593789Y-114431044D01*
X132622542Y-114420899D01*
X132635248Y-114415498D01*
X132644271Y-114410158D01*
X132651437Y-114403696D01*
X132654482Y-114400178D01*
X132665074Y-114390095D01*
X132675862Y-114385578D01*
X132687062Y-114386549D01*
X132689458Y-114387430D01*
X132694309Y-114388881D01*
X132699293Y-114388582D01*
X132706031Y-114386172D01*
X132715377Y-114381680D01*
X132777992Y-114347072D01*
X132837053Y-114308137D01*
X132892408Y-114265038D01*
X132943906Y-114217941D01*
X132991395Y-114167010D01*
X133034723Y-114112411D01*
X133073739Y-114054308D01*
X133108292Y-113992867D01*
X133138228Y-113928251D01*
X133142752Y-113917200D01*
X133156310Y-113881347D01*
X133203241Y-113881347D01*
X133204213Y-113881687D01*
X133207116Y-113880700D01*
X133212612Y-113878119D01*
X133221364Y-113873678D01*
X133234035Y-113867109D01*
X133244989Y-113861414D01*
X133261994Y-113852318D01*
X133274802Y-113844660D01*
X133284381Y-113837605D01*
X133291702Y-113830321D01*
X133297733Y-113821973D01*
X133303445Y-113811728D01*
X133303963Y-113810711D01*
X133309616Y-113799186D01*
X133313933Y-113789093D01*
X133317093Y-113779385D01*
X133319275Y-113769017D01*
X133320655Y-113756942D01*
X133321413Y-113742114D01*
X133321727Y-113723485D01*
X133321778Y-113706109D01*
X133321699Y-113685083D01*
X133321433Y-113669015D01*
X133320940Y-113657221D01*
X133320175Y-113649016D01*
X133319098Y-113643715D01*
X133317756Y-113640759D01*
X133310627Y-113633395D01*
X133300336Y-113625962D01*
X133289157Y-113619923D01*
X133280928Y-113617039D01*
X133273724Y-113615987D01*
X133269460Y-113617542D01*
X133266592Y-113621093D01*
X133260684Y-113627267D01*
X133255416Y-113630638D01*
X133250554Y-113634076D01*
X133248612Y-113639723D01*
X133248397Y-113644479D01*
X133247925Y-113654878D01*
X133246624Y-113669578D01*
X133244653Y-113687323D01*
X133242175Y-113706858D01*
X133239349Y-113726927D01*
X133236339Y-113746274D01*
X133233304Y-113763643D01*
X133232678Y-113766926D01*
X133229679Y-113781336D01*
X133225868Y-113798115D01*
X133221556Y-113816041D01*
X133217054Y-113833888D01*
X133212675Y-113850433D01*
X133208730Y-113864453D01*
X133205532Y-113874723D01*
X133204434Y-113877758D01*
X133203535Y-113879949D01*
X133203241Y-113881347D01*
X133156310Y-113881347D01*
X133156667Y-113880405D01*
X133168495Y-113844129D01*
X133178703Y-113806712D01*
X133187755Y-113766494D01*
X133193695Y-113735556D01*
X133196410Y-113720627D01*
X133198947Y-113706863D01*
X133201048Y-113695644D01*
X133202458Y-113688355D01*
X133202616Y-113687578D01*
X133203580Y-113679527D01*
X133204257Y-113666749D01*
X133204662Y-113650153D01*
X133204811Y-113630650D01*
X133204717Y-113609147D01*
X133204395Y-113586555D01*
X133203860Y-113563784D01*
X133203127Y-113541742D01*
X133202211Y-113521339D01*
X133201125Y-113503485D01*
X133199885Y-113489088D01*
X133199333Y-113484378D01*
X133187308Y-113412939D01*
X133170199Y-113343833D01*
X133148058Y-113277168D01*
X133120937Y-113213051D01*
X133088887Y-113151590D01*
X133051959Y-113092894D01*
X133010206Y-113037068D01*
X132963679Y-112984222D01*
X132956469Y-112976742D01*
X132905983Y-112928611D01*
X132853085Y-112885426D01*
X132797272Y-112846817D01*
X132738036Y-112812417D01*
X132713589Y-112799910D01*
X132676365Y-112782311D01*
X132641553Y-112767583D01*
X132607213Y-112755008D01*
X132571401Y-112743865D01*
X132538611Y-112735048D01*
X132508270Y-112727689D01*
X132480857Y-112721839D01*
X132455063Y-112717342D01*
X132429581Y-112714047D01*
X132403101Y-112711800D01*
X132374315Y-112710448D01*
X132341913Y-112709836D01*
X132322711Y-112709761D01*
X132297618Y-112709815D01*
X132277123Y-112710014D01*
X132260183Y-112710415D01*
X132245751Y-112711071D01*
X132232784Y-112712040D01*
X132220236Y-112713376D01*
X132207062Y-112715135D01*
X132198942Y-112716338D01*
X132158799Y-112723491D01*
X132116768Y-112732909D01*
X132074664Y-112744105D01*
X132034302Y-112756590D01*
X131997497Y-112769875D01*
X131992511Y-112771860D01*
X131932512Y-112798855D01*
X131874123Y-112830627D01*
X131817988Y-112866708D01*
X131764751Y-112906631D01*
X131715056Y-112949925D01*
X131669546Y-112996124D01*
X131644365Y-113025226D01*
X131600818Y-113082388D01*
X131562531Y-113141529D01*
X131529462Y-113202752D01*
X131501570Y-113266156D01*
X131478812Y-113331842D01*
X131461149Y-113399913D01*
X131448537Y-113470468D01*
X131443384Y-113513980D01*
X131441713Y-113530173D01*
X131439982Y-113545113D01*
X131438347Y-113557565D01*
X131436965Y-113566297D01*
X131436376Y-113569045D01*
X131434603Y-113579850D01*
X131433848Y-113593654D01*
X131379940Y-113593654D01*
X131381829Y-113592767D01*
X131388258Y-113590064D01*
X131391901Y-113587097D01*
X131393794Y-113582202D01*
X131394970Y-113573716D01*
X131395234Y-113571214D01*
X131396258Y-113558815D01*
X131396907Y-113545959D01*
X131397026Y-113539703D01*
X131397570Y-113526191D01*
X131399088Y-113508426D01*
X131401416Y-113487683D01*
X131404389Y-113465239D01*
X131407844Y-113442369D01*
X131411616Y-113420349D01*
X131413943Y-113408178D01*
X131430856Y-113337894D01*
X131453051Y-113269567D01*
X131480473Y-113203313D01*
X131513070Y-113139247D01*
X131550787Y-113077487D01*
X131593571Y-113018147D01*
X131597559Y-113013067D01*
X131619022Y-112987526D01*
X131644275Y-112960183D01*
X131672225Y-112932070D01*
X131701779Y-112904217D01*
X131731846Y-112877654D01*
X131761331Y-112853413D01*
X131788467Y-112833004D01*
X131847354Y-112794545D01*
X131909125Y-112760780D01*
X131973366Y-112731824D01*
X132039663Y-112707791D01*
X132107602Y-112688794D01*
X132176769Y-112674948D01*
X132246750Y-112666365D01*
X132317132Y-112663161D01*
X132387500Y-112665449D01*
G36*
X131939982Y-113772475D02*
G01*
X131944042Y-113775955D01*
X131949703Y-113785065D01*
X131949846Y-113794233D01*
X131944590Y-113803229D01*
X131934055Y-113811821D01*
X131922245Y-113818097D01*
X131907910Y-113824906D01*
X131898113Y-113830515D01*
X131892069Y-113835594D01*
X131888990Y-113840812D01*
X131888091Y-113846840D01*
X131888089Y-113847192D01*
X131888942Y-113854134D01*
X131891226Y-113864634D01*
X131894531Y-113876918D01*
X131896378Y-113882983D01*
X131900685Y-113897023D01*
X131904917Y-113911587D01*
X131908349Y-113924154D01*
X131909190Y-113927467D01*
X131913001Y-113941978D01*
X131916751Y-113953385D01*
X131921361Y-113963975D01*
X131927750Y-113976029D01*
X131931234Y-113982162D01*
X131940514Y-113996955D01*
X131949911Y-114009514D01*
X131958666Y-114018945D01*
X131966023Y-114024355D01*
X131967544Y-114024971D01*
X131973364Y-114024569D01*
X131982199Y-114020372D01*
X131989197Y-114015919D01*
X131998706Y-114009904D01*
X132006248Y-114006628D01*
X132014254Y-114005290D01*
X132022145Y-114005078D01*
X132032245Y-114005523D01*
X132040383Y-114007353D01*
X132048967Y-114011314D01*
X132056380Y-114015662D01*
X132065057Y-114020770D01*
X132071913Y-114023899D01*
X132078881Y-114025531D01*
X132087898Y-114026152D01*
X132098732Y-114026245D01*
X132115168Y-114026604D01*
X132127594Y-114028085D01*
X132137618Y-114031299D01*
X132146853Y-114036854D01*
X132156907Y-114045358D01*
X132161962Y-114050149D01*
X132181051Y-114068578D01*
X132207953Y-114068578D01*
X132223849Y-114068904D01*
X132235612Y-114070177D01*
X132244730Y-114072839D01*
X132252694Y-114077332D01*
X132260991Y-114084099D01*
X132261373Y-114084443D01*
X132272425Y-114094428D01*
X132306740Y-114093497D01*
X132321544Y-114093007D01*
X132332338Y-114092256D01*
X132340756Y-114090917D01*
X132348432Y-114088662D01*
X132357000Y-114085160D01*
X132363989Y-114081984D01*
X132382248Y-114074738D01*
X132398034Y-114071434D01*
X132412866Y-114072025D01*
X132428265Y-114076466D01*
X132436001Y-114079809D01*
X132451501Y-114086150D01*
X132467125Y-114090416D01*
X132484498Y-114092905D01*
X132505248Y-114093917D01*
X132513120Y-114093978D01*
X132532106Y-114093190D01*
X132552671Y-114091002D01*
X132573412Y-114087683D01*
X132592927Y-114083500D01*
X132609811Y-114078719D01*
X132622664Y-114073607D01*
X132624148Y-114072834D01*
X132631019Y-114068254D01*
X132640824Y-114060604D01*
X132652480Y-114050781D01*
X132664907Y-114039680D01*
X132671059Y-114033942D01*
X132683874Y-114022126D01*
X132696841Y-114010731D01*
X132708746Y-114000786D01*
X132718374Y-113993322D01*
X132721549Y-113991107D01*
X132731573Y-113983617D01*
X132740743Y-113975271D01*
X132746676Y-113968389D01*
X132750250Y-113962073D01*
X132755322Y-113951609D01*
X132761416Y-113938136D01*
X132768057Y-113922797D01*
X132774769Y-113906729D01*
X132781076Y-113891075D01*
X132786503Y-113876973D01*
X132790575Y-113865564D01*
X132792815Y-113857989D01*
X132792903Y-113857567D01*
X132793536Y-113853411D01*
X132792732Y-113850584D01*
X132789476Y-113848378D01*
X132782750Y-113846085D01*
X132772255Y-113843190D01*
X132759106Y-113840046D01*
X132743072Y-113836800D01*
X132726876Y-113833986D01*
X132720818Y-113833081D01*
X132706226Y-113830772D01*
X132696119Y-113828454D01*
X132689343Y-113825795D01*
X132685006Y-113822706D01*
X132679399Y-113814274D01*
X132678259Y-113804998D01*
X132681054Y-113796312D01*
X132687257Y-113789652D01*
X132696336Y-113786454D01*
X132698410Y-113786356D01*
X132711539Y-113787182D01*
X132728783Y-113789501D01*
X132748884Y-113793072D01*
X132770587Y-113797655D01*
X132792633Y-113803009D01*
X132809082Y-113807514D01*
X132825539Y-113812118D01*
X132841762Y-113816374D01*
X132856228Y-113819901D01*
X132867415Y-113822320D01*
X132870594Y-113822886D01*
X132883745Y-113825635D01*
X132898323Y-113829647D01*
X132908053Y-113832923D01*
X132918420Y-113836488D01*
X132927508Y-113839024D01*
X132933295Y-113839978D01*
X132941088Y-113842510D01*
X132947677Y-113848957D01*
X132951580Y-113857598D01*
X132952067Y-113861827D01*
X132949675Y-113871177D01*
X132943007Y-113877775D01*
X132932826Y-113881416D01*
X132919894Y-113881893D01*
X132904974Y-113879000D01*
X132897769Y-113876526D01*
X132889285Y-113873694D01*
X132877936Y-113870517D01*
X132865448Y-113867408D01*
X132853545Y-113864776D01*
X132843953Y-113863034D01*
X132839130Y-113862556D01*
X132837178Y-113865045D01*
X132834521Y-113871509D01*
X132832245Y-113878784D01*
X132829171Y-113888513D01*
X132824598Y-113901392D01*
X132819264Y-113915389D01*
X132816107Y-113923234D01*
X132806274Y-113946761D01*
X132797935Y-113965708D01*
X132790629Y-113980791D01*
X132783897Y-113992726D01*
X132777276Y-114002229D01*
X132770307Y-114010015D01*
X132762530Y-114016800D01*
X132753483Y-114023300D01*
X132750423Y-114025321D01*
X132740344Y-114032574D01*
X132727958Y-114042515D01*
X132714897Y-114053788D01*
X132703711Y-114064144D01*
X132685686Y-114081154D01*
X132670354Y-114094537D01*
X132656672Y-114104895D01*
X132643595Y-114112829D01*
X132630077Y-114118942D01*
X132615075Y-114123835D01*
X132597545Y-114128110D01*
X132589921Y-114129715D01*
X132548570Y-114136362D01*
X132510528Y-114138754D01*
X132475902Y-114136897D01*
X132444798Y-114130797D01*
X132417322Y-114120460D01*
X132416867Y-114120239D01*
X132402367Y-114113131D01*
X132379798Y-114123322D01*
X132367301Y-114128496D01*
X132354609Y-114132987D01*
X132344101Y-114135969D01*
X132342407Y-114136323D01*
X132330331Y-114137893D01*
X132315470Y-114138766D01*
X132299386Y-114138966D01*
X132283643Y-114138516D01*
X132269802Y-114137442D01*
X132259427Y-114135768D01*
X132256741Y-114134988D01*
X132247613Y-114130401D01*
X132238439Y-114123816D01*
X132236332Y-114121908D01*
X132231803Y-114117754D01*
X132227608Y-114115034D01*
X132222378Y-114113377D01*
X132214745Y-114112416D01*
X132203339Y-114111780D01*
X132197956Y-114111556D01*
X132180661Y-114110373D01*
X132167403Y-114108009D01*
X132156602Y-114103822D01*
X132146675Y-114097173D01*
X132136041Y-114087423D01*
X132134528Y-114085898D01*
X132120922Y-114072085D01*
X132091289Y-114070981D01*
X132076707Y-114070220D01*
X132065663Y-114068804D01*
X132056278Y-114066140D01*
X132046672Y-114061633D01*
X132034968Y-114054689D01*
X132030115Y-114051627D01*
X132025475Y-114049612D01*
X132020411Y-114049964D01*
X132013742Y-114053091D01*
X132004288Y-114059399D01*
X132001266Y-114061583D01*
X131994295Y-114065762D01*
X131986656Y-114067896D01*
X131976074Y-114068567D01*
X131973933Y-114068578D01*
X131960798Y-114068059D01*
X131950686Y-114065975D01*
X131941729Y-114061538D01*
X131932057Y-114053958D01*
X131925897Y-114048297D01*
X131908108Y-114028332D01*
X131892191Y-114004343D01*
X131878984Y-113977852D01*
X131869327Y-113950384D01*
X131867110Y-113941578D01*
X131863902Y-113928771D01*
X131859599Y-113913424D01*
X131854990Y-113898317D01*
X131853702Y-113894356D01*
X131845076Y-113868300D01*
X131836244Y-113874424D01*
X131827719Y-113880624D01*
X131819515Y-113887008D01*
X131819434Y-113887075D01*
X131809462Y-113892495D01*
X131799927Y-113893153D01*
X131791730Y-113889908D01*
X131785772Y-113883624D01*
X131782955Y-113875161D01*
X131784178Y-113865382D01*
X131788468Y-113857460D01*
X131793692Y-113852112D01*
X131802805Y-113844465D01*
X131814883Y-113835167D01*
X131828999Y-113824863D01*
X131844229Y-113814201D01*
X131859647Y-113803827D01*
X131874327Y-113794387D01*
X131887344Y-113786528D01*
X131897772Y-113780897D01*
X131898724Y-113780440D01*
X131913710Y-113773910D01*
X131924963Y-113770468D01*
X131933410Y-113770020D01*
X131939982Y-113772475D01*
G37*
X131939982Y-113772475D02*
X131944042Y-113775955D01*
X131949703Y-113785065D01*
X131949846Y-113794233D01*
X131944590Y-113803229D01*
X131934055Y-113811821D01*
X131922245Y-113818097D01*
X131907910Y-113824906D01*
X131898113Y-113830515D01*
X131892069Y-113835594D01*
X131888990Y-113840812D01*
X131888091Y-113846840D01*
X131888089Y-113847192D01*
X131888942Y-113854134D01*
X131891226Y-113864634D01*
X131894531Y-113876918D01*
X131896378Y-113882983D01*
X131900685Y-113897023D01*
X131904917Y-113911587D01*
X131908349Y-113924154D01*
X131909190Y-113927467D01*
X131913001Y-113941978D01*
X131916751Y-113953385D01*
X131921361Y-113963975D01*
X131927750Y-113976029D01*
X131931234Y-113982162D01*
X131940514Y-113996955D01*
X131949911Y-114009514D01*
X131958666Y-114018945D01*
X131966023Y-114024355D01*
X131967544Y-114024971D01*
X131973364Y-114024569D01*
X131982199Y-114020372D01*
X131989197Y-114015919D01*
X131998706Y-114009904D01*
X132006248Y-114006628D01*
X132014254Y-114005290D01*
X132022145Y-114005078D01*
X132032245Y-114005523D01*
X132040383Y-114007353D01*
X132048967Y-114011314D01*
X132056380Y-114015662D01*
X132065057Y-114020770D01*
X132071913Y-114023899D01*
X132078881Y-114025531D01*
X132087898Y-114026152D01*
X132098732Y-114026245D01*
X132115168Y-114026604D01*
X132127594Y-114028085D01*
X132137618Y-114031299D01*
X132146853Y-114036854D01*
X132156907Y-114045358D01*
X132161962Y-114050149D01*
X132181051Y-114068578D01*
X132207953Y-114068578D01*
X132223849Y-114068904D01*
X132235612Y-114070177D01*
X132244730Y-114072839D01*
X132252694Y-114077332D01*
X132260991Y-114084099D01*
X132261373Y-114084443D01*
X132272425Y-114094428D01*
X132306740Y-114093497D01*
X132321544Y-114093007D01*
X132332338Y-114092256D01*
X132340756Y-114090917D01*
X132348432Y-114088662D01*
X132357000Y-114085160D01*
X132363989Y-114081984D01*
X132382248Y-114074738D01*
X132398034Y-114071434D01*
X132412866Y-114072025D01*
X132428265Y-114076466D01*
X132436001Y-114079809D01*
X132451501Y-114086150D01*
X132467125Y-114090416D01*
X132484498Y-114092905D01*
X132505248Y-114093917D01*
X132513120Y-114093978D01*
X132532106Y-114093190D01*
X132552671Y-114091002D01*
X132573412Y-114087683D01*
X132592927Y-114083500D01*
X132609811Y-114078719D01*
X132622664Y-114073607D01*
X132624148Y-114072834D01*
X132631019Y-114068254D01*
X132640824Y-114060604D01*
X132652480Y-114050781D01*
X132664907Y-114039680D01*
X132671059Y-114033942D01*
X132683874Y-114022126D01*
X132696841Y-114010731D01*
X132708746Y-114000786D01*
X132718374Y-113993322D01*
X132721549Y-113991107D01*
X132731573Y-113983617D01*
X132740743Y-113975271D01*
X132746676Y-113968389D01*
X132750250Y-113962073D01*
X132755322Y-113951609D01*
X132761416Y-113938136D01*
X132768057Y-113922797D01*
X132774769Y-113906729D01*
X132781076Y-113891075D01*
X132786503Y-113876973D01*
X132790575Y-113865564D01*
X132792815Y-113857989D01*
X132792903Y-113857567D01*
X132793536Y-113853411D01*
X132792732Y-113850584D01*
X132789476Y-113848378D01*
X132782750Y-113846085D01*
X132772255Y-113843190D01*
X132759106Y-113840046D01*
X132743072Y-113836800D01*
X132726876Y-113833986D01*
X132720818Y-113833081D01*
X132706226Y-113830772D01*
X132696119Y-113828454D01*
X132689343Y-113825795D01*
X132685006Y-113822706D01*
X132679399Y-113814274D01*
X132678259Y-113804998D01*
X132681054Y-113796312D01*
X132687257Y-113789652D01*
X132696336Y-113786454D01*
X132698410Y-113786356D01*
X132711539Y-113787182D01*
X132728783Y-113789501D01*
X132748884Y-113793072D01*
X132770587Y-113797655D01*
X132792633Y-113803009D01*
X132809082Y-113807514D01*
X132825539Y-113812118D01*
X132841762Y-113816374D01*
X132856228Y-113819901D01*
X132867415Y-113822320D01*
X132870594Y-113822886D01*
X132883745Y-113825635D01*
X132898323Y-113829647D01*
X132908053Y-113832923D01*
X132918420Y-113836488D01*
X132927508Y-113839024D01*
X132933295Y-113839978D01*
X132941088Y-113842510D01*
X132947677Y-113848957D01*
X132951580Y-113857598D01*
X132952067Y-113861827D01*
X132949675Y-113871177D01*
X132943007Y-113877775D01*
X132932826Y-113881416D01*
X132919894Y-113881893D01*
X132904974Y-113879000D01*
X132897769Y-113876526D01*
X132889285Y-113873694D01*
X132877936Y-113870517D01*
X132865448Y-113867408D01*
X132853545Y-113864776D01*
X132843953Y-113863034D01*
X132839130Y-113862556D01*
X132837178Y-113865045D01*
X132834521Y-113871509D01*
X132832245Y-113878784D01*
X132829171Y-113888513D01*
X132824598Y-113901392D01*
X132819264Y-113915389D01*
X132816107Y-113923234D01*
X132806274Y-113946761D01*
X132797935Y-113965708D01*
X132790629Y-113980791D01*
X132783897Y-113992726D01*
X132777276Y-114002229D01*
X132770307Y-114010015D01*
X132762530Y-114016800D01*
X132753483Y-114023300D01*
X132750423Y-114025321D01*
X132740344Y-114032574D01*
X132727958Y-114042515D01*
X132714897Y-114053788D01*
X132703711Y-114064144D01*
X132685686Y-114081154D01*
X132670354Y-114094537D01*
X132656672Y-114104895D01*
X132643595Y-114112829D01*
X132630077Y-114118942D01*
X132615075Y-114123835D01*
X132597545Y-114128110D01*
X132589921Y-114129715D01*
X132548570Y-114136362D01*
X132510528Y-114138754D01*
X132475902Y-114136897D01*
X132444798Y-114130797D01*
X132417322Y-114120460D01*
X132416867Y-114120239D01*
X132402367Y-114113131D01*
X132379798Y-114123322D01*
X132367301Y-114128496D01*
X132354609Y-114132987D01*
X132344101Y-114135969D01*
X132342407Y-114136323D01*
X132330331Y-114137893D01*
X132315470Y-114138766D01*
X132299386Y-114138966D01*
X132283643Y-114138516D01*
X132269802Y-114137442D01*
X132259427Y-114135768D01*
X132256741Y-114134988D01*
X132247613Y-114130401D01*
X132238439Y-114123816D01*
X132236332Y-114121908D01*
X132231803Y-114117754D01*
X132227608Y-114115034D01*
X132222378Y-114113377D01*
X132214745Y-114112416D01*
X132203339Y-114111780D01*
X132197956Y-114111556D01*
X132180661Y-114110373D01*
X132167403Y-114108009D01*
X132156602Y-114103822D01*
X132146675Y-114097173D01*
X132136041Y-114087423D01*
X132134528Y-114085898D01*
X132120922Y-114072085D01*
X132091289Y-114070981D01*
X132076707Y-114070220D01*
X132065663Y-114068804D01*
X132056278Y-114066140D01*
X132046672Y-114061633D01*
X132034968Y-114054689D01*
X132030115Y-114051627D01*
X132025475Y-114049612D01*
X132020411Y-114049964D01*
X132013742Y-114053091D01*
X132004288Y-114059399D01*
X132001266Y-114061583D01*
X131994295Y-114065762D01*
X131986656Y-114067896D01*
X131976074Y-114068567D01*
X131973933Y-114068578D01*
X131960798Y-114068059D01*
X131950686Y-114065975D01*
X131941729Y-114061538D01*
X131932057Y-114053958D01*
X131925897Y-114048297D01*
X131908108Y-114028332D01*
X131892191Y-114004343D01*
X131878984Y-113977852D01*
X131869327Y-113950384D01*
X131867110Y-113941578D01*
X131863902Y-113928771D01*
X131859599Y-113913424D01*
X131854990Y-113898317D01*
X131853702Y-113894356D01*
X131845076Y-113868300D01*
X131836244Y-113874424D01*
X131827719Y-113880624D01*
X131819515Y-113887008D01*
X131819434Y-113887075D01*
X131809462Y-113892495D01*
X131799927Y-113893153D01*
X131791730Y-113889908D01*
X131785772Y-113883624D01*
X131782955Y-113875161D01*
X131784178Y-113865382D01*
X131788468Y-113857460D01*
X131793692Y-113852112D01*
X131802805Y-113844465D01*
X131814883Y-113835167D01*
X131828999Y-113824863D01*
X131844229Y-113814201D01*
X131859647Y-113803827D01*
X131874327Y-113794387D01*
X131887344Y-113786528D01*
X131897772Y-113780897D01*
X131898724Y-113780440D01*
X131913710Y-113773910D01*
X131924963Y-113770468D01*
X131933410Y-113770020D01*
X131939982Y-113772475D01*
G36*
X132463216Y-113275681D02*
G01*
X132470245Y-113282845D01*
X132470827Y-113283901D01*
X132472858Y-113291051D01*
X132474250Y-113302586D01*
X132475005Y-113317284D01*
X132475125Y-113333924D01*
X132474614Y-113351283D01*
X132473474Y-113368140D01*
X132471708Y-113383271D01*
X132470586Y-113389834D01*
X132467764Y-113407175D01*
X132465752Y-113425504D01*
X132464604Y-113443500D01*
X132464374Y-113459843D01*
X132465118Y-113473211D01*
X132466763Y-113481915D01*
X132468911Y-113492282D01*
X132467568Y-113502265D01*
X132467236Y-113503428D01*
X132464683Y-113512673D01*
X132462641Y-113521090D01*
X132462497Y-113521773D01*
X132460087Y-113527580D01*
X132454975Y-113529435D01*
X132453185Y-113529476D01*
X132447477Y-113530708D01*
X132438271Y-113534075D01*
X132427025Y-113539004D01*
X132419189Y-113542836D01*
X132406332Y-113549171D01*
X132396563Y-113553229D01*
X132388086Y-113555561D01*
X132379103Y-113556715D01*
X132372622Y-113557075D01*
X132357121Y-113556850D01*
X132343324Y-113554390D01*
X132333660Y-113551385D01*
X132317165Y-113543961D01*
X132299991Y-113533369D01*
X132283527Y-113520715D01*
X132269161Y-113507110D01*
X132258282Y-113493660D01*
X132255414Y-113488938D01*
X132250407Y-113479735D01*
X132245900Y-113471467D01*
X132244064Y-113468109D01*
X132241788Y-113462159D01*
X132242193Y-113455720D01*
X132243775Y-113450250D01*
X132245422Y-113444150D01*
X132245636Y-113438540D01*
X132244198Y-113431649D01*
X132240885Y-113421707D01*
X132239859Y-113418868D01*
X132236491Y-113408884D01*
X132234302Y-113399960D01*
X132233050Y-113390352D01*
X132232493Y-113378318D01*
X132232387Y-113364999D01*
X132232820Y-113346068D01*
X132234302Y-113332071D01*
X132237131Y-113322349D01*
X132241608Y-113316240D01*
X132248030Y-113313085D01*
X132256307Y-113312223D01*
X132263263Y-113313973D01*
X132269482Y-113317614D01*
X132272206Y-113320177D01*
X132274142Y-113323397D01*
X132275490Y-113328301D01*
X132276452Y-113335917D01*
X132277228Y-113347273D01*
X132277892Y-113360653D01*
X132278891Y-113378003D01*
X132280258Y-113391624D01*
X132282310Y-113403427D01*
X132285367Y-113415326D01*
X132288855Y-113426523D01*
X132292787Y-113439316D01*
X132295961Y-113451056D01*
X132297960Y-113460126D01*
X132298433Y-113463798D01*
X132301576Y-113473811D01*
X132310011Y-113484134D01*
X132323421Y-113494453D01*
X132337679Y-113502577D01*
X132353502Y-113509508D01*
X132366903Y-113512500D01*
X132379500Y-113511556D01*
X132392912Y-113506680D01*
X132400554Y-113502698D01*
X132418261Y-113492796D01*
X132419531Y-113451192D01*
X132420320Y-113434238D01*
X132421581Y-113417238D01*
X132423155Y-113401968D01*
X132424879Y-113390208D01*
X132425230Y-113388423D01*
X132427304Y-113375003D01*
X132428852Y-113357872D01*
X132429721Y-113338950D01*
X132429849Y-113330567D01*
X132430176Y-113312650D01*
X132431106Y-113299439D01*
X132432886Y-113290006D01*
X132435759Y-113283423D01*
X132439973Y-113278763D01*
X132444303Y-113275891D01*
X132454080Y-113273215D01*
X132463216Y-113275681D01*
G37*
X132463216Y-113275681D02*
X132470245Y-113282845D01*
X132470827Y-113283901D01*
X132472858Y-113291051D01*
X132474250Y-113302586D01*
X132475005Y-113317284D01*
X132475125Y-113333924D01*
X132474614Y-113351283D01*
X132473474Y-113368140D01*
X132471708Y-113383271D01*
X132470586Y-113389834D01*
X132467764Y-113407175D01*
X132465752Y-113425504D01*
X132464604Y-113443500D01*
X132464374Y-113459843D01*
X132465118Y-113473211D01*
X132466763Y-113481915D01*
X132468911Y-113492282D01*
X132467568Y-113502265D01*
X132467236Y-113503428D01*
X132464683Y-113512673D01*
X132462641Y-113521090D01*
X132462497Y-113521773D01*
X132460087Y-113527580D01*
X132454975Y-113529435D01*
X132453185Y-113529476D01*
X132447477Y-113530708D01*
X132438271Y-113534075D01*
X132427025Y-113539004D01*
X132419189Y-113542836D01*
X132406332Y-113549171D01*
X132396563Y-113553229D01*
X132388086Y-113555561D01*
X132379103Y-113556715D01*
X132372622Y-113557075D01*
X132357121Y-113556850D01*
X132343324Y-113554390D01*
X132333660Y-113551385D01*
X132317165Y-113543961D01*
X132299991Y-113533369D01*
X132283527Y-113520715D01*
X132269161Y-113507110D01*
X132258282Y-113493660D01*
X132255414Y-113488938D01*
X132250407Y-113479735D01*
X132245900Y-113471467D01*
X132244064Y-113468109D01*
X132241788Y-113462159D01*
X132242193Y-113455720D01*
X132243775Y-113450250D01*
X132245422Y-113444150D01*
X132245636Y-113438540D01*
X132244198Y-113431649D01*
X132240885Y-113421707D01*
X132239859Y-113418868D01*
X132236491Y-113408884D01*
X132234302Y-113399960D01*
X132233050Y-113390352D01*
X132232493Y-113378318D01*
X132232387Y-113364999D01*
X132232820Y-113346068D01*
X132234302Y-113332071D01*
X132237131Y-113322349D01*
X132241608Y-113316240D01*
X132248030Y-113313085D01*
X132256307Y-113312223D01*
X132263263Y-113313973D01*
X132269482Y-113317614D01*
X132272206Y-113320177D01*
X132274142Y-113323397D01*
X132275490Y-113328301D01*
X132276452Y-113335917D01*
X132277228Y-113347273D01*
X132277892Y-113360653D01*
X132278891Y-113378003D01*
X132280258Y-113391624D01*
X132282310Y-113403427D01*
X132285367Y-113415326D01*
X132288855Y-113426523D01*
X132292787Y-113439316D01*
X132295961Y-113451056D01*
X132297960Y-113460126D01*
X132298433Y-113463798D01*
X132301576Y-113473811D01*
X132310011Y-113484134D01*
X132323421Y-113494453D01*
X132337679Y-113502577D01*
X132353502Y-113509508D01*
X132366903Y-113512500D01*
X132379500Y-113511556D01*
X132392912Y-113506680D01*
X132400554Y-113502698D01*
X132418261Y-113492796D01*
X132419531Y-113451192D01*
X132420320Y-113434238D01*
X132421581Y-113417238D01*
X132423155Y-113401968D01*
X132424879Y-113390208D01*
X132425230Y-113388423D01*
X132427304Y-113375003D01*
X132428852Y-113357872D01*
X132429721Y-113338950D01*
X132429849Y-113330567D01*
X132430176Y-113312650D01*
X132431106Y-113299439D01*
X132432886Y-113290006D01*
X132435759Y-113283423D01*
X132439973Y-113278763D01*
X132444303Y-113275891D01*
X132454080Y-113273215D01*
X132463216Y-113275681D01*
G36*
X132017897Y-113007293D02*
G01*
X132031603Y-113008320D01*
X132049949Y-113009918D01*
X132050367Y-113009955D01*
X132070197Y-113011915D01*
X132085461Y-113013941D01*
X132097233Y-113016279D01*
X132106587Y-113019174D01*
X132114599Y-113022871D01*
X132119438Y-113025721D01*
X132127973Y-113031586D01*
X132134696Y-113037662D01*
X132139792Y-113044671D01*
X132143448Y-113053332D01*
X132145849Y-113064366D01*
X132147183Y-113078493D01*
X132147634Y-113096434D01*
X132147388Y-113118909D01*
X132147047Y-113132639D01*
X132146488Y-113151117D01*
X132145876Y-113165120D01*
X132145049Y-113175816D01*
X132143848Y-113184373D01*
X132142111Y-113191961D01*
X132139679Y-113199746D01*
X132136658Y-113208166D01*
X132127050Y-113229604D01*
X132115933Y-113245951D01*
X132103440Y-113257025D01*
X132098717Y-113259646D01*
X132091087Y-113261736D01*
X132079076Y-113263239D01*
X132063918Y-113264162D01*
X132046845Y-113264513D01*
X132029089Y-113264299D01*
X132011884Y-113263528D01*
X131996462Y-113262207D01*
X131984056Y-113260343D01*
X131978400Y-113258913D01*
X131960771Y-113252209D01*
X131942651Y-113243589D01*
X131925387Y-113233842D01*
X131910327Y-113223752D01*
X131898821Y-113214106D01*
X131895567Y-113210610D01*
X131891802Y-113204761D01*
X131888970Y-113196888D01*
X131886997Y-113186318D01*
X131885808Y-113172380D01*
X131885325Y-113154403D01*
X131885475Y-113131716D01*
X131885666Y-113122424D01*
X131886455Y-113088524D01*
X131930422Y-113088524D01*
X131930422Y-113184473D01*
X131941006Y-113191334D01*
X131954197Y-113199073D01*
X131970002Y-113207167D01*
X131985661Y-113214250D01*
X131993922Y-113217478D01*
X132003833Y-113219668D01*
X132018967Y-113221086D01*
X132038952Y-113221699D01*
X132040882Y-113221713D01*
X132056289Y-113221682D01*
X132067110Y-113221309D01*
X132074402Y-113220473D01*
X132079220Y-113219055D01*
X132082572Y-113216973D01*
X132086476Y-113211904D01*
X132091047Y-113203251D01*
X132095326Y-113192839D01*
X132095525Y-113192278D01*
X132097992Y-113184854D01*
X132099798Y-113178007D01*
X132101045Y-113170663D01*
X132101837Y-113161743D01*
X132102278Y-113150171D01*
X132102472Y-113134870D01*
X132102518Y-113119678D01*
X132102578Y-113066834D01*
X132093417Y-113062097D01*
X132085535Y-113059557D01*
X132073439Y-113057486D01*
X132058547Y-113055978D01*
X132042279Y-113055128D01*
X132026052Y-113055032D01*
X132011286Y-113055784D01*
X132006622Y-113056278D01*
X131988135Y-113058724D01*
X131974244Y-113061007D01*
X131963922Y-113063452D01*
X131956144Y-113066384D01*
X131949883Y-113070131D01*
X131944112Y-113075019D01*
X131942417Y-113076662D01*
X131930422Y-113088524D01*
X131886455Y-113088524D01*
X131886678Y-113078963D01*
X131897261Y-113061817D01*
X131902490Y-113053004D01*
X131906272Y-113045973D01*
X131907838Y-113042165D01*
X131907845Y-113042061D01*
X131910079Y-113037908D01*
X131915776Y-113032389D01*
X131923431Y-113026816D01*
X131929011Y-113023651D01*
X131936357Y-113021210D01*
X131946829Y-113019124D01*
X131956039Y-113018041D01*
X131967733Y-113016467D01*
X131978881Y-113013857D01*
X131985365Y-113011510D01*
X131990270Y-113009343D01*
X131995017Y-113007860D01*
X132000563Y-113007040D01*
X132007870Y-113006858D01*
X132017897Y-113007293D01*
G37*
X132017897Y-113007293D02*
X132031603Y-113008320D01*
X132049949Y-113009918D01*
X132050367Y-113009955D01*
X132070197Y-113011915D01*
X132085461Y-113013941D01*
X132097233Y-113016279D01*
X132106587Y-113019174D01*
X132114599Y-113022871D01*
X132119438Y-113025721D01*
X132127973Y-113031586D01*
X132134696Y-113037662D01*
X132139792Y-113044671D01*
X132143448Y-113053332D01*
X132145849Y-113064366D01*
X132147183Y-113078493D01*
X132147634Y-113096434D01*
X132147388Y-113118909D01*
X132147047Y-113132639D01*
X132146488Y-113151117D01*
X132145876Y-113165120D01*
X132145049Y-113175816D01*
X132143848Y-113184373D01*
X132142111Y-113191961D01*
X132139679Y-113199746D01*
X132136658Y-113208166D01*
X132127050Y-113229604D01*
X132115933Y-113245951D01*
X132103440Y-113257025D01*
X132098717Y-113259646D01*
X132091087Y-113261736D01*
X132079076Y-113263239D01*
X132063918Y-113264162D01*
X132046845Y-113264513D01*
X132029089Y-113264299D01*
X132011884Y-113263528D01*
X131996462Y-113262207D01*
X131984056Y-113260343D01*
X131978400Y-113258913D01*
X131960771Y-113252209D01*
X131942651Y-113243589D01*
X131925387Y-113233842D01*
X131910327Y-113223752D01*
X131898821Y-113214106D01*
X131895567Y-113210610D01*
X131891802Y-113204761D01*
X131888970Y-113196888D01*
X131886997Y-113186318D01*
X131885808Y-113172380D01*
X131885325Y-113154403D01*
X131885475Y-113131716D01*
X131885666Y-113122424D01*
X131886455Y-113088524D01*
X131930422Y-113088524D01*
X131930422Y-113184473D01*
X131941006Y-113191334D01*
X131954197Y-113199073D01*
X131970002Y-113207167D01*
X131985661Y-113214250D01*
X131993922Y-113217478D01*
X132003833Y-113219668D01*
X132018967Y-113221086D01*
X132038952Y-113221699D01*
X132040882Y-113221713D01*
X132056289Y-113221682D01*
X132067110Y-113221309D01*
X132074402Y-113220473D01*
X132079220Y-113219055D01*
X132082572Y-113216973D01*
X132086476Y-113211904D01*
X132091047Y-113203251D01*
X132095326Y-113192839D01*
X132095525Y-113192278D01*
X132097992Y-113184854D01*
X132099798Y-113178007D01*
X132101045Y-113170663D01*
X132101837Y-113161743D01*
X132102278Y-113150171D01*
X132102472Y-113134870D01*
X132102518Y-113119678D01*
X132102578Y-113066834D01*
X132093417Y-113062097D01*
X132085535Y-113059557D01*
X132073439Y-113057486D01*
X132058547Y-113055978D01*
X132042279Y-113055128D01*
X132026052Y-113055032D01*
X132011286Y-113055784D01*
X132006622Y-113056278D01*
X131988135Y-113058724D01*
X131974244Y-113061007D01*
X131963922Y-113063452D01*
X131956144Y-113066384D01*
X131949883Y-113070131D01*
X131944112Y-113075019D01*
X131942417Y-113076662D01*
X131930422Y-113088524D01*
X131886455Y-113088524D01*
X131886678Y-113078963D01*
X131897261Y-113061817D01*
X131902490Y-113053004D01*
X131906272Y-113045973D01*
X131907838Y-113042165D01*
X131907845Y-113042061D01*
X131910079Y-113037908D01*
X131915776Y-113032389D01*
X131923431Y-113026816D01*
X131929011Y-113023651D01*
X131936357Y-113021210D01*
X131946829Y-113019124D01*
X131956039Y-113018041D01*
X131967733Y-113016467D01*
X131978881Y-113013857D01*
X131985365Y-113011510D01*
X131990270Y-113009343D01*
X131995017Y-113007860D01*
X132000563Y-113007040D01*
X132007870Y-113006858D01*
X132017897Y-113007293D01*
G36*
X132772289Y-112886609D02*
G01*
X132786508Y-112887996D01*
X132798300Y-112889978D01*
X132800060Y-112890402D01*
X132821325Y-112897203D01*
X132842857Y-112906404D01*
X132863553Y-112917348D01*
X132882312Y-112929376D01*
X132898029Y-112941828D01*
X132909603Y-112954046D01*
X132911859Y-112957196D01*
X132915210Y-112962599D01*
X132917426Y-112967619D01*
X132918739Y-112973596D01*
X132919385Y-112981866D01*
X132919596Y-112993767D01*
X132919611Y-113001572D01*
X132919549Y-113015691D01*
X132919133Y-113025837D01*
X132918021Y-113033680D01*
X132915871Y-113040894D01*
X132912339Y-113049148D01*
X132908000Y-113058223D01*
X132902183Y-113069217D01*
X132895095Y-113080482D01*
X132886045Y-113092975D01*
X132874344Y-113107652D01*
X132860796Y-113123731D01*
X132849131Y-113137044D01*
X132838072Y-113149128D01*
X132828365Y-113159206D01*
X132820758Y-113166502D01*
X132816000Y-113170240D01*
X132815963Y-113170260D01*
X132811195Y-113172307D01*
X132804982Y-113173768D01*
X132796316Y-113174750D01*
X132784188Y-113175362D01*
X132767591Y-113175710D01*
X132764389Y-113175749D01*
X132748936Y-113175839D01*
X132735013Y-113175763D01*
X132723823Y-113175538D01*
X132716572Y-113175184D01*
X132715000Y-113175002D01*
X132706674Y-113173345D01*
X132695057Y-113170764D01*
X132681584Y-113167608D01*
X132667694Y-113164228D01*
X132654820Y-113160975D01*
X132644401Y-113158198D01*
X132637872Y-113156248D01*
X132637389Y-113156076D01*
X132630909Y-113152190D01*
X132621889Y-113144811D01*
X132611260Y-113134896D01*
X132599953Y-113123403D01*
X132588898Y-113111290D01*
X132579025Y-113099515D01*
X132571266Y-113089035D01*
X132569306Y-113085989D01*
X132563786Y-113076571D01*
X132560522Y-113069240D01*
X132558925Y-113061805D01*
X132558406Y-113052074D01*
X132558373Y-113046241D01*
X132602111Y-113046241D01*
X132604369Y-113055697D01*
X132610853Y-113067681D01*
X132621130Y-113081537D01*
X132634766Y-113096609D01*
X132636634Y-113098494D01*
X132645820Y-113107354D01*
X132652895Y-113113020D01*
X132659513Y-113116503D01*
X132667328Y-113118813D01*
X132671285Y-113119661D01*
X132683526Y-113122358D01*
X132696183Y-113125481D01*
X132702300Y-113127150D01*
X132713374Y-113129242D01*
X132729462Y-113130658D01*
X132749970Y-113131353D01*
X132756053Y-113131410D01*
X132795695Y-113131600D01*
X132826609Y-113095675D01*
X132842644Y-113076503D01*
X132854966Y-113060367D01*
X132864000Y-113046464D01*
X132870171Y-113033994D01*
X132873904Y-113022152D01*
X132875624Y-113010137D01*
X132875867Y-113002715D01*
X132875683Y-112991651D01*
X132874827Y-112984559D01*
X132872837Y-112979768D01*
X132869256Y-112975609D01*
X132868106Y-112974517D01*
X132849652Y-112960276D01*
X132826999Y-112947663D01*
X132801512Y-112937372D01*
X132785834Y-112932706D01*
X132771771Y-112929549D01*
X132761687Y-112928667D01*
X132754359Y-112930146D01*
X132748566Y-112934076D01*
X132747209Y-112935456D01*
X132738387Y-112941409D01*
X132732068Y-112942512D01*
X132725840Y-112943345D01*
X132723592Y-112946525D01*
X132723467Y-112948341D01*
X132722117Y-112955738D01*
X132720490Y-112959735D01*
X132715760Y-112964422D01*
X132707287Y-112969496D01*
X132696847Y-112974172D01*
X132686218Y-112977664D01*
X132677177Y-112979187D01*
X132676437Y-112979200D01*
X132662999Y-112981857D01*
X132647859Y-112989779D01*
X132631149Y-113002892D01*
X132626640Y-113007070D01*
X132614956Y-113019006D01*
X132607388Y-113028868D01*
X132603314Y-113037650D01*
X132602111Y-113046241D01*
X132558373Y-113046241D01*
X132558367Y-113045278D01*
X132558532Y-113033587D01*
X132559415Y-113025460D01*
X132561597Y-113018816D01*
X132565658Y-113011577D01*
X132569371Y-113005882D01*
X132586303Y-112984304D01*
X132606324Y-112965370D01*
X132628292Y-112949968D01*
X132651066Y-112938985D01*
X132658556Y-112936484D01*
X132668742Y-112931939D01*
X132679532Y-112923805D01*
X132687179Y-112916468D01*
X132702442Y-112902682D01*
X132717364Y-112893499D01*
X132733562Y-112888230D01*
X132752654Y-112886184D01*
X132758337Y-112886095D01*
X132772289Y-112886609D01*
G37*
X132772289Y-112886609D02*
X132786508Y-112887996D01*
X132798300Y-112889978D01*
X132800060Y-112890402D01*
X132821325Y-112897203D01*
X132842857Y-112906404D01*
X132863553Y-112917348D01*
X132882312Y-112929376D01*
X132898029Y-112941828D01*
X132909603Y-112954046D01*
X132911859Y-112957196D01*
X132915210Y-112962599D01*
X132917426Y-112967619D01*
X132918739Y-112973596D01*
X132919385Y-112981866D01*
X132919596Y-112993767D01*
X132919611Y-113001572D01*
X132919549Y-113015691D01*
X132919133Y-113025837D01*
X132918021Y-113033680D01*
X132915871Y-113040894D01*
X132912339Y-113049148D01*
X132908000Y-113058223D01*
X132902183Y-113069217D01*
X132895095Y-113080482D01*
X132886045Y-113092975D01*
X132874344Y-113107652D01*
X132860796Y-113123731D01*
X132849131Y-113137044D01*
X132838072Y-113149128D01*
X132828365Y-113159206D01*
X132820758Y-113166502D01*
X132816000Y-113170240D01*
X132815963Y-113170260D01*
X132811195Y-113172307D01*
X132804982Y-113173768D01*
X132796316Y-113174750D01*
X132784188Y-113175362D01*
X132767591Y-113175710D01*
X132764389Y-113175749D01*
X132748936Y-113175839D01*
X132735013Y-113175763D01*
X132723823Y-113175538D01*
X132716572Y-113175184D01*
X132715000Y-113175002D01*
X132706674Y-113173345D01*
X132695057Y-113170764D01*
X132681584Y-113167608D01*
X132667694Y-113164228D01*
X132654820Y-113160975D01*
X132644401Y-113158198D01*
X132637872Y-113156248D01*
X132637389Y-113156076D01*
X132630909Y-113152190D01*
X132621889Y-113144811D01*
X132611260Y-113134896D01*
X132599953Y-113123403D01*
X132588898Y-113111290D01*
X132579025Y-113099515D01*
X132571266Y-113089035D01*
X132569306Y-113085989D01*
X132563786Y-113076571D01*
X132560522Y-113069240D01*
X132558925Y-113061805D01*
X132558406Y-113052074D01*
X132558373Y-113046241D01*
X132602111Y-113046241D01*
X132604369Y-113055697D01*
X132610853Y-113067681D01*
X132621130Y-113081537D01*
X132634766Y-113096609D01*
X132636634Y-113098494D01*
X132645820Y-113107354D01*
X132652895Y-113113020D01*
X132659513Y-113116503D01*
X132667328Y-113118813D01*
X132671285Y-113119661D01*
X132683526Y-113122358D01*
X132696183Y-113125481D01*
X132702300Y-113127150D01*
X132713374Y-113129242D01*
X132729462Y-113130658D01*
X132749970Y-113131353D01*
X132756053Y-113131410D01*
X132795695Y-113131600D01*
X132826609Y-113095675D01*
X132842644Y-113076503D01*
X132854966Y-113060367D01*
X132864000Y-113046464D01*
X132870171Y-113033994D01*
X132873904Y-113022152D01*
X132875624Y-113010137D01*
X132875867Y-113002715D01*
X132875683Y-112991651D01*
X132874827Y-112984559D01*
X132872837Y-112979768D01*
X132869256Y-112975609D01*
X132868106Y-112974517D01*
X132849652Y-112960276D01*
X132826999Y-112947663D01*
X132801512Y-112937372D01*
X132785834Y-112932706D01*
X132771771Y-112929549D01*
X132761687Y-112928667D01*
X132754359Y-112930146D01*
X132748566Y-112934076D01*
X132747209Y-112935456D01*
X132738387Y-112941409D01*
X132732068Y-112942512D01*
X132725840Y-112943345D01*
X132723592Y-112946525D01*
X132723467Y-112948341D01*
X132722117Y-112955738D01*
X132720490Y-112959735D01*
X132715760Y-112964422D01*
X132707287Y-112969496D01*
X132696847Y-112974172D01*
X132686218Y-112977664D01*
X132677177Y-112979187D01*
X132676437Y-112979200D01*
X132662999Y-112981857D01*
X132647859Y-112989779D01*
X132631149Y-113002892D01*
X132626640Y-113007070D01*
X132614956Y-113019006D01*
X132607388Y-113028868D01*
X132603314Y-113037650D01*
X132602111Y-113046241D01*
X132558373Y-113046241D01*
X132558367Y-113045278D01*
X132558532Y-113033587D01*
X132559415Y-113025460D01*
X132561597Y-113018816D01*
X132565658Y-113011577D01*
X132569371Y-113005882D01*
X132586303Y-112984304D01*
X132606324Y-112965370D01*
X132628292Y-112949968D01*
X132651066Y-112938985D01*
X132658556Y-112936484D01*
X132668742Y-112931939D01*
X132679532Y-112923805D01*
X132687179Y-112916468D01*
X132702442Y-112902682D01*
X132717364Y-112893499D01*
X132733562Y-112888230D01*
X132752654Y-112886184D01*
X132758337Y-112886095D01*
X132772289Y-112886609D01*
G36*
X132432689Y-112731181D02*
G01*
X132444391Y-112731485D01*
X132453871Y-112732064D01*
X132461983Y-112732966D01*
X132469584Y-112734243D01*
X132477528Y-112735941D01*
X132485066Y-112737724D01*
X132504686Y-112742928D01*
X132519652Y-112748103D01*
X132530934Y-112753693D01*
X132539500Y-112760145D01*
X132543788Y-112764671D01*
X132551459Y-112777850D01*
X132553857Y-112792636D01*
X132551004Y-112808671D01*
X132542917Y-112825595D01*
X132540288Y-112829623D01*
X132534863Y-112838171D01*
X132527798Y-112850215D01*
X132519978Y-112864205D01*
X132512288Y-112878590D01*
X132511729Y-112879664D01*
X132504065Y-112893924D01*
X132496142Y-112907801D01*
X132488855Y-112919777D01*
X132483099Y-112928337D01*
X132482714Y-112928852D01*
X132471611Y-112943522D01*
X132472031Y-112970534D01*
X132471712Y-112987644D01*
X132469682Y-113000763D01*
X132465236Y-113010740D01*
X132457670Y-113018425D01*
X132446281Y-113024667D01*
X132430364Y-113030317D01*
X132419985Y-113033324D01*
X132412774Y-113035195D01*
X132405680Y-113036672D01*
X132397884Y-113037811D01*
X132388570Y-113038669D01*
X132376921Y-113039304D01*
X132362120Y-113039774D01*
X132343349Y-113040136D01*
X132319792Y-113040447D01*
X132318478Y-113040462D01*
X132295212Y-113040714D01*
X132276825Y-113040842D01*
X132262551Y-113040803D01*
X132251625Y-113040550D01*
X132243282Y-113040039D01*
X132236755Y-113039226D01*
X132231281Y-113038065D01*
X132226093Y-113036512D01*
X132221111Y-113034769D01*
X132205062Y-113028685D01*
X132192686Y-113023055D01*
X132182209Y-113016859D01*
X132171857Y-113009078D01*
X132162668Y-113001200D01*
X132152745Y-112992748D01*
X132139918Y-112982306D01*
X132125848Y-112971204D01*
X132112263Y-112960824D01*
X132097537Y-112949091D01*
X132081213Y-112934956D01*
X132065384Y-112920286D01*
X132053336Y-112908219D01*
X132037759Y-112891027D01*
X132026458Y-112876649D01*
X132019170Y-112864549D01*
X132015630Y-112854188D01*
X132015572Y-112845031D01*
X132018372Y-112837198D01*
X132025445Y-112828564D01*
X132034075Y-112824644D01*
X132043053Y-112825233D01*
X132051168Y-112830127D01*
X132057209Y-112839120D01*
X132058832Y-112844049D01*
X132062255Y-112850843D01*
X132069514Y-112860408D01*
X132079957Y-112872091D01*
X132092935Y-112885239D01*
X132107796Y-112899199D01*
X132123888Y-112913317D01*
X132140562Y-112926942D01*
X132144564Y-112930055D01*
X132158539Y-112940879D01*
X132172138Y-112951530D01*
X132184220Y-112961105D01*
X132193644Y-112968702D01*
X132197564Y-112971948D01*
X132206053Y-112978807D01*
X132213994Y-112984237D01*
X132222183Y-112988402D01*
X132231413Y-112991463D01*
X132242479Y-112993583D01*
X132256174Y-112994922D01*
X132273294Y-112995644D01*
X132294632Y-112995910D01*
X132315056Y-112995903D01*
X132339187Y-112995744D01*
X132358491Y-112995411D01*
X132373782Y-112994859D01*
X132385875Y-112994044D01*
X132395587Y-112992922D01*
X132403731Y-112991446D01*
X132405967Y-112990934D01*
X132416456Y-112988177D01*
X132422602Y-112985727D01*
X132425622Y-112982911D01*
X132426676Y-112979478D01*
X132426706Y-112974777D01*
X132424069Y-112974415D01*
X132422443Y-112975066D01*
X132414530Y-112977060D01*
X132402634Y-112978254D01*
X132388361Y-112978645D01*
X132373315Y-112978231D01*
X132359101Y-112977008D01*
X132348286Y-112975199D01*
X132330506Y-112969941D01*
X132311450Y-112962281D01*
X132292985Y-112953113D01*
X132276977Y-112943337D01*
X132268561Y-112936896D01*
X132256112Y-112922515D01*
X132247701Y-112904939D01*
X132245639Y-112894420D01*
X132291667Y-112894420D01*
X132294212Y-112899671D01*
X132301212Y-112905996D01*
X132311716Y-112912847D01*
X132324771Y-112919680D01*
X132339425Y-112925948D01*
X132354725Y-112931106D01*
X132356578Y-112931630D01*
X132367528Y-112933898D01*
X132379559Y-112935220D01*
X132391086Y-112935561D01*
X132400523Y-112934886D01*
X132406284Y-112933159D01*
X132406793Y-112932748D01*
X132406152Y-112929788D01*
X132401965Y-112924509D01*
X132395286Y-112917870D01*
X132387163Y-112910828D01*
X132378648Y-112904345D01*
X132370792Y-112899377D01*
X132369470Y-112898688D01*
X132362583Y-112895564D01*
X132355961Y-112893531D01*
X132348110Y-112892363D01*
X132337535Y-112891832D01*
X132323568Y-112891712D01*
X132310104Y-112891938D01*
X132299704Y-112892564D01*
X132293297Y-112893512D01*
X132291667Y-112894420D01*
X132245639Y-112894420D01*
X132243869Y-112885400D01*
X132243689Y-112880100D01*
X132244286Y-112870506D01*
X132246712Y-112863888D01*
X132251924Y-112857643D01*
X132251939Y-112857628D01*
X132260188Y-112849378D01*
X132369931Y-112849378D01*
X132389360Y-112859230D01*
X132401164Y-112866216D01*
X132414187Y-112875456D01*
X132425803Y-112885073D01*
X132426848Y-112886041D01*
X132435112Y-112893633D01*
X132441809Y-112899469D01*
X132445905Y-112902661D01*
X132446603Y-112903000D01*
X132448591Y-112900664D01*
X132452645Y-112894313D01*
X132458209Y-112884928D01*
X132464724Y-112873489D01*
X132471632Y-112860978D01*
X132478377Y-112848377D01*
X132484400Y-112836667D01*
X132485098Y-112835267D01*
X132491022Y-112824179D01*
X132497695Y-112812896D01*
X132501218Y-112807472D01*
X132505621Y-112800328D01*
X132507069Y-112795076D01*
X132505002Y-112791074D01*
X132498859Y-112787680D01*
X132488081Y-112784250D01*
X132478874Y-112781837D01*
X132471209Y-112780033D01*
X132463635Y-112778639D01*
X132455292Y-112777604D01*
X132445320Y-112776875D01*
X132432857Y-112776402D01*
X132417043Y-112776133D01*
X132397017Y-112776018D01*
X132380982Y-112776000D01*
X132306137Y-112776000D01*
X132284150Y-112784467D01*
X132268494Y-112789920D01*
X132256790Y-112792486D01*
X132248149Y-112792184D01*
X132241685Y-112789036D01*
X132238249Y-112785498D01*
X132233061Y-112776458D01*
X132232611Y-112768209D01*
X132237098Y-112760481D01*
X132246723Y-112753004D01*
X132261684Y-112745512D01*
X132270586Y-112741919D01*
X132295900Y-112732256D01*
X132375694Y-112731426D01*
X132399196Y-112731201D01*
X132417909Y-112731103D01*
X132432689Y-112731181D01*
G37*
X132432689Y-112731181D02*
X132444391Y-112731485D01*
X132453871Y-112732064D01*
X132461983Y-112732966D01*
X132469584Y-112734243D01*
X132477528Y-112735941D01*
X132485066Y-112737724D01*
X132504686Y-112742928D01*
X132519652Y-112748103D01*
X132530934Y-112753693D01*
X132539500Y-112760145D01*
X132543788Y-112764671D01*
X132551459Y-112777850D01*
X132553857Y-112792636D01*
X132551004Y-112808671D01*
X132542917Y-112825595D01*
X132540288Y-112829623D01*
X132534863Y-112838171D01*
X132527798Y-112850215D01*
X132519978Y-112864205D01*
X132512288Y-112878590D01*
X132511729Y-112879664D01*
X132504065Y-112893924D01*
X132496142Y-112907801D01*
X132488855Y-112919777D01*
X132483099Y-112928337D01*
X132482714Y-112928852D01*
X132471611Y-112943522D01*
X132472031Y-112970534D01*
X132471712Y-112987644D01*
X132469682Y-113000763D01*
X132465236Y-113010740D01*
X132457670Y-113018425D01*
X132446281Y-113024667D01*
X132430364Y-113030317D01*
X132419985Y-113033324D01*
X132412774Y-113035195D01*
X132405680Y-113036672D01*
X132397884Y-113037811D01*
X132388570Y-113038669D01*
X132376921Y-113039304D01*
X132362120Y-113039774D01*
X132343349Y-113040136D01*
X132319792Y-113040447D01*
X132318478Y-113040462D01*
X132295212Y-113040714D01*
X132276825Y-113040842D01*
X132262551Y-113040803D01*
X132251625Y-113040550D01*
X132243282Y-113040039D01*
X132236755Y-113039226D01*
X132231281Y-113038065D01*
X132226093Y-113036512D01*
X132221111Y-113034769D01*
X132205062Y-113028685D01*
X132192686Y-113023055D01*
X132182209Y-113016859D01*
X132171857Y-113009078D01*
X132162668Y-113001200D01*
X132152745Y-112992748D01*
X132139918Y-112982306D01*
X132125848Y-112971204D01*
X132112263Y-112960824D01*
X132097537Y-112949091D01*
X132081213Y-112934956D01*
X132065384Y-112920286D01*
X132053336Y-112908219D01*
X132037759Y-112891027D01*
X132026458Y-112876649D01*
X132019170Y-112864549D01*
X132015630Y-112854188D01*
X132015572Y-112845031D01*
X132018372Y-112837198D01*
X132025445Y-112828564D01*
X132034075Y-112824644D01*
X132043053Y-112825233D01*
X132051168Y-112830127D01*
X132057209Y-112839120D01*
X132058832Y-112844049D01*
X132062255Y-112850843D01*
X132069514Y-112860408D01*
X132079957Y-112872091D01*
X132092935Y-112885239D01*
X132107796Y-112899199D01*
X132123888Y-112913317D01*
X132140562Y-112926942D01*
X132144564Y-112930055D01*
X132158539Y-112940879D01*
X132172138Y-112951530D01*
X132184220Y-112961105D01*
X132193644Y-112968702D01*
X132197564Y-112971948D01*
X132206053Y-112978807D01*
X132213994Y-112984237D01*
X132222183Y-112988402D01*
X132231413Y-112991463D01*
X132242479Y-112993583D01*
X132256174Y-112994922D01*
X132273294Y-112995644D01*
X132294632Y-112995910D01*
X132315056Y-112995903D01*
X132339187Y-112995744D01*
X132358491Y-112995411D01*
X132373782Y-112994859D01*
X132385875Y-112994044D01*
X132395587Y-112992922D01*
X132403731Y-112991446D01*
X132405967Y-112990934D01*
X132416456Y-112988177D01*
X132422602Y-112985727D01*
X132425622Y-112982911D01*
X132426676Y-112979478D01*
X132426706Y-112974777D01*
X132424069Y-112974415D01*
X132422443Y-112975066D01*
X132414530Y-112977060D01*
X132402634Y-112978254D01*
X132388361Y-112978645D01*
X132373315Y-112978231D01*
X132359101Y-112977008D01*
X132348286Y-112975199D01*
X132330506Y-112969941D01*
X132311450Y-112962281D01*
X132292985Y-112953113D01*
X132276977Y-112943337D01*
X132268561Y-112936896D01*
X132256112Y-112922515D01*
X132247701Y-112904939D01*
X132245639Y-112894420D01*
X132291667Y-112894420D01*
X132294212Y-112899671D01*
X132301212Y-112905996D01*
X132311716Y-112912847D01*
X132324771Y-112919680D01*
X132339425Y-112925948D01*
X132354725Y-112931106D01*
X132356578Y-112931630D01*
X132367528Y-112933898D01*
X132379559Y-112935220D01*
X132391086Y-112935561D01*
X132400523Y-112934886D01*
X132406284Y-112933159D01*
X132406793Y-112932748D01*
X132406152Y-112929788D01*
X132401965Y-112924509D01*
X132395286Y-112917870D01*
X132387163Y-112910828D01*
X132378648Y-112904345D01*
X132370792Y-112899377D01*
X132369470Y-112898688D01*
X132362583Y-112895564D01*
X132355961Y-112893531D01*
X132348110Y-112892363D01*
X132337535Y-112891832D01*
X132323568Y-112891712D01*
X132310104Y-112891938D01*
X132299704Y-112892564D01*
X132293297Y-112893512D01*
X132291667Y-112894420D01*
X132245639Y-112894420D01*
X132243869Y-112885400D01*
X132243689Y-112880100D01*
X132244286Y-112870506D01*
X132246712Y-112863888D01*
X132251924Y-112857643D01*
X132251939Y-112857628D01*
X132260188Y-112849378D01*
X132369931Y-112849378D01*
X132389360Y-112859230D01*
X132401164Y-112866216D01*
X132414187Y-112875456D01*
X132425803Y-112885073D01*
X132426848Y-112886041D01*
X132435112Y-112893633D01*
X132441809Y-112899469D01*
X132445905Y-112902661D01*
X132446603Y-112903000D01*
X132448591Y-112900664D01*
X132452645Y-112894313D01*
X132458209Y-112884928D01*
X132464724Y-112873489D01*
X132471632Y-112860978D01*
X132478377Y-112848377D01*
X132484400Y-112836667D01*
X132485098Y-112835267D01*
X132491022Y-112824179D01*
X132497695Y-112812896D01*
X132501218Y-112807472D01*
X132505621Y-112800328D01*
X132507069Y-112795076D01*
X132505002Y-112791074D01*
X132498859Y-112787680D01*
X132488081Y-112784250D01*
X132478874Y-112781837D01*
X132471209Y-112780033D01*
X132463635Y-112778639D01*
X132455292Y-112777604D01*
X132445320Y-112776875D01*
X132432857Y-112776402D01*
X132417043Y-112776133D01*
X132397017Y-112776018D01*
X132380982Y-112776000D01*
X132306137Y-112776000D01*
X132284150Y-112784467D01*
X132268494Y-112789920D01*
X132256790Y-112792486D01*
X132248149Y-112792184D01*
X132241685Y-112789036D01*
X132238249Y-112785498D01*
X132233061Y-112776458D01*
X132232611Y-112768209D01*
X132237098Y-112760481D01*
X132246723Y-112753004D01*
X132261684Y-112745512D01*
X132270586Y-112741919D01*
X132295900Y-112732256D01*
X132375694Y-112731426D01*
X132399196Y-112731201D01*
X132417909Y-112731103D01*
X132432689Y-112731181D01*
G36*
X132027545Y-113108726D02*
G01*
X132034578Y-113115384D01*
X132037633Y-113124796D01*
X132037667Y-113125956D01*
X132035141Y-113135589D01*
X132028483Y-113142623D01*
X132019072Y-113145678D01*
X132017911Y-113145712D01*
X132009625Y-113143798D01*
X132003800Y-113140067D01*
X131998901Y-113131801D01*
X131998526Y-113122763D01*
X132002044Y-113114470D01*
X132008821Y-113108444D01*
X132017911Y-113106200D01*
X132027545Y-113108726D01*
G37*
X132027545Y-113108726D02*
X132034578Y-113115384D01*
X132037633Y-113124796D01*
X132037667Y-113125956D01*
X132035141Y-113135589D01*
X132028483Y-113142623D01*
X132019072Y-113145678D01*
X132017911Y-113145712D01*
X132009625Y-113143798D01*
X132003800Y-113140067D01*
X131998901Y-113131801D01*
X131998526Y-113122763D01*
X132002044Y-113114470D01*
X132008821Y-113108444D01*
X132017911Y-113106200D01*
X132027545Y-113108726D01*
G36*
X132783383Y-112991159D02*
G01*
X132789412Y-112996724D01*
X132792632Y-113004218D01*
X132792021Y-113012787D01*
X132788333Y-113019539D01*
X132780385Y-113025589D01*
X132770714Y-113027310D01*
X132761295Y-113024576D01*
X132757334Y-113021534D01*
X132752453Y-113013193D01*
X132752748Y-113003961D01*
X132758160Y-112995062D01*
X132758616Y-112994594D01*
X132766966Y-112989240D01*
X132775561Y-112988380D01*
X132783383Y-112991159D01*
G37*
X132783383Y-112991159D02*
X132789412Y-112996724D01*
X132792632Y-113004218D01*
X132792021Y-113012787D01*
X132788333Y-113019539D01*
X132780385Y-113025589D01*
X132770714Y-113027310D01*
X132761295Y-113024576D01*
X132757334Y-113021534D01*
X132752453Y-113013193D01*
X132752748Y-113003961D01*
X132758160Y-112995062D01*
X132758616Y-112994594D01*
X132766966Y-112989240D01*
X132775561Y-112988380D01*
X132783383Y-112991159D01*
%TD*%
M02*
