%TF.GenerationSoftware,KiCad,Pcbnew,(5.1.10)-1*%
%TF.CreationDate,2021-10-08T16:04:22-07:00*%
%TF.ProjectId,Dsub_Bondpad_1Layer,44737562-5f42-46f6-9e64-7061645f314c,1*%
%TF.SameCoordinates,Original*%
%TF.FileFunction,Legend,Top*%
%TF.FilePolarity,Positive*%
%FSLAX46Y46*%
G04 Gerber Fmt 4.6, Leading zero omitted, Abs format (unit mm)*
G04 Created by KiCad (PCBNEW (5.1.10)-1) date 2021-10-08 16:04:22*
%MOMM*%
%LPD*%
G01*
G04 APERTURE LIST*
%ADD10C,0.120000*%
%ADD11C,0.150000*%
G04 APERTURE END LIST*
D10*
X136144000Y-124841000D02*
G75*
G03*
X136144000Y-124841000I-254000J0D01*
G01*
%TO.C,J1*%
X161251900Y-136398000D02*
X161251900Y-126492000D01*
X130848100Y-126492000D02*
X130848100Y-136398000D01*
X161251900Y-126492000D02*
X130848100Y-126492000D01*
D11*
X145280952Y-127833380D02*
X145280952Y-126833380D01*
X145614285Y-127547666D01*
X145947619Y-126833380D01*
X145947619Y-127833380D01*
X146566666Y-127261952D02*
X146471428Y-127214333D01*
X146423809Y-127166714D01*
X146376190Y-127071476D01*
X146376190Y-127023857D01*
X146423809Y-126928619D01*
X146471428Y-126881000D01*
X146566666Y-126833380D01*
X146757142Y-126833380D01*
X146852380Y-126881000D01*
X146900000Y-126928619D01*
X146947619Y-127023857D01*
X146947619Y-127071476D01*
X146900000Y-127166714D01*
X146852380Y-127214333D01*
X146757142Y-127261952D01*
X146566666Y-127261952D01*
X146471428Y-127309571D01*
X146423809Y-127357190D01*
X146376190Y-127452428D01*
X146376190Y-127642904D01*
X146423809Y-127738142D01*
X146471428Y-127785761D01*
X146566666Y-127833380D01*
X146757142Y-127833380D01*
X146852380Y-127785761D01*
X146900000Y-127738142D01*
X146947619Y-127642904D01*
X146947619Y-127452428D01*
X146900000Y-127357190D01*
X146852380Y-127309571D01*
X146757142Y-127261952D01*
X147280952Y-126833380D02*
X147900000Y-126833380D01*
X147566666Y-127214333D01*
X147709523Y-127214333D01*
X147804761Y-127261952D01*
X147852380Y-127309571D01*
X147900000Y-127404809D01*
X147900000Y-127642904D01*
X147852380Y-127738142D01*
X147804761Y-127785761D01*
X147709523Y-127833380D01*
X147423809Y-127833380D01*
X147328571Y-127785761D01*
X147280952Y-127738142D01*
X148804761Y-126833380D02*
X148328571Y-126833380D01*
X148280952Y-127309571D01*
X148328571Y-127261952D01*
X148423809Y-127214333D01*
X148661904Y-127214333D01*
X148757142Y-127261952D01*
X148804761Y-127309571D01*
X148852380Y-127404809D01*
X148852380Y-127642904D01*
X148804761Y-127738142D01*
X148757142Y-127785761D01*
X148661904Y-127833380D01*
X148423809Y-127833380D01*
X148328571Y-127785761D01*
X148280952Y-127738142D01*
X149804761Y-127833380D02*
X149233333Y-127833380D01*
X149519047Y-127833380D02*
X149519047Y-126833380D01*
X149423809Y-126976238D01*
X149328571Y-127071476D01*
X149233333Y-127119095D01*
X150138095Y-126833380D02*
X150757142Y-126833380D01*
X150423809Y-127214333D01*
X150566666Y-127214333D01*
X150661904Y-127261952D01*
X150709523Y-127309571D01*
X150757142Y-127404809D01*
X150757142Y-127642904D01*
X150709523Y-127738142D01*
X150661904Y-127785761D01*
X150566666Y-127833380D01*
X150280952Y-127833380D01*
X150185714Y-127785761D01*
X150138095Y-127738142D01*
X150947619Y-127928619D02*
X151709523Y-127928619D01*
X152471428Y-127833380D02*
X151900000Y-127833380D01*
X152185714Y-127833380D02*
X152185714Y-126833380D01*
X152090476Y-126976238D01*
X151995238Y-127071476D01*
X151900000Y-127119095D01*
X152804761Y-126833380D02*
X153423809Y-126833380D01*
X153090476Y-127214333D01*
X153233333Y-127214333D01*
X153328571Y-127261952D01*
X153376190Y-127309571D01*
X153423809Y-127404809D01*
X153423809Y-127642904D01*
X153376190Y-127738142D01*
X153328571Y-127785761D01*
X153233333Y-127833380D01*
X152947619Y-127833380D01*
X152852380Y-127785761D01*
X152804761Y-127738142D01*
X153852380Y-127452428D02*
X154614285Y-127452428D01*
X155090476Y-127833380D02*
X155090476Y-126833380D01*
X155328571Y-126833380D01*
X155471428Y-126881000D01*
X155566666Y-126976238D01*
X155614285Y-127071476D01*
X155661904Y-127261952D01*
X155661904Y-127404809D01*
X155614285Y-127595285D01*
X155566666Y-127690523D01*
X155471428Y-127785761D01*
X155328571Y-127833380D01*
X155090476Y-127833380D01*
X156280952Y-126833380D02*
X156376190Y-126833380D01*
X156471428Y-126881000D01*
X156519047Y-126928619D01*
X156566666Y-127023857D01*
X156614285Y-127214333D01*
X156614285Y-127452428D01*
X156566666Y-127642904D01*
X156519047Y-127738142D01*
X156471428Y-127785761D01*
X156376190Y-127833380D01*
X156280952Y-127833380D01*
X156185714Y-127785761D01*
X156138095Y-127738142D01*
X156090476Y-127642904D01*
X156042857Y-127452428D01*
X156042857Y-127214333D01*
X156090476Y-127023857D01*
X156138095Y-126928619D01*
X156185714Y-126881000D01*
X156280952Y-126833380D01*
X157566666Y-127833380D02*
X156995238Y-127833380D01*
X157280952Y-127833380D02*
X157280952Y-126833380D01*
X157185714Y-126976238D01*
X157090476Y-127071476D01*
X156995238Y-127119095D01*
X158566666Y-127738142D02*
X158519047Y-127785761D01*
X158376190Y-127833380D01*
X158280952Y-127833380D01*
X158138095Y-127785761D01*
X158042857Y-127690523D01*
X157995238Y-127595285D01*
X157947619Y-127404809D01*
X157947619Y-127261952D01*
X157995238Y-127071476D01*
X158042857Y-126976238D01*
X158138095Y-126881000D01*
X158280952Y-126833380D01*
X158376190Y-126833380D01*
X158519047Y-126881000D01*
X158566666Y-126928619D01*
X158995238Y-127833380D02*
X158995238Y-126833380D01*
X159376190Y-126833380D01*
X159471428Y-126881000D01*
X159519047Y-126928619D01*
X159566666Y-127023857D01*
X159566666Y-127166714D01*
X159519047Y-127261952D01*
X159471428Y-127309571D01*
X159376190Y-127357190D01*
X158995238Y-127357190D01*
X146050000Y-135850380D02*
X146050000Y-136088476D01*
X145811904Y-135993238D02*
X146050000Y-136088476D01*
X146288095Y-135993238D01*
X145907142Y-136278952D02*
X146050000Y-136088476D01*
X146192857Y-136278952D01*
%TD*%
M02*
