%TF.GenerationSoftware,KiCad,Pcbnew,(5.1.10)-1*%
%TF.CreationDate,2021-10-08T16:04:22-07:00*%
%TF.ProjectId,Dsub_Bondpad_1Layer,44737562-5f42-46f6-9e64-7061645f314c,1*%
%TF.SameCoordinates,Original*%
%TF.FileFunction,Copper,L2,Bot*%
%TF.FilePolarity,Positive*%
%FSLAX46Y46*%
G04 Gerber Fmt 4.6, Leading zero omitted, Abs format (unit mm)*
G04 Created by KiCad (PCBNEW (5.1.10)-1) date 2021-10-08 16:04:22*
%MOMM*%
%LPD*%
G01*
G04 APERTURE LIST*
%TA.AperFunction,ComponentPad*%
%ADD10C,1.300000*%
%TD*%
%TA.AperFunction,ComponentPad*%
%ADD11C,1.397000*%
%TD*%
%TA.AperFunction,ViaPad*%
%ADD12C,1.270000*%
%TD*%
%TA.AperFunction,Conductor*%
%ADD13C,0.381000*%
%TD*%
%TA.AperFunction,Conductor*%
%ADD14C,0.100000*%
%TD*%
G04 APERTURE END LIST*
D10*
%TO.P,TP1,1*%
%TO.N,GND*%
X134874000Y-125476000D03*
%TD*%
D11*
%TO.P,J1,2*%
%TO.N,Net-(J1-Pad2)*%
X137160000Y-134112000D03*
%TO.P,J1,3*%
%TO.N,Net-(J1-Pad3)*%
X139700000Y-134112000D03*
%TO.P,J1,4*%
%TO.N,Net-(J1-Pad4)*%
X142240000Y-134112000D03*
%TO.P,J1,6*%
%TO.N,Net-(J1-Pad6)*%
X144780000Y-134112000D03*
%TO.P,J1,8*%
%TO.N,Net-(J1-Pad8)*%
X147320000Y-134112000D03*
%TO.P,J1,10*%
%TO.N,Net-(J1-Pad10)*%
X149860000Y-134112000D03*
%TO.P,J1,11*%
%TO.N,Net-(J1-Pad11)*%
X152400000Y-134112000D03*
%TO.P,J1,12*%
%TO.N,Net-(J1-Pad12)*%
X154940000Y-134112000D03*
%TO.P,J1,1*%
%TO.N,Net-(J1-Pad1)*%
X135890000Y-131572000D03*
%TO.P,J1,15*%
%TO.N,Net-(J1-Pad15)*%
X138430000Y-131572000D03*
%TO.P,J1,17*%
%TO.N,Net-(J1-Pad17)*%
X140970000Y-131572000D03*
%TO.P,J1,5*%
%TO.N,Net-(J1-Pad5)*%
X143510000Y-131572000D03*
%TO.P,J1,7*%
%TO.N,Net-(J1-Pad7)*%
X146050000Y-131572000D03*
%TO.P,J1,9*%
%TO.N,Net-(J1-Pad9)*%
X148590000Y-131572000D03*
%TO.P,J1,22*%
%TO.N,Net-(J1-Pad22)*%
X151130000Y-131572000D03*
%TO.P,J1,24*%
%TO.N,Net-(J1-Pad24)*%
X153670000Y-131572000D03*
%TO.P,J1,13*%
%TO.N,Net-(J1-Pad13)*%
X156210000Y-131572000D03*
%TO.P,J1,14*%
%TO.N,Net-(J1-Pad14)*%
X137160000Y-129032000D03*
%TO.P,J1,16*%
%TO.N,Net-(J1-Pad16)*%
X139700000Y-129032000D03*
%TO.P,J1,18*%
%TO.N,Net-(J1-Pad18)*%
X142240000Y-129032000D03*
%TO.P,J1,19*%
%TO.N,Net-(J1-Pad19)*%
X144780000Y-129032000D03*
%TO.P,J1,20*%
%TO.N,Net-(J1-Pad20)*%
X147320000Y-129032000D03*
%TO.P,J1,21*%
%TO.N,Net-(J1-Pad21)*%
X149860000Y-129032000D03*
%TO.P,J1,23*%
%TO.N,Net-(J1-Pad23)*%
X152400000Y-129032000D03*
%TO.P,J1,25*%
%TO.N,Net-(J1-Pad25)*%
X154940000Y-129032000D03*
%TD*%
D12*
%TO.N,*%
X132080000Y-134112000D03*
X160020000Y-134112000D03*
X160020000Y-128524000D03*
X132080000Y-128524000D03*
%TD*%
D13*
%TO.N,GND*%
X160947500Y-126543837D02*
X160947500Y-127969054D01*
X160858502Y-127835859D01*
X160708141Y-127685498D01*
X160531335Y-127567360D01*
X160334878Y-127485985D01*
X160126321Y-127444500D01*
X159913679Y-127444500D01*
X159705122Y-127485985D01*
X159508665Y-127567360D01*
X159331859Y-127685498D01*
X159181498Y-127835859D01*
X159063360Y-128012665D01*
X158981985Y-128209122D01*
X158940500Y-128417679D01*
X158940500Y-128630321D01*
X158981985Y-128838878D01*
X159063360Y-129035335D01*
X159181498Y-129212141D01*
X159331859Y-129362502D01*
X159508665Y-129480640D01*
X159705122Y-129562015D01*
X159913679Y-129603500D01*
X160126321Y-129603500D01*
X160334878Y-129562015D01*
X160531335Y-129480640D01*
X160708141Y-129362502D01*
X160858502Y-129212141D01*
X160947500Y-129078946D01*
X160947501Y-133557055D01*
X160858502Y-133423859D01*
X160708141Y-133273498D01*
X160531335Y-133155360D01*
X160334878Y-133073985D01*
X160126321Y-133032500D01*
X159913679Y-133032500D01*
X159705122Y-133073985D01*
X159508665Y-133155360D01*
X159331859Y-133273498D01*
X159181498Y-133423859D01*
X159063360Y-133600665D01*
X158981985Y-133797122D01*
X158940500Y-134005679D01*
X158940500Y-134218321D01*
X158981985Y-134426878D01*
X159063360Y-134623335D01*
X159181498Y-134800141D01*
X159331859Y-134950502D01*
X159508665Y-135068640D01*
X159705122Y-135150015D01*
X159913679Y-135191500D01*
X160126321Y-135191500D01*
X160334878Y-135150015D01*
X160531335Y-135068640D01*
X160708141Y-134950502D01*
X160858502Y-134800141D01*
X160947501Y-134666945D01*
X160947501Y-136436500D01*
X131152500Y-136436500D01*
X131152500Y-134666946D01*
X131241498Y-134800141D01*
X131391859Y-134950502D01*
X131568665Y-135068640D01*
X131765122Y-135150015D01*
X131973679Y-135191500D01*
X132186321Y-135191500D01*
X132394878Y-135150015D01*
X132591335Y-135068640D01*
X132768141Y-134950502D01*
X132918502Y-134800141D01*
X133036640Y-134623335D01*
X133118015Y-134426878D01*
X133159500Y-134218321D01*
X133159500Y-134005679D01*
X133158256Y-133999424D01*
X136017000Y-133999424D01*
X136017000Y-134224576D01*
X136060925Y-134445401D01*
X136147087Y-134653413D01*
X136272174Y-134840620D01*
X136431380Y-134999826D01*
X136618587Y-135124913D01*
X136826599Y-135211075D01*
X137047424Y-135255000D01*
X137272576Y-135255000D01*
X137493401Y-135211075D01*
X137701413Y-135124913D01*
X137888620Y-134999826D01*
X138047826Y-134840620D01*
X138172913Y-134653413D01*
X138259075Y-134445401D01*
X138303000Y-134224576D01*
X138303000Y-133999424D01*
X138557000Y-133999424D01*
X138557000Y-134224576D01*
X138600925Y-134445401D01*
X138687087Y-134653413D01*
X138812174Y-134840620D01*
X138971380Y-134999826D01*
X139158587Y-135124913D01*
X139366599Y-135211075D01*
X139587424Y-135255000D01*
X139812576Y-135255000D01*
X140033401Y-135211075D01*
X140241413Y-135124913D01*
X140428620Y-134999826D01*
X140587826Y-134840620D01*
X140712913Y-134653413D01*
X140799075Y-134445401D01*
X140843000Y-134224576D01*
X140843000Y-133999424D01*
X141097000Y-133999424D01*
X141097000Y-134224576D01*
X141140925Y-134445401D01*
X141227087Y-134653413D01*
X141352174Y-134840620D01*
X141511380Y-134999826D01*
X141698587Y-135124913D01*
X141906599Y-135211075D01*
X142127424Y-135255000D01*
X142352576Y-135255000D01*
X142573401Y-135211075D01*
X142781413Y-135124913D01*
X142968620Y-134999826D01*
X143127826Y-134840620D01*
X143252913Y-134653413D01*
X143339075Y-134445401D01*
X143383000Y-134224576D01*
X143383000Y-133999424D01*
X143637000Y-133999424D01*
X143637000Y-134224576D01*
X143680925Y-134445401D01*
X143767087Y-134653413D01*
X143892174Y-134840620D01*
X144051380Y-134999826D01*
X144238587Y-135124913D01*
X144446599Y-135211075D01*
X144667424Y-135255000D01*
X144892576Y-135255000D01*
X145113401Y-135211075D01*
X145321413Y-135124913D01*
X145508620Y-134999826D01*
X145667826Y-134840620D01*
X145792913Y-134653413D01*
X145879075Y-134445401D01*
X145923000Y-134224576D01*
X145923000Y-133999424D01*
X146177000Y-133999424D01*
X146177000Y-134224576D01*
X146220925Y-134445401D01*
X146307087Y-134653413D01*
X146432174Y-134840620D01*
X146591380Y-134999826D01*
X146778587Y-135124913D01*
X146986599Y-135211075D01*
X147207424Y-135255000D01*
X147432576Y-135255000D01*
X147653401Y-135211075D01*
X147861413Y-135124913D01*
X148048620Y-134999826D01*
X148207826Y-134840620D01*
X148332913Y-134653413D01*
X148419075Y-134445401D01*
X148463000Y-134224576D01*
X148463000Y-133999424D01*
X148717000Y-133999424D01*
X148717000Y-134224576D01*
X148760925Y-134445401D01*
X148847087Y-134653413D01*
X148972174Y-134840620D01*
X149131380Y-134999826D01*
X149318587Y-135124913D01*
X149526599Y-135211075D01*
X149747424Y-135255000D01*
X149972576Y-135255000D01*
X150193401Y-135211075D01*
X150401413Y-135124913D01*
X150588620Y-134999826D01*
X150747826Y-134840620D01*
X150872913Y-134653413D01*
X150959075Y-134445401D01*
X151003000Y-134224576D01*
X151003000Y-133999424D01*
X151257000Y-133999424D01*
X151257000Y-134224576D01*
X151300925Y-134445401D01*
X151387087Y-134653413D01*
X151512174Y-134840620D01*
X151671380Y-134999826D01*
X151858587Y-135124913D01*
X152066599Y-135211075D01*
X152287424Y-135255000D01*
X152512576Y-135255000D01*
X152733401Y-135211075D01*
X152941413Y-135124913D01*
X153128620Y-134999826D01*
X153287826Y-134840620D01*
X153412913Y-134653413D01*
X153499075Y-134445401D01*
X153543000Y-134224576D01*
X153543000Y-133999424D01*
X153797000Y-133999424D01*
X153797000Y-134224576D01*
X153840925Y-134445401D01*
X153927087Y-134653413D01*
X154052174Y-134840620D01*
X154211380Y-134999826D01*
X154398587Y-135124913D01*
X154606599Y-135211075D01*
X154827424Y-135255000D01*
X155052576Y-135255000D01*
X155273401Y-135211075D01*
X155481413Y-135124913D01*
X155668620Y-134999826D01*
X155827826Y-134840620D01*
X155952913Y-134653413D01*
X156039075Y-134445401D01*
X156083000Y-134224576D01*
X156083000Y-133999424D01*
X156039075Y-133778599D01*
X155952913Y-133570587D01*
X155827826Y-133383380D01*
X155668620Y-133224174D01*
X155481413Y-133099087D01*
X155273401Y-133012925D01*
X155052576Y-132969000D01*
X154827424Y-132969000D01*
X154606599Y-133012925D01*
X154398587Y-133099087D01*
X154211380Y-133224174D01*
X154052174Y-133383380D01*
X153927087Y-133570587D01*
X153840925Y-133778599D01*
X153797000Y-133999424D01*
X153543000Y-133999424D01*
X153499075Y-133778599D01*
X153412913Y-133570587D01*
X153287826Y-133383380D01*
X153128620Y-133224174D01*
X152941413Y-133099087D01*
X152733401Y-133012925D01*
X152512576Y-132969000D01*
X152287424Y-132969000D01*
X152066599Y-133012925D01*
X151858587Y-133099087D01*
X151671380Y-133224174D01*
X151512174Y-133383380D01*
X151387087Y-133570587D01*
X151300925Y-133778599D01*
X151257000Y-133999424D01*
X151003000Y-133999424D01*
X150959075Y-133778599D01*
X150872913Y-133570587D01*
X150747826Y-133383380D01*
X150588620Y-133224174D01*
X150401413Y-133099087D01*
X150193401Y-133012925D01*
X149972576Y-132969000D01*
X149747424Y-132969000D01*
X149526599Y-133012925D01*
X149318587Y-133099087D01*
X149131380Y-133224174D01*
X148972174Y-133383380D01*
X148847087Y-133570587D01*
X148760925Y-133778599D01*
X148717000Y-133999424D01*
X148463000Y-133999424D01*
X148419075Y-133778599D01*
X148332913Y-133570587D01*
X148207826Y-133383380D01*
X148048620Y-133224174D01*
X147861413Y-133099087D01*
X147653401Y-133012925D01*
X147432576Y-132969000D01*
X147207424Y-132969000D01*
X146986599Y-133012925D01*
X146778587Y-133099087D01*
X146591380Y-133224174D01*
X146432174Y-133383380D01*
X146307087Y-133570587D01*
X146220925Y-133778599D01*
X146177000Y-133999424D01*
X145923000Y-133999424D01*
X145879075Y-133778599D01*
X145792913Y-133570587D01*
X145667826Y-133383380D01*
X145508620Y-133224174D01*
X145321413Y-133099087D01*
X145113401Y-133012925D01*
X144892576Y-132969000D01*
X144667424Y-132969000D01*
X144446599Y-133012925D01*
X144238587Y-133099087D01*
X144051380Y-133224174D01*
X143892174Y-133383380D01*
X143767087Y-133570587D01*
X143680925Y-133778599D01*
X143637000Y-133999424D01*
X143383000Y-133999424D01*
X143339075Y-133778599D01*
X143252913Y-133570587D01*
X143127826Y-133383380D01*
X142968620Y-133224174D01*
X142781413Y-133099087D01*
X142573401Y-133012925D01*
X142352576Y-132969000D01*
X142127424Y-132969000D01*
X141906599Y-133012925D01*
X141698587Y-133099087D01*
X141511380Y-133224174D01*
X141352174Y-133383380D01*
X141227087Y-133570587D01*
X141140925Y-133778599D01*
X141097000Y-133999424D01*
X140843000Y-133999424D01*
X140799075Y-133778599D01*
X140712913Y-133570587D01*
X140587826Y-133383380D01*
X140428620Y-133224174D01*
X140241413Y-133099087D01*
X140033401Y-133012925D01*
X139812576Y-132969000D01*
X139587424Y-132969000D01*
X139366599Y-133012925D01*
X139158587Y-133099087D01*
X138971380Y-133224174D01*
X138812174Y-133383380D01*
X138687087Y-133570587D01*
X138600925Y-133778599D01*
X138557000Y-133999424D01*
X138303000Y-133999424D01*
X138259075Y-133778599D01*
X138172913Y-133570587D01*
X138047826Y-133383380D01*
X137888620Y-133224174D01*
X137701413Y-133099087D01*
X137493401Y-133012925D01*
X137272576Y-132969000D01*
X137047424Y-132969000D01*
X136826599Y-133012925D01*
X136618587Y-133099087D01*
X136431380Y-133224174D01*
X136272174Y-133383380D01*
X136147087Y-133570587D01*
X136060925Y-133778599D01*
X136017000Y-133999424D01*
X133158256Y-133999424D01*
X133118015Y-133797122D01*
X133036640Y-133600665D01*
X132918502Y-133423859D01*
X132768141Y-133273498D01*
X132591335Y-133155360D01*
X132394878Y-133073985D01*
X132186321Y-133032500D01*
X131973679Y-133032500D01*
X131765122Y-133073985D01*
X131568665Y-133155360D01*
X131391859Y-133273498D01*
X131241498Y-133423859D01*
X131152500Y-133557054D01*
X131152500Y-130900140D01*
X132130800Y-130900140D01*
X132130800Y-131227860D01*
X132194735Y-131549283D01*
X132320148Y-131852057D01*
X132502220Y-132124547D01*
X132733953Y-132356280D01*
X133006443Y-132538352D01*
X133309217Y-132663765D01*
X133630640Y-132727700D01*
X133958360Y-132727700D01*
X134279783Y-132663765D01*
X134582557Y-132538352D01*
X134855047Y-132356280D01*
X134965538Y-132245789D01*
X135002174Y-132300620D01*
X135161380Y-132459826D01*
X135348587Y-132584913D01*
X135556599Y-132671075D01*
X135777424Y-132715000D01*
X136002576Y-132715000D01*
X136223401Y-132671075D01*
X136431413Y-132584913D01*
X136618620Y-132459826D01*
X136777826Y-132300620D01*
X136902913Y-132113413D01*
X136989075Y-131905401D01*
X137033000Y-131684576D01*
X137033000Y-131459424D01*
X137287000Y-131459424D01*
X137287000Y-131684576D01*
X137330925Y-131905401D01*
X137417087Y-132113413D01*
X137542174Y-132300620D01*
X137701380Y-132459826D01*
X137888587Y-132584913D01*
X138096599Y-132671075D01*
X138317424Y-132715000D01*
X138542576Y-132715000D01*
X138763401Y-132671075D01*
X138971413Y-132584913D01*
X139158620Y-132459826D01*
X139317826Y-132300620D01*
X139442913Y-132113413D01*
X139529075Y-131905401D01*
X139573000Y-131684576D01*
X139573000Y-131459424D01*
X139827000Y-131459424D01*
X139827000Y-131684576D01*
X139870925Y-131905401D01*
X139957087Y-132113413D01*
X140082174Y-132300620D01*
X140241380Y-132459826D01*
X140428587Y-132584913D01*
X140636599Y-132671075D01*
X140857424Y-132715000D01*
X141082576Y-132715000D01*
X141303401Y-132671075D01*
X141511413Y-132584913D01*
X141698620Y-132459826D01*
X141857826Y-132300620D01*
X141982913Y-132113413D01*
X142069075Y-131905401D01*
X142113000Y-131684576D01*
X142113000Y-131459424D01*
X142367000Y-131459424D01*
X142367000Y-131684576D01*
X142410925Y-131905401D01*
X142497087Y-132113413D01*
X142622174Y-132300620D01*
X142781380Y-132459826D01*
X142968587Y-132584913D01*
X143176599Y-132671075D01*
X143397424Y-132715000D01*
X143622576Y-132715000D01*
X143843401Y-132671075D01*
X144051413Y-132584913D01*
X144238620Y-132459826D01*
X144397826Y-132300620D01*
X144522913Y-132113413D01*
X144609075Y-131905401D01*
X144653000Y-131684576D01*
X144653000Y-131459424D01*
X144907000Y-131459424D01*
X144907000Y-131684576D01*
X144950925Y-131905401D01*
X145037087Y-132113413D01*
X145162174Y-132300620D01*
X145321380Y-132459826D01*
X145508587Y-132584913D01*
X145716599Y-132671075D01*
X145937424Y-132715000D01*
X146162576Y-132715000D01*
X146383401Y-132671075D01*
X146591413Y-132584913D01*
X146778620Y-132459826D01*
X146937826Y-132300620D01*
X147062913Y-132113413D01*
X147149075Y-131905401D01*
X147193000Y-131684576D01*
X147193000Y-131459424D01*
X147447000Y-131459424D01*
X147447000Y-131684576D01*
X147490925Y-131905401D01*
X147577087Y-132113413D01*
X147702174Y-132300620D01*
X147861380Y-132459826D01*
X148048587Y-132584913D01*
X148256599Y-132671075D01*
X148477424Y-132715000D01*
X148702576Y-132715000D01*
X148923401Y-132671075D01*
X149131413Y-132584913D01*
X149318620Y-132459826D01*
X149477826Y-132300620D01*
X149602913Y-132113413D01*
X149689075Y-131905401D01*
X149733000Y-131684576D01*
X149733000Y-131459424D01*
X149987000Y-131459424D01*
X149987000Y-131684576D01*
X150030925Y-131905401D01*
X150117087Y-132113413D01*
X150242174Y-132300620D01*
X150401380Y-132459826D01*
X150588587Y-132584913D01*
X150796599Y-132671075D01*
X151017424Y-132715000D01*
X151242576Y-132715000D01*
X151463401Y-132671075D01*
X151671413Y-132584913D01*
X151858620Y-132459826D01*
X152017826Y-132300620D01*
X152142913Y-132113413D01*
X152229075Y-131905401D01*
X152273000Y-131684576D01*
X152273000Y-131459424D01*
X152527000Y-131459424D01*
X152527000Y-131684576D01*
X152570925Y-131905401D01*
X152657087Y-132113413D01*
X152782174Y-132300620D01*
X152941380Y-132459826D01*
X153128587Y-132584913D01*
X153336599Y-132671075D01*
X153557424Y-132715000D01*
X153782576Y-132715000D01*
X154003401Y-132671075D01*
X154211413Y-132584913D01*
X154398620Y-132459826D01*
X154557826Y-132300620D01*
X154682913Y-132113413D01*
X154769075Y-131905401D01*
X154813000Y-131684576D01*
X154813000Y-131459424D01*
X155067000Y-131459424D01*
X155067000Y-131684576D01*
X155110925Y-131905401D01*
X155197087Y-132113413D01*
X155322174Y-132300620D01*
X155481380Y-132459826D01*
X155668587Y-132584913D01*
X155876599Y-132671075D01*
X156097424Y-132715000D01*
X156322576Y-132715000D01*
X156543401Y-132671075D01*
X156751413Y-132584913D01*
X156938620Y-132459826D01*
X157097826Y-132300620D01*
X157134462Y-132245789D01*
X157244953Y-132356280D01*
X157517443Y-132538352D01*
X157820217Y-132663765D01*
X158141640Y-132727700D01*
X158469360Y-132727700D01*
X158790783Y-132663765D01*
X159093557Y-132538352D01*
X159366047Y-132356280D01*
X159597780Y-132124547D01*
X159779852Y-131852057D01*
X159905265Y-131549283D01*
X159969200Y-131227860D01*
X159969200Y-130900140D01*
X159905265Y-130578717D01*
X159779852Y-130275943D01*
X159597780Y-130003453D01*
X159366047Y-129771720D01*
X159093557Y-129589648D01*
X158790783Y-129464235D01*
X158469360Y-129400300D01*
X158141640Y-129400300D01*
X157820217Y-129464235D01*
X157517443Y-129589648D01*
X157244953Y-129771720D01*
X157013220Y-130003453D01*
X156831148Y-130275943D01*
X156719365Y-130545812D01*
X156543401Y-130472925D01*
X156322576Y-130429000D01*
X156097424Y-130429000D01*
X155876599Y-130472925D01*
X155668587Y-130559087D01*
X155481380Y-130684174D01*
X155322174Y-130843380D01*
X155197087Y-131030587D01*
X155110925Y-131238599D01*
X155067000Y-131459424D01*
X154813000Y-131459424D01*
X154769075Y-131238599D01*
X154682913Y-131030587D01*
X154557826Y-130843380D01*
X154398620Y-130684174D01*
X154211413Y-130559087D01*
X154003401Y-130472925D01*
X153782576Y-130429000D01*
X153557424Y-130429000D01*
X153336599Y-130472925D01*
X153128587Y-130559087D01*
X152941380Y-130684174D01*
X152782174Y-130843380D01*
X152657087Y-131030587D01*
X152570925Y-131238599D01*
X152527000Y-131459424D01*
X152273000Y-131459424D01*
X152229075Y-131238599D01*
X152142913Y-131030587D01*
X152017826Y-130843380D01*
X151858620Y-130684174D01*
X151671413Y-130559087D01*
X151463401Y-130472925D01*
X151242576Y-130429000D01*
X151017424Y-130429000D01*
X150796599Y-130472925D01*
X150588587Y-130559087D01*
X150401380Y-130684174D01*
X150242174Y-130843380D01*
X150117087Y-131030587D01*
X150030925Y-131238599D01*
X149987000Y-131459424D01*
X149733000Y-131459424D01*
X149689075Y-131238599D01*
X149602913Y-131030587D01*
X149477826Y-130843380D01*
X149318620Y-130684174D01*
X149131413Y-130559087D01*
X148923401Y-130472925D01*
X148702576Y-130429000D01*
X148477424Y-130429000D01*
X148256599Y-130472925D01*
X148048587Y-130559087D01*
X147861380Y-130684174D01*
X147702174Y-130843380D01*
X147577087Y-131030587D01*
X147490925Y-131238599D01*
X147447000Y-131459424D01*
X147193000Y-131459424D01*
X147149075Y-131238599D01*
X147062913Y-131030587D01*
X146937826Y-130843380D01*
X146778620Y-130684174D01*
X146591413Y-130559087D01*
X146383401Y-130472925D01*
X146162576Y-130429000D01*
X145937424Y-130429000D01*
X145716599Y-130472925D01*
X145508587Y-130559087D01*
X145321380Y-130684174D01*
X145162174Y-130843380D01*
X145037087Y-131030587D01*
X144950925Y-131238599D01*
X144907000Y-131459424D01*
X144653000Y-131459424D01*
X144609075Y-131238599D01*
X144522913Y-131030587D01*
X144397826Y-130843380D01*
X144238620Y-130684174D01*
X144051413Y-130559087D01*
X143843401Y-130472925D01*
X143622576Y-130429000D01*
X143397424Y-130429000D01*
X143176599Y-130472925D01*
X142968587Y-130559087D01*
X142781380Y-130684174D01*
X142622174Y-130843380D01*
X142497087Y-131030587D01*
X142410925Y-131238599D01*
X142367000Y-131459424D01*
X142113000Y-131459424D01*
X142069075Y-131238599D01*
X141982913Y-131030587D01*
X141857826Y-130843380D01*
X141698620Y-130684174D01*
X141511413Y-130559087D01*
X141303401Y-130472925D01*
X141082576Y-130429000D01*
X140857424Y-130429000D01*
X140636599Y-130472925D01*
X140428587Y-130559087D01*
X140241380Y-130684174D01*
X140082174Y-130843380D01*
X139957087Y-131030587D01*
X139870925Y-131238599D01*
X139827000Y-131459424D01*
X139573000Y-131459424D01*
X139529075Y-131238599D01*
X139442913Y-131030587D01*
X139317826Y-130843380D01*
X139158620Y-130684174D01*
X138971413Y-130559087D01*
X138763401Y-130472925D01*
X138542576Y-130429000D01*
X138317424Y-130429000D01*
X138096599Y-130472925D01*
X137888587Y-130559087D01*
X137701380Y-130684174D01*
X137542174Y-130843380D01*
X137417087Y-131030587D01*
X137330925Y-131238599D01*
X137287000Y-131459424D01*
X137033000Y-131459424D01*
X136989075Y-131238599D01*
X136902913Y-131030587D01*
X136777826Y-130843380D01*
X136618620Y-130684174D01*
X136431413Y-130559087D01*
X136223401Y-130472925D01*
X136002576Y-130429000D01*
X135777424Y-130429000D01*
X135556599Y-130472925D01*
X135380635Y-130545812D01*
X135268852Y-130275943D01*
X135086780Y-130003453D01*
X134855047Y-129771720D01*
X134582557Y-129589648D01*
X134279783Y-129464235D01*
X133958360Y-129400300D01*
X133630640Y-129400300D01*
X133309217Y-129464235D01*
X133006443Y-129589648D01*
X132733953Y-129771720D01*
X132502220Y-130003453D01*
X132320148Y-130275943D01*
X132194735Y-130578717D01*
X132130800Y-130900140D01*
X131152500Y-130900140D01*
X131152500Y-129078946D01*
X131241498Y-129212141D01*
X131391859Y-129362502D01*
X131568665Y-129480640D01*
X131765122Y-129562015D01*
X131973679Y-129603500D01*
X132186321Y-129603500D01*
X132394878Y-129562015D01*
X132591335Y-129480640D01*
X132768141Y-129362502D01*
X132918502Y-129212141D01*
X133036640Y-129035335D01*
X133084651Y-128919424D01*
X136017000Y-128919424D01*
X136017000Y-129144576D01*
X136060925Y-129365401D01*
X136147087Y-129573413D01*
X136272174Y-129760620D01*
X136431380Y-129919826D01*
X136618587Y-130044913D01*
X136826599Y-130131075D01*
X137047424Y-130175000D01*
X137272576Y-130175000D01*
X137493401Y-130131075D01*
X137701413Y-130044913D01*
X137888620Y-129919826D01*
X138047826Y-129760620D01*
X138172913Y-129573413D01*
X138259075Y-129365401D01*
X138303000Y-129144576D01*
X138303000Y-128919424D01*
X138557000Y-128919424D01*
X138557000Y-129144576D01*
X138600925Y-129365401D01*
X138687087Y-129573413D01*
X138812174Y-129760620D01*
X138971380Y-129919826D01*
X139158587Y-130044913D01*
X139366599Y-130131075D01*
X139587424Y-130175000D01*
X139812576Y-130175000D01*
X140033401Y-130131075D01*
X140241413Y-130044913D01*
X140428620Y-129919826D01*
X140587826Y-129760620D01*
X140712913Y-129573413D01*
X140799075Y-129365401D01*
X140843000Y-129144576D01*
X140843000Y-128919424D01*
X141097000Y-128919424D01*
X141097000Y-129144576D01*
X141140925Y-129365401D01*
X141227087Y-129573413D01*
X141352174Y-129760620D01*
X141511380Y-129919826D01*
X141698587Y-130044913D01*
X141906599Y-130131075D01*
X142127424Y-130175000D01*
X142352576Y-130175000D01*
X142573401Y-130131075D01*
X142781413Y-130044913D01*
X142968620Y-129919826D01*
X143127826Y-129760620D01*
X143252913Y-129573413D01*
X143339075Y-129365401D01*
X143383000Y-129144576D01*
X143383000Y-128919424D01*
X143637000Y-128919424D01*
X143637000Y-129144576D01*
X143680925Y-129365401D01*
X143767087Y-129573413D01*
X143892174Y-129760620D01*
X144051380Y-129919826D01*
X144238587Y-130044913D01*
X144446599Y-130131075D01*
X144667424Y-130175000D01*
X144892576Y-130175000D01*
X145113401Y-130131075D01*
X145321413Y-130044913D01*
X145508620Y-129919826D01*
X145667826Y-129760620D01*
X145792913Y-129573413D01*
X145879075Y-129365401D01*
X145923000Y-129144576D01*
X145923000Y-128919424D01*
X146177000Y-128919424D01*
X146177000Y-129144576D01*
X146220925Y-129365401D01*
X146307087Y-129573413D01*
X146432174Y-129760620D01*
X146591380Y-129919826D01*
X146778587Y-130044913D01*
X146986599Y-130131075D01*
X147207424Y-130175000D01*
X147432576Y-130175000D01*
X147653401Y-130131075D01*
X147861413Y-130044913D01*
X148048620Y-129919826D01*
X148207826Y-129760620D01*
X148332913Y-129573413D01*
X148419075Y-129365401D01*
X148463000Y-129144576D01*
X148463000Y-128919424D01*
X148717000Y-128919424D01*
X148717000Y-129144576D01*
X148760925Y-129365401D01*
X148847087Y-129573413D01*
X148972174Y-129760620D01*
X149131380Y-129919826D01*
X149318587Y-130044913D01*
X149526599Y-130131075D01*
X149747424Y-130175000D01*
X149972576Y-130175000D01*
X150193401Y-130131075D01*
X150401413Y-130044913D01*
X150588620Y-129919826D01*
X150747826Y-129760620D01*
X150872913Y-129573413D01*
X150959075Y-129365401D01*
X151003000Y-129144576D01*
X151003000Y-128919424D01*
X151257000Y-128919424D01*
X151257000Y-129144576D01*
X151300925Y-129365401D01*
X151387087Y-129573413D01*
X151512174Y-129760620D01*
X151671380Y-129919826D01*
X151858587Y-130044913D01*
X152066599Y-130131075D01*
X152287424Y-130175000D01*
X152512576Y-130175000D01*
X152733401Y-130131075D01*
X152941413Y-130044913D01*
X153128620Y-129919826D01*
X153287826Y-129760620D01*
X153412913Y-129573413D01*
X153499075Y-129365401D01*
X153543000Y-129144576D01*
X153543000Y-128919424D01*
X153797000Y-128919424D01*
X153797000Y-129144576D01*
X153840925Y-129365401D01*
X153927087Y-129573413D01*
X154052174Y-129760620D01*
X154211380Y-129919826D01*
X154398587Y-130044913D01*
X154606599Y-130131075D01*
X154827424Y-130175000D01*
X155052576Y-130175000D01*
X155273401Y-130131075D01*
X155481413Y-130044913D01*
X155668620Y-129919826D01*
X155827826Y-129760620D01*
X155952913Y-129573413D01*
X156039075Y-129365401D01*
X156083000Y-129144576D01*
X156083000Y-128919424D01*
X156039075Y-128698599D01*
X155952913Y-128490587D01*
X155827826Y-128303380D01*
X155668620Y-128144174D01*
X155481413Y-128019087D01*
X155273401Y-127932925D01*
X155052576Y-127889000D01*
X154827424Y-127889000D01*
X154606599Y-127932925D01*
X154398587Y-128019087D01*
X154211380Y-128144174D01*
X154052174Y-128303380D01*
X153927087Y-128490587D01*
X153840925Y-128698599D01*
X153797000Y-128919424D01*
X153543000Y-128919424D01*
X153499075Y-128698599D01*
X153412913Y-128490587D01*
X153287826Y-128303380D01*
X153128620Y-128144174D01*
X152941413Y-128019087D01*
X152733401Y-127932925D01*
X152512576Y-127889000D01*
X152287424Y-127889000D01*
X152066599Y-127932925D01*
X151858587Y-128019087D01*
X151671380Y-128144174D01*
X151512174Y-128303380D01*
X151387087Y-128490587D01*
X151300925Y-128698599D01*
X151257000Y-128919424D01*
X151003000Y-128919424D01*
X150959075Y-128698599D01*
X150872913Y-128490587D01*
X150747826Y-128303380D01*
X150588620Y-128144174D01*
X150401413Y-128019087D01*
X150193401Y-127932925D01*
X149972576Y-127889000D01*
X149747424Y-127889000D01*
X149526599Y-127932925D01*
X149318587Y-128019087D01*
X149131380Y-128144174D01*
X148972174Y-128303380D01*
X148847087Y-128490587D01*
X148760925Y-128698599D01*
X148717000Y-128919424D01*
X148463000Y-128919424D01*
X148419075Y-128698599D01*
X148332913Y-128490587D01*
X148207826Y-128303380D01*
X148048620Y-128144174D01*
X147861413Y-128019087D01*
X147653401Y-127932925D01*
X147432576Y-127889000D01*
X147207424Y-127889000D01*
X146986599Y-127932925D01*
X146778587Y-128019087D01*
X146591380Y-128144174D01*
X146432174Y-128303380D01*
X146307087Y-128490587D01*
X146220925Y-128698599D01*
X146177000Y-128919424D01*
X145923000Y-128919424D01*
X145879075Y-128698599D01*
X145792913Y-128490587D01*
X145667826Y-128303380D01*
X145508620Y-128144174D01*
X145321413Y-128019087D01*
X145113401Y-127932925D01*
X144892576Y-127889000D01*
X144667424Y-127889000D01*
X144446599Y-127932925D01*
X144238587Y-128019087D01*
X144051380Y-128144174D01*
X143892174Y-128303380D01*
X143767087Y-128490587D01*
X143680925Y-128698599D01*
X143637000Y-128919424D01*
X143383000Y-128919424D01*
X143339075Y-128698599D01*
X143252913Y-128490587D01*
X143127826Y-128303380D01*
X142968620Y-128144174D01*
X142781413Y-128019087D01*
X142573401Y-127932925D01*
X142352576Y-127889000D01*
X142127424Y-127889000D01*
X141906599Y-127932925D01*
X141698587Y-128019087D01*
X141511380Y-128144174D01*
X141352174Y-128303380D01*
X141227087Y-128490587D01*
X141140925Y-128698599D01*
X141097000Y-128919424D01*
X140843000Y-128919424D01*
X140799075Y-128698599D01*
X140712913Y-128490587D01*
X140587826Y-128303380D01*
X140428620Y-128144174D01*
X140241413Y-128019087D01*
X140033401Y-127932925D01*
X139812576Y-127889000D01*
X139587424Y-127889000D01*
X139366599Y-127932925D01*
X139158587Y-128019087D01*
X138971380Y-128144174D01*
X138812174Y-128303380D01*
X138687087Y-128490587D01*
X138600925Y-128698599D01*
X138557000Y-128919424D01*
X138303000Y-128919424D01*
X138259075Y-128698599D01*
X138172913Y-128490587D01*
X138047826Y-128303380D01*
X137888620Y-128144174D01*
X137701413Y-128019087D01*
X137493401Y-127932925D01*
X137272576Y-127889000D01*
X137047424Y-127889000D01*
X136826599Y-127932925D01*
X136618587Y-128019087D01*
X136431380Y-128144174D01*
X136272174Y-128303380D01*
X136147087Y-128490587D01*
X136060925Y-128698599D01*
X136017000Y-128919424D01*
X133084651Y-128919424D01*
X133118015Y-128838878D01*
X133159500Y-128630321D01*
X133159500Y-128417679D01*
X133118015Y-128209122D01*
X133036640Y-128012665D01*
X132918502Y-127835859D01*
X132768141Y-127685498D01*
X132591335Y-127567360D01*
X132394878Y-127485985D01*
X132186321Y-127444500D01*
X131973679Y-127444500D01*
X131765122Y-127485985D01*
X131568665Y-127567360D01*
X131391859Y-127685498D01*
X131241498Y-127835859D01*
X131152500Y-127969054D01*
X131152500Y-126543837D01*
X131581311Y-126354362D01*
X134085441Y-126354362D01*
X134129784Y-126608358D01*
X134364996Y-126731789D01*
X134619769Y-126806961D01*
X134884311Y-126830985D01*
X135148457Y-126802937D01*
X135402056Y-126723896D01*
X135618216Y-126608358D01*
X135662559Y-126354362D01*
X134874000Y-125565803D01*
X134085441Y-126354362D01*
X131581311Y-126354362D01*
X133520218Y-125497636D01*
X133547063Y-125750457D01*
X133626104Y-126004056D01*
X133741642Y-126220216D01*
X133995638Y-126264559D01*
X134784197Y-125476000D01*
X134963803Y-125476000D01*
X135752362Y-126264559D01*
X136006358Y-126220216D01*
X136129789Y-125985004D01*
X136204961Y-125730231D01*
X136228985Y-125465689D01*
X136200937Y-125201543D01*
X136121896Y-124947944D01*
X136006358Y-124731784D01*
X135752362Y-124687441D01*
X134963803Y-125476000D01*
X134784197Y-125476000D01*
X134770055Y-125461858D01*
X134859858Y-125372055D01*
X134874000Y-125386197D01*
X135662559Y-124597638D01*
X135655003Y-124554359D01*
X136243106Y-124294500D01*
X155856896Y-124294500D01*
X160947500Y-126543837D01*
%TA.AperFunction,Conductor*%
D14*
G36*
X160947500Y-126543837D02*
G01*
X160947500Y-127969054D01*
X160858502Y-127835859D01*
X160708141Y-127685498D01*
X160531335Y-127567360D01*
X160334878Y-127485985D01*
X160126321Y-127444500D01*
X159913679Y-127444500D01*
X159705122Y-127485985D01*
X159508665Y-127567360D01*
X159331859Y-127685498D01*
X159181498Y-127835859D01*
X159063360Y-128012665D01*
X158981985Y-128209122D01*
X158940500Y-128417679D01*
X158940500Y-128630321D01*
X158981985Y-128838878D01*
X159063360Y-129035335D01*
X159181498Y-129212141D01*
X159331859Y-129362502D01*
X159508665Y-129480640D01*
X159705122Y-129562015D01*
X159913679Y-129603500D01*
X160126321Y-129603500D01*
X160334878Y-129562015D01*
X160531335Y-129480640D01*
X160708141Y-129362502D01*
X160858502Y-129212141D01*
X160947500Y-129078946D01*
X160947501Y-133557055D01*
X160858502Y-133423859D01*
X160708141Y-133273498D01*
X160531335Y-133155360D01*
X160334878Y-133073985D01*
X160126321Y-133032500D01*
X159913679Y-133032500D01*
X159705122Y-133073985D01*
X159508665Y-133155360D01*
X159331859Y-133273498D01*
X159181498Y-133423859D01*
X159063360Y-133600665D01*
X158981985Y-133797122D01*
X158940500Y-134005679D01*
X158940500Y-134218321D01*
X158981985Y-134426878D01*
X159063360Y-134623335D01*
X159181498Y-134800141D01*
X159331859Y-134950502D01*
X159508665Y-135068640D01*
X159705122Y-135150015D01*
X159913679Y-135191500D01*
X160126321Y-135191500D01*
X160334878Y-135150015D01*
X160531335Y-135068640D01*
X160708141Y-134950502D01*
X160858502Y-134800141D01*
X160947501Y-134666945D01*
X160947501Y-136436500D01*
X131152500Y-136436500D01*
X131152500Y-134666946D01*
X131241498Y-134800141D01*
X131391859Y-134950502D01*
X131568665Y-135068640D01*
X131765122Y-135150015D01*
X131973679Y-135191500D01*
X132186321Y-135191500D01*
X132394878Y-135150015D01*
X132591335Y-135068640D01*
X132768141Y-134950502D01*
X132918502Y-134800141D01*
X133036640Y-134623335D01*
X133118015Y-134426878D01*
X133159500Y-134218321D01*
X133159500Y-134005679D01*
X133158256Y-133999424D01*
X136017000Y-133999424D01*
X136017000Y-134224576D01*
X136060925Y-134445401D01*
X136147087Y-134653413D01*
X136272174Y-134840620D01*
X136431380Y-134999826D01*
X136618587Y-135124913D01*
X136826599Y-135211075D01*
X137047424Y-135255000D01*
X137272576Y-135255000D01*
X137493401Y-135211075D01*
X137701413Y-135124913D01*
X137888620Y-134999826D01*
X138047826Y-134840620D01*
X138172913Y-134653413D01*
X138259075Y-134445401D01*
X138303000Y-134224576D01*
X138303000Y-133999424D01*
X138557000Y-133999424D01*
X138557000Y-134224576D01*
X138600925Y-134445401D01*
X138687087Y-134653413D01*
X138812174Y-134840620D01*
X138971380Y-134999826D01*
X139158587Y-135124913D01*
X139366599Y-135211075D01*
X139587424Y-135255000D01*
X139812576Y-135255000D01*
X140033401Y-135211075D01*
X140241413Y-135124913D01*
X140428620Y-134999826D01*
X140587826Y-134840620D01*
X140712913Y-134653413D01*
X140799075Y-134445401D01*
X140843000Y-134224576D01*
X140843000Y-133999424D01*
X141097000Y-133999424D01*
X141097000Y-134224576D01*
X141140925Y-134445401D01*
X141227087Y-134653413D01*
X141352174Y-134840620D01*
X141511380Y-134999826D01*
X141698587Y-135124913D01*
X141906599Y-135211075D01*
X142127424Y-135255000D01*
X142352576Y-135255000D01*
X142573401Y-135211075D01*
X142781413Y-135124913D01*
X142968620Y-134999826D01*
X143127826Y-134840620D01*
X143252913Y-134653413D01*
X143339075Y-134445401D01*
X143383000Y-134224576D01*
X143383000Y-133999424D01*
X143637000Y-133999424D01*
X143637000Y-134224576D01*
X143680925Y-134445401D01*
X143767087Y-134653413D01*
X143892174Y-134840620D01*
X144051380Y-134999826D01*
X144238587Y-135124913D01*
X144446599Y-135211075D01*
X144667424Y-135255000D01*
X144892576Y-135255000D01*
X145113401Y-135211075D01*
X145321413Y-135124913D01*
X145508620Y-134999826D01*
X145667826Y-134840620D01*
X145792913Y-134653413D01*
X145879075Y-134445401D01*
X145923000Y-134224576D01*
X145923000Y-133999424D01*
X146177000Y-133999424D01*
X146177000Y-134224576D01*
X146220925Y-134445401D01*
X146307087Y-134653413D01*
X146432174Y-134840620D01*
X146591380Y-134999826D01*
X146778587Y-135124913D01*
X146986599Y-135211075D01*
X147207424Y-135255000D01*
X147432576Y-135255000D01*
X147653401Y-135211075D01*
X147861413Y-135124913D01*
X148048620Y-134999826D01*
X148207826Y-134840620D01*
X148332913Y-134653413D01*
X148419075Y-134445401D01*
X148463000Y-134224576D01*
X148463000Y-133999424D01*
X148717000Y-133999424D01*
X148717000Y-134224576D01*
X148760925Y-134445401D01*
X148847087Y-134653413D01*
X148972174Y-134840620D01*
X149131380Y-134999826D01*
X149318587Y-135124913D01*
X149526599Y-135211075D01*
X149747424Y-135255000D01*
X149972576Y-135255000D01*
X150193401Y-135211075D01*
X150401413Y-135124913D01*
X150588620Y-134999826D01*
X150747826Y-134840620D01*
X150872913Y-134653413D01*
X150959075Y-134445401D01*
X151003000Y-134224576D01*
X151003000Y-133999424D01*
X151257000Y-133999424D01*
X151257000Y-134224576D01*
X151300925Y-134445401D01*
X151387087Y-134653413D01*
X151512174Y-134840620D01*
X151671380Y-134999826D01*
X151858587Y-135124913D01*
X152066599Y-135211075D01*
X152287424Y-135255000D01*
X152512576Y-135255000D01*
X152733401Y-135211075D01*
X152941413Y-135124913D01*
X153128620Y-134999826D01*
X153287826Y-134840620D01*
X153412913Y-134653413D01*
X153499075Y-134445401D01*
X153543000Y-134224576D01*
X153543000Y-133999424D01*
X153797000Y-133999424D01*
X153797000Y-134224576D01*
X153840925Y-134445401D01*
X153927087Y-134653413D01*
X154052174Y-134840620D01*
X154211380Y-134999826D01*
X154398587Y-135124913D01*
X154606599Y-135211075D01*
X154827424Y-135255000D01*
X155052576Y-135255000D01*
X155273401Y-135211075D01*
X155481413Y-135124913D01*
X155668620Y-134999826D01*
X155827826Y-134840620D01*
X155952913Y-134653413D01*
X156039075Y-134445401D01*
X156083000Y-134224576D01*
X156083000Y-133999424D01*
X156039075Y-133778599D01*
X155952913Y-133570587D01*
X155827826Y-133383380D01*
X155668620Y-133224174D01*
X155481413Y-133099087D01*
X155273401Y-133012925D01*
X155052576Y-132969000D01*
X154827424Y-132969000D01*
X154606599Y-133012925D01*
X154398587Y-133099087D01*
X154211380Y-133224174D01*
X154052174Y-133383380D01*
X153927087Y-133570587D01*
X153840925Y-133778599D01*
X153797000Y-133999424D01*
X153543000Y-133999424D01*
X153499075Y-133778599D01*
X153412913Y-133570587D01*
X153287826Y-133383380D01*
X153128620Y-133224174D01*
X152941413Y-133099087D01*
X152733401Y-133012925D01*
X152512576Y-132969000D01*
X152287424Y-132969000D01*
X152066599Y-133012925D01*
X151858587Y-133099087D01*
X151671380Y-133224174D01*
X151512174Y-133383380D01*
X151387087Y-133570587D01*
X151300925Y-133778599D01*
X151257000Y-133999424D01*
X151003000Y-133999424D01*
X150959075Y-133778599D01*
X150872913Y-133570587D01*
X150747826Y-133383380D01*
X150588620Y-133224174D01*
X150401413Y-133099087D01*
X150193401Y-133012925D01*
X149972576Y-132969000D01*
X149747424Y-132969000D01*
X149526599Y-133012925D01*
X149318587Y-133099087D01*
X149131380Y-133224174D01*
X148972174Y-133383380D01*
X148847087Y-133570587D01*
X148760925Y-133778599D01*
X148717000Y-133999424D01*
X148463000Y-133999424D01*
X148419075Y-133778599D01*
X148332913Y-133570587D01*
X148207826Y-133383380D01*
X148048620Y-133224174D01*
X147861413Y-133099087D01*
X147653401Y-133012925D01*
X147432576Y-132969000D01*
X147207424Y-132969000D01*
X146986599Y-133012925D01*
X146778587Y-133099087D01*
X146591380Y-133224174D01*
X146432174Y-133383380D01*
X146307087Y-133570587D01*
X146220925Y-133778599D01*
X146177000Y-133999424D01*
X145923000Y-133999424D01*
X145879075Y-133778599D01*
X145792913Y-133570587D01*
X145667826Y-133383380D01*
X145508620Y-133224174D01*
X145321413Y-133099087D01*
X145113401Y-133012925D01*
X144892576Y-132969000D01*
X144667424Y-132969000D01*
X144446599Y-133012925D01*
X144238587Y-133099087D01*
X144051380Y-133224174D01*
X143892174Y-133383380D01*
X143767087Y-133570587D01*
X143680925Y-133778599D01*
X143637000Y-133999424D01*
X143383000Y-133999424D01*
X143339075Y-133778599D01*
X143252913Y-133570587D01*
X143127826Y-133383380D01*
X142968620Y-133224174D01*
X142781413Y-133099087D01*
X142573401Y-133012925D01*
X142352576Y-132969000D01*
X142127424Y-132969000D01*
X141906599Y-133012925D01*
X141698587Y-133099087D01*
X141511380Y-133224174D01*
X141352174Y-133383380D01*
X141227087Y-133570587D01*
X141140925Y-133778599D01*
X141097000Y-133999424D01*
X140843000Y-133999424D01*
X140799075Y-133778599D01*
X140712913Y-133570587D01*
X140587826Y-133383380D01*
X140428620Y-133224174D01*
X140241413Y-133099087D01*
X140033401Y-133012925D01*
X139812576Y-132969000D01*
X139587424Y-132969000D01*
X139366599Y-133012925D01*
X139158587Y-133099087D01*
X138971380Y-133224174D01*
X138812174Y-133383380D01*
X138687087Y-133570587D01*
X138600925Y-133778599D01*
X138557000Y-133999424D01*
X138303000Y-133999424D01*
X138259075Y-133778599D01*
X138172913Y-133570587D01*
X138047826Y-133383380D01*
X137888620Y-133224174D01*
X137701413Y-133099087D01*
X137493401Y-133012925D01*
X137272576Y-132969000D01*
X137047424Y-132969000D01*
X136826599Y-133012925D01*
X136618587Y-133099087D01*
X136431380Y-133224174D01*
X136272174Y-133383380D01*
X136147087Y-133570587D01*
X136060925Y-133778599D01*
X136017000Y-133999424D01*
X133158256Y-133999424D01*
X133118015Y-133797122D01*
X133036640Y-133600665D01*
X132918502Y-133423859D01*
X132768141Y-133273498D01*
X132591335Y-133155360D01*
X132394878Y-133073985D01*
X132186321Y-133032500D01*
X131973679Y-133032500D01*
X131765122Y-133073985D01*
X131568665Y-133155360D01*
X131391859Y-133273498D01*
X131241498Y-133423859D01*
X131152500Y-133557054D01*
X131152500Y-130900140D01*
X132130800Y-130900140D01*
X132130800Y-131227860D01*
X132194735Y-131549283D01*
X132320148Y-131852057D01*
X132502220Y-132124547D01*
X132733953Y-132356280D01*
X133006443Y-132538352D01*
X133309217Y-132663765D01*
X133630640Y-132727700D01*
X133958360Y-132727700D01*
X134279783Y-132663765D01*
X134582557Y-132538352D01*
X134855047Y-132356280D01*
X134965538Y-132245789D01*
X135002174Y-132300620D01*
X135161380Y-132459826D01*
X135348587Y-132584913D01*
X135556599Y-132671075D01*
X135777424Y-132715000D01*
X136002576Y-132715000D01*
X136223401Y-132671075D01*
X136431413Y-132584913D01*
X136618620Y-132459826D01*
X136777826Y-132300620D01*
X136902913Y-132113413D01*
X136989075Y-131905401D01*
X137033000Y-131684576D01*
X137033000Y-131459424D01*
X137287000Y-131459424D01*
X137287000Y-131684576D01*
X137330925Y-131905401D01*
X137417087Y-132113413D01*
X137542174Y-132300620D01*
X137701380Y-132459826D01*
X137888587Y-132584913D01*
X138096599Y-132671075D01*
X138317424Y-132715000D01*
X138542576Y-132715000D01*
X138763401Y-132671075D01*
X138971413Y-132584913D01*
X139158620Y-132459826D01*
X139317826Y-132300620D01*
X139442913Y-132113413D01*
X139529075Y-131905401D01*
X139573000Y-131684576D01*
X139573000Y-131459424D01*
X139827000Y-131459424D01*
X139827000Y-131684576D01*
X139870925Y-131905401D01*
X139957087Y-132113413D01*
X140082174Y-132300620D01*
X140241380Y-132459826D01*
X140428587Y-132584913D01*
X140636599Y-132671075D01*
X140857424Y-132715000D01*
X141082576Y-132715000D01*
X141303401Y-132671075D01*
X141511413Y-132584913D01*
X141698620Y-132459826D01*
X141857826Y-132300620D01*
X141982913Y-132113413D01*
X142069075Y-131905401D01*
X142113000Y-131684576D01*
X142113000Y-131459424D01*
X142367000Y-131459424D01*
X142367000Y-131684576D01*
X142410925Y-131905401D01*
X142497087Y-132113413D01*
X142622174Y-132300620D01*
X142781380Y-132459826D01*
X142968587Y-132584913D01*
X143176599Y-132671075D01*
X143397424Y-132715000D01*
X143622576Y-132715000D01*
X143843401Y-132671075D01*
X144051413Y-132584913D01*
X144238620Y-132459826D01*
X144397826Y-132300620D01*
X144522913Y-132113413D01*
X144609075Y-131905401D01*
X144653000Y-131684576D01*
X144653000Y-131459424D01*
X144907000Y-131459424D01*
X144907000Y-131684576D01*
X144950925Y-131905401D01*
X145037087Y-132113413D01*
X145162174Y-132300620D01*
X145321380Y-132459826D01*
X145508587Y-132584913D01*
X145716599Y-132671075D01*
X145937424Y-132715000D01*
X146162576Y-132715000D01*
X146383401Y-132671075D01*
X146591413Y-132584913D01*
X146778620Y-132459826D01*
X146937826Y-132300620D01*
X147062913Y-132113413D01*
X147149075Y-131905401D01*
X147193000Y-131684576D01*
X147193000Y-131459424D01*
X147447000Y-131459424D01*
X147447000Y-131684576D01*
X147490925Y-131905401D01*
X147577087Y-132113413D01*
X147702174Y-132300620D01*
X147861380Y-132459826D01*
X148048587Y-132584913D01*
X148256599Y-132671075D01*
X148477424Y-132715000D01*
X148702576Y-132715000D01*
X148923401Y-132671075D01*
X149131413Y-132584913D01*
X149318620Y-132459826D01*
X149477826Y-132300620D01*
X149602913Y-132113413D01*
X149689075Y-131905401D01*
X149733000Y-131684576D01*
X149733000Y-131459424D01*
X149987000Y-131459424D01*
X149987000Y-131684576D01*
X150030925Y-131905401D01*
X150117087Y-132113413D01*
X150242174Y-132300620D01*
X150401380Y-132459826D01*
X150588587Y-132584913D01*
X150796599Y-132671075D01*
X151017424Y-132715000D01*
X151242576Y-132715000D01*
X151463401Y-132671075D01*
X151671413Y-132584913D01*
X151858620Y-132459826D01*
X152017826Y-132300620D01*
X152142913Y-132113413D01*
X152229075Y-131905401D01*
X152273000Y-131684576D01*
X152273000Y-131459424D01*
X152527000Y-131459424D01*
X152527000Y-131684576D01*
X152570925Y-131905401D01*
X152657087Y-132113413D01*
X152782174Y-132300620D01*
X152941380Y-132459826D01*
X153128587Y-132584913D01*
X153336599Y-132671075D01*
X153557424Y-132715000D01*
X153782576Y-132715000D01*
X154003401Y-132671075D01*
X154211413Y-132584913D01*
X154398620Y-132459826D01*
X154557826Y-132300620D01*
X154682913Y-132113413D01*
X154769075Y-131905401D01*
X154813000Y-131684576D01*
X154813000Y-131459424D01*
X155067000Y-131459424D01*
X155067000Y-131684576D01*
X155110925Y-131905401D01*
X155197087Y-132113413D01*
X155322174Y-132300620D01*
X155481380Y-132459826D01*
X155668587Y-132584913D01*
X155876599Y-132671075D01*
X156097424Y-132715000D01*
X156322576Y-132715000D01*
X156543401Y-132671075D01*
X156751413Y-132584913D01*
X156938620Y-132459826D01*
X157097826Y-132300620D01*
X157134462Y-132245789D01*
X157244953Y-132356280D01*
X157517443Y-132538352D01*
X157820217Y-132663765D01*
X158141640Y-132727700D01*
X158469360Y-132727700D01*
X158790783Y-132663765D01*
X159093557Y-132538352D01*
X159366047Y-132356280D01*
X159597780Y-132124547D01*
X159779852Y-131852057D01*
X159905265Y-131549283D01*
X159969200Y-131227860D01*
X159969200Y-130900140D01*
X159905265Y-130578717D01*
X159779852Y-130275943D01*
X159597780Y-130003453D01*
X159366047Y-129771720D01*
X159093557Y-129589648D01*
X158790783Y-129464235D01*
X158469360Y-129400300D01*
X158141640Y-129400300D01*
X157820217Y-129464235D01*
X157517443Y-129589648D01*
X157244953Y-129771720D01*
X157013220Y-130003453D01*
X156831148Y-130275943D01*
X156719365Y-130545812D01*
X156543401Y-130472925D01*
X156322576Y-130429000D01*
X156097424Y-130429000D01*
X155876599Y-130472925D01*
X155668587Y-130559087D01*
X155481380Y-130684174D01*
X155322174Y-130843380D01*
X155197087Y-131030587D01*
X155110925Y-131238599D01*
X155067000Y-131459424D01*
X154813000Y-131459424D01*
X154769075Y-131238599D01*
X154682913Y-131030587D01*
X154557826Y-130843380D01*
X154398620Y-130684174D01*
X154211413Y-130559087D01*
X154003401Y-130472925D01*
X153782576Y-130429000D01*
X153557424Y-130429000D01*
X153336599Y-130472925D01*
X153128587Y-130559087D01*
X152941380Y-130684174D01*
X152782174Y-130843380D01*
X152657087Y-131030587D01*
X152570925Y-131238599D01*
X152527000Y-131459424D01*
X152273000Y-131459424D01*
X152229075Y-131238599D01*
X152142913Y-131030587D01*
X152017826Y-130843380D01*
X151858620Y-130684174D01*
X151671413Y-130559087D01*
X151463401Y-130472925D01*
X151242576Y-130429000D01*
X151017424Y-130429000D01*
X150796599Y-130472925D01*
X150588587Y-130559087D01*
X150401380Y-130684174D01*
X150242174Y-130843380D01*
X150117087Y-131030587D01*
X150030925Y-131238599D01*
X149987000Y-131459424D01*
X149733000Y-131459424D01*
X149689075Y-131238599D01*
X149602913Y-131030587D01*
X149477826Y-130843380D01*
X149318620Y-130684174D01*
X149131413Y-130559087D01*
X148923401Y-130472925D01*
X148702576Y-130429000D01*
X148477424Y-130429000D01*
X148256599Y-130472925D01*
X148048587Y-130559087D01*
X147861380Y-130684174D01*
X147702174Y-130843380D01*
X147577087Y-131030587D01*
X147490925Y-131238599D01*
X147447000Y-131459424D01*
X147193000Y-131459424D01*
X147149075Y-131238599D01*
X147062913Y-131030587D01*
X146937826Y-130843380D01*
X146778620Y-130684174D01*
X146591413Y-130559087D01*
X146383401Y-130472925D01*
X146162576Y-130429000D01*
X145937424Y-130429000D01*
X145716599Y-130472925D01*
X145508587Y-130559087D01*
X145321380Y-130684174D01*
X145162174Y-130843380D01*
X145037087Y-131030587D01*
X144950925Y-131238599D01*
X144907000Y-131459424D01*
X144653000Y-131459424D01*
X144609075Y-131238599D01*
X144522913Y-131030587D01*
X144397826Y-130843380D01*
X144238620Y-130684174D01*
X144051413Y-130559087D01*
X143843401Y-130472925D01*
X143622576Y-130429000D01*
X143397424Y-130429000D01*
X143176599Y-130472925D01*
X142968587Y-130559087D01*
X142781380Y-130684174D01*
X142622174Y-130843380D01*
X142497087Y-131030587D01*
X142410925Y-131238599D01*
X142367000Y-131459424D01*
X142113000Y-131459424D01*
X142069075Y-131238599D01*
X141982913Y-131030587D01*
X141857826Y-130843380D01*
X141698620Y-130684174D01*
X141511413Y-130559087D01*
X141303401Y-130472925D01*
X141082576Y-130429000D01*
X140857424Y-130429000D01*
X140636599Y-130472925D01*
X140428587Y-130559087D01*
X140241380Y-130684174D01*
X140082174Y-130843380D01*
X139957087Y-131030587D01*
X139870925Y-131238599D01*
X139827000Y-131459424D01*
X139573000Y-131459424D01*
X139529075Y-131238599D01*
X139442913Y-131030587D01*
X139317826Y-130843380D01*
X139158620Y-130684174D01*
X138971413Y-130559087D01*
X138763401Y-130472925D01*
X138542576Y-130429000D01*
X138317424Y-130429000D01*
X138096599Y-130472925D01*
X137888587Y-130559087D01*
X137701380Y-130684174D01*
X137542174Y-130843380D01*
X137417087Y-131030587D01*
X137330925Y-131238599D01*
X137287000Y-131459424D01*
X137033000Y-131459424D01*
X136989075Y-131238599D01*
X136902913Y-131030587D01*
X136777826Y-130843380D01*
X136618620Y-130684174D01*
X136431413Y-130559087D01*
X136223401Y-130472925D01*
X136002576Y-130429000D01*
X135777424Y-130429000D01*
X135556599Y-130472925D01*
X135380635Y-130545812D01*
X135268852Y-130275943D01*
X135086780Y-130003453D01*
X134855047Y-129771720D01*
X134582557Y-129589648D01*
X134279783Y-129464235D01*
X133958360Y-129400300D01*
X133630640Y-129400300D01*
X133309217Y-129464235D01*
X133006443Y-129589648D01*
X132733953Y-129771720D01*
X132502220Y-130003453D01*
X132320148Y-130275943D01*
X132194735Y-130578717D01*
X132130800Y-130900140D01*
X131152500Y-130900140D01*
X131152500Y-129078946D01*
X131241498Y-129212141D01*
X131391859Y-129362502D01*
X131568665Y-129480640D01*
X131765122Y-129562015D01*
X131973679Y-129603500D01*
X132186321Y-129603500D01*
X132394878Y-129562015D01*
X132591335Y-129480640D01*
X132768141Y-129362502D01*
X132918502Y-129212141D01*
X133036640Y-129035335D01*
X133084651Y-128919424D01*
X136017000Y-128919424D01*
X136017000Y-129144576D01*
X136060925Y-129365401D01*
X136147087Y-129573413D01*
X136272174Y-129760620D01*
X136431380Y-129919826D01*
X136618587Y-130044913D01*
X136826599Y-130131075D01*
X137047424Y-130175000D01*
X137272576Y-130175000D01*
X137493401Y-130131075D01*
X137701413Y-130044913D01*
X137888620Y-129919826D01*
X138047826Y-129760620D01*
X138172913Y-129573413D01*
X138259075Y-129365401D01*
X138303000Y-129144576D01*
X138303000Y-128919424D01*
X138557000Y-128919424D01*
X138557000Y-129144576D01*
X138600925Y-129365401D01*
X138687087Y-129573413D01*
X138812174Y-129760620D01*
X138971380Y-129919826D01*
X139158587Y-130044913D01*
X139366599Y-130131075D01*
X139587424Y-130175000D01*
X139812576Y-130175000D01*
X140033401Y-130131075D01*
X140241413Y-130044913D01*
X140428620Y-129919826D01*
X140587826Y-129760620D01*
X140712913Y-129573413D01*
X140799075Y-129365401D01*
X140843000Y-129144576D01*
X140843000Y-128919424D01*
X141097000Y-128919424D01*
X141097000Y-129144576D01*
X141140925Y-129365401D01*
X141227087Y-129573413D01*
X141352174Y-129760620D01*
X141511380Y-129919826D01*
X141698587Y-130044913D01*
X141906599Y-130131075D01*
X142127424Y-130175000D01*
X142352576Y-130175000D01*
X142573401Y-130131075D01*
X142781413Y-130044913D01*
X142968620Y-129919826D01*
X143127826Y-129760620D01*
X143252913Y-129573413D01*
X143339075Y-129365401D01*
X143383000Y-129144576D01*
X143383000Y-128919424D01*
X143637000Y-128919424D01*
X143637000Y-129144576D01*
X143680925Y-129365401D01*
X143767087Y-129573413D01*
X143892174Y-129760620D01*
X144051380Y-129919826D01*
X144238587Y-130044913D01*
X144446599Y-130131075D01*
X144667424Y-130175000D01*
X144892576Y-130175000D01*
X145113401Y-130131075D01*
X145321413Y-130044913D01*
X145508620Y-129919826D01*
X145667826Y-129760620D01*
X145792913Y-129573413D01*
X145879075Y-129365401D01*
X145923000Y-129144576D01*
X145923000Y-128919424D01*
X146177000Y-128919424D01*
X146177000Y-129144576D01*
X146220925Y-129365401D01*
X146307087Y-129573413D01*
X146432174Y-129760620D01*
X146591380Y-129919826D01*
X146778587Y-130044913D01*
X146986599Y-130131075D01*
X147207424Y-130175000D01*
X147432576Y-130175000D01*
X147653401Y-130131075D01*
X147861413Y-130044913D01*
X148048620Y-129919826D01*
X148207826Y-129760620D01*
X148332913Y-129573413D01*
X148419075Y-129365401D01*
X148463000Y-129144576D01*
X148463000Y-128919424D01*
X148717000Y-128919424D01*
X148717000Y-129144576D01*
X148760925Y-129365401D01*
X148847087Y-129573413D01*
X148972174Y-129760620D01*
X149131380Y-129919826D01*
X149318587Y-130044913D01*
X149526599Y-130131075D01*
X149747424Y-130175000D01*
X149972576Y-130175000D01*
X150193401Y-130131075D01*
X150401413Y-130044913D01*
X150588620Y-129919826D01*
X150747826Y-129760620D01*
X150872913Y-129573413D01*
X150959075Y-129365401D01*
X151003000Y-129144576D01*
X151003000Y-128919424D01*
X151257000Y-128919424D01*
X151257000Y-129144576D01*
X151300925Y-129365401D01*
X151387087Y-129573413D01*
X151512174Y-129760620D01*
X151671380Y-129919826D01*
X151858587Y-130044913D01*
X152066599Y-130131075D01*
X152287424Y-130175000D01*
X152512576Y-130175000D01*
X152733401Y-130131075D01*
X152941413Y-130044913D01*
X153128620Y-129919826D01*
X153287826Y-129760620D01*
X153412913Y-129573413D01*
X153499075Y-129365401D01*
X153543000Y-129144576D01*
X153543000Y-128919424D01*
X153797000Y-128919424D01*
X153797000Y-129144576D01*
X153840925Y-129365401D01*
X153927087Y-129573413D01*
X154052174Y-129760620D01*
X154211380Y-129919826D01*
X154398587Y-130044913D01*
X154606599Y-130131075D01*
X154827424Y-130175000D01*
X155052576Y-130175000D01*
X155273401Y-130131075D01*
X155481413Y-130044913D01*
X155668620Y-129919826D01*
X155827826Y-129760620D01*
X155952913Y-129573413D01*
X156039075Y-129365401D01*
X156083000Y-129144576D01*
X156083000Y-128919424D01*
X156039075Y-128698599D01*
X155952913Y-128490587D01*
X155827826Y-128303380D01*
X155668620Y-128144174D01*
X155481413Y-128019087D01*
X155273401Y-127932925D01*
X155052576Y-127889000D01*
X154827424Y-127889000D01*
X154606599Y-127932925D01*
X154398587Y-128019087D01*
X154211380Y-128144174D01*
X154052174Y-128303380D01*
X153927087Y-128490587D01*
X153840925Y-128698599D01*
X153797000Y-128919424D01*
X153543000Y-128919424D01*
X153499075Y-128698599D01*
X153412913Y-128490587D01*
X153287826Y-128303380D01*
X153128620Y-128144174D01*
X152941413Y-128019087D01*
X152733401Y-127932925D01*
X152512576Y-127889000D01*
X152287424Y-127889000D01*
X152066599Y-127932925D01*
X151858587Y-128019087D01*
X151671380Y-128144174D01*
X151512174Y-128303380D01*
X151387087Y-128490587D01*
X151300925Y-128698599D01*
X151257000Y-128919424D01*
X151003000Y-128919424D01*
X150959075Y-128698599D01*
X150872913Y-128490587D01*
X150747826Y-128303380D01*
X150588620Y-128144174D01*
X150401413Y-128019087D01*
X150193401Y-127932925D01*
X149972576Y-127889000D01*
X149747424Y-127889000D01*
X149526599Y-127932925D01*
X149318587Y-128019087D01*
X149131380Y-128144174D01*
X148972174Y-128303380D01*
X148847087Y-128490587D01*
X148760925Y-128698599D01*
X148717000Y-128919424D01*
X148463000Y-128919424D01*
X148419075Y-128698599D01*
X148332913Y-128490587D01*
X148207826Y-128303380D01*
X148048620Y-128144174D01*
X147861413Y-128019087D01*
X147653401Y-127932925D01*
X147432576Y-127889000D01*
X147207424Y-127889000D01*
X146986599Y-127932925D01*
X146778587Y-128019087D01*
X146591380Y-128144174D01*
X146432174Y-128303380D01*
X146307087Y-128490587D01*
X146220925Y-128698599D01*
X146177000Y-128919424D01*
X145923000Y-128919424D01*
X145879075Y-128698599D01*
X145792913Y-128490587D01*
X145667826Y-128303380D01*
X145508620Y-128144174D01*
X145321413Y-128019087D01*
X145113401Y-127932925D01*
X144892576Y-127889000D01*
X144667424Y-127889000D01*
X144446599Y-127932925D01*
X144238587Y-128019087D01*
X144051380Y-128144174D01*
X143892174Y-128303380D01*
X143767087Y-128490587D01*
X143680925Y-128698599D01*
X143637000Y-128919424D01*
X143383000Y-128919424D01*
X143339075Y-128698599D01*
X143252913Y-128490587D01*
X143127826Y-128303380D01*
X142968620Y-128144174D01*
X142781413Y-128019087D01*
X142573401Y-127932925D01*
X142352576Y-127889000D01*
X142127424Y-127889000D01*
X141906599Y-127932925D01*
X141698587Y-128019087D01*
X141511380Y-128144174D01*
X141352174Y-128303380D01*
X141227087Y-128490587D01*
X141140925Y-128698599D01*
X141097000Y-128919424D01*
X140843000Y-128919424D01*
X140799075Y-128698599D01*
X140712913Y-128490587D01*
X140587826Y-128303380D01*
X140428620Y-128144174D01*
X140241413Y-128019087D01*
X140033401Y-127932925D01*
X139812576Y-127889000D01*
X139587424Y-127889000D01*
X139366599Y-127932925D01*
X139158587Y-128019087D01*
X138971380Y-128144174D01*
X138812174Y-128303380D01*
X138687087Y-128490587D01*
X138600925Y-128698599D01*
X138557000Y-128919424D01*
X138303000Y-128919424D01*
X138259075Y-128698599D01*
X138172913Y-128490587D01*
X138047826Y-128303380D01*
X137888620Y-128144174D01*
X137701413Y-128019087D01*
X137493401Y-127932925D01*
X137272576Y-127889000D01*
X137047424Y-127889000D01*
X136826599Y-127932925D01*
X136618587Y-128019087D01*
X136431380Y-128144174D01*
X136272174Y-128303380D01*
X136147087Y-128490587D01*
X136060925Y-128698599D01*
X136017000Y-128919424D01*
X133084651Y-128919424D01*
X133118015Y-128838878D01*
X133159500Y-128630321D01*
X133159500Y-128417679D01*
X133118015Y-128209122D01*
X133036640Y-128012665D01*
X132918502Y-127835859D01*
X132768141Y-127685498D01*
X132591335Y-127567360D01*
X132394878Y-127485985D01*
X132186321Y-127444500D01*
X131973679Y-127444500D01*
X131765122Y-127485985D01*
X131568665Y-127567360D01*
X131391859Y-127685498D01*
X131241498Y-127835859D01*
X131152500Y-127969054D01*
X131152500Y-126543837D01*
X131581311Y-126354362D01*
X134085441Y-126354362D01*
X134129784Y-126608358D01*
X134364996Y-126731789D01*
X134619769Y-126806961D01*
X134884311Y-126830985D01*
X135148457Y-126802937D01*
X135402056Y-126723896D01*
X135618216Y-126608358D01*
X135662559Y-126354362D01*
X134874000Y-125565803D01*
X134085441Y-126354362D01*
X131581311Y-126354362D01*
X133520218Y-125497636D01*
X133547063Y-125750457D01*
X133626104Y-126004056D01*
X133741642Y-126220216D01*
X133995638Y-126264559D01*
X134784197Y-125476000D01*
X134963803Y-125476000D01*
X135752362Y-126264559D01*
X136006358Y-126220216D01*
X136129789Y-125985004D01*
X136204961Y-125730231D01*
X136228985Y-125465689D01*
X136200937Y-125201543D01*
X136121896Y-124947944D01*
X136006358Y-124731784D01*
X135752362Y-124687441D01*
X134963803Y-125476000D01*
X134784197Y-125476000D01*
X134770055Y-125461858D01*
X134859858Y-125372055D01*
X134874000Y-125386197D01*
X135662559Y-124597638D01*
X135655003Y-124554359D01*
X136243106Y-124294500D01*
X155856896Y-124294500D01*
X160947500Y-126543837D01*
G37*
%TD.AperFunction*%
%TD*%
M02*
