M48
; DRILL file {KiCad (5.1.10)-1} date 10/08/21 16:04:36
; FORMAT={-:-/ absolute / inch / decimal}
; #@! TF.CreationDate,2021-10-08T16:04:36-07:00
; #@! TF.GenerationSoftware,Kicad,Pcbnew,(5.1.10)-1
; #@! TF.FileFunction,Plated,1,2,PTH
FMAT,2
INCH
T1C0.0315
T2C0.0320
T3C0.0400
%
G90
G05
T1
X5.31Y-4.94
T2
X5.35Y-5.18
X5.4Y-5.08
X5.4Y-5.28
X5.45Y-5.18
X5.5Y-5.08
X5.5Y-5.28
X5.55Y-5.18
X5.6Y-5.08
X5.6Y-5.28
X5.65Y-5.18
X5.7Y-5.08
X5.7Y-5.28
X5.75Y-5.18
X5.8Y-5.08
X5.8Y-5.28
X5.85Y-5.18
X5.9Y-5.08
X5.9Y-5.28
X5.95Y-5.18
X6.0Y-5.08
X6.0Y-5.28
X6.05Y-5.18
X6.1Y-5.08
X6.1Y-5.28
X6.15Y-5.18
T3
X5.2Y-5.06
X5.2Y-5.28
X6.3Y-5.06
X6.3Y-5.28
T0
M30
