%TF.GenerationSoftware,KiCad,Pcbnew,(5.1.10)-1*%
%TF.CreationDate,2021-10-12T15:24:04-07:00*%
%TF.ProjectId,MicroD25_Bondpad,4d696372-6f44-4323-955f-426f6e647061,rev?*%
%TF.SameCoordinates,Original*%
%TF.FileFunction,Copper,L2,Bot*%
%TF.FilePolarity,Positive*%
%FSLAX46Y46*%
G04 Gerber Fmt 4.6, Leading zero omitted, Abs format (unit mm)*
G04 Created by KiCad (PCBNEW (5.1.10)-1) date 2021-10-12 15:24:04*
%MOMM*%
%LPD*%
G01*
G04 APERTURE LIST*
%TA.AperFunction,ConnectorPad*%
%ADD10C,0.100000*%
%TD*%
%TA.AperFunction,ComponentPad*%
%ADD11C,2.000000*%
%TD*%
%TA.AperFunction,ConnectorPad*%
%ADD12C,3.800000*%
%TD*%
%TA.AperFunction,ComponentPad*%
%ADD13C,2.600000*%
%TD*%
%TA.AperFunction,ComponentPad*%
%ADD14C,1.000000*%
%TD*%
%TA.AperFunction,ComponentPad*%
%ADD15C,1.397000*%
%TD*%
%TA.AperFunction,SMDPad,CuDef*%
%ADD16R,0.457200X1.524000*%
%TD*%
%TA.AperFunction,ViaPad*%
%ADD17C,1.143000*%
%TD*%
%TA.AperFunction,Conductor*%
%ADD18C,0.381000*%
%TD*%
%TA.AperFunction,Conductor*%
%ADD19C,0.100000*%
%TD*%
G04 APERTURE END LIST*
%TA.AperFunction,ConnectorPad*%
D10*
%TO.P,H2,1*%
%TO.N,Net-(H2-Pad1)*%
G36*
X130305743Y-132091832D02*
G01*
X129020168Y-130559743D01*
X130552257Y-129274168D01*
X131837832Y-130806257D01*
X130305743Y-132091832D01*
G37*
%TD.AperFunction*%
D11*
X131082073Y-131461301D03*
D12*
X129286124Y-129320973D03*
D13*
X129286124Y-129320973D03*
%TD*%
%TA.AperFunction,ConnectorPad*%
D10*
%TO.P,H1,1*%
%TO.N,Net-(H1-Pad1)*%
G36*
X154166292Y-130771284D02*
G01*
X155451867Y-129239195D01*
X156983956Y-130524770D01*
X155698381Y-132056859D01*
X154166292Y-130771284D01*
G37*
%TD.AperFunction*%
D11*
X154922051Y-131426328D03*
D12*
X156718000Y-129286000D03*
D13*
X156718000Y-129286000D03*
%TD*%
D14*
%TO.P,H3,1*%
%TO.N,GND*%
X128016000Y-131826000D03*
%TD*%
%TO.P,H4,1*%
%TO.N,GND*%
X157988000Y-131826000D03*
%TD*%
D15*
%TO.P,J1,2*%
%TO.N,Net-(B1-Pad1)*%
X134112000Y-139954000D03*
%TO.P,J1,3*%
%TO.N,Net-(B2-Pad1)*%
X136652000Y-139954000D03*
%TO.P,J1,4*%
%TO.N,Net-(B3-Pad1)*%
X139192000Y-139954000D03*
%TO.P,J1,6*%
%TO.N,Net-(B4-Pad1)*%
X141732000Y-139954000D03*
%TO.P,J1,8*%
%TO.N,Net-(B5-Pad1)*%
X144272000Y-139954000D03*
%TO.P,J1,10*%
%TO.N,Net-(B6-Pad1)*%
X146812000Y-139954000D03*
%TO.P,J1,11*%
%TO.N,Net-(B7-Pad1)*%
X149352000Y-139954000D03*
%TO.P,J1,12*%
%TO.N,Net-(B8-Pad1)*%
X151892000Y-139954000D03*
%TO.P,J1,1*%
%TO.N,Net-(B9-Pad1)*%
X132842000Y-137414000D03*
%TO.P,J1,15*%
%TO.N,Net-(B10-Pad1)*%
X135382000Y-137414000D03*
%TO.P,J1,17*%
%TO.N,Net-(B11-Pad1)*%
X137922000Y-137414000D03*
%TO.P,J1,5*%
%TO.N,Net-(B12-Pad1)*%
X140462000Y-137414000D03*
%TO.P,J1,7*%
%TO.N,Net-(B13-Pad1)*%
X143002000Y-137414000D03*
%TO.P,J1,9*%
%TO.N,Net-(B14-Pad1)*%
X145542000Y-137414000D03*
%TO.P,J1,22*%
%TO.N,Net-(B15-Pad1)*%
X148082000Y-137414000D03*
%TO.P,J1,24*%
%TO.N,Net-(B16-Pad1)*%
X150622000Y-137414000D03*
%TO.P,J1,13*%
%TO.N,Net-(B17-Pad1)*%
X153162000Y-137414000D03*
%TO.P,J1,14*%
%TO.N,Net-(B18-Pad1)*%
X134112000Y-134874000D03*
%TO.P,J1,16*%
%TO.N,Net-(B19-Pad1)*%
X136652000Y-134874000D03*
%TO.P,J1,18*%
%TO.N,Net-(B20-Pad1)*%
X139192000Y-134874000D03*
%TO.P,J1,19*%
%TO.N,Net-(B21-Pad1)*%
X141732000Y-134874000D03*
%TO.P,J1,20*%
%TO.N,Net-(B22-Pad1)*%
X144272000Y-134874000D03*
%TO.P,J1,21*%
%TO.N,Net-(B23-Pad1)*%
X146812000Y-134874000D03*
%TO.P,J1,23*%
%TO.N,Net-(B24-Pad1)*%
X149352000Y-134874000D03*
%TO.P,J1,25*%
%TO.N,Net-(B25-Pad1)*%
X151892000Y-134874000D03*
%TD*%
D16*
%TO.P,B28,1*%
%TO.N,GND*%
X132842000Y-129159000D03*
%TD*%
%TO.P,B29,1*%
%TO.N,GND*%
X153162000Y-129540000D03*
%TD*%
D17*
%TO.N,GND*%
X156972000Y-141097000D03*
X129032000Y-141097000D03*
%TD*%
D18*
%TO.N,GND*%
X132344802Y-127748547D02*
X132223456Y-127813408D01*
X132117096Y-127900696D01*
X132029808Y-128007056D01*
X131964947Y-128128402D01*
X131925006Y-128260070D01*
X131911520Y-128397000D01*
X131914900Y-128920875D01*
X132089525Y-129095500D01*
X132803900Y-129095500D01*
X132803900Y-129075500D01*
X132880100Y-129075500D01*
X132880100Y-129095500D01*
X133594475Y-129095500D01*
X133769100Y-128920875D01*
X133770021Y-128778000D01*
X152231520Y-128778000D01*
X152234900Y-129301875D01*
X152409525Y-129476500D01*
X153123900Y-129476500D01*
X153123900Y-128254125D01*
X153200100Y-128254125D01*
X153200100Y-129476500D01*
X153914475Y-129476500D01*
X154089100Y-129301875D01*
X154092480Y-128778000D01*
X154078994Y-128641070D01*
X154039053Y-128509402D01*
X153974192Y-128388056D01*
X153886904Y-128281696D01*
X153780544Y-128194408D01*
X153659198Y-128129547D01*
X153527530Y-128089606D01*
X153390600Y-128076120D01*
X153374725Y-128079500D01*
X153200100Y-128254125D01*
X153123900Y-128254125D01*
X152949275Y-128079500D01*
X152933400Y-128076120D01*
X152796470Y-128089606D01*
X152664802Y-128129547D01*
X152543456Y-128194408D01*
X152437096Y-128281696D01*
X152349808Y-128388056D01*
X152284947Y-128509402D01*
X152245006Y-128641070D01*
X152231520Y-128778000D01*
X133770021Y-128778000D01*
X133772480Y-128397000D01*
X133758994Y-128260070D01*
X133719053Y-128128402D01*
X133654192Y-128007056D01*
X133566904Y-127900696D01*
X133460544Y-127813408D01*
X133339198Y-127748547D01*
X133256629Y-127723500D01*
X154636840Y-127723500D01*
X154415239Y-128055149D01*
X154219359Y-128528046D01*
X154119500Y-129030070D01*
X154119500Y-129541930D01*
X154150564Y-129698098D01*
X154086008Y-129775033D01*
X153914475Y-129603500D01*
X153200100Y-129603500D01*
X153200100Y-130825875D01*
X153293597Y-130919372D01*
X153288824Y-130930894D01*
X153223551Y-131259040D01*
X153223551Y-131593616D01*
X153288824Y-131921762D01*
X153416860Y-132230869D01*
X153602740Y-132509058D01*
X153839321Y-132745639D01*
X154117510Y-132931519D01*
X154426617Y-133059555D01*
X154754763Y-133124828D01*
X155089339Y-133124828D01*
X155417485Y-133059555D01*
X155726592Y-132931519D01*
X156004781Y-132745639D01*
X156241362Y-132509058D01*
X156265532Y-132472885D01*
X156759246Y-131884500D01*
X156788549Y-131884500D01*
X156810116Y-132076850D01*
X156881687Y-132301824D01*
X156977733Y-132481512D01*
X157216395Y-132507802D01*
X157898197Y-131826000D01*
X157884055Y-131811858D01*
X157973858Y-131722055D01*
X157988000Y-131736197D01*
X158002142Y-131722055D01*
X158091945Y-131811858D01*
X158077803Y-131826000D01*
X158091945Y-131840142D01*
X158002142Y-131929945D01*
X157988000Y-131915803D01*
X157306198Y-132597605D01*
X157332488Y-132836267D01*
X157542177Y-132944740D01*
X157768998Y-133010219D01*
X158004237Y-133030190D01*
X158238850Y-133003884D01*
X158280500Y-132990634D01*
X158280501Y-142024500D01*
X127723500Y-142024500D01*
X127723500Y-139816408D01*
X132715000Y-139816408D01*
X132715000Y-140091592D01*
X132768686Y-140361490D01*
X132873995Y-140615727D01*
X133026880Y-140844535D01*
X133221465Y-141039120D01*
X133450273Y-141192005D01*
X133704510Y-141297314D01*
X133974408Y-141351000D01*
X134249592Y-141351000D01*
X134519490Y-141297314D01*
X134773727Y-141192005D01*
X135002535Y-141039120D01*
X135197120Y-140844535D01*
X135350005Y-140615727D01*
X135382000Y-140538485D01*
X135413995Y-140615727D01*
X135566880Y-140844535D01*
X135761465Y-141039120D01*
X135990273Y-141192005D01*
X136244510Y-141297314D01*
X136514408Y-141351000D01*
X136789592Y-141351000D01*
X137059490Y-141297314D01*
X137313727Y-141192005D01*
X137542535Y-141039120D01*
X137737120Y-140844535D01*
X137890005Y-140615727D01*
X137922000Y-140538485D01*
X137953995Y-140615727D01*
X138106880Y-140844535D01*
X138301465Y-141039120D01*
X138530273Y-141192005D01*
X138784510Y-141297314D01*
X139054408Y-141351000D01*
X139329592Y-141351000D01*
X139599490Y-141297314D01*
X139853727Y-141192005D01*
X140082535Y-141039120D01*
X140277120Y-140844535D01*
X140430005Y-140615727D01*
X140462000Y-140538485D01*
X140493995Y-140615727D01*
X140646880Y-140844535D01*
X140841465Y-141039120D01*
X141070273Y-141192005D01*
X141324510Y-141297314D01*
X141594408Y-141351000D01*
X141869592Y-141351000D01*
X142139490Y-141297314D01*
X142393727Y-141192005D01*
X142622535Y-141039120D01*
X142817120Y-140844535D01*
X142970005Y-140615727D01*
X143002000Y-140538485D01*
X143033995Y-140615727D01*
X143186880Y-140844535D01*
X143381465Y-141039120D01*
X143610273Y-141192005D01*
X143864510Y-141297314D01*
X144134408Y-141351000D01*
X144409592Y-141351000D01*
X144679490Y-141297314D01*
X144933727Y-141192005D01*
X145162535Y-141039120D01*
X145357120Y-140844535D01*
X145510005Y-140615727D01*
X145542000Y-140538485D01*
X145573995Y-140615727D01*
X145726880Y-140844535D01*
X145921465Y-141039120D01*
X146150273Y-141192005D01*
X146404510Y-141297314D01*
X146674408Y-141351000D01*
X146949592Y-141351000D01*
X147219490Y-141297314D01*
X147473727Y-141192005D01*
X147702535Y-141039120D01*
X147897120Y-140844535D01*
X148050005Y-140615727D01*
X148082000Y-140538485D01*
X148113995Y-140615727D01*
X148266880Y-140844535D01*
X148461465Y-141039120D01*
X148690273Y-141192005D01*
X148944510Y-141297314D01*
X149214408Y-141351000D01*
X149489592Y-141351000D01*
X149759490Y-141297314D01*
X150013727Y-141192005D01*
X150242535Y-141039120D01*
X150437120Y-140844535D01*
X150590005Y-140615727D01*
X150622000Y-140538485D01*
X150653995Y-140615727D01*
X150806880Y-140844535D01*
X151001465Y-141039120D01*
X151230273Y-141192005D01*
X151484510Y-141297314D01*
X151754408Y-141351000D01*
X152029592Y-141351000D01*
X152299490Y-141297314D01*
X152553727Y-141192005D01*
X152782535Y-141039120D01*
X152977120Y-140844535D01*
X153130005Y-140615727D01*
X153235314Y-140361490D01*
X153289000Y-140091592D01*
X153289000Y-139816408D01*
X153235314Y-139546510D01*
X153130005Y-139292273D01*
X152977120Y-139063465D01*
X152782535Y-138868880D01*
X152553727Y-138715995D01*
X152299490Y-138610686D01*
X152029592Y-138557000D01*
X151754408Y-138557000D01*
X151484510Y-138610686D01*
X151230273Y-138715995D01*
X151001465Y-138868880D01*
X150806880Y-139063465D01*
X150653995Y-139292273D01*
X150622000Y-139369515D01*
X150590005Y-139292273D01*
X150437120Y-139063465D01*
X150242535Y-138868880D01*
X150013727Y-138715995D01*
X149759490Y-138610686D01*
X149489592Y-138557000D01*
X149214408Y-138557000D01*
X148944510Y-138610686D01*
X148690273Y-138715995D01*
X148461465Y-138868880D01*
X148266880Y-139063465D01*
X148113995Y-139292273D01*
X148082000Y-139369515D01*
X148050005Y-139292273D01*
X147897120Y-139063465D01*
X147702535Y-138868880D01*
X147473727Y-138715995D01*
X147219490Y-138610686D01*
X146949592Y-138557000D01*
X146674408Y-138557000D01*
X146404510Y-138610686D01*
X146150273Y-138715995D01*
X145921465Y-138868880D01*
X145726880Y-139063465D01*
X145573995Y-139292273D01*
X145542000Y-139369515D01*
X145510005Y-139292273D01*
X145357120Y-139063465D01*
X145162535Y-138868880D01*
X144933727Y-138715995D01*
X144679490Y-138610686D01*
X144409592Y-138557000D01*
X144134408Y-138557000D01*
X143864510Y-138610686D01*
X143610273Y-138715995D01*
X143381465Y-138868880D01*
X143186880Y-139063465D01*
X143033995Y-139292273D01*
X143002000Y-139369515D01*
X142970005Y-139292273D01*
X142817120Y-139063465D01*
X142622535Y-138868880D01*
X142393727Y-138715995D01*
X142139490Y-138610686D01*
X141869592Y-138557000D01*
X141594408Y-138557000D01*
X141324510Y-138610686D01*
X141070273Y-138715995D01*
X140841465Y-138868880D01*
X140646880Y-139063465D01*
X140493995Y-139292273D01*
X140462000Y-139369515D01*
X140430005Y-139292273D01*
X140277120Y-139063465D01*
X140082535Y-138868880D01*
X139853727Y-138715995D01*
X139599490Y-138610686D01*
X139329592Y-138557000D01*
X139054408Y-138557000D01*
X138784510Y-138610686D01*
X138530273Y-138715995D01*
X138301465Y-138868880D01*
X138106880Y-139063465D01*
X137953995Y-139292273D01*
X137922000Y-139369515D01*
X137890005Y-139292273D01*
X137737120Y-139063465D01*
X137542535Y-138868880D01*
X137313727Y-138715995D01*
X137059490Y-138610686D01*
X136789592Y-138557000D01*
X136514408Y-138557000D01*
X136244510Y-138610686D01*
X135990273Y-138715995D01*
X135761465Y-138868880D01*
X135566880Y-139063465D01*
X135413995Y-139292273D01*
X135382000Y-139369515D01*
X135350005Y-139292273D01*
X135197120Y-139063465D01*
X135002535Y-138868880D01*
X134773727Y-138715995D01*
X134519490Y-138610686D01*
X134249592Y-138557000D01*
X133974408Y-138557000D01*
X133704510Y-138610686D01*
X133450273Y-138715995D01*
X133221465Y-138868880D01*
X133026880Y-139063465D01*
X132873995Y-139292273D01*
X132768686Y-139546510D01*
X132715000Y-139816408D01*
X127723500Y-139816408D01*
X127723500Y-136717123D01*
X128828800Y-136717123D01*
X128828800Y-137094877D01*
X128902496Y-137465372D01*
X129047056Y-137814372D01*
X129256925Y-138128463D01*
X129524037Y-138395575D01*
X129838128Y-138605444D01*
X130187128Y-138750004D01*
X130557623Y-138823700D01*
X130935377Y-138823700D01*
X131305872Y-138750004D01*
X131654872Y-138605444D01*
X131896403Y-138444058D01*
X131951465Y-138499120D01*
X132180273Y-138652005D01*
X132434510Y-138757314D01*
X132704408Y-138811000D01*
X132979592Y-138811000D01*
X133249490Y-138757314D01*
X133503727Y-138652005D01*
X133732535Y-138499120D01*
X133927120Y-138304535D01*
X134080005Y-138075727D01*
X134112000Y-137998485D01*
X134143995Y-138075727D01*
X134296880Y-138304535D01*
X134491465Y-138499120D01*
X134720273Y-138652005D01*
X134974510Y-138757314D01*
X135244408Y-138811000D01*
X135519592Y-138811000D01*
X135789490Y-138757314D01*
X136043727Y-138652005D01*
X136272535Y-138499120D01*
X136467120Y-138304535D01*
X136620005Y-138075727D01*
X136652000Y-137998485D01*
X136683995Y-138075727D01*
X136836880Y-138304535D01*
X137031465Y-138499120D01*
X137260273Y-138652005D01*
X137514510Y-138757314D01*
X137784408Y-138811000D01*
X138059592Y-138811000D01*
X138329490Y-138757314D01*
X138583727Y-138652005D01*
X138812535Y-138499120D01*
X139007120Y-138304535D01*
X139160005Y-138075727D01*
X139192000Y-137998485D01*
X139223995Y-138075727D01*
X139376880Y-138304535D01*
X139571465Y-138499120D01*
X139800273Y-138652005D01*
X140054510Y-138757314D01*
X140324408Y-138811000D01*
X140599592Y-138811000D01*
X140869490Y-138757314D01*
X141123727Y-138652005D01*
X141352535Y-138499120D01*
X141547120Y-138304535D01*
X141700005Y-138075727D01*
X141732000Y-137998485D01*
X141763995Y-138075727D01*
X141916880Y-138304535D01*
X142111465Y-138499120D01*
X142340273Y-138652005D01*
X142594510Y-138757314D01*
X142864408Y-138811000D01*
X143139592Y-138811000D01*
X143409490Y-138757314D01*
X143663727Y-138652005D01*
X143892535Y-138499120D01*
X144087120Y-138304535D01*
X144240005Y-138075727D01*
X144272000Y-137998485D01*
X144303995Y-138075727D01*
X144456880Y-138304535D01*
X144651465Y-138499120D01*
X144880273Y-138652005D01*
X145134510Y-138757314D01*
X145404408Y-138811000D01*
X145679592Y-138811000D01*
X145949490Y-138757314D01*
X146203727Y-138652005D01*
X146432535Y-138499120D01*
X146627120Y-138304535D01*
X146780005Y-138075727D01*
X146812000Y-137998485D01*
X146843995Y-138075727D01*
X146996880Y-138304535D01*
X147191465Y-138499120D01*
X147420273Y-138652005D01*
X147674510Y-138757314D01*
X147944408Y-138811000D01*
X148219592Y-138811000D01*
X148489490Y-138757314D01*
X148743727Y-138652005D01*
X148972535Y-138499120D01*
X149167120Y-138304535D01*
X149320005Y-138075727D01*
X149352000Y-137998485D01*
X149383995Y-138075727D01*
X149536880Y-138304535D01*
X149731465Y-138499120D01*
X149960273Y-138652005D01*
X150214510Y-138757314D01*
X150484408Y-138811000D01*
X150759592Y-138811000D01*
X151029490Y-138757314D01*
X151283727Y-138652005D01*
X151512535Y-138499120D01*
X151707120Y-138304535D01*
X151860005Y-138075727D01*
X151892000Y-137998485D01*
X151923995Y-138075727D01*
X152076880Y-138304535D01*
X152271465Y-138499120D01*
X152500273Y-138652005D01*
X152754510Y-138757314D01*
X153024408Y-138811000D01*
X153299592Y-138811000D01*
X153569490Y-138757314D01*
X153823727Y-138652005D01*
X154052535Y-138499120D01*
X154107597Y-138444058D01*
X154349128Y-138605444D01*
X154698128Y-138750004D01*
X155068623Y-138823700D01*
X155446377Y-138823700D01*
X155816872Y-138750004D01*
X156165872Y-138605444D01*
X156479963Y-138395575D01*
X156747075Y-138128463D01*
X156956944Y-137814372D01*
X157101504Y-137465372D01*
X157175200Y-137094877D01*
X157175200Y-136717123D01*
X157101504Y-136346628D01*
X156956944Y-135997628D01*
X156747075Y-135683537D01*
X156479963Y-135416425D01*
X156165872Y-135206556D01*
X155816872Y-135061996D01*
X155446377Y-134988300D01*
X155068623Y-134988300D01*
X154698128Y-135061996D01*
X154349128Y-135206556D01*
X154035037Y-135416425D01*
X153767925Y-135683537D01*
X153558056Y-135997628D01*
X153530968Y-136063024D01*
X153299592Y-136017000D01*
X153024408Y-136017000D01*
X152754510Y-136070686D01*
X152500273Y-136175995D01*
X152271465Y-136328880D01*
X152076880Y-136523465D01*
X151923995Y-136752273D01*
X151892000Y-136829515D01*
X151860005Y-136752273D01*
X151707120Y-136523465D01*
X151512535Y-136328880D01*
X151283727Y-136175995D01*
X151029490Y-136070686D01*
X150759592Y-136017000D01*
X150484408Y-136017000D01*
X150214510Y-136070686D01*
X149960273Y-136175995D01*
X149731465Y-136328880D01*
X149536880Y-136523465D01*
X149383995Y-136752273D01*
X149352000Y-136829515D01*
X149320005Y-136752273D01*
X149167120Y-136523465D01*
X148972535Y-136328880D01*
X148743727Y-136175995D01*
X148489490Y-136070686D01*
X148219592Y-136017000D01*
X147944408Y-136017000D01*
X147674510Y-136070686D01*
X147420273Y-136175995D01*
X147191465Y-136328880D01*
X146996880Y-136523465D01*
X146843995Y-136752273D01*
X146812000Y-136829515D01*
X146780005Y-136752273D01*
X146627120Y-136523465D01*
X146432535Y-136328880D01*
X146203727Y-136175995D01*
X145949490Y-136070686D01*
X145679592Y-136017000D01*
X145404408Y-136017000D01*
X145134510Y-136070686D01*
X144880273Y-136175995D01*
X144651465Y-136328880D01*
X144456880Y-136523465D01*
X144303995Y-136752273D01*
X144272000Y-136829515D01*
X144240005Y-136752273D01*
X144087120Y-136523465D01*
X143892535Y-136328880D01*
X143663727Y-136175995D01*
X143409490Y-136070686D01*
X143139592Y-136017000D01*
X142864408Y-136017000D01*
X142594510Y-136070686D01*
X142340273Y-136175995D01*
X142111465Y-136328880D01*
X141916880Y-136523465D01*
X141763995Y-136752273D01*
X141732000Y-136829515D01*
X141700005Y-136752273D01*
X141547120Y-136523465D01*
X141352535Y-136328880D01*
X141123727Y-136175995D01*
X140869490Y-136070686D01*
X140599592Y-136017000D01*
X140324408Y-136017000D01*
X140054510Y-136070686D01*
X139800273Y-136175995D01*
X139571465Y-136328880D01*
X139376880Y-136523465D01*
X139223995Y-136752273D01*
X139192000Y-136829515D01*
X139160005Y-136752273D01*
X139007120Y-136523465D01*
X138812535Y-136328880D01*
X138583727Y-136175995D01*
X138329490Y-136070686D01*
X138059592Y-136017000D01*
X137784408Y-136017000D01*
X137514510Y-136070686D01*
X137260273Y-136175995D01*
X137031465Y-136328880D01*
X136836880Y-136523465D01*
X136683995Y-136752273D01*
X136652000Y-136829515D01*
X136620005Y-136752273D01*
X136467120Y-136523465D01*
X136272535Y-136328880D01*
X136043727Y-136175995D01*
X135789490Y-136070686D01*
X135519592Y-136017000D01*
X135244408Y-136017000D01*
X134974510Y-136070686D01*
X134720273Y-136175995D01*
X134491465Y-136328880D01*
X134296880Y-136523465D01*
X134143995Y-136752273D01*
X134112000Y-136829515D01*
X134080005Y-136752273D01*
X133927120Y-136523465D01*
X133732535Y-136328880D01*
X133503727Y-136175995D01*
X133249490Y-136070686D01*
X132979592Y-136017000D01*
X132704408Y-136017000D01*
X132473032Y-136063024D01*
X132445944Y-135997628D01*
X132236075Y-135683537D01*
X131968963Y-135416425D01*
X131654872Y-135206556D01*
X131305872Y-135061996D01*
X130935377Y-134988300D01*
X130557623Y-134988300D01*
X130187128Y-135061996D01*
X129838128Y-135206556D01*
X129524037Y-135416425D01*
X129256925Y-135683537D01*
X129047056Y-135997628D01*
X128902496Y-136346628D01*
X128828800Y-136717123D01*
X127723500Y-136717123D01*
X127723500Y-134736408D01*
X132715000Y-134736408D01*
X132715000Y-135011592D01*
X132768686Y-135281490D01*
X132873995Y-135535727D01*
X133026880Y-135764535D01*
X133221465Y-135959120D01*
X133450273Y-136112005D01*
X133704510Y-136217314D01*
X133974408Y-136271000D01*
X134249592Y-136271000D01*
X134519490Y-136217314D01*
X134773727Y-136112005D01*
X135002535Y-135959120D01*
X135197120Y-135764535D01*
X135350005Y-135535727D01*
X135382000Y-135458485D01*
X135413995Y-135535727D01*
X135566880Y-135764535D01*
X135761465Y-135959120D01*
X135990273Y-136112005D01*
X136244510Y-136217314D01*
X136514408Y-136271000D01*
X136789592Y-136271000D01*
X137059490Y-136217314D01*
X137313727Y-136112005D01*
X137542535Y-135959120D01*
X137737120Y-135764535D01*
X137890005Y-135535727D01*
X137922000Y-135458485D01*
X137953995Y-135535727D01*
X138106880Y-135764535D01*
X138301465Y-135959120D01*
X138530273Y-136112005D01*
X138784510Y-136217314D01*
X139054408Y-136271000D01*
X139329592Y-136271000D01*
X139599490Y-136217314D01*
X139853727Y-136112005D01*
X140082535Y-135959120D01*
X140277120Y-135764535D01*
X140430005Y-135535727D01*
X140462000Y-135458485D01*
X140493995Y-135535727D01*
X140646880Y-135764535D01*
X140841465Y-135959120D01*
X141070273Y-136112005D01*
X141324510Y-136217314D01*
X141594408Y-136271000D01*
X141869592Y-136271000D01*
X142139490Y-136217314D01*
X142393727Y-136112005D01*
X142622535Y-135959120D01*
X142817120Y-135764535D01*
X142970005Y-135535727D01*
X143002000Y-135458485D01*
X143033995Y-135535727D01*
X143186880Y-135764535D01*
X143381465Y-135959120D01*
X143610273Y-136112005D01*
X143864510Y-136217314D01*
X144134408Y-136271000D01*
X144409592Y-136271000D01*
X144679490Y-136217314D01*
X144933727Y-136112005D01*
X145162535Y-135959120D01*
X145357120Y-135764535D01*
X145510005Y-135535727D01*
X145542000Y-135458485D01*
X145573995Y-135535727D01*
X145726880Y-135764535D01*
X145921465Y-135959120D01*
X146150273Y-136112005D01*
X146404510Y-136217314D01*
X146674408Y-136271000D01*
X146949592Y-136271000D01*
X147219490Y-136217314D01*
X147473727Y-136112005D01*
X147702535Y-135959120D01*
X147897120Y-135764535D01*
X148050005Y-135535727D01*
X148082000Y-135458485D01*
X148113995Y-135535727D01*
X148266880Y-135764535D01*
X148461465Y-135959120D01*
X148690273Y-136112005D01*
X148944510Y-136217314D01*
X149214408Y-136271000D01*
X149489592Y-136271000D01*
X149759490Y-136217314D01*
X150013727Y-136112005D01*
X150242535Y-135959120D01*
X150437120Y-135764535D01*
X150590005Y-135535727D01*
X150622000Y-135458485D01*
X150653995Y-135535727D01*
X150806880Y-135764535D01*
X151001465Y-135959120D01*
X151230273Y-136112005D01*
X151484510Y-136217314D01*
X151754408Y-136271000D01*
X152029592Y-136271000D01*
X152299490Y-136217314D01*
X152553727Y-136112005D01*
X152782535Y-135959120D01*
X152977120Y-135764535D01*
X153130005Y-135535727D01*
X153235314Y-135281490D01*
X153289000Y-135011592D01*
X153289000Y-134736408D01*
X153235314Y-134466510D01*
X153130005Y-134212273D01*
X152977120Y-133983465D01*
X152782535Y-133788880D01*
X152553727Y-133635995D01*
X152299490Y-133530686D01*
X152029592Y-133477000D01*
X151754408Y-133477000D01*
X151484510Y-133530686D01*
X151230273Y-133635995D01*
X151001465Y-133788880D01*
X150806880Y-133983465D01*
X150653995Y-134212273D01*
X150622000Y-134289515D01*
X150590005Y-134212273D01*
X150437120Y-133983465D01*
X150242535Y-133788880D01*
X150013727Y-133635995D01*
X149759490Y-133530686D01*
X149489592Y-133477000D01*
X149214408Y-133477000D01*
X148944510Y-133530686D01*
X148690273Y-133635995D01*
X148461465Y-133788880D01*
X148266880Y-133983465D01*
X148113995Y-134212273D01*
X148082000Y-134289515D01*
X148050005Y-134212273D01*
X147897120Y-133983465D01*
X147702535Y-133788880D01*
X147473727Y-133635995D01*
X147219490Y-133530686D01*
X146949592Y-133477000D01*
X146674408Y-133477000D01*
X146404510Y-133530686D01*
X146150273Y-133635995D01*
X145921465Y-133788880D01*
X145726880Y-133983465D01*
X145573995Y-134212273D01*
X145542000Y-134289515D01*
X145510005Y-134212273D01*
X145357120Y-133983465D01*
X145162535Y-133788880D01*
X144933727Y-133635995D01*
X144679490Y-133530686D01*
X144409592Y-133477000D01*
X144134408Y-133477000D01*
X143864510Y-133530686D01*
X143610273Y-133635995D01*
X143381465Y-133788880D01*
X143186880Y-133983465D01*
X143033995Y-134212273D01*
X143002000Y-134289515D01*
X142970005Y-134212273D01*
X142817120Y-133983465D01*
X142622535Y-133788880D01*
X142393727Y-133635995D01*
X142139490Y-133530686D01*
X141869592Y-133477000D01*
X141594408Y-133477000D01*
X141324510Y-133530686D01*
X141070273Y-133635995D01*
X140841465Y-133788880D01*
X140646880Y-133983465D01*
X140493995Y-134212273D01*
X140462000Y-134289515D01*
X140430005Y-134212273D01*
X140277120Y-133983465D01*
X140082535Y-133788880D01*
X139853727Y-133635995D01*
X139599490Y-133530686D01*
X139329592Y-133477000D01*
X139054408Y-133477000D01*
X138784510Y-133530686D01*
X138530273Y-133635995D01*
X138301465Y-133788880D01*
X138106880Y-133983465D01*
X137953995Y-134212273D01*
X137922000Y-134289515D01*
X137890005Y-134212273D01*
X137737120Y-133983465D01*
X137542535Y-133788880D01*
X137313727Y-133635995D01*
X137059490Y-133530686D01*
X136789592Y-133477000D01*
X136514408Y-133477000D01*
X136244510Y-133530686D01*
X135990273Y-133635995D01*
X135761465Y-133788880D01*
X135566880Y-133983465D01*
X135413995Y-134212273D01*
X135382000Y-134289515D01*
X135350005Y-134212273D01*
X135197120Y-133983465D01*
X135002535Y-133788880D01*
X134773727Y-133635995D01*
X134519490Y-133530686D01*
X134249592Y-133477000D01*
X133974408Y-133477000D01*
X133704510Y-133530686D01*
X133450273Y-133635995D01*
X133221465Y-133788880D01*
X133026880Y-133983465D01*
X132873995Y-134212273D01*
X132768686Y-134466510D01*
X132715000Y-134736408D01*
X127723500Y-134736408D01*
X127723500Y-132989001D01*
X127796998Y-133010219D01*
X128032237Y-133030190D01*
X128266850Y-133003884D01*
X128491824Y-132932313D01*
X128671512Y-132836267D01*
X128697802Y-132597605D01*
X128016000Y-131915803D01*
X128001858Y-131929945D01*
X127912055Y-131840142D01*
X127926197Y-131826000D01*
X127912055Y-131811858D01*
X128001858Y-131722055D01*
X128016000Y-131736197D01*
X128030142Y-131722055D01*
X128119945Y-131811858D01*
X128105803Y-131826000D01*
X128787605Y-132507802D01*
X129026267Y-132481512D01*
X129134740Y-132271823D01*
X129200219Y-132045002D01*
X129210876Y-131919473D01*
X129244878Y-131919473D01*
X129738592Y-132507858D01*
X129762762Y-132544031D01*
X129999343Y-132780612D01*
X130277532Y-132966492D01*
X130586639Y-133094528D01*
X130914785Y-133159801D01*
X131249361Y-133159801D01*
X131577507Y-133094528D01*
X131886614Y-132966492D01*
X132164803Y-132780612D01*
X132401384Y-132544031D01*
X132587264Y-132265842D01*
X132715300Y-131956735D01*
X132780573Y-131628589D01*
X132780573Y-131294013D01*
X132715300Y-130965867D01*
X132587264Y-130656760D01*
X132561190Y-130617738D01*
X132613400Y-130622880D01*
X132629275Y-130619500D01*
X132803900Y-130444875D01*
X132803900Y-129222500D01*
X132880100Y-129222500D01*
X132880100Y-130444875D01*
X133054725Y-130619500D01*
X133070600Y-130622880D01*
X133207530Y-130609394D01*
X133339198Y-130569453D01*
X133460544Y-130504592D01*
X133566904Y-130417304D01*
X133654192Y-130310944D01*
X133658972Y-130302000D01*
X152231520Y-130302000D01*
X152245006Y-130438930D01*
X152284947Y-130570598D01*
X152349808Y-130691944D01*
X152437096Y-130798304D01*
X152543456Y-130885592D01*
X152664802Y-130950453D01*
X152796470Y-130990394D01*
X152933400Y-131003880D01*
X152949275Y-131000500D01*
X153123900Y-130825875D01*
X153123900Y-129603500D01*
X152409525Y-129603500D01*
X152234900Y-129778125D01*
X152231520Y-130302000D01*
X133658972Y-130302000D01*
X133719053Y-130189598D01*
X133758994Y-130057930D01*
X133772480Y-129921000D01*
X133769100Y-129397125D01*
X133594475Y-129222500D01*
X132880100Y-129222500D01*
X132803900Y-129222500D01*
X132089525Y-129222500D01*
X131914900Y-129397125D01*
X131912281Y-129803051D01*
X131853560Y-129733071D01*
X131884624Y-129576903D01*
X131884624Y-129065043D01*
X131784765Y-128563019D01*
X131588885Y-128090122D01*
X131343916Y-127723500D01*
X132427371Y-127723500D01*
X132344802Y-127748547D01*
%TA.AperFunction,Conductor*%
D19*
G36*
X132344802Y-127748547D02*
G01*
X132223456Y-127813408D01*
X132117096Y-127900696D01*
X132029808Y-128007056D01*
X131964947Y-128128402D01*
X131925006Y-128260070D01*
X131911520Y-128397000D01*
X131914900Y-128920875D01*
X132089525Y-129095500D01*
X132803900Y-129095500D01*
X132803900Y-129075500D01*
X132880100Y-129075500D01*
X132880100Y-129095500D01*
X133594475Y-129095500D01*
X133769100Y-128920875D01*
X133770021Y-128778000D01*
X152231520Y-128778000D01*
X152234900Y-129301875D01*
X152409525Y-129476500D01*
X153123900Y-129476500D01*
X153123900Y-128254125D01*
X153200100Y-128254125D01*
X153200100Y-129476500D01*
X153914475Y-129476500D01*
X154089100Y-129301875D01*
X154092480Y-128778000D01*
X154078994Y-128641070D01*
X154039053Y-128509402D01*
X153974192Y-128388056D01*
X153886904Y-128281696D01*
X153780544Y-128194408D01*
X153659198Y-128129547D01*
X153527530Y-128089606D01*
X153390600Y-128076120D01*
X153374725Y-128079500D01*
X153200100Y-128254125D01*
X153123900Y-128254125D01*
X152949275Y-128079500D01*
X152933400Y-128076120D01*
X152796470Y-128089606D01*
X152664802Y-128129547D01*
X152543456Y-128194408D01*
X152437096Y-128281696D01*
X152349808Y-128388056D01*
X152284947Y-128509402D01*
X152245006Y-128641070D01*
X152231520Y-128778000D01*
X133770021Y-128778000D01*
X133772480Y-128397000D01*
X133758994Y-128260070D01*
X133719053Y-128128402D01*
X133654192Y-128007056D01*
X133566904Y-127900696D01*
X133460544Y-127813408D01*
X133339198Y-127748547D01*
X133256629Y-127723500D01*
X154636840Y-127723500D01*
X154415239Y-128055149D01*
X154219359Y-128528046D01*
X154119500Y-129030070D01*
X154119500Y-129541930D01*
X154150564Y-129698098D01*
X154086008Y-129775033D01*
X153914475Y-129603500D01*
X153200100Y-129603500D01*
X153200100Y-130825875D01*
X153293597Y-130919372D01*
X153288824Y-130930894D01*
X153223551Y-131259040D01*
X153223551Y-131593616D01*
X153288824Y-131921762D01*
X153416860Y-132230869D01*
X153602740Y-132509058D01*
X153839321Y-132745639D01*
X154117510Y-132931519D01*
X154426617Y-133059555D01*
X154754763Y-133124828D01*
X155089339Y-133124828D01*
X155417485Y-133059555D01*
X155726592Y-132931519D01*
X156004781Y-132745639D01*
X156241362Y-132509058D01*
X156265532Y-132472885D01*
X156759246Y-131884500D01*
X156788549Y-131884500D01*
X156810116Y-132076850D01*
X156881687Y-132301824D01*
X156977733Y-132481512D01*
X157216395Y-132507802D01*
X157898197Y-131826000D01*
X157884055Y-131811858D01*
X157973858Y-131722055D01*
X157988000Y-131736197D01*
X158002142Y-131722055D01*
X158091945Y-131811858D01*
X158077803Y-131826000D01*
X158091945Y-131840142D01*
X158002142Y-131929945D01*
X157988000Y-131915803D01*
X157306198Y-132597605D01*
X157332488Y-132836267D01*
X157542177Y-132944740D01*
X157768998Y-133010219D01*
X158004237Y-133030190D01*
X158238850Y-133003884D01*
X158280500Y-132990634D01*
X158280501Y-142024500D01*
X127723500Y-142024500D01*
X127723500Y-139816408D01*
X132715000Y-139816408D01*
X132715000Y-140091592D01*
X132768686Y-140361490D01*
X132873995Y-140615727D01*
X133026880Y-140844535D01*
X133221465Y-141039120D01*
X133450273Y-141192005D01*
X133704510Y-141297314D01*
X133974408Y-141351000D01*
X134249592Y-141351000D01*
X134519490Y-141297314D01*
X134773727Y-141192005D01*
X135002535Y-141039120D01*
X135197120Y-140844535D01*
X135350005Y-140615727D01*
X135382000Y-140538485D01*
X135413995Y-140615727D01*
X135566880Y-140844535D01*
X135761465Y-141039120D01*
X135990273Y-141192005D01*
X136244510Y-141297314D01*
X136514408Y-141351000D01*
X136789592Y-141351000D01*
X137059490Y-141297314D01*
X137313727Y-141192005D01*
X137542535Y-141039120D01*
X137737120Y-140844535D01*
X137890005Y-140615727D01*
X137922000Y-140538485D01*
X137953995Y-140615727D01*
X138106880Y-140844535D01*
X138301465Y-141039120D01*
X138530273Y-141192005D01*
X138784510Y-141297314D01*
X139054408Y-141351000D01*
X139329592Y-141351000D01*
X139599490Y-141297314D01*
X139853727Y-141192005D01*
X140082535Y-141039120D01*
X140277120Y-140844535D01*
X140430005Y-140615727D01*
X140462000Y-140538485D01*
X140493995Y-140615727D01*
X140646880Y-140844535D01*
X140841465Y-141039120D01*
X141070273Y-141192005D01*
X141324510Y-141297314D01*
X141594408Y-141351000D01*
X141869592Y-141351000D01*
X142139490Y-141297314D01*
X142393727Y-141192005D01*
X142622535Y-141039120D01*
X142817120Y-140844535D01*
X142970005Y-140615727D01*
X143002000Y-140538485D01*
X143033995Y-140615727D01*
X143186880Y-140844535D01*
X143381465Y-141039120D01*
X143610273Y-141192005D01*
X143864510Y-141297314D01*
X144134408Y-141351000D01*
X144409592Y-141351000D01*
X144679490Y-141297314D01*
X144933727Y-141192005D01*
X145162535Y-141039120D01*
X145357120Y-140844535D01*
X145510005Y-140615727D01*
X145542000Y-140538485D01*
X145573995Y-140615727D01*
X145726880Y-140844535D01*
X145921465Y-141039120D01*
X146150273Y-141192005D01*
X146404510Y-141297314D01*
X146674408Y-141351000D01*
X146949592Y-141351000D01*
X147219490Y-141297314D01*
X147473727Y-141192005D01*
X147702535Y-141039120D01*
X147897120Y-140844535D01*
X148050005Y-140615727D01*
X148082000Y-140538485D01*
X148113995Y-140615727D01*
X148266880Y-140844535D01*
X148461465Y-141039120D01*
X148690273Y-141192005D01*
X148944510Y-141297314D01*
X149214408Y-141351000D01*
X149489592Y-141351000D01*
X149759490Y-141297314D01*
X150013727Y-141192005D01*
X150242535Y-141039120D01*
X150437120Y-140844535D01*
X150590005Y-140615727D01*
X150622000Y-140538485D01*
X150653995Y-140615727D01*
X150806880Y-140844535D01*
X151001465Y-141039120D01*
X151230273Y-141192005D01*
X151484510Y-141297314D01*
X151754408Y-141351000D01*
X152029592Y-141351000D01*
X152299490Y-141297314D01*
X152553727Y-141192005D01*
X152782535Y-141039120D01*
X152977120Y-140844535D01*
X153130005Y-140615727D01*
X153235314Y-140361490D01*
X153289000Y-140091592D01*
X153289000Y-139816408D01*
X153235314Y-139546510D01*
X153130005Y-139292273D01*
X152977120Y-139063465D01*
X152782535Y-138868880D01*
X152553727Y-138715995D01*
X152299490Y-138610686D01*
X152029592Y-138557000D01*
X151754408Y-138557000D01*
X151484510Y-138610686D01*
X151230273Y-138715995D01*
X151001465Y-138868880D01*
X150806880Y-139063465D01*
X150653995Y-139292273D01*
X150622000Y-139369515D01*
X150590005Y-139292273D01*
X150437120Y-139063465D01*
X150242535Y-138868880D01*
X150013727Y-138715995D01*
X149759490Y-138610686D01*
X149489592Y-138557000D01*
X149214408Y-138557000D01*
X148944510Y-138610686D01*
X148690273Y-138715995D01*
X148461465Y-138868880D01*
X148266880Y-139063465D01*
X148113995Y-139292273D01*
X148082000Y-139369515D01*
X148050005Y-139292273D01*
X147897120Y-139063465D01*
X147702535Y-138868880D01*
X147473727Y-138715995D01*
X147219490Y-138610686D01*
X146949592Y-138557000D01*
X146674408Y-138557000D01*
X146404510Y-138610686D01*
X146150273Y-138715995D01*
X145921465Y-138868880D01*
X145726880Y-139063465D01*
X145573995Y-139292273D01*
X145542000Y-139369515D01*
X145510005Y-139292273D01*
X145357120Y-139063465D01*
X145162535Y-138868880D01*
X144933727Y-138715995D01*
X144679490Y-138610686D01*
X144409592Y-138557000D01*
X144134408Y-138557000D01*
X143864510Y-138610686D01*
X143610273Y-138715995D01*
X143381465Y-138868880D01*
X143186880Y-139063465D01*
X143033995Y-139292273D01*
X143002000Y-139369515D01*
X142970005Y-139292273D01*
X142817120Y-139063465D01*
X142622535Y-138868880D01*
X142393727Y-138715995D01*
X142139490Y-138610686D01*
X141869592Y-138557000D01*
X141594408Y-138557000D01*
X141324510Y-138610686D01*
X141070273Y-138715995D01*
X140841465Y-138868880D01*
X140646880Y-139063465D01*
X140493995Y-139292273D01*
X140462000Y-139369515D01*
X140430005Y-139292273D01*
X140277120Y-139063465D01*
X140082535Y-138868880D01*
X139853727Y-138715995D01*
X139599490Y-138610686D01*
X139329592Y-138557000D01*
X139054408Y-138557000D01*
X138784510Y-138610686D01*
X138530273Y-138715995D01*
X138301465Y-138868880D01*
X138106880Y-139063465D01*
X137953995Y-139292273D01*
X137922000Y-139369515D01*
X137890005Y-139292273D01*
X137737120Y-139063465D01*
X137542535Y-138868880D01*
X137313727Y-138715995D01*
X137059490Y-138610686D01*
X136789592Y-138557000D01*
X136514408Y-138557000D01*
X136244510Y-138610686D01*
X135990273Y-138715995D01*
X135761465Y-138868880D01*
X135566880Y-139063465D01*
X135413995Y-139292273D01*
X135382000Y-139369515D01*
X135350005Y-139292273D01*
X135197120Y-139063465D01*
X135002535Y-138868880D01*
X134773727Y-138715995D01*
X134519490Y-138610686D01*
X134249592Y-138557000D01*
X133974408Y-138557000D01*
X133704510Y-138610686D01*
X133450273Y-138715995D01*
X133221465Y-138868880D01*
X133026880Y-139063465D01*
X132873995Y-139292273D01*
X132768686Y-139546510D01*
X132715000Y-139816408D01*
X127723500Y-139816408D01*
X127723500Y-136717123D01*
X128828800Y-136717123D01*
X128828800Y-137094877D01*
X128902496Y-137465372D01*
X129047056Y-137814372D01*
X129256925Y-138128463D01*
X129524037Y-138395575D01*
X129838128Y-138605444D01*
X130187128Y-138750004D01*
X130557623Y-138823700D01*
X130935377Y-138823700D01*
X131305872Y-138750004D01*
X131654872Y-138605444D01*
X131896403Y-138444058D01*
X131951465Y-138499120D01*
X132180273Y-138652005D01*
X132434510Y-138757314D01*
X132704408Y-138811000D01*
X132979592Y-138811000D01*
X133249490Y-138757314D01*
X133503727Y-138652005D01*
X133732535Y-138499120D01*
X133927120Y-138304535D01*
X134080005Y-138075727D01*
X134112000Y-137998485D01*
X134143995Y-138075727D01*
X134296880Y-138304535D01*
X134491465Y-138499120D01*
X134720273Y-138652005D01*
X134974510Y-138757314D01*
X135244408Y-138811000D01*
X135519592Y-138811000D01*
X135789490Y-138757314D01*
X136043727Y-138652005D01*
X136272535Y-138499120D01*
X136467120Y-138304535D01*
X136620005Y-138075727D01*
X136652000Y-137998485D01*
X136683995Y-138075727D01*
X136836880Y-138304535D01*
X137031465Y-138499120D01*
X137260273Y-138652005D01*
X137514510Y-138757314D01*
X137784408Y-138811000D01*
X138059592Y-138811000D01*
X138329490Y-138757314D01*
X138583727Y-138652005D01*
X138812535Y-138499120D01*
X139007120Y-138304535D01*
X139160005Y-138075727D01*
X139192000Y-137998485D01*
X139223995Y-138075727D01*
X139376880Y-138304535D01*
X139571465Y-138499120D01*
X139800273Y-138652005D01*
X140054510Y-138757314D01*
X140324408Y-138811000D01*
X140599592Y-138811000D01*
X140869490Y-138757314D01*
X141123727Y-138652005D01*
X141352535Y-138499120D01*
X141547120Y-138304535D01*
X141700005Y-138075727D01*
X141732000Y-137998485D01*
X141763995Y-138075727D01*
X141916880Y-138304535D01*
X142111465Y-138499120D01*
X142340273Y-138652005D01*
X142594510Y-138757314D01*
X142864408Y-138811000D01*
X143139592Y-138811000D01*
X143409490Y-138757314D01*
X143663727Y-138652005D01*
X143892535Y-138499120D01*
X144087120Y-138304535D01*
X144240005Y-138075727D01*
X144272000Y-137998485D01*
X144303995Y-138075727D01*
X144456880Y-138304535D01*
X144651465Y-138499120D01*
X144880273Y-138652005D01*
X145134510Y-138757314D01*
X145404408Y-138811000D01*
X145679592Y-138811000D01*
X145949490Y-138757314D01*
X146203727Y-138652005D01*
X146432535Y-138499120D01*
X146627120Y-138304535D01*
X146780005Y-138075727D01*
X146812000Y-137998485D01*
X146843995Y-138075727D01*
X146996880Y-138304535D01*
X147191465Y-138499120D01*
X147420273Y-138652005D01*
X147674510Y-138757314D01*
X147944408Y-138811000D01*
X148219592Y-138811000D01*
X148489490Y-138757314D01*
X148743727Y-138652005D01*
X148972535Y-138499120D01*
X149167120Y-138304535D01*
X149320005Y-138075727D01*
X149352000Y-137998485D01*
X149383995Y-138075727D01*
X149536880Y-138304535D01*
X149731465Y-138499120D01*
X149960273Y-138652005D01*
X150214510Y-138757314D01*
X150484408Y-138811000D01*
X150759592Y-138811000D01*
X151029490Y-138757314D01*
X151283727Y-138652005D01*
X151512535Y-138499120D01*
X151707120Y-138304535D01*
X151860005Y-138075727D01*
X151892000Y-137998485D01*
X151923995Y-138075727D01*
X152076880Y-138304535D01*
X152271465Y-138499120D01*
X152500273Y-138652005D01*
X152754510Y-138757314D01*
X153024408Y-138811000D01*
X153299592Y-138811000D01*
X153569490Y-138757314D01*
X153823727Y-138652005D01*
X154052535Y-138499120D01*
X154107597Y-138444058D01*
X154349128Y-138605444D01*
X154698128Y-138750004D01*
X155068623Y-138823700D01*
X155446377Y-138823700D01*
X155816872Y-138750004D01*
X156165872Y-138605444D01*
X156479963Y-138395575D01*
X156747075Y-138128463D01*
X156956944Y-137814372D01*
X157101504Y-137465372D01*
X157175200Y-137094877D01*
X157175200Y-136717123D01*
X157101504Y-136346628D01*
X156956944Y-135997628D01*
X156747075Y-135683537D01*
X156479963Y-135416425D01*
X156165872Y-135206556D01*
X155816872Y-135061996D01*
X155446377Y-134988300D01*
X155068623Y-134988300D01*
X154698128Y-135061996D01*
X154349128Y-135206556D01*
X154035037Y-135416425D01*
X153767925Y-135683537D01*
X153558056Y-135997628D01*
X153530968Y-136063024D01*
X153299592Y-136017000D01*
X153024408Y-136017000D01*
X152754510Y-136070686D01*
X152500273Y-136175995D01*
X152271465Y-136328880D01*
X152076880Y-136523465D01*
X151923995Y-136752273D01*
X151892000Y-136829515D01*
X151860005Y-136752273D01*
X151707120Y-136523465D01*
X151512535Y-136328880D01*
X151283727Y-136175995D01*
X151029490Y-136070686D01*
X150759592Y-136017000D01*
X150484408Y-136017000D01*
X150214510Y-136070686D01*
X149960273Y-136175995D01*
X149731465Y-136328880D01*
X149536880Y-136523465D01*
X149383995Y-136752273D01*
X149352000Y-136829515D01*
X149320005Y-136752273D01*
X149167120Y-136523465D01*
X148972535Y-136328880D01*
X148743727Y-136175995D01*
X148489490Y-136070686D01*
X148219592Y-136017000D01*
X147944408Y-136017000D01*
X147674510Y-136070686D01*
X147420273Y-136175995D01*
X147191465Y-136328880D01*
X146996880Y-136523465D01*
X146843995Y-136752273D01*
X146812000Y-136829515D01*
X146780005Y-136752273D01*
X146627120Y-136523465D01*
X146432535Y-136328880D01*
X146203727Y-136175995D01*
X145949490Y-136070686D01*
X145679592Y-136017000D01*
X145404408Y-136017000D01*
X145134510Y-136070686D01*
X144880273Y-136175995D01*
X144651465Y-136328880D01*
X144456880Y-136523465D01*
X144303995Y-136752273D01*
X144272000Y-136829515D01*
X144240005Y-136752273D01*
X144087120Y-136523465D01*
X143892535Y-136328880D01*
X143663727Y-136175995D01*
X143409490Y-136070686D01*
X143139592Y-136017000D01*
X142864408Y-136017000D01*
X142594510Y-136070686D01*
X142340273Y-136175995D01*
X142111465Y-136328880D01*
X141916880Y-136523465D01*
X141763995Y-136752273D01*
X141732000Y-136829515D01*
X141700005Y-136752273D01*
X141547120Y-136523465D01*
X141352535Y-136328880D01*
X141123727Y-136175995D01*
X140869490Y-136070686D01*
X140599592Y-136017000D01*
X140324408Y-136017000D01*
X140054510Y-136070686D01*
X139800273Y-136175995D01*
X139571465Y-136328880D01*
X139376880Y-136523465D01*
X139223995Y-136752273D01*
X139192000Y-136829515D01*
X139160005Y-136752273D01*
X139007120Y-136523465D01*
X138812535Y-136328880D01*
X138583727Y-136175995D01*
X138329490Y-136070686D01*
X138059592Y-136017000D01*
X137784408Y-136017000D01*
X137514510Y-136070686D01*
X137260273Y-136175995D01*
X137031465Y-136328880D01*
X136836880Y-136523465D01*
X136683995Y-136752273D01*
X136652000Y-136829515D01*
X136620005Y-136752273D01*
X136467120Y-136523465D01*
X136272535Y-136328880D01*
X136043727Y-136175995D01*
X135789490Y-136070686D01*
X135519592Y-136017000D01*
X135244408Y-136017000D01*
X134974510Y-136070686D01*
X134720273Y-136175995D01*
X134491465Y-136328880D01*
X134296880Y-136523465D01*
X134143995Y-136752273D01*
X134112000Y-136829515D01*
X134080005Y-136752273D01*
X133927120Y-136523465D01*
X133732535Y-136328880D01*
X133503727Y-136175995D01*
X133249490Y-136070686D01*
X132979592Y-136017000D01*
X132704408Y-136017000D01*
X132473032Y-136063024D01*
X132445944Y-135997628D01*
X132236075Y-135683537D01*
X131968963Y-135416425D01*
X131654872Y-135206556D01*
X131305872Y-135061996D01*
X130935377Y-134988300D01*
X130557623Y-134988300D01*
X130187128Y-135061996D01*
X129838128Y-135206556D01*
X129524037Y-135416425D01*
X129256925Y-135683537D01*
X129047056Y-135997628D01*
X128902496Y-136346628D01*
X128828800Y-136717123D01*
X127723500Y-136717123D01*
X127723500Y-134736408D01*
X132715000Y-134736408D01*
X132715000Y-135011592D01*
X132768686Y-135281490D01*
X132873995Y-135535727D01*
X133026880Y-135764535D01*
X133221465Y-135959120D01*
X133450273Y-136112005D01*
X133704510Y-136217314D01*
X133974408Y-136271000D01*
X134249592Y-136271000D01*
X134519490Y-136217314D01*
X134773727Y-136112005D01*
X135002535Y-135959120D01*
X135197120Y-135764535D01*
X135350005Y-135535727D01*
X135382000Y-135458485D01*
X135413995Y-135535727D01*
X135566880Y-135764535D01*
X135761465Y-135959120D01*
X135990273Y-136112005D01*
X136244510Y-136217314D01*
X136514408Y-136271000D01*
X136789592Y-136271000D01*
X137059490Y-136217314D01*
X137313727Y-136112005D01*
X137542535Y-135959120D01*
X137737120Y-135764535D01*
X137890005Y-135535727D01*
X137922000Y-135458485D01*
X137953995Y-135535727D01*
X138106880Y-135764535D01*
X138301465Y-135959120D01*
X138530273Y-136112005D01*
X138784510Y-136217314D01*
X139054408Y-136271000D01*
X139329592Y-136271000D01*
X139599490Y-136217314D01*
X139853727Y-136112005D01*
X140082535Y-135959120D01*
X140277120Y-135764535D01*
X140430005Y-135535727D01*
X140462000Y-135458485D01*
X140493995Y-135535727D01*
X140646880Y-135764535D01*
X140841465Y-135959120D01*
X141070273Y-136112005D01*
X141324510Y-136217314D01*
X141594408Y-136271000D01*
X141869592Y-136271000D01*
X142139490Y-136217314D01*
X142393727Y-136112005D01*
X142622535Y-135959120D01*
X142817120Y-135764535D01*
X142970005Y-135535727D01*
X143002000Y-135458485D01*
X143033995Y-135535727D01*
X143186880Y-135764535D01*
X143381465Y-135959120D01*
X143610273Y-136112005D01*
X143864510Y-136217314D01*
X144134408Y-136271000D01*
X144409592Y-136271000D01*
X144679490Y-136217314D01*
X144933727Y-136112005D01*
X145162535Y-135959120D01*
X145357120Y-135764535D01*
X145510005Y-135535727D01*
X145542000Y-135458485D01*
X145573995Y-135535727D01*
X145726880Y-135764535D01*
X145921465Y-135959120D01*
X146150273Y-136112005D01*
X146404510Y-136217314D01*
X146674408Y-136271000D01*
X146949592Y-136271000D01*
X147219490Y-136217314D01*
X147473727Y-136112005D01*
X147702535Y-135959120D01*
X147897120Y-135764535D01*
X148050005Y-135535727D01*
X148082000Y-135458485D01*
X148113995Y-135535727D01*
X148266880Y-135764535D01*
X148461465Y-135959120D01*
X148690273Y-136112005D01*
X148944510Y-136217314D01*
X149214408Y-136271000D01*
X149489592Y-136271000D01*
X149759490Y-136217314D01*
X150013727Y-136112005D01*
X150242535Y-135959120D01*
X150437120Y-135764535D01*
X150590005Y-135535727D01*
X150622000Y-135458485D01*
X150653995Y-135535727D01*
X150806880Y-135764535D01*
X151001465Y-135959120D01*
X151230273Y-136112005D01*
X151484510Y-136217314D01*
X151754408Y-136271000D01*
X152029592Y-136271000D01*
X152299490Y-136217314D01*
X152553727Y-136112005D01*
X152782535Y-135959120D01*
X152977120Y-135764535D01*
X153130005Y-135535727D01*
X153235314Y-135281490D01*
X153289000Y-135011592D01*
X153289000Y-134736408D01*
X153235314Y-134466510D01*
X153130005Y-134212273D01*
X152977120Y-133983465D01*
X152782535Y-133788880D01*
X152553727Y-133635995D01*
X152299490Y-133530686D01*
X152029592Y-133477000D01*
X151754408Y-133477000D01*
X151484510Y-133530686D01*
X151230273Y-133635995D01*
X151001465Y-133788880D01*
X150806880Y-133983465D01*
X150653995Y-134212273D01*
X150622000Y-134289515D01*
X150590005Y-134212273D01*
X150437120Y-133983465D01*
X150242535Y-133788880D01*
X150013727Y-133635995D01*
X149759490Y-133530686D01*
X149489592Y-133477000D01*
X149214408Y-133477000D01*
X148944510Y-133530686D01*
X148690273Y-133635995D01*
X148461465Y-133788880D01*
X148266880Y-133983465D01*
X148113995Y-134212273D01*
X148082000Y-134289515D01*
X148050005Y-134212273D01*
X147897120Y-133983465D01*
X147702535Y-133788880D01*
X147473727Y-133635995D01*
X147219490Y-133530686D01*
X146949592Y-133477000D01*
X146674408Y-133477000D01*
X146404510Y-133530686D01*
X146150273Y-133635995D01*
X145921465Y-133788880D01*
X145726880Y-133983465D01*
X145573995Y-134212273D01*
X145542000Y-134289515D01*
X145510005Y-134212273D01*
X145357120Y-133983465D01*
X145162535Y-133788880D01*
X144933727Y-133635995D01*
X144679490Y-133530686D01*
X144409592Y-133477000D01*
X144134408Y-133477000D01*
X143864510Y-133530686D01*
X143610273Y-133635995D01*
X143381465Y-133788880D01*
X143186880Y-133983465D01*
X143033995Y-134212273D01*
X143002000Y-134289515D01*
X142970005Y-134212273D01*
X142817120Y-133983465D01*
X142622535Y-133788880D01*
X142393727Y-133635995D01*
X142139490Y-133530686D01*
X141869592Y-133477000D01*
X141594408Y-133477000D01*
X141324510Y-133530686D01*
X141070273Y-133635995D01*
X140841465Y-133788880D01*
X140646880Y-133983465D01*
X140493995Y-134212273D01*
X140462000Y-134289515D01*
X140430005Y-134212273D01*
X140277120Y-133983465D01*
X140082535Y-133788880D01*
X139853727Y-133635995D01*
X139599490Y-133530686D01*
X139329592Y-133477000D01*
X139054408Y-133477000D01*
X138784510Y-133530686D01*
X138530273Y-133635995D01*
X138301465Y-133788880D01*
X138106880Y-133983465D01*
X137953995Y-134212273D01*
X137922000Y-134289515D01*
X137890005Y-134212273D01*
X137737120Y-133983465D01*
X137542535Y-133788880D01*
X137313727Y-133635995D01*
X137059490Y-133530686D01*
X136789592Y-133477000D01*
X136514408Y-133477000D01*
X136244510Y-133530686D01*
X135990273Y-133635995D01*
X135761465Y-133788880D01*
X135566880Y-133983465D01*
X135413995Y-134212273D01*
X135382000Y-134289515D01*
X135350005Y-134212273D01*
X135197120Y-133983465D01*
X135002535Y-133788880D01*
X134773727Y-133635995D01*
X134519490Y-133530686D01*
X134249592Y-133477000D01*
X133974408Y-133477000D01*
X133704510Y-133530686D01*
X133450273Y-133635995D01*
X133221465Y-133788880D01*
X133026880Y-133983465D01*
X132873995Y-134212273D01*
X132768686Y-134466510D01*
X132715000Y-134736408D01*
X127723500Y-134736408D01*
X127723500Y-132989001D01*
X127796998Y-133010219D01*
X128032237Y-133030190D01*
X128266850Y-133003884D01*
X128491824Y-132932313D01*
X128671512Y-132836267D01*
X128697802Y-132597605D01*
X128016000Y-131915803D01*
X128001858Y-131929945D01*
X127912055Y-131840142D01*
X127926197Y-131826000D01*
X127912055Y-131811858D01*
X128001858Y-131722055D01*
X128016000Y-131736197D01*
X128030142Y-131722055D01*
X128119945Y-131811858D01*
X128105803Y-131826000D01*
X128787605Y-132507802D01*
X129026267Y-132481512D01*
X129134740Y-132271823D01*
X129200219Y-132045002D01*
X129210876Y-131919473D01*
X129244878Y-131919473D01*
X129738592Y-132507858D01*
X129762762Y-132544031D01*
X129999343Y-132780612D01*
X130277532Y-132966492D01*
X130586639Y-133094528D01*
X130914785Y-133159801D01*
X131249361Y-133159801D01*
X131577507Y-133094528D01*
X131886614Y-132966492D01*
X132164803Y-132780612D01*
X132401384Y-132544031D01*
X132587264Y-132265842D01*
X132715300Y-131956735D01*
X132780573Y-131628589D01*
X132780573Y-131294013D01*
X132715300Y-130965867D01*
X132587264Y-130656760D01*
X132561190Y-130617738D01*
X132613400Y-130622880D01*
X132629275Y-130619500D01*
X132803900Y-130444875D01*
X132803900Y-129222500D01*
X132880100Y-129222500D01*
X132880100Y-130444875D01*
X133054725Y-130619500D01*
X133070600Y-130622880D01*
X133207530Y-130609394D01*
X133339198Y-130569453D01*
X133460544Y-130504592D01*
X133566904Y-130417304D01*
X133654192Y-130310944D01*
X133658972Y-130302000D01*
X152231520Y-130302000D01*
X152245006Y-130438930D01*
X152284947Y-130570598D01*
X152349808Y-130691944D01*
X152437096Y-130798304D01*
X152543456Y-130885592D01*
X152664802Y-130950453D01*
X152796470Y-130990394D01*
X152933400Y-131003880D01*
X152949275Y-131000500D01*
X153123900Y-130825875D01*
X153123900Y-129603500D01*
X152409525Y-129603500D01*
X152234900Y-129778125D01*
X152231520Y-130302000D01*
X133658972Y-130302000D01*
X133719053Y-130189598D01*
X133758994Y-130057930D01*
X133772480Y-129921000D01*
X133769100Y-129397125D01*
X133594475Y-129222500D01*
X132880100Y-129222500D01*
X132803900Y-129222500D01*
X132089525Y-129222500D01*
X131914900Y-129397125D01*
X131912281Y-129803051D01*
X131853560Y-129733071D01*
X131884624Y-129576903D01*
X131884624Y-129065043D01*
X131784765Y-128563019D01*
X131588885Y-128090122D01*
X131343916Y-127723500D01*
X132427371Y-127723500D01*
X132344802Y-127748547D01*
G37*
%TD.AperFunction*%
%TD*%
M02*
