M48
; DRILL file {KiCad (5.1.10)-1} date 10/12/21 15:24:10
; FORMAT={-:-/ absolute / inch / decimal}
; #@! TF.CreationDate,2021-10-12T15:24:10-07:00
; #@! TF.GenerationSoftware,Kicad,Pcbnew,(5.1.10)-1
; #@! TF.FileFunction,Plated,1,2,PTH
FMAT,2
INCH
T1C0.0197
T2C0.0320
T3C0.0350
T4C0.0394
T5C0.0960
%
G90
G05
T1
X5.04Y-5.19
X6.22Y-5.19
T2
X5.23Y-5.41
X5.28Y-5.31
X5.28Y-5.51
X5.33Y-5.41
X5.38Y-5.31
X5.38Y-5.51
X5.43Y-5.41
X5.48Y-5.31
X5.48Y-5.51
X5.53Y-5.41
X5.58Y-5.31
X5.58Y-5.51
X5.63Y-5.41
X5.68Y-5.31
X5.68Y-5.51
X5.73Y-5.41
X5.78Y-5.31
X5.78Y-5.51
X5.83Y-5.41
X5.88Y-5.31
X5.88Y-5.51
X5.93Y-5.41
X5.98Y-5.31
X5.98Y-5.51
X6.03Y-5.41
T3
X5.08Y-5.555
X6.18Y-5.555
T4
X5.1607Y-5.1756
X6.0993Y-5.1743
T5
X5.09Y-5.0914
X6.17Y-5.09
T0
M30
