%TF.GenerationSoftware,KiCad,Pcbnew,(5.1.10)-1*%
%TF.CreationDate,2021-10-13T10:52:39-07:00*%
%TF.ProjectId,MicroD25_Bondpad,4d696372-6f44-4323-955f-426f6e647061,rev?*%
%TF.SameCoordinates,Original*%
%TF.FileFunction,Legend,Top*%
%TF.FilePolarity,Positive*%
%FSLAX46Y46*%
G04 Gerber Fmt 4.6, Leading zero omitted, Abs format (unit mm)*
G04 Created by KiCad (PCBNEW (5.1.10)-1) date 2021-10-13 10:52:39*
%MOMM*%
%LPD*%
G01*
G04 APERTURE LIST*
%ADD10C,0.150000*%
G04 APERTURE END LIST*
D10*
X152862019Y-128349333D02*
X153862019Y-128349333D01*
X153147733Y-128016000D01*
X153862019Y-127682666D01*
X152862019Y-127682666D01*
X132719771Y-127873142D02*
X132719771Y-128206476D01*
X133243580Y-128206476D02*
X132243580Y-128206476D01*
X132243580Y-127730285D01*
%TO.C,J1*%
X135882952Y-133548380D02*
X135882952Y-132548380D01*
X136216285Y-133262666D01*
X136549619Y-132548380D01*
X136549619Y-133548380D01*
X137168666Y-132976952D02*
X137073428Y-132929333D01*
X137025809Y-132881714D01*
X136978190Y-132786476D01*
X136978190Y-132738857D01*
X137025809Y-132643619D01*
X137073428Y-132596000D01*
X137168666Y-132548380D01*
X137359142Y-132548380D01*
X137454380Y-132596000D01*
X137502000Y-132643619D01*
X137549619Y-132738857D01*
X137549619Y-132786476D01*
X137502000Y-132881714D01*
X137454380Y-132929333D01*
X137359142Y-132976952D01*
X137168666Y-132976952D01*
X137073428Y-133024571D01*
X137025809Y-133072190D01*
X136978190Y-133167428D01*
X136978190Y-133357904D01*
X137025809Y-133453142D01*
X137073428Y-133500761D01*
X137168666Y-133548380D01*
X137359142Y-133548380D01*
X137454380Y-133500761D01*
X137502000Y-133453142D01*
X137549619Y-133357904D01*
X137549619Y-133167428D01*
X137502000Y-133072190D01*
X137454380Y-133024571D01*
X137359142Y-132976952D01*
X137882952Y-132548380D02*
X138502000Y-132548380D01*
X138168666Y-132929333D01*
X138311523Y-132929333D01*
X138406761Y-132976952D01*
X138454380Y-133024571D01*
X138502000Y-133119809D01*
X138502000Y-133357904D01*
X138454380Y-133453142D01*
X138406761Y-133500761D01*
X138311523Y-133548380D01*
X138025809Y-133548380D01*
X137930571Y-133500761D01*
X137882952Y-133453142D01*
X139406761Y-132548380D02*
X138930571Y-132548380D01*
X138882952Y-133024571D01*
X138930571Y-132976952D01*
X139025809Y-132929333D01*
X139263904Y-132929333D01*
X139359142Y-132976952D01*
X139406761Y-133024571D01*
X139454380Y-133119809D01*
X139454380Y-133357904D01*
X139406761Y-133453142D01*
X139359142Y-133500761D01*
X139263904Y-133548380D01*
X139025809Y-133548380D01*
X138930571Y-133500761D01*
X138882952Y-133453142D01*
X140406761Y-133548380D02*
X139835333Y-133548380D01*
X140121047Y-133548380D02*
X140121047Y-132548380D01*
X140025809Y-132691238D01*
X139930571Y-132786476D01*
X139835333Y-132834095D01*
X140740095Y-132548380D02*
X141359142Y-132548380D01*
X141025809Y-132929333D01*
X141168666Y-132929333D01*
X141263904Y-132976952D01*
X141311523Y-133024571D01*
X141359142Y-133119809D01*
X141359142Y-133357904D01*
X141311523Y-133453142D01*
X141263904Y-133500761D01*
X141168666Y-133548380D01*
X140882952Y-133548380D01*
X140787714Y-133500761D01*
X140740095Y-133453142D01*
X141549619Y-133643619D02*
X142311523Y-133643619D01*
X143073428Y-133548380D02*
X142502000Y-133548380D01*
X142787714Y-133548380D02*
X142787714Y-132548380D01*
X142692476Y-132691238D01*
X142597238Y-132786476D01*
X142502000Y-132834095D01*
X143406761Y-132548380D02*
X144025809Y-132548380D01*
X143692476Y-132929333D01*
X143835333Y-132929333D01*
X143930571Y-132976952D01*
X143978190Y-133024571D01*
X144025809Y-133119809D01*
X144025809Y-133357904D01*
X143978190Y-133453142D01*
X143930571Y-133500761D01*
X143835333Y-133548380D01*
X143549619Y-133548380D01*
X143454380Y-133500761D01*
X143406761Y-133453142D01*
X144454380Y-133167428D02*
X145216285Y-133167428D01*
X145692476Y-133548380D02*
X145692476Y-132548380D01*
X145930571Y-132548380D01*
X146073428Y-132596000D01*
X146168666Y-132691238D01*
X146216285Y-132786476D01*
X146263904Y-132976952D01*
X146263904Y-133119809D01*
X146216285Y-133310285D01*
X146168666Y-133405523D01*
X146073428Y-133500761D01*
X145930571Y-133548380D01*
X145692476Y-133548380D01*
X146882952Y-132548380D02*
X146978190Y-132548380D01*
X147073428Y-132596000D01*
X147121047Y-132643619D01*
X147168666Y-132738857D01*
X147216285Y-132929333D01*
X147216285Y-133167428D01*
X147168666Y-133357904D01*
X147121047Y-133453142D01*
X147073428Y-133500761D01*
X146978190Y-133548380D01*
X146882952Y-133548380D01*
X146787714Y-133500761D01*
X146740095Y-133453142D01*
X146692476Y-133357904D01*
X146644857Y-133167428D01*
X146644857Y-132929333D01*
X146692476Y-132738857D01*
X146740095Y-132643619D01*
X146787714Y-132596000D01*
X146882952Y-132548380D01*
X148168666Y-133548380D02*
X147597238Y-133548380D01*
X147882952Y-133548380D02*
X147882952Y-132548380D01*
X147787714Y-132691238D01*
X147692476Y-132786476D01*
X147597238Y-132834095D01*
X149168666Y-133453142D02*
X149121047Y-133500761D01*
X148978190Y-133548380D01*
X148882952Y-133548380D01*
X148740095Y-133500761D01*
X148644857Y-133405523D01*
X148597238Y-133310285D01*
X148549619Y-133119809D01*
X148549619Y-132976952D01*
X148597238Y-132786476D01*
X148644857Y-132691238D01*
X148740095Y-132596000D01*
X148882952Y-132548380D01*
X148978190Y-132548380D01*
X149121047Y-132596000D01*
X149168666Y-132643619D01*
X149597238Y-133548380D02*
X149597238Y-132548380D01*
X149978190Y-132548380D01*
X150073428Y-132596000D01*
X150121047Y-132643619D01*
X150168666Y-132738857D01*
X150168666Y-132881714D01*
X150121047Y-132976952D01*
X150073428Y-133024571D01*
X149978190Y-133072190D01*
X149597238Y-133072190D01*
X143002000Y-140422380D02*
X143002000Y-140660476D01*
X142763904Y-140565238D02*
X143002000Y-140660476D01*
X143240095Y-140565238D01*
X142859142Y-140850952D02*
X143002000Y-140660476D01*
X143144857Y-140850952D01*
%TD*%
M02*
