%TF.GenerationSoftware,KiCad,Pcbnew,(5.1.10)-1*%
%TF.CreationDate,2021-10-12T15:24:05-07:00*%
%TF.ProjectId,MicroD25_Bondpad,4d696372-6f44-4323-955f-426f6e647061,rev?*%
%TF.SameCoordinates,Original*%
%TF.FileFunction,Legend,Bot*%
%TF.FilePolarity,Positive*%
%FSLAX46Y46*%
G04 Gerber Fmt 4.6, Leading zero omitted, Abs format (unit mm)*
G04 Created by KiCad (PCBNEW (5.1.10)-1) date 2021-10-12 15:24:05*
%MOMM*%
%LPD*%
G01*
G04 APERTURE LIST*
%ADD10C,0.127000*%
G04 APERTURE END LIST*
D10*
X148928666Y-131152900D02*
X149225000Y-131152900D01*
X149225000Y-131618566D02*
X149225000Y-130729566D01*
X148801666Y-130729566D01*
X148336000Y-131618566D02*
X148420666Y-131576233D01*
X148463000Y-131533900D01*
X148505333Y-131449233D01*
X148505333Y-131195233D01*
X148463000Y-131110566D01*
X148420666Y-131068233D01*
X148336000Y-131025900D01*
X148209000Y-131025900D01*
X148124333Y-131068233D01*
X148082000Y-131110566D01*
X148039666Y-131195233D01*
X148039666Y-131449233D01*
X148082000Y-131533900D01*
X148124333Y-131576233D01*
X148209000Y-131618566D01*
X148336000Y-131618566D01*
X147531666Y-131618566D02*
X147616333Y-131576233D01*
X147658666Y-131491566D01*
X147658666Y-130729566D01*
X147193000Y-131618566D02*
X147193000Y-130729566D01*
X147108333Y-131279900D02*
X146854333Y-131618566D01*
X146854333Y-131025900D02*
X147193000Y-131364566D01*
X145372666Y-131618566D02*
X145796000Y-131618566D01*
X145796000Y-130729566D01*
X144695333Y-131618566D02*
X144695333Y-131152900D01*
X144737666Y-131068233D01*
X144822333Y-131025900D01*
X144991666Y-131025900D01*
X145076333Y-131068233D01*
X144695333Y-131576233D02*
X144780000Y-131618566D01*
X144991666Y-131618566D01*
X145076333Y-131576233D01*
X145118666Y-131491566D01*
X145118666Y-131406900D01*
X145076333Y-131322233D01*
X144991666Y-131279900D01*
X144780000Y-131279900D01*
X144695333Y-131237566D01*
X144272000Y-131618566D02*
X144272000Y-130729566D01*
X144272000Y-131068233D02*
X144187333Y-131025900D01*
X144018000Y-131025900D01*
X143933333Y-131068233D01*
X143891000Y-131110566D01*
X143848666Y-131195233D01*
X143848666Y-131449233D01*
X143891000Y-131533900D01*
X143933333Y-131576233D01*
X144018000Y-131618566D01*
X144187333Y-131618566D01*
X144272000Y-131576233D01*
X142832666Y-130814233D02*
X142790333Y-130771900D01*
X142705666Y-130729566D01*
X142494000Y-130729566D01*
X142409333Y-130771900D01*
X142367000Y-130814233D01*
X142324666Y-130898900D01*
X142324666Y-130983566D01*
X142367000Y-131110566D01*
X142875000Y-131618566D01*
X142324666Y-131618566D01*
X141774333Y-130729566D02*
X141689666Y-130729566D01*
X141605000Y-130771900D01*
X141562666Y-130814233D01*
X141520333Y-130898900D01*
X141478000Y-131068233D01*
X141478000Y-131279900D01*
X141520333Y-131449233D01*
X141562666Y-131533900D01*
X141605000Y-131576233D01*
X141689666Y-131618566D01*
X141774333Y-131618566D01*
X141859000Y-131576233D01*
X141901333Y-131533900D01*
X141943666Y-131449233D01*
X141986000Y-131279900D01*
X141986000Y-131068233D01*
X141943666Y-130898900D01*
X141901333Y-130814233D01*
X141859000Y-130771900D01*
X141774333Y-130729566D01*
X141139333Y-130814233D02*
X141097000Y-130771900D01*
X141012333Y-130729566D01*
X140800666Y-130729566D01*
X140716000Y-130771900D01*
X140673666Y-130814233D01*
X140631333Y-130898900D01*
X140631333Y-130983566D01*
X140673666Y-131110566D01*
X141181666Y-131618566D01*
X140631333Y-131618566D01*
X139784666Y-131618566D02*
X140292666Y-131618566D01*
X140038666Y-131618566D02*
X140038666Y-130729566D01*
X140123333Y-130856566D01*
X140208000Y-130941233D01*
X140292666Y-130983566D01*
X138218333Y-131618566D02*
X138514666Y-131195233D01*
X138726333Y-131618566D02*
X138726333Y-130729566D01*
X138387666Y-130729566D01*
X138303000Y-130771900D01*
X138260666Y-130814233D01*
X138218333Y-130898900D01*
X138218333Y-131025900D01*
X138260666Y-131110566D01*
X138303000Y-131152900D01*
X138387666Y-131195233D01*
X138726333Y-131195233D01*
X137456333Y-131618566D02*
X137456333Y-131152900D01*
X137498666Y-131068233D01*
X137583333Y-131025900D01*
X137752666Y-131025900D01*
X137837333Y-131068233D01*
X137456333Y-131576233D02*
X137541000Y-131618566D01*
X137752666Y-131618566D01*
X137837333Y-131576233D01*
X137879666Y-131491566D01*
X137879666Y-131406900D01*
X137837333Y-131322233D01*
X137752666Y-131279900D01*
X137541000Y-131279900D01*
X137456333Y-131237566D01*
X137117666Y-131025900D02*
X136906000Y-131618566D01*
X136694333Y-131025900D02*
X136906000Y-131618566D01*
X136990666Y-131830233D01*
X137033000Y-131872566D01*
X137117666Y-131914900D01*
M02*
