M48
; DRILL file {KiCad (5.1.10)-1} date 10/13/21 14:36:57
; FORMAT={-:-/ absolute / metric / decimal}
; #@! TF.CreationDate,2021-10-13T14:36:57-07:00
; #@! TF.GenerationSoftware,Kicad,Pcbnew,(5.1.10)-1
; #@! TF.FileFunction,Plated,1,2,PTH
FMAT,2
METRIC
T1C0.500
T2C0.813
T3C0.889
T4C1.000
T5C2.438
%
G90
G05
T1
X128.016Y-131.826
X157.988Y-131.826
T2
X132.842Y-137.414
X134.112Y-134.874
X134.112Y-139.954
X135.382Y-137.414
X136.652Y-134.874
X136.652Y-139.954
X137.922Y-137.414
X139.192Y-134.874
X139.192Y-139.954
X140.462Y-137.414
X141.732Y-134.874
X141.732Y-139.954
X143.002Y-137.414
X144.272Y-134.874
X144.272Y-139.954
X145.542Y-137.414
X146.812Y-134.874
X146.812Y-139.954
X148.082Y-137.414
X149.352Y-134.874
X149.352Y-139.954
X150.622Y-137.414
X151.892Y-134.874
X151.892Y-139.954
X153.162Y-137.414
T3
X129.032Y-141.097
X156.972Y-141.097
T4
X131.082Y-131.461
X154.922Y-131.426
T5
X129.286Y-129.321
X156.718Y-129.286
T0
M30
