%FSLAX45Y45*%
G04 Gerber Fmt 4.5, Leading zero omitted, Abs format (unit mm)*
G04 Created by KiCad (PCBNEW (5.1.10)-1) date 2021-10-13 14:36:59*
%MOMM*%
%LPD*%
G01*
G04 APERTURE LIST*
%TA.AperFunction,Profile*%
%ADD10C,0.050000*%
%TD*%
%ADD11C,0.200000*%
%ADD12C,0.300000*%
G04 APERTURE END LIST*
D10*
X12700000Y-14274800D02*
X12700000Y-12700000D01*
X15900400Y-14274800D02*
X12700000Y-14274800D01*
X15900400Y-12700000D02*
X15900400Y-14274800D01*
X12700000Y-12700000D02*
X15900400Y-12700000D01*
D11*
X12776600Y-13157600D02*
X12826600Y-13207600D01*
X12826600Y-13157600D02*
X12776600Y-13207600D01*
X15773800Y-13157600D02*
X15823800Y-13207600D01*
X15823800Y-13157600D02*
X15773800Y-13207600D01*
X13324840Y-13741400D02*
G75*
G03*
X13324840Y-13741400I-40640J0D01*
G01*
X13451840Y-13487400D02*
G75*
G03*
X13451840Y-13487400I-40640J0D01*
G01*
X13451840Y-13995400D02*
G75*
G03*
X13451840Y-13995400I-40640J0D01*
G01*
X13578840Y-13741400D02*
G75*
G03*
X13578840Y-13741400I-40640J0D01*
G01*
X13705840Y-13487400D02*
G75*
G03*
X13705840Y-13487400I-40640J0D01*
G01*
X13705840Y-13995400D02*
G75*
G03*
X13705840Y-13995400I-40640J0D01*
G01*
X13832840Y-13741400D02*
G75*
G03*
X13832840Y-13741400I-40640J0D01*
G01*
X13959840Y-13487400D02*
G75*
G03*
X13959840Y-13487400I-40640J0D01*
G01*
X13959840Y-13995400D02*
G75*
G03*
X13959840Y-13995400I-40640J0D01*
G01*
X14086840Y-13741400D02*
G75*
G03*
X14086840Y-13741400I-40640J0D01*
G01*
X14213840Y-13487400D02*
G75*
G03*
X14213840Y-13487400I-40640J0D01*
G01*
X14213840Y-13995400D02*
G75*
G03*
X14213840Y-13995400I-40640J0D01*
G01*
X14340840Y-13741400D02*
G75*
G03*
X14340840Y-13741400I-40640J0D01*
G01*
X14467840Y-13487400D02*
G75*
G03*
X14467840Y-13487400I-40640J0D01*
G01*
X14467840Y-13995400D02*
G75*
G03*
X14467840Y-13995400I-40640J0D01*
G01*
X14594840Y-13741400D02*
G75*
G03*
X14594840Y-13741400I-40640J0D01*
G01*
X14721840Y-13487400D02*
G75*
G03*
X14721840Y-13487400I-40640J0D01*
G01*
X14721840Y-13995400D02*
G75*
G03*
X14721840Y-13995400I-40640J0D01*
G01*
X14848840Y-13741400D02*
G75*
G03*
X14848840Y-13741400I-40640J0D01*
G01*
X14975840Y-13487400D02*
G75*
G03*
X14975840Y-13487400I-40640J0D01*
G01*
X14975840Y-13995400D02*
G75*
G03*
X14975840Y-13995400I-40640J0D01*
G01*
X15102840Y-13741400D02*
G75*
G03*
X15102840Y-13741400I-40640J0D01*
G01*
X15229840Y-13487400D02*
G75*
G03*
X15229840Y-13487400I-40640J0D01*
G01*
X15229840Y-13995400D02*
G75*
G03*
X15229840Y-13995400I-40640J0D01*
G01*
X15356840Y-13741400D02*
G75*
G03*
X15356840Y-13741400I-40640J0D01*
G01*
X12903200Y-14065250D02*
X12903200Y-14154150D01*
X12858750Y-14109700D02*
X12947650Y-14109700D01*
X15697200Y-14065250D02*
X15697200Y-14154150D01*
X15652750Y-14109700D02*
X15741650Y-14109700D01*
X13143563Y-13181486D02*
X13143563Y-13110774D01*
X13072852Y-13110774D01*
X13072852Y-13181486D01*
X13143563Y-13181486D01*
X15527561Y-13177988D02*
X15527561Y-13107277D01*
X15456849Y-13107277D01*
X15456849Y-13177988D01*
X15527561Y-13177988D01*
X12928612Y-13054017D02*
X13050532Y-12932097D01*
X12928612Y-12810177D01*
X12806692Y-12932097D01*
X12928612Y-13054017D01*
X15671800Y-13050520D02*
X15793720Y-12928600D01*
X15671800Y-12806680D01*
X15549880Y-12928600D01*
X15671800Y-13050520D01*
D12*
X12983928Y-14743014D02*
X12983928Y-14443014D01*
X13055357Y-14443014D01*
X13098214Y-14457300D01*
X13126786Y-14485871D01*
X13141071Y-14514443D01*
X13155357Y-14571586D01*
X13155357Y-14614443D01*
X13141071Y-14671586D01*
X13126786Y-14700157D01*
X13098214Y-14728729D01*
X13055357Y-14743014D01*
X12983928Y-14743014D01*
X13283928Y-14743014D02*
X13283928Y-14543014D01*
X13283928Y-14600157D02*
X13298214Y-14571586D01*
X13312500Y-14557300D01*
X13341071Y-14543014D01*
X13369643Y-14543014D01*
X13469643Y-14743014D02*
X13469643Y-14543014D01*
X13469643Y-14443014D02*
X13455357Y-14457300D01*
X13469643Y-14471586D01*
X13483928Y-14457300D01*
X13469643Y-14443014D01*
X13469643Y-14471586D01*
X13655357Y-14743014D02*
X13626786Y-14728729D01*
X13612500Y-14700157D01*
X13612500Y-14443014D01*
X13812500Y-14743014D02*
X13783928Y-14728729D01*
X13769643Y-14700157D01*
X13769643Y-14443014D01*
X14155357Y-14743014D02*
X14155357Y-14443014D01*
X14255357Y-14657300D01*
X14355357Y-14443014D01*
X14355357Y-14743014D01*
X14626786Y-14743014D02*
X14626786Y-14585871D01*
X14612500Y-14557300D01*
X14583928Y-14543014D01*
X14526786Y-14543014D01*
X14498214Y-14557300D01*
X14626786Y-14728729D02*
X14598214Y-14743014D01*
X14526786Y-14743014D01*
X14498214Y-14728729D01*
X14483928Y-14700157D01*
X14483928Y-14671586D01*
X14498214Y-14643014D01*
X14526786Y-14628729D01*
X14598214Y-14628729D01*
X14626786Y-14614443D01*
X14769643Y-14543014D02*
X14769643Y-14843014D01*
X14769643Y-14557300D02*
X14798214Y-14543014D01*
X14855357Y-14543014D01*
X14883928Y-14557300D01*
X14898214Y-14571586D01*
X14912500Y-14600157D01*
X14912500Y-14685871D01*
X14898214Y-14714443D01*
X14883928Y-14728729D01*
X14855357Y-14743014D01*
X14798214Y-14743014D01*
X14769643Y-14728729D01*
X15041071Y-14714443D02*
X15055357Y-14728729D01*
X15041071Y-14743014D01*
X15026786Y-14728729D01*
X15041071Y-14714443D01*
X15041071Y-14743014D01*
X15041071Y-14557300D02*
X15055357Y-14571586D01*
X15041071Y-14585871D01*
X15026786Y-14571586D01*
X15041071Y-14557300D01*
X15041071Y-14585871D01*
X12647500Y-15212300D02*
X12697500Y-15262300D01*
X12697500Y-15212300D02*
X12647500Y-15262300D01*
X13041071Y-15073014D02*
X13069643Y-15073014D01*
X13098214Y-15087300D01*
X13112500Y-15101586D01*
X13126786Y-15130157D01*
X13141071Y-15187300D01*
X13141071Y-15258729D01*
X13126786Y-15315871D01*
X13112500Y-15344443D01*
X13098214Y-15358729D01*
X13069643Y-15373014D01*
X13041071Y-15373014D01*
X13012500Y-15358729D01*
X12998214Y-15344443D01*
X12983928Y-15315871D01*
X12969643Y-15258729D01*
X12969643Y-15187300D01*
X12983928Y-15130157D01*
X12998214Y-15101586D01*
X13012500Y-15087300D01*
X13041071Y-15073014D01*
X13269643Y-15344443D02*
X13283928Y-15358729D01*
X13269643Y-15373014D01*
X13255357Y-15358729D01*
X13269643Y-15344443D01*
X13269643Y-15373014D01*
X13555357Y-15073014D02*
X13412500Y-15073014D01*
X13398214Y-15215871D01*
X13412500Y-15201586D01*
X13441071Y-15187300D01*
X13512500Y-15187300D01*
X13541071Y-15201586D01*
X13555357Y-15215871D01*
X13569643Y-15244443D01*
X13569643Y-15315871D01*
X13555357Y-15344443D01*
X13541071Y-15358729D01*
X13512500Y-15373014D01*
X13441071Y-15373014D01*
X13412500Y-15358729D01*
X13398214Y-15344443D01*
X13755357Y-15073014D02*
X13783928Y-15073014D01*
X13812500Y-15087300D01*
X13826786Y-15101586D01*
X13841071Y-15130157D01*
X13855357Y-15187300D01*
X13855357Y-15258729D01*
X13841071Y-15315871D01*
X13826786Y-15344443D01*
X13812500Y-15358729D01*
X13783928Y-15373014D01*
X13755357Y-15373014D01*
X13726786Y-15358729D01*
X13712500Y-15344443D01*
X13698214Y-15315871D01*
X13683928Y-15258729D01*
X13683928Y-15187300D01*
X13698214Y-15130157D01*
X13712500Y-15101586D01*
X13726786Y-15087300D01*
X13755357Y-15073014D01*
X14041071Y-15073014D02*
X14069643Y-15073014D01*
X14098214Y-15087300D01*
X14112500Y-15101586D01*
X14126786Y-15130157D01*
X14141071Y-15187300D01*
X14141071Y-15258729D01*
X14126786Y-15315871D01*
X14112500Y-15344443D01*
X14098214Y-15358729D01*
X14069643Y-15373014D01*
X14041071Y-15373014D01*
X14012500Y-15358729D01*
X13998214Y-15344443D01*
X13983928Y-15315871D01*
X13969643Y-15258729D01*
X13969643Y-15187300D01*
X13983928Y-15130157D01*
X13998214Y-15101586D01*
X14012500Y-15087300D01*
X14041071Y-15073014D01*
X14269643Y-15373014D02*
X14269643Y-15173014D01*
X14269643Y-15201586D02*
X14283928Y-15187300D01*
X14312500Y-15173014D01*
X14355357Y-15173014D01*
X14383928Y-15187300D01*
X14398214Y-15215871D01*
X14398214Y-15373014D01*
X14398214Y-15215871D02*
X14412500Y-15187300D01*
X14441071Y-15173014D01*
X14483928Y-15173014D01*
X14512500Y-15187300D01*
X14526786Y-15215871D01*
X14526786Y-15373014D01*
X14669643Y-15373014D02*
X14669643Y-15173014D01*
X14669643Y-15201586D02*
X14683928Y-15187300D01*
X14712500Y-15173014D01*
X14755357Y-15173014D01*
X14783928Y-15187300D01*
X14798214Y-15215871D01*
X14798214Y-15373014D01*
X14798214Y-15215871D02*
X14812500Y-15187300D01*
X14841071Y-15173014D01*
X14883928Y-15173014D01*
X14912500Y-15187300D01*
X14926786Y-15215871D01*
X14926786Y-15373014D01*
X15512500Y-15058729D02*
X15255357Y-15444443D01*
X15898214Y-15073014D02*
X15926786Y-15073014D01*
X15955357Y-15087300D01*
X15969643Y-15101586D01*
X15983928Y-15130157D01*
X15998214Y-15187300D01*
X15998214Y-15258729D01*
X15983928Y-15315871D01*
X15969643Y-15344443D01*
X15955357Y-15358729D01*
X15926786Y-15373014D01*
X15898214Y-15373014D01*
X15869643Y-15358729D01*
X15855357Y-15344443D01*
X15841071Y-15315871D01*
X15826786Y-15258729D01*
X15826786Y-15187300D01*
X15841071Y-15130157D01*
X15855357Y-15101586D01*
X15869643Y-15087300D01*
X15898214Y-15073014D01*
X16126786Y-15344443D02*
X16141071Y-15358729D01*
X16126786Y-15373014D01*
X16112500Y-15358729D01*
X16126786Y-15344443D01*
X16126786Y-15373014D01*
X16326786Y-15073014D02*
X16355357Y-15073014D01*
X16383928Y-15087300D01*
X16398214Y-15101586D01*
X16412500Y-15130157D01*
X16426786Y-15187300D01*
X16426786Y-15258729D01*
X16412500Y-15315871D01*
X16398214Y-15344443D01*
X16383928Y-15358729D01*
X16355357Y-15373014D01*
X16326786Y-15373014D01*
X16298214Y-15358729D01*
X16283928Y-15344443D01*
X16269643Y-15315871D01*
X16255357Y-15258729D01*
X16255357Y-15187300D01*
X16269643Y-15130157D01*
X16283928Y-15101586D01*
X16298214Y-15087300D01*
X16326786Y-15073014D01*
X16712500Y-15373014D02*
X16541071Y-15373014D01*
X16626786Y-15373014D02*
X16626786Y-15073014D01*
X16598214Y-15115871D01*
X16569643Y-15144443D01*
X16541071Y-15158729D01*
X16855357Y-15373014D02*
X16912500Y-15373014D01*
X16941071Y-15358729D01*
X16955357Y-15344443D01*
X16983928Y-15301586D01*
X16998214Y-15244443D01*
X16998214Y-15130157D01*
X16983928Y-15101586D01*
X16969643Y-15087300D01*
X16941071Y-15073014D01*
X16883928Y-15073014D01*
X16855357Y-15087300D01*
X16841071Y-15101586D01*
X16826786Y-15130157D01*
X16826786Y-15201586D01*
X16841071Y-15230157D01*
X16855357Y-15244443D01*
X16883928Y-15258729D01*
X16941071Y-15258729D01*
X16969643Y-15244443D01*
X16983928Y-15230157D01*
X16998214Y-15201586D01*
X17098214Y-15073014D02*
X17298214Y-15073014D01*
X17169643Y-15373014D01*
X17398214Y-15073014D02*
X17398214Y-15130157D01*
X17512500Y-15073014D02*
X17512500Y-15130157D01*
X17955357Y-15487300D02*
X17941071Y-15473014D01*
X17912500Y-15430157D01*
X17898214Y-15401586D01*
X17883928Y-15358729D01*
X17869643Y-15287300D01*
X17869643Y-15230157D01*
X17883928Y-15158729D01*
X17898214Y-15115871D01*
X17912500Y-15087300D01*
X17941071Y-15044443D01*
X17955357Y-15030157D01*
X18055357Y-15101586D02*
X18069643Y-15087300D01*
X18098214Y-15073014D01*
X18169643Y-15073014D01*
X18198214Y-15087300D01*
X18212500Y-15101586D01*
X18226786Y-15130157D01*
X18226786Y-15158729D01*
X18212500Y-15201586D01*
X18041071Y-15373014D01*
X18226786Y-15373014D01*
X18583928Y-15373014D02*
X18583928Y-15073014D01*
X18712500Y-15373014D02*
X18712500Y-15215871D01*
X18698214Y-15187300D01*
X18669643Y-15173014D01*
X18626786Y-15173014D01*
X18598214Y-15187300D01*
X18583928Y-15201586D01*
X18898214Y-15373014D02*
X18869643Y-15358729D01*
X18855357Y-15344443D01*
X18841071Y-15315871D01*
X18841071Y-15230157D01*
X18855357Y-15201586D01*
X18869643Y-15187300D01*
X18898214Y-15173014D01*
X18941071Y-15173014D01*
X18969643Y-15187300D01*
X18983928Y-15201586D01*
X18998214Y-15230157D01*
X18998214Y-15315871D01*
X18983928Y-15344443D01*
X18969643Y-15358729D01*
X18941071Y-15373014D01*
X18898214Y-15373014D01*
X19169643Y-15373014D02*
X19141071Y-15358729D01*
X19126786Y-15330157D01*
X19126786Y-15073014D01*
X19398214Y-15358729D02*
X19369643Y-15373014D01*
X19312500Y-15373014D01*
X19283928Y-15358729D01*
X19269643Y-15330157D01*
X19269643Y-15215871D01*
X19283928Y-15187300D01*
X19312500Y-15173014D01*
X19369643Y-15173014D01*
X19398214Y-15187300D01*
X19412500Y-15215871D01*
X19412500Y-15244443D01*
X19269643Y-15273014D01*
X19526786Y-15358729D02*
X19555357Y-15373014D01*
X19612500Y-15373014D01*
X19641071Y-15358729D01*
X19655357Y-15330157D01*
X19655357Y-15315871D01*
X19641071Y-15287300D01*
X19612500Y-15273014D01*
X19569643Y-15273014D01*
X19541071Y-15258729D01*
X19526786Y-15230157D01*
X19526786Y-15215871D01*
X19541071Y-15187300D01*
X19569643Y-15173014D01*
X19612500Y-15173014D01*
X19641071Y-15187300D01*
X19755357Y-15487300D02*
X19769643Y-15473014D01*
X19798214Y-15430157D01*
X19812500Y-15401586D01*
X19826786Y-15358729D01*
X19841071Y-15287300D01*
X19841071Y-15230157D01*
X19826786Y-15158729D01*
X19812500Y-15115871D01*
X19798214Y-15087300D01*
X19769643Y-15044443D01*
X19755357Y-15030157D01*
X12697500Y-15633300D02*
G75*
G03*
X12697500Y-15633300I-40640J0D01*
G01*
X13041071Y-15469014D02*
X13069643Y-15469014D01*
X13098214Y-15483300D01*
X13112500Y-15497586D01*
X13126786Y-15526157D01*
X13141071Y-15583300D01*
X13141071Y-15654729D01*
X13126786Y-15711871D01*
X13112500Y-15740443D01*
X13098214Y-15754729D01*
X13069643Y-15769014D01*
X13041071Y-15769014D01*
X13012500Y-15754729D01*
X12998214Y-15740443D01*
X12983928Y-15711871D01*
X12969643Y-15654729D01*
X12969643Y-15583300D01*
X12983928Y-15526157D01*
X12998214Y-15497586D01*
X13012500Y-15483300D01*
X13041071Y-15469014D01*
X13269643Y-15740443D02*
X13283928Y-15754729D01*
X13269643Y-15769014D01*
X13255357Y-15754729D01*
X13269643Y-15740443D01*
X13269643Y-15769014D01*
X13455357Y-15597586D02*
X13426786Y-15583300D01*
X13412500Y-15569014D01*
X13398214Y-15540443D01*
X13398214Y-15526157D01*
X13412500Y-15497586D01*
X13426786Y-15483300D01*
X13455357Y-15469014D01*
X13512500Y-15469014D01*
X13541071Y-15483300D01*
X13555357Y-15497586D01*
X13569643Y-15526157D01*
X13569643Y-15540443D01*
X13555357Y-15569014D01*
X13541071Y-15583300D01*
X13512500Y-15597586D01*
X13455357Y-15597586D01*
X13426786Y-15611871D01*
X13412500Y-15626157D01*
X13398214Y-15654729D01*
X13398214Y-15711871D01*
X13412500Y-15740443D01*
X13426786Y-15754729D01*
X13455357Y-15769014D01*
X13512500Y-15769014D01*
X13541071Y-15754729D01*
X13555357Y-15740443D01*
X13569643Y-15711871D01*
X13569643Y-15654729D01*
X13555357Y-15626157D01*
X13541071Y-15611871D01*
X13512500Y-15597586D01*
X13855357Y-15769014D02*
X13683928Y-15769014D01*
X13769643Y-15769014D02*
X13769643Y-15469014D01*
X13741071Y-15511871D01*
X13712500Y-15540443D01*
X13683928Y-15554729D01*
X13955357Y-15469014D02*
X14141071Y-15469014D01*
X14041071Y-15583300D01*
X14083928Y-15583300D01*
X14112500Y-15597586D01*
X14126786Y-15611871D01*
X14141071Y-15640443D01*
X14141071Y-15711871D01*
X14126786Y-15740443D01*
X14112500Y-15754729D01*
X14083928Y-15769014D01*
X13998214Y-15769014D01*
X13969643Y-15754729D01*
X13955357Y-15740443D01*
X14269643Y-15769014D02*
X14269643Y-15569014D01*
X14269643Y-15597586D02*
X14283928Y-15583300D01*
X14312500Y-15569014D01*
X14355357Y-15569014D01*
X14383928Y-15583300D01*
X14398214Y-15611871D01*
X14398214Y-15769014D01*
X14398214Y-15611871D02*
X14412500Y-15583300D01*
X14441071Y-15569014D01*
X14483928Y-15569014D01*
X14512500Y-15583300D01*
X14526786Y-15611871D01*
X14526786Y-15769014D01*
X14669643Y-15769014D02*
X14669643Y-15569014D01*
X14669643Y-15597586D02*
X14683928Y-15583300D01*
X14712500Y-15569014D01*
X14755357Y-15569014D01*
X14783928Y-15583300D01*
X14798214Y-15611871D01*
X14798214Y-15769014D01*
X14798214Y-15611871D02*
X14812500Y-15583300D01*
X14841071Y-15569014D01*
X14883928Y-15569014D01*
X14912500Y-15583300D01*
X14926786Y-15611871D01*
X14926786Y-15769014D01*
X15512500Y-15454729D02*
X15255357Y-15840443D01*
X15898214Y-15469014D02*
X15926786Y-15469014D01*
X15955357Y-15483300D01*
X15969643Y-15497586D01*
X15983928Y-15526157D01*
X15998214Y-15583300D01*
X15998214Y-15654729D01*
X15983928Y-15711871D01*
X15969643Y-15740443D01*
X15955357Y-15754729D01*
X15926786Y-15769014D01*
X15898214Y-15769014D01*
X15869643Y-15754729D01*
X15855357Y-15740443D01*
X15841071Y-15711871D01*
X15826786Y-15654729D01*
X15826786Y-15583300D01*
X15841071Y-15526157D01*
X15855357Y-15497586D01*
X15869643Y-15483300D01*
X15898214Y-15469014D01*
X16126786Y-15740443D02*
X16141071Y-15754729D01*
X16126786Y-15769014D01*
X16112500Y-15754729D01*
X16126786Y-15740443D01*
X16126786Y-15769014D01*
X16326786Y-15469014D02*
X16355357Y-15469014D01*
X16383928Y-15483300D01*
X16398214Y-15497586D01*
X16412500Y-15526157D01*
X16426786Y-15583300D01*
X16426786Y-15654729D01*
X16412500Y-15711871D01*
X16398214Y-15740443D01*
X16383928Y-15754729D01*
X16355357Y-15769014D01*
X16326786Y-15769014D01*
X16298214Y-15754729D01*
X16283928Y-15740443D01*
X16269643Y-15711871D01*
X16255357Y-15654729D01*
X16255357Y-15583300D01*
X16269643Y-15526157D01*
X16283928Y-15497586D01*
X16298214Y-15483300D01*
X16326786Y-15469014D01*
X16526786Y-15469014D02*
X16712500Y-15469014D01*
X16612500Y-15583300D01*
X16655357Y-15583300D01*
X16683928Y-15597586D01*
X16698214Y-15611871D01*
X16712500Y-15640443D01*
X16712500Y-15711871D01*
X16698214Y-15740443D01*
X16683928Y-15754729D01*
X16655357Y-15769014D01*
X16569643Y-15769014D01*
X16541071Y-15754729D01*
X16526786Y-15740443D01*
X16826786Y-15497586D02*
X16841071Y-15483300D01*
X16869643Y-15469014D01*
X16941071Y-15469014D01*
X16969643Y-15483300D01*
X16983928Y-15497586D01*
X16998214Y-15526157D01*
X16998214Y-15554729D01*
X16983928Y-15597586D01*
X16812500Y-15769014D01*
X16998214Y-15769014D01*
X17183928Y-15469014D02*
X17212500Y-15469014D01*
X17241071Y-15483300D01*
X17255357Y-15497586D01*
X17269643Y-15526157D01*
X17283928Y-15583300D01*
X17283928Y-15654729D01*
X17269643Y-15711871D01*
X17255357Y-15740443D01*
X17241071Y-15754729D01*
X17212500Y-15769014D01*
X17183928Y-15769014D01*
X17155357Y-15754729D01*
X17141071Y-15740443D01*
X17126786Y-15711871D01*
X17112500Y-15654729D01*
X17112500Y-15583300D01*
X17126786Y-15526157D01*
X17141071Y-15497586D01*
X17155357Y-15483300D01*
X17183928Y-15469014D01*
X17398214Y-15469014D02*
X17398214Y-15526157D01*
X17512500Y-15469014D02*
X17512500Y-15526157D01*
X17955357Y-15883300D02*
X17941071Y-15869014D01*
X17912500Y-15826157D01*
X17898214Y-15797586D01*
X17883928Y-15754729D01*
X17869643Y-15683300D01*
X17869643Y-15626157D01*
X17883928Y-15554729D01*
X17898214Y-15511871D01*
X17912500Y-15483300D01*
X17941071Y-15440443D01*
X17955357Y-15426157D01*
X18055357Y-15497586D02*
X18069643Y-15483300D01*
X18098214Y-15469014D01*
X18169643Y-15469014D01*
X18198214Y-15483300D01*
X18212500Y-15497586D01*
X18226786Y-15526157D01*
X18226786Y-15554729D01*
X18212500Y-15597586D01*
X18041071Y-15769014D01*
X18226786Y-15769014D01*
X18498214Y-15469014D02*
X18355357Y-15469014D01*
X18341071Y-15611871D01*
X18355357Y-15597586D01*
X18383928Y-15583300D01*
X18455357Y-15583300D01*
X18483928Y-15597586D01*
X18498214Y-15611871D01*
X18512500Y-15640443D01*
X18512500Y-15711871D01*
X18498214Y-15740443D01*
X18483928Y-15754729D01*
X18455357Y-15769014D01*
X18383928Y-15769014D01*
X18355357Y-15754729D01*
X18341071Y-15740443D01*
X18869643Y-15769014D02*
X18869643Y-15469014D01*
X18998214Y-15769014D02*
X18998214Y-15611871D01*
X18983928Y-15583300D01*
X18955357Y-15569014D01*
X18912500Y-15569014D01*
X18883928Y-15583300D01*
X18869643Y-15597586D01*
X19183928Y-15769014D02*
X19155357Y-15754729D01*
X19141071Y-15740443D01*
X19126786Y-15711871D01*
X19126786Y-15626157D01*
X19141071Y-15597586D01*
X19155357Y-15583300D01*
X19183928Y-15569014D01*
X19226786Y-15569014D01*
X19255357Y-15583300D01*
X19269643Y-15597586D01*
X19283928Y-15626157D01*
X19283928Y-15711871D01*
X19269643Y-15740443D01*
X19255357Y-15754729D01*
X19226786Y-15769014D01*
X19183928Y-15769014D01*
X19455357Y-15769014D02*
X19426786Y-15754729D01*
X19412500Y-15726157D01*
X19412500Y-15469014D01*
X19683928Y-15754729D02*
X19655357Y-15769014D01*
X19598214Y-15769014D01*
X19569643Y-15754729D01*
X19555357Y-15726157D01*
X19555357Y-15611871D01*
X19569643Y-15583300D01*
X19598214Y-15569014D01*
X19655357Y-15569014D01*
X19683928Y-15583300D01*
X19698214Y-15611871D01*
X19698214Y-15640443D01*
X19555357Y-15669014D01*
X19812500Y-15754729D02*
X19841071Y-15769014D01*
X19898214Y-15769014D01*
X19926786Y-15754729D01*
X19941071Y-15726157D01*
X19941071Y-15711871D01*
X19926786Y-15683300D01*
X19898214Y-15669014D01*
X19855357Y-15669014D01*
X19826786Y-15654729D01*
X19812500Y-15626157D01*
X19812500Y-15611871D01*
X19826786Y-15583300D01*
X19855357Y-15569014D01*
X19898214Y-15569014D01*
X19926786Y-15583300D01*
X20041071Y-15883300D02*
X20055357Y-15869014D01*
X20083928Y-15826157D01*
X20098214Y-15797586D01*
X20112500Y-15754729D01*
X20126786Y-15683300D01*
X20126786Y-15626157D01*
X20112500Y-15554729D01*
X20098214Y-15511871D01*
X20083928Y-15483300D01*
X20055357Y-15440443D01*
X20041071Y-15426157D01*
X12653050Y-15984850D02*
X12653050Y-16073750D01*
X12608600Y-16029300D02*
X12697500Y-16029300D01*
X13041071Y-15865014D02*
X13069643Y-15865014D01*
X13098214Y-15879300D01*
X13112500Y-15893586D01*
X13126786Y-15922157D01*
X13141071Y-15979300D01*
X13141071Y-16050729D01*
X13126786Y-16107871D01*
X13112500Y-16136443D01*
X13098214Y-16150729D01*
X13069643Y-16165014D01*
X13041071Y-16165014D01*
X13012500Y-16150729D01*
X12998214Y-16136443D01*
X12983928Y-16107871D01*
X12969643Y-16050729D01*
X12969643Y-15979300D01*
X12983928Y-15922157D01*
X12998214Y-15893586D01*
X13012500Y-15879300D01*
X13041071Y-15865014D01*
X13269643Y-16136443D02*
X13283928Y-16150729D01*
X13269643Y-16165014D01*
X13255357Y-16150729D01*
X13269643Y-16136443D01*
X13269643Y-16165014D01*
X13455357Y-15993586D02*
X13426786Y-15979300D01*
X13412500Y-15965014D01*
X13398214Y-15936443D01*
X13398214Y-15922157D01*
X13412500Y-15893586D01*
X13426786Y-15879300D01*
X13455357Y-15865014D01*
X13512500Y-15865014D01*
X13541071Y-15879300D01*
X13555357Y-15893586D01*
X13569643Y-15922157D01*
X13569643Y-15936443D01*
X13555357Y-15965014D01*
X13541071Y-15979300D01*
X13512500Y-15993586D01*
X13455357Y-15993586D01*
X13426786Y-16007871D01*
X13412500Y-16022157D01*
X13398214Y-16050729D01*
X13398214Y-16107871D01*
X13412500Y-16136443D01*
X13426786Y-16150729D01*
X13455357Y-16165014D01*
X13512500Y-16165014D01*
X13541071Y-16150729D01*
X13555357Y-16136443D01*
X13569643Y-16107871D01*
X13569643Y-16050729D01*
X13555357Y-16022157D01*
X13541071Y-16007871D01*
X13512500Y-15993586D01*
X13741071Y-15993586D02*
X13712500Y-15979300D01*
X13698214Y-15965014D01*
X13683928Y-15936443D01*
X13683928Y-15922157D01*
X13698214Y-15893586D01*
X13712500Y-15879300D01*
X13741071Y-15865014D01*
X13798214Y-15865014D01*
X13826786Y-15879300D01*
X13841071Y-15893586D01*
X13855357Y-15922157D01*
X13855357Y-15936443D01*
X13841071Y-15965014D01*
X13826786Y-15979300D01*
X13798214Y-15993586D01*
X13741071Y-15993586D01*
X13712500Y-16007871D01*
X13698214Y-16022157D01*
X13683928Y-16050729D01*
X13683928Y-16107871D01*
X13698214Y-16136443D01*
X13712500Y-16150729D01*
X13741071Y-16165014D01*
X13798214Y-16165014D01*
X13826786Y-16150729D01*
X13841071Y-16136443D01*
X13855357Y-16107871D01*
X13855357Y-16050729D01*
X13841071Y-16022157D01*
X13826786Y-16007871D01*
X13798214Y-15993586D01*
X13998214Y-16165014D02*
X14055357Y-16165014D01*
X14083928Y-16150729D01*
X14098214Y-16136443D01*
X14126786Y-16093586D01*
X14141071Y-16036443D01*
X14141071Y-15922157D01*
X14126786Y-15893586D01*
X14112500Y-15879300D01*
X14083928Y-15865014D01*
X14026786Y-15865014D01*
X13998214Y-15879300D01*
X13983928Y-15893586D01*
X13969643Y-15922157D01*
X13969643Y-15993586D01*
X13983928Y-16022157D01*
X13998214Y-16036443D01*
X14026786Y-16050729D01*
X14083928Y-16050729D01*
X14112500Y-16036443D01*
X14126786Y-16022157D01*
X14141071Y-15993586D01*
X14269643Y-16165014D02*
X14269643Y-15965014D01*
X14269643Y-15993586D02*
X14283928Y-15979300D01*
X14312500Y-15965014D01*
X14355357Y-15965014D01*
X14383928Y-15979300D01*
X14398214Y-16007871D01*
X14398214Y-16165014D01*
X14398214Y-16007871D02*
X14412500Y-15979300D01*
X14441071Y-15965014D01*
X14483928Y-15965014D01*
X14512500Y-15979300D01*
X14526786Y-16007871D01*
X14526786Y-16165014D01*
X14669643Y-16165014D02*
X14669643Y-15965014D01*
X14669643Y-15993586D02*
X14683928Y-15979300D01*
X14712500Y-15965014D01*
X14755357Y-15965014D01*
X14783928Y-15979300D01*
X14798214Y-16007871D01*
X14798214Y-16165014D01*
X14798214Y-16007871D02*
X14812500Y-15979300D01*
X14841071Y-15965014D01*
X14883928Y-15965014D01*
X14912500Y-15979300D01*
X14926786Y-16007871D01*
X14926786Y-16165014D01*
X15512500Y-15850729D02*
X15255357Y-16236443D01*
X15898214Y-15865014D02*
X15926786Y-15865014D01*
X15955357Y-15879300D01*
X15969643Y-15893586D01*
X15983928Y-15922157D01*
X15998214Y-15979300D01*
X15998214Y-16050729D01*
X15983928Y-16107871D01*
X15969643Y-16136443D01*
X15955357Y-16150729D01*
X15926786Y-16165014D01*
X15898214Y-16165014D01*
X15869643Y-16150729D01*
X15855357Y-16136443D01*
X15841071Y-16107871D01*
X15826786Y-16050729D01*
X15826786Y-15979300D01*
X15841071Y-15922157D01*
X15855357Y-15893586D01*
X15869643Y-15879300D01*
X15898214Y-15865014D01*
X16126786Y-16136443D02*
X16141071Y-16150729D01*
X16126786Y-16165014D01*
X16112500Y-16150729D01*
X16126786Y-16136443D01*
X16126786Y-16165014D01*
X16326786Y-15865014D02*
X16355357Y-15865014D01*
X16383928Y-15879300D01*
X16398214Y-15893586D01*
X16412500Y-15922157D01*
X16426786Y-15979300D01*
X16426786Y-16050729D01*
X16412500Y-16107871D01*
X16398214Y-16136443D01*
X16383928Y-16150729D01*
X16355357Y-16165014D01*
X16326786Y-16165014D01*
X16298214Y-16150729D01*
X16283928Y-16136443D01*
X16269643Y-16107871D01*
X16255357Y-16050729D01*
X16255357Y-15979300D01*
X16269643Y-15922157D01*
X16283928Y-15893586D01*
X16298214Y-15879300D01*
X16326786Y-15865014D01*
X16526786Y-15865014D02*
X16712500Y-15865014D01*
X16612500Y-15979300D01*
X16655357Y-15979300D01*
X16683928Y-15993586D01*
X16698214Y-16007871D01*
X16712500Y-16036443D01*
X16712500Y-16107871D01*
X16698214Y-16136443D01*
X16683928Y-16150729D01*
X16655357Y-16165014D01*
X16569643Y-16165014D01*
X16541071Y-16150729D01*
X16526786Y-16136443D01*
X16983928Y-15865014D02*
X16841071Y-15865014D01*
X16826786Y-16007871D01*
X16841071Y-15993586D01*
X16869643Y-15979300D01*
X16941071Y-15979300D01*
X16969643Y-15993586D01*
X16983928Y-16007871D01*
X16998214Y-16036443D01*
X16998214Y-16107871D01*
X16983928Y-16136443D01*
X16969643Y-16150729D01*
X16941071Y-16165014D01*
X16869643Y-16165014D01*
X16841071Y-16150729D01*
X16826786Y-16136443D01*
X17183928Y-15865014D02*
X17212500Y-15865014D01*
X17241071Y-15879300D01*
X17255357Y-15893586D01*
X17269643Y-15922157D01*
X17283928Y-15979300D01*
X17283928Y-16050729D01*
X17269643Y-16107871D01*
X17255357Y-16136443D01*
X17241071Y-16150729D01*
X17212500Y-16165014D01*
X17183928Y-16165014D01*
X17155357Y-16150729D01*
X17141071Y-16136443D01*
X17126786Y-16107871D01*
X17112500Y-16050729D01*
X17112500Y-15979300D01*
X17126786Y-15922157D01*
X17141071Y-15893586D01*
X17155357Y-15879300D01*
X17183928Y-15865014D01*
X17398214Y-15865014D02*
X17398214Y-15922157D01*
X17512500Y-15865014D02*
X17512500Y-15922157D01*
X17955357Y-16279300D02*
X17941071Y-16265014D01*
X17912500Y-16222157D01*
X17898214Y-16193586D01*
X17883928Y-16150729D01*
X17869643Y-16079300D01*
X17869643Y-16022157D01*
X17883928Y-15950729D01*
X17898214Y-15907871D01*
X17912500Y-15879300D01*
X17941071Y-15836443D01*
X17955357Y-15822157D01*
X18055357Y-15893586D02*
X18069643Y-15879300D01*
X18098214Y-15865014D01*
X18169643Y-15865014D01*
X18198214Y-15879300D01*
X18212500Y-15893586D01*
X18226786Y-15922157D01*
X18226786Y-15950729D01*
X18212500Y-15993586D01*
X18041071Y-16165014D01*
X18226786Y-16165014D01*
X18583928Y-16165014D02*
X18583928Y-15865014D01*
X18712500Y-16165014D02*
X18712500Y-16007871D01*
X18698214Y-15979300D01*
X18669643Y-15965014D01*
X18626786Y-15965014D01*
X18598214Y-15979300D01*
X18583928Y-15993586D01*
X18898214Y-16165014D02*
X18869643Y-16150729D01*
X18855357Y-16136443D01*
X18841071Y-16107871D01*
X18841071Y-16022157D01*
X18855357Y-15993586D01*
X18869643Y-15979300D01*
X18898214Y-15965014D01*
X18941071Y-15965014D01*
X18969643Y-15979300D01*
X18983928Y-15993586D01*
X18998214Y-16022157D01*
X18998214Y-16107871D01*
X18983928Y-16136443D01*
X18969643Y-16150729D01*
X18941071Y-16165014D01*
X18898214Y-16165014D01*
X19169643Y-16165014D02*
X19141071Y-16150729D01*
X19126786Y-16122157D01*
X19126786Y-15865014D01*
X19398214Y-16150729D02*
X19369643Y-16165014D01*
X19312500Y-16165014D01*
X19283928Y-16150729D01*
X19269643Y-16122157D01*
X19269643Y-16007871D01*
X19283928Y-15979300D01*
X19312500Y-15965014D01*
X19369643Y-15965014D01*
X19398214Y-15979300D01*
X19412500Y-16007871D01*
X19412500Y-16036443D01*
X19269643Y-16065014D01*
X19526786Y-16150729D02*
X19555357Y-16165014D01*
X19612500Y-16165014D01*
X19641071Y-16150729D01*
X19655357Y-16122157D01*
X19655357Y-16107871D01*
X19641071Y-16079300D01*
X19612500Y-16065014D01*
X19569643Y-16065014D01*
X19541071Y-16050729D01*
X19526786Y-16022157D01*
X19526786Y-16007871D01*
X19541071Y-15979300D01*
X19569643Y-15965014D01*
X19612500Y-15965014D01*
X19641071Y-15979300D01*
X19755357Y-16279300D02*
X19769643Y-16265014D01*
X19798214Y-16222157D01*
X19812500Y-16193586D01*
X19826786Y-16150729D01*
X19841071Y-16079300D01*
X19841071Y-16022157D01*
X19826786Y-15950729D01*
X19812500Y-15907871D01*
X19798214Y-15879300D01*
X19769643Y-15836443D01*
X19755357Y-15822157D01*
X12682856Y-16460656D02*
X12682856Y-16389944D01*
X12612144Y-16389944D01*
X12612144Y-16460656D01*
X12682856Y-16460656D01*
X13141071Y-16561014D02*
X12969643Y-16561014D01*
X13055357Y-16561014D02*
X13055357Y-16261014D01*
X13026786Y-16303871D01*
X12998214Y-16332443D01*
X12969643Y-16346729D01*
X13269643Y-16532443D02*
X13283928Y-16546729D01*
X13269643Y-16561014D01*
X13255357Y-16546729D01*
X13269643Y-16532443D01*
X13269643Y-16561014D01*
X13469643Y-16261014D02*
X13498214Y-16261014D01*
X13526786Y-16275300D01*
X13541071Y-16289586D01*
X13555357Y-16318157D01*
X13569643Y-16375300D01*
X13569643Y-16446729D01*
X13555357Y-16503871D01*
X13541071Y-16532443D01*
X13526786Y-16546729D01*
X13498214Y-16561014D01*
X13469643Y-16561014D01*
X13441071Y-16546729D01*
X13426786Y-16532443D01*
X13412500Y-16503871D01*
X13398214Y-16446729D01*
X13398214Y-16375300D01*
X13412500Y-16318157D01*
X13426786Y-16289586D01*
X13441071Y-16275300D01*
X13469643Y-16261014D01*
X13755357Y-16261014D02*
X13783928Y-16261014D01*
X13812500Y-16275300D01*
X13826786Y-16289586D01*
X13841071Y-16318157D01*
X13855357Y-16375300D01*
X13855357Y-16446729D01*
X13841071Y-16503871D01*
X13826786Y-16532443D01*
X13812500Y-16546729D01*
X13783928Y-16561014D01*
X13755357Y-16561014D01*
X13726786Y-16546729D01*
X13712500Y-16532443D01*
X13698214Y-16503871D01*
X13683928Y-16446729D01*
X13683928Y-16375300D01*
X13698214Y-16318157D01*
X13712500Y-16289586D01*
X13726786Y-16275300D01*
X13755357Y-16261014D01*
X14041071Y-16261014D02*
X14069643Y-16261014D01*
X14098214Y-16275300D01*
X14112500Y-16289586D01*
X14126786Y-16318157D01*
X14141071Y-16375300D01*
X14141071Y-16446729D01*
X14126786Y-16503871D01*
X14112500Y-16532443D01*
X14098214Y-16546729D01*
X14069643Y-16561014D01*
X14041071Y-16561014D01*
X14012500Y-16546729D01*
X13998214Y-16532443D01*
X13983928Y-16503871D01*
X13969643Y-16446729D01*
X13969643Y-16375300D01*
X13983928Y-16318157D01*
X13998214Y-16289586D01*
X14012500Y-16275300D01*
X14041071Y-16261014D01*
X14269643Y-16561014D02*
X14269643Y-16361014D01*
X14269643Y-16389586D02*
X14283928Y-16375300D01*
X14312500Y-16361014D01*
X14355357Y-16361014D01*
X14383928Y-16375300D01*
X14398214Y-16403871D01*
X14398214Y-16561014D01*
X14398214Y-16403871D02*
X14412500Y-16375300D01*
X14441071Y-16361014D01*
X14483928Y-16361014D01*
X14512500Y-16375300D01*
X14526786Y-16403871D01*
X14526786Y-16561014D01*
X14669643Y-16561014D02*
X14669643Y-16361014D01*
X14669643Y-16389586D02*
X14683928Y-16375300D01*
X14712500Y-16361014D01*
X14755357Y-16361014D01*
X14783928Y-16375300D01*
X14798214Y-16403871D01*
X14798214Y-16561014D01*
X14798214Y-16403871D02*
X14812500Y-16375300D01*
X14841071Y-16361014D01*
X14883928Y-16361014D01*
X14912500Y-16375300D01*
X14926786Y-16403871D01*
X14926786Y-16561014D01*
X15512500Y-16246729D02*
X15255357Y-16632443D01*
X15898214Y-16261014D02*
X15926786Y-16261014D01*
X15955357Y-16275300D01*
X15969643Y-16289586D01*
X15983928Y-16318157D01*
X15998214Y-16375300D01*
X15998214Y-16446729D01*
X15983928Y-16503871D01*
X15969643Y-16532443D01*
X15955357Y-16546729D01*
X15926786Y-16561014D01*
X15898214Y-16561014D01*
X15869643Y-16546729D01*
X15855357Y-16532443D01*
X15841071Y-16503871D01*
X15826786Y-16446729D01*
X15826786Y-16375300D01*
X15841071Y-16318157D01*
X15855357Y-16289586D01*
X15869643Y-16275300D01*
X15898214Y-16261014D01*
X16126786Y-16532443D02*
X16141071Y-16546729D01*
X16126786Y-16561014D01*
X16112500Y-16546729D01*
X16126786Y-16532443D01*
X16126786Y-16561014D01*
X16326786Y-16261014D02*
X16355357Y-16261014D01*
X16383928Y-16275300D01*
X16398214Y-16289586D01*
X16412500Y-16318157D01*
X16426786Y-16375300D01*
X16426786Y-16446729D01*
X16412500Y-16503871D01*
X16398214Y-16532443D01*
X16383928Y-16546729D01*
X16355357Y-16561014D01*
X16326786Y-16561014D01*
X16298214Y-16546729D01*
X16283928Y-16532443D01*
X16269643Y-16503871D01*
X16255357Y-16446729D01*
X16255357Y-16375300D01*
X16269643Y-16318157D01*
X16283928Y-16289586D01*
X16298214Y-16275300D01*
X16326786Y-16261014D01*
X16526786Y-16261014D02*
X16712500Y-16261014D01*
X16612500Y-16375300D01*
X16655357Y-16375300D01*
X16683928Y-16389586D01*
X16698214Y-16403871D01*
X16712500Y-16432443D01*
X16712500Y-16503871D01*
X16698214Y-16532443D01*
X16683928Y-16546729D01*
X16655357Y-16561014D01*
X16569643Y-16561014D01*
X16541071Y-16546729D01*
X16526786Y-16532443D01*
X16855357Y-16561014D02*
X16912500Y-16561014D01*
X16941071Y-16546729D01*
X16955357Y-16532443D01*
X16983928Y-16489586D01*
X16998214Y-16432443D01*
X16998214Y-16318157D01*
X16983928Y-16289586D01*
X16969643Y-16275300D01*
X16941071Y-16261014D01*
X16883928Y-16261014D01*
X16855357Y-16275300D01*
X16841071Y-16289586D01*
X16826786Y-16318157D01*
X16826786Y-16389586D01*
X16841071Y-16418157D01*
X16855357Y-16432443D01*
X16883928Y-16446729D01*
X16941071Y-16446729D01*
X16969643Y-16432443D01*
X16983928Y-16418157D01*
X16998214Y-16389586D01*
X17255357Y-16361014D02*
X17255357Y-16561014D01*
X17183928Y-16246729D02*
X17112500Y-16461014D01*
X17298214Y-16461014D01*
X17398214Y-16261014D02*
X17398214Y-16318157D01*
X17512500Y-16261014D02*
X17512500Y-16318157D01*
X17955357Y-16675300D02*
X17941071Y-16661014D01*
X17912500Y-16618157D01*
X17898214Y-16589586D01*
X17883928Y-16546729D01*
X17869643Y-16475300D01*
X17869643Y-16418157D01*
X17883928Y-16346729D01*
X17898214Y-16303871D01*
X17912500Y-16275300D01*
X17941071Y-16232443D01*
X17955357Y-16218157D01*
X18055357Y-16289586D02*
X18069643Y-16275300D01*
X18098214Y-16261014D01*
X18169643Y-16261014D01*
X18198214Y-16275300D01*
X18212500Y-16289586D01*
X18226786Y-16318157D01*
X18226786Y-16346729D01*
X18212500Y-16389586D01*
X18041071Y-16561014D01*
X18226786Y-16561014D01*
X18583928Y-16561014D02*
X18583928Y-16261014D01*
X18712500Y-16561014D02*
X18712500Y-16403871D01*
X18698214Y-16375300D01*
X18669643Y-16361014D01*
X18626786Y-16361014D01*
X18598214Y-16375300D01*
X18583928Y-16389586D01*
X18898214Y-16561014D02*
X18869643Y-16546729D01*
X18855357Y-16532443D01*
X18841071Y-16503871D01*
X18841071Y-16418157D01*
X18855357Y-16389586D01*
X18869643Y-16375300D01*
X18898214Y-16361014D01*
X18941071Y-16361014D01*
X18969643Y-16375300D01*
X18983928Y-16389586D01*
X18998214Y-16418157D01*
X18998214Y-16503871D01*
X18983928Y-16532443D01*
X18969643Y-16546729D01*
X18941071Y-16561014D01*
X18898214Y-16561014D01*
X19169643Y-16561014D02*
X19141071Y-16546729D01*
X19126786Y-16518157D01*
X19126786Y-16261014D01*
X19398214Y-16546729D02*
X19369643Y-16561014D01*
X19312500Y-16561014D01*
X19283928Y-16546729D01*
X19269643Y-16518157D01*
X19269643Y-16403871D01*
X19283928Y-16375300D01*
X19312500Y-16361014D01*
X19369643Y-16361014D01*
X19398214Y-16375300D01*
X19412500Y-16403871D01*
X19412500Y-16432443D01*
X19269643Y-16461014D01*
X19526786Y-16546729D02*
X19555357Y-16561014D01*
X19612500Y-16561014D01*
X19641071Y-16546729D01*
X19655357Y-16518157D01*
X19655357Y-16503871D01*
X19641071Y-16475300D01*
X19612500Y-16461014D01*
X19569643Y-16461014D01*
X19541071Y-16446729D01*
X19526786Y-16418157D01*
X19526786Y-16403871D01*
X19541071Y-16375300D01*
X19569643Y-16361014D01*
X19612500Y-16361014D01*
X19641071Y-16375300D01*
X19755357Y-16675300D02*
X19769643Y-16661014D01*
X19798214Y-16618157D01*
X19812500Y-16589586D01*
X19826786Y-16546729D01*
X19841071Y-16475300D01*
X19841071Y-16418157D01*
X19826786Y-16346729D01*
X19812500Y-16303871D01*
X19798214Y-16275300D01*
X19769643Y-16232443D01*
X19755357Y-16218157D01*
X12575580Y-16943220D02*
X12697500Y-16821300D01*
X12575580Y-16699380D01*
X12453660Y-16821300D01*
X12575580Y-16943220D01*
X12969643Y-16685586D02*
X12983928Y-16671300D01*
X13012500Y-16657014D01*
X13083928Y-16657014D01*
X13112500Y-16671300D01*
X13126786Y-16685586D01*
X13141071Y-16714157D01*
X13141071Y-16742729D01*
X13126786Y-16785586D01*
X12955357Y-16957014D01*
X13141071Y-16957014D01*
X13269643Y-16928443D02*
X13283928Y-16942729D01*
X13269643Y-16957014D01*
X13255357Y-16942729D01*
X13269643Y-16928443D01*
X13269643Y-16957014D01*
X13541071Y-16757014D02*
X13541071Y-16957014D01*
X13469643Y-16642729D02*
X13398214Y-16857014D01*
X13583928Y-16857014D01*
X13669643Y-16657014D02*
X13855357Y-16657014D01*
X13755357Y-16771300D01*
X13798214Y-16771300D01*
X13826786Y-16785586D01*
X13841071Y-16799872D01*
X13855357Y-16828443D01*
X13855357Y-16899872D01*
X13841071Y-16928443D01*
X13826786Y-16942729D01*
X13798214Y-16957014D01*
X13712500Y-16957014D01*
X13683928Y-16942729D01*
X13669643Y-16928443D01*
X14026786Y-16785586D02*
X13998214Y-16771300D01*
X13983928Y-16757014D01*
X13969643Y-16728443D01*
X13969643Y-16714157D01*
X13983928Y-16685586D01*
X13998214Y-16671300D01*
X14026786Y-16657014D01*
X14083928Y-16657014D01*
X14112500Y-16671300D01*
X14126786Y-16685586D01*
X14141071Y-16714157D01*
X14141071Y-16728443D01*
X14126786Y-16757014D01*
X14112500Y-16771300D01*
X14083928Y-16785586D01*
X14026786Y-16785586D01*
X13998214Y-16799872D01*
X13983928Y-16814157D01*
X13969643Y-16842729D01*
X13969643Y-16899872D01*
X13983928Y-16928443D01*
X13998214Y-16942729D01*
X14026786Y-16957014D01*
X14083928Y-16957014D01*
X14112500Y-16942729D01*
X14126786Y-16928443D01*
X14141071Y-16899872D01*
X14141071Y-16842729D01*
X14126786Y-16814157D01*
X14112500Y-16799872D01*
X14083928Y-16785586D01*
X14269643Y-16957014D02*
X14269643Y-16757014D01*
X14269643Y-16785586D02*
X14283928Y-16771300D01*
X14312500Y-16757014D01*
X14355357Y-16757014D01*
X14383928Y-16771300D01*
X14398214Y-16799872D01*
X14398214Y-16957014D01*
X14398214Y-16799872D02*
X14412500Y-16771300D01*
X14441071Y-16757014D01*
X14483928Y-16757014D01*
X14512500Y-16771300D01*
X14526786Y-16799872D01*
X14526786Y-16957014D01*
X14669643Y-16957014D02*
X14669643Y-16757014D01*
X14669643Y-16785586D02*
X14683928Y-16771300D01*
X14712500Y-16757014D01*
X14755357Y-16757014D01*
X14783928Y-16771300D01*
X14798214Y-16799872D01*
X14798214Y-16957014D01*
X14798214Y-16799872D02*
X14812500Y-16771300D01*
X14841071Y-16757014D01*
X14883928Y-16757014D01*
X14912500Y-16771300D01*
X14926786Y-16799872D01*
X14926786Y-16957014D01*
X15512500Y-16642729D02*
X15255357Y-17028443D01*
X15898214Y-16657014D02*
X15926786Y-16657014D01*
X15955357Y-16671300D01*
X15969643Y-16685586D01*
X15983928Y-16714157D01*
X15998214Y-16771300D01*
X15998214Y-16842729D01*
X15983928Y-16899872D01*
X15969643Y-16928443D01*
X15955357Y-16942729D01*
X15926786Y-16957014D01*
X15898214Y-16957014D01*
X15869643Y-16942729D01*
X15855357Y-16928443D01*
X15841071Y-16899872D01*
X15826786Y-16842729D01*
X15826786Y-16771300D01*
X15841071Y-16714157D01*
X15855357Y-16685586D01*
X15869643Y-16671300D01*
X15898214Y-16657014D01*
X16126786Y-16928443D02*
X16141071Y-16942729D01*
X16126786Y-16957014D01*
X16112500Y-16942729D01*
X16126786Y-16928443D01*
X16126786Y-16957014D01*
X16326786Y-16657014D02*
X16355357Y-16657014D01*
X16383928Y-16671300D01*
X16398214Y-16685586D01*
X16412500Y-16714157D01*
X16426786Y-16771300D01*
X16426786Y-16842729D01*
X16412500Y-16899872D01*
X16398214Y-16928443D01*
X16383928Y-16942729D01*
X16355357Y-16957014D01*
X16326786Y-16957014D01*
X16298214Y-16942729D01*
X16283928Y-16928443D01*
X16269643Y-16899872D01*
X16255357Y-16842729D01*
X16255357Y-16771300D01*
X16269643Y-16714157D01*
X16283928Y-16685586D01*
X16298214Y-16671300D01*
X16326786Y-16657014D01*
X16569643Y-16957014D02*
X16626786Y-16957014D01*
X16655357Y-16942729D01*
X16669643Y-16928443D01*
X16698214Y-16885586D01*
X16712500Y-16828443D01*
X16712500Y-16714157D01*
X16698214Y-16685586D01*
X16683928Y-16671300D01*
X16655357Y-16657014D01*
X16598214Y-16657014D01*
X16569643Y-16671300D01*
X16555357Y-16685586D01*
X16541071Y-16714157D01*
X16541071Y-16785586D01*
X16555357Y-16814157D01*
X16569643Y-16828443D01*
X16598214Y-16842729D01*
X16655357Y-16842729D01*
X16683928Y-16828443D01*
X16698214Y-16814157D01*
X16712500Y-16785586D01*
X16969643Y-16657014D02*
X16912500Y-16657014D01*
X16883928Y-16671300D01*
X16869643Y-16685586D01*
X16841071Y-16728443D01*
X16826786Y-16785586D01*
X16826786Y-16899872D01*
X16841071Y-16928443D01*
X16855357Y-16942729D01*
X16883928Y-16957014D01*
X16941071Y-16957014D01*
X16969643Y-16942729D01*
X16983928Y-16928443D01*
X16998214Y-16899872D01*
X16998214Y-16828443D01*
X16983928Y-16799872D01*
X16969643Y-16785586D01*
X16941071Y-16771300D01*
X16883928Y-16771300D01*
X16855357Y-16785586D01*
X16841071Y-16799872D01*
X16826786Y-16828443D01*
X17183928Y-16657014D02*
X17212500Y-16657014D01*
X17241071Y-16671300D01*
X17255357Y-16685586D01*
X17269643Y-16714157D01*
X17283928Y-16771300D01*
X17283928Y-16842729D01*
X17269643Y-16899872D01*
X17255357Y-16928443D01*
X17241071Y-16942729D01*
X17212500Y-16957014D01*
X17183928Y-16957014D01*
X17155357Y-16942729D01*
X17141071Y-16928443D01*
X17126786Y-16899872D01*
X17112500Y-16842729D01*
X17112500Y-16771300D01*
X17126786Y-16714157D01*
X17141071Y-16685586D01*
X17155357Y-16671300D01*
X17183928Y-16657014D01*
X17398214Y-16657014D02*
X17398214Y-16714157D01*
X17512500Y-16657014D02*
X17512500Y-16714157D01*
X17955357Y-17071300D02*
X17941071Y-17057014D01*
X17912500Y-17014157D01*
X17898214Y-16985586D01*
X17883928Y-16942729D01*
X17869643Y-16871300D01*
X17869643Y-16814157D01*
X17883928Y-16742729D01*
X17898214Y-16699871D01*
X17912500Y-16671300D01*
X17941071Y-16628443D01*
X17955357Y-16614157D01*
X18055357Y-16685586D02*
X18069643Y-16671300D01*
X18098214Y-16657014D01*
X18169643Y-16657014D01*
X18198214Y-16671300D01*
X18212500Y-16685586D01*
X18226786Y-16714157D01*
X18226786Y-16742729D01*
X18212500Y-16785586D01*
X18041071Y-16957014D01*
X18226786Y-16957014D01*
X18583928Y-16957014D02*
X18583928Y-16657014D01*
X18712500Y-16957014D02*
X18712500Y-16799872D01*
X18698214Y-16771300D01*
X18669643Y-16757014D01*
X18626786Y-16757014D01*
X18598214Y-16771300D01*
X18583928Y-16785586D01*
X18898214Y-16957014D02*
X18869643Y-16942729D01*
X18855357Y-16928443D01*
X18841071Y-16899872D01*
X18841071Y-16814157D01*
X18855357Y-16785586D01*
X18869643Y-16771300D01*
X18898214Y-16757014D01*
X18941071Y-16757014D01*
X18969643Y-16771300D01*
X18983928Y-16785586D01*
X18998214Y-16814157D01*
X18998214Y-16899872D01*
X18983928Y-16928443D01*
X18969643Y-16942729D01*
X18941071Y-16957014D01*
X18898214Y-16957014D01*
X19169643Y-16957014D02*
X19141071Y-16942729D01*
X19126786Y-16914157D01*
X19126786Y-16657014D01*
X19398214Y-16942729D02*
X19369643Y-16957014D01*
X19312500Y-16957014D01*
X19283928Y-16942729D01*
X19269643Y-16914157D01*
X19269643Y-16799872D01*
X19283928Y-16771300D01*
X19312500Y-16757014D01*
X19369643Y-16757014D01*
X19398214Y-16771300D01*
X19412500Y-16799872D01*
X19412500Y-16828443D01*
X19269643Y-16857014D01*
X19526786Y-16942729D02*
X19555357Y-16957014D01*
X19612500Y-16957014D01*
X19641071Y-16942729D01*
X19655357Y-16914157D01*
X19655357Y-16899872D01*
X19641071Y-16871300D01*
X19612500Y-16857014D01*
X19569643Y-16857014D01*
X19541071Y-16842729D01*
X19526786Y-16814157D01*
X19526786Y-16799872D01*
X19541071Y-16771300D01*
X19569643Y-16757014D01*
X19612500Y-16757014D01*
X19641071Y-16771300D01*
X19755357Y-17071300D02*
X19769643Y-17057014D01*
X19798214Y-17014157D01*
X19812500Y-16985586D01*
X19826786Y-16942729D01*
X19841071Y-16871300D01*
X19841071Y-16814157D01*
X19826786Y-16742729D01*
X19812500Y-16699871D01*
X19798214Y-16671300D01*
X19769643Y-16628443D01*
X19755357Y-16614157D01*
M02*
