G04 #@! TF.GenerationSoftware,KiCad,Pcbnew,(5.1.10)-1*
G04 #@! TF.CreationDate,2021-10-13T14:36:50-07:00*
G04 #@! TF.ProjectId,MicroD25_Bondpad,4d696372-6f44-4323-955f-426f6e647061,rev?*
G04 #@! TF.SameCoordinates,Original*
G04 #@! TF.FileFunction,Soldermask,Bot*
G04 #@! TF.FilePolarity,Negative*
%FSLAX46Y46*%
G04 Gerber Fmt 4.6, Leading zero omitted, Abs format (unit mm)*
G04 Created by KiCad (PCBNEW (5.1.10)-1) date 2021-10-13 14:36:50*
%MOMM*%
%LPD*%
G01*
G04 APERTURE LIST*
%ADD10C,0.100000*%
%ADD11C,2.000000*%
%ADD12C,3.800000*%
%ADD13C,2.600000*%
%ADD14C,1.000000*%
%ADD15C,1.397000*%
%ADD16C,2.438400*%
%ADD17R,0.457200X1.524000*%
%ADD18C,1.143000*%
G04 APERTURE END LIST*
D10*
G36*
X130305743Y-132091832D02*
G01*
X129020168Y-130559743D01*
X130552257Y-129274168D01*
X131837832Y-130806257D01*
X130305743Y-132091832D01*
G37*
D11*
X131082073Y-131461301D03*
D12*
X129286124Y-129320973D03*
D13*
X129286124Y-129320973D03*
D10*
G36*
X154166292Y-130771284D02*
G01*
X155451867Y-129239195D01*
X156983956Y-130524770D01*
X155698381Y-132056859D01*
X154166292Y-130771284D01*
G37*
D11*
X154922051Y-131426328D03*
D12*
X156718000Y-129286000D03*
D13*
X156718000Y-129286000D03*
D14*
X128016000Y-131826000D03*
X157988000Y-131826000D03*
D15*
X134112000Y-139954000D03*
X136652000Y-139954000D03*
X139192000Y-139954000D03*
X141732000Y-139954000D03*
X144272000Y-139954000D03*
X146812000Y-139954000D03*
X149352000Y-139954000D03*
X151892000Y-139954000D03*
X132842000Y-137414000D03*
X135382000Y-137414000D03*
X137922000Y-137414000D03*
X140462000Y-137414000D03*
X143002000Y-137414000D03*
X145542000Y-137414000D03*
X148082000Y-137414000D03*
X150622000Y-137414000D03*
X153162000Y-137414000D03*
X134112000Y-134874000D03*
X136652000Y-134874000D03*
X139192000Y-134874000D03*
X141732000Y-134874000D03*
X144272000Y-134874000D03*
X146812000Y-134874000D03*
X149352000Y-134874000D03*
X151892000Y-134874000D03*
D16*
X155257500Y-136906000D03*
X130746500Y-136906000D03*
D17*
X132842000Y-129159000D03*
X153162000Y-129540000D03*
D18*
X156972000Y-141097000D03*
X129032000Y-141097000D03*
M02*
