%FSLAX45Y45*%
G04 Gerber Fmt 4.5, Leading zero omitted, Abs format (unit mm)*
G04 Created by KiCad (PCBNEW (5.1.10)-1) date 2021-10-13 14:36:59*
%MOMM*%
%LPD*%
G01*
G04 APERTURE LIST*
%TA.AperFunction,Profile*%
%ADD10C,0.050000*%
%TD*%
%ADD11C,0.200000*%
%ADD12C,0.300000*%
G04 APERTURE END LIST*
D10*
X12700000Y-14274800D02*
X12700000Y-12700000D01*
X15900400Y-14274800D02*
X12700000Y-14274800D01*
X15900400Y-12700000D02*
X15900400Y-14274800D01*
X12700000Y-12700000D02*
X15900400Y-12700000D01*
D11*
X12952730Y-13568680D02*
X13196570Y-13812520D01*
X13196570Y-13568680D02*
X12952730Y-13812520D01*
X15403830Y-13568680D02*
X15647670Y-13812520D01*
X15647670Y-13568680D02*
X15403830Y-13812520D01*
D12*
X12983928Y-14743014D02*
X12983928Y-14443014D01*
X13055357Y-14443014D01*
X13098214Y-14457300D01*
X13126786Y-14485871D01*
X13141071Y-14514443D01*
X13155357Y-14571586D01*
X13155357Y-14614443D01*
X13141071Y-14671586D01*
X13126786Y-14700157D01*
X13098214Y-14728729D01*
X13055357Y-14743014D01*
X12983928Y-14743014D01*
X13283928Y-14743014D02*
X13283928Y-14543014D01*
X13283928Y-14600157D02*
X13298214Y-14571586D01*
X13312500Y-14557300D01*
X13341071Y-14543014D01*
X13369643Y-14543014D01*
X13469643Y-14743014D02*
X13469643Y-14543014D01*
X13469643Y-14443014D02*
X13455357Y-14457300D01*
X13469643Y-14471586D01*
X13483928Y-14457300D01*
X13469643Y-14443014D01*
X13469643Y-14471586D01*
X13655357Y-14743014D02*
X13626786Y-14728729D01*
X13612500Y-14700157D01*
X13612500Y-14443014D01*
X13812500Y-14743014D02*
X13783928Y-14728729D01*
X13769643Y-14700157D01*
X13769643Y-14443014D01*
X14155357Y-14743014D02*
X14155357Y-14443014D01*
X14255357Y-14657300D01*
X14355357Y-14443014D01*
X14355357Y-14743014D01*
X14626786Y-14743014D02*
X14626786Y-14585871D01*
X14612500Y-14557300D01*
X14583928Y-14543014D01*
X14526786Y-14543014D01*
X14498214Y-14557300D01*
X14626786Y-14728729D02*
X14598214Y-14743014D01*
X14526786Y-14743014D01*
X14498214Y-14728729D01*
X14483928Y-14700157D01*
X14483928Y-14671586D01*
X14498214Y-14643014D01*
X14526786Y-14628729D01*
X14598214Y-14628729D01*
X14626786Y-14614443D01*
X14769643Y-14543014D02*
X14769643Y-14843014D01*
X14769643Y-14557300D02*
X14798214Y-14543014D01*
X14855357Y-14543014D01*
X14883928Y-14557300D01*
X14898214Y-14571586D01*
X14912500Y-14600157D01*
X14912500Y-14685871D01*
X14898214Y-14714443D01*
X14883928Y-14728729D01*
X14855357Y-14743014D01*
X14798214Y-14743014D01*
X14769643Y-14728729D01*
X15041071Y-14714443D02*
X15055357Y-14728729D01*
X15041071Y-14743014D01*
X15026786Y-14728729D01*
X15041071Y-14714443D01*
X15041071Y-14743014D01*
X15041071Y-14557300D02*
X15055357Y-14571586D01*
X15041071Y-14585871D01*
X15026786Y-14571586D01*
X15041071Y-14557300D01*
X15041071Y-14585871D01*
X12453660Y-15115380D02*
X12697500Y-15359220D01*
X12697500Y-15115380D02*
X12453660Y-15359220D01*
X12969643Y-15101586D02*
X12983928Y-15087300D01*
X13012500Y-15073014D01*
X13083928Y-15073014D01*
X13112500Y-15087300D01*
X13126786Y-15101586D01*
X13141071Y-15130157D01*
X13141071Y-15158729D01*
X13126786Y-15201586D01*
X12955357Y-15373014D01*
X13141071Y-15373014D01*
X13269643Y-15344443D02*
X13283928Y-15358729D01*
X13269643Y-15373014D01*
X13255357Y-15358729D01*
X13269643Y-15344443D01*
X13269643Y-15373014D01*
X13541071Y-15173014D02*
X13541071Y-15373014D01*
X13469643Y-15058729D02*
X13398214Y-15273014D01*
X13583928Y-15273014D01*
X13669643Y-15073014D02*
X13855357Y-15073014D01*
X13755357Y-15187300D01*
X13798214Y-15187300D01*
X13826786Y-15201586D01*
X13841071Y-15215871D01*
X13855357Y-15244443D01*
X13855357Y-15315871D01*
X13841071Y-15344443D01*
X13826786Y-15358729D01*
X13798214Y-15373014D01*
X13712500Y-15373014D01*
X13683928Y-15358729D01*
X13669643Y-15344443D01*
X14026786Y-15201586D02*
X13998214Y-15187300D01*
X13983928Y-15173014D01*
X13969643Y-15144443D01*
X13969643Y-15130157D01*
X13983928Y-15101586D01*
X13998214Y-15087300D01*
X14026786Y-15073014D01*
X14083928Y-15073014D01*
X14112500Y-15087300D01*
X14126786Y-15101586D01*
X14141071Y-15130157D01*
X14141071Y-15144443D01*
X14126786Y-15173014D01*
X14112500Y-15187300D01*
X14083928Y-15201586D01*
X14026786Y-15201586D01*
X13998214Y-15215871D01*
X13983928Y-15230157D01*
X13969643Y-15258729D01*
X13969643Y-15315871D01*
X13983928Y-15344443D01*
X13998214Y-15358729D01*
X14026786Y-15373014D01*
X14083928Y-15373014D01*
X14112500Y-15358729D01*
X14126786Y-15344443D01*
X14141071Y-15315871D01*
X14141071Y-15258729D01*
X14126786Y-15230157D01*
X14112500Y-15215871D01*
X14083928Y-15201586D01*
X14269643Y-15373014D02*
X14269643Y-15173014D01*
X14269643Y-15201586D02*
X14283928Y-15187300D01*
X14312500Y-15173014D01*
X14355357Y-15173014D01*
X14383928Y-15187300D01*
X14398214Y-15215871D01*
X14398214Y-15373014D01*
X14398214Y-15215871D02*
X14412500Y-15187300D01*
X14441071Y-15173014D01*
X14483928Y-15173014D01*
X14512500Y-15187300D01*
X14526786Y-15215871D01*
X14526786Y-15373014D01*
X14669643Y-15373014D02*
X14669643Y-15173014D01*
X14669643Y-15201586D02*
X14683928Y-15187300D01*
X14712500Y-15173014D01*
X14755357Y-15173014D01*
X14783928Y-15187300D01*
X14798214Y-15215871D01*
X14798214Y-15373014D01*
X14798214Y-15215871D02*
X14812500Y-15187300D01*
X14841071Y-15173014D01*
X14883928Y-15173014D01*
X14912500Y-15187300D01*
X14926786Y-15215871D01*
X14926786Y-15373014D01*
X15512500Y-15058729D02*
X15255357Y-15444443D01*
X15898214Y-15073014D02*
X15926786Y-15073014D01*
X15955357Y-15087300D01*
X15969643Y-15101586D01*
X15983928Y-15130157D01*
X15998214Y-15187300D01*
X15998214Y-15258729D01*
X15983928Y-15315871D01*
X15969643Y-15344443D01*
X15955357Y-15358729D01*
X15926786Y-15373014D01*
X15898214Y-15373014D01*
X15869643Y-15358729D01*
X15855357Y-15344443D01*
X15841071Y-15315871D01*
X15826786Y-15258729D01*
X15826786Y-15187300D01*
X15841071Y-15130157D01*
X15855357Y-15101586D01*
X15869643Y-15087300D01*
X15898214Y-15073014D01*
X16126786Y-15344443D02*
X16141071Y-15358729D01*
X16126786Y-15373014D01*
X16112500Y-15358729D01*
X16126786Y-15344443D01*
X16126786Y-15373014D01*
X16326786Y-15073014D02*
X16355357Y-15073014D01*
X16383928Y-15087300D01*
X16398214Y-15101586D01*
X16412500Y-15130157D01*
X16426786Y-15187300D01*
X16426786Y-15258729D01*
X16412500Y-15315871D01*
X16398214Y-15344443D01*
X16383928Y-15358729D01*
X16355357Y-15373014D01*
X16326786Y-15373014D01*
X16298214Y-15358729D01*
X16283928Y-15344443D01*
X16269643Y-15315871D01*
X16255357Y-15258729D01*
X16255357Y-15187300D01*
X16269643Y-15130157D01*
X16283928Y-15101586D01*
X16298214Y-15087300D01*
X16326786Y-15073014D01*
X16569643Y-15373014D02*
X16626786Y-15373014D01*
X16655357Y-15358729D01*
X16669643Y-15344443D01*
X16698214Y-15301586D01*
X16712500Y-15244443D01*
X16712500Y-15130157D01*
X16698214Y-15101586D01*
X16683928Y-15087300D01*
X16655357Y-15073014D01*
X16598214Y-15073014D01*
X16569643Y-15087300D01*
X16555357Y-15101586D01*
X16541071Y-15130157D01*
X16541071Y-15201586D01*
X16555357Y-15230157D01*
X16569643Y-15244443D01*
X16598214Y-15258729D01*
X16655357Y-15258729D01*
X16683928Y-15244443D01*
X16698214Y-15230157D01*
X16712500Y-15201586D01*
X16969643Y-15073014D02*
X16912500Y-15073014D01*
X16883928Y-15087300D01*
X16869643Y-15101586D01*
X16841071Y-15144443D01*
X16826786Y-15201586D01*
X16826786Y-15315871D01*
X16841071Y-15344443D01*
X16855357Y-15358729D01*
X16883928Y-15373014D01*
X16941071Y-15373014D01*
X16969643Y-15358729D01*
X16983928Y-15344443D01*
X16998214Y-15315871D01*
X16998214Y-15244443D01*
X16983928Y-15215871D01*
X16969643Y-15201586D01*
X16941071Y-15187300D01*
X16883928Y-15187300D01*
X16855357Y-15201586D01*
X16841071Y-15215871D01*
X16826786Y-15244443D01*
X17183928Y-15073014D02*
X17212500Y-15073014D01*
X17241071Y-15087300D01*
X17255357Y-15101586D01*
X17269643Y-15130157D01*
X17283928Y-15187300D01*
X17283928Y-15258729D01*
X17269643Y-15315871D01*
X17255357Y-15344443D01*
X17241071Y-15358729D01*
X17212500Y-15373014D01*
X17183928Y-15373014D01*
X17155357Y-15358729D01*
X17141071Y-15344443D01*
X17126786Y-15315871D01*
X17112500Y-15258729D01*
X17112500Y-15187300D01*
X17126786Y-15130157D01*
X17141071Y-15101586D01*
X17155357Y-15087300D01*
X17183928Y-15073014D01*
X17398214Y-15073014D02*
X17398214Y-15130157D01*
X17512500Y-15073014D02*
X17512500Y-15130157D01*
X17955357Y-15487300D02*
X17941071Y-15473014D01*
X17912500Y-15430157D01*
X17898214Y-15401586D01*
X17883928Y-15358729D01*
X17869643Y-15287300D01*
X17869643Y-15230157D01*
X17883928Y-15158729D01*
X17898214Y-15115871D01*
X17912500Y-15087300D01*
X17941071Y-15044443D01*
X17955357Y-15030157D01*
X18055357Y-15101586D02*
X18069643Y-15087300D01*
X18098214Y-15073014D01*
X18169643Y-15073014D01*
X18198214Y-15087300D01*
X18212500Y-15101586D01*
X18226786Y-15130157D01*
X18226786Y-15158729D01*
X18212500Y-15201586D01*
X18041071Y-15373014D01*
X18226786Y-15373014D01*
X18583928Y-15373014D02*
X18583928Y-15073014D01*
X18712500Y-15373014D02*
X18712500Y-15215871D01*
X18698214Y-15187300D01*
X18669643Y-15173014D01*
X18626786Y-15173014D01*
X18598214Y-15187300D01*
X18583928Y-15201586D01*
X18898214Y-15373014D02*
X18869643Y-15358729D01*
X18855357Y-15344443D01*
X18841071Y-15315871D01*
X18841071Y-15230157D01*
X18855357Y-15201586D01*
X18869643Y-15187300D01*
X18898214Y-15173014D01*
X18941071Y-15173014D01*
X18969643Y-15187300D01*
X18983928Y-15201586D01*
X18998214Y-15230157D01*
X18998214Y-15315871D01*
X18983928Y-15344443D01*
X18969643Y-15358729D01*
X18941071Y-15373014D01*
X18898214Y-15373014D01*
X19169643Y-15373014D02*
X19141071Y-15358729D01*
X19126786Y-15330157D01*
X19126786Y-15073014D01*
X19398214Y-15358729D02*
X19369643Y-15373014D01*
X19312500Y-15373014D01*
X19283928Y-15358729D01*
X19269643Y-15330157D01*
X19269643Y-15215871D01*
X19283928Y-15187300D01*
X19312500Y-15173014D01*
X19369643Y-15173014D01*
X19398214Y-15187300D01*
X19412500Y-15215871D01*
X19412500Y-15244443D01*
X19269643Y-15273014D01*
X19526786Y-15358729D02*
X19555357Y-15373014D01*
X19612500Y-15373014D01*
X19641071Y-15358729D01*
X19655357Y-15330157D01*
X19655357Y-15315871D01*
X19641071Y-15287300D01*
X19612500Y-15273014D01*
X19569643Y-15273014D01*
X19541071Y-15258729D01*
X19526786Y-15230157D01*
X19526786Y-15215871D01*
X19541071Y-15187300D01*
X19569643Y-15173014D01*
X19612500Y-15173014D01*
X19641071Y-15187300D01*
X19755357Y-15487300D02*
X19769643Y-15473014D01*
X19798214Y-15430157D01*
X19812500Y-15401586D01*
X19826786Y-15358729D01*
X19841071Y-15287300D01*
X19841071Y-15230157D01*
X19826786Y-15158729D01*
X19812500Y-15115871D01*
X19798214Y-15087300D01*
X19769643Y-15044443D01*
X19755357Y-15030157D01*
X20298214Y-15487300D02*
X20283928Y-15473014D01*
X20255357Y-15430157D01*
X20241071Y-15401586D01*
X20226786Y-15358729D01*
X20212500Y-15287300D01*
X20212500Y-15230157D01*
X20226786Y-15158729D01*
X20241071Y-15115871D01*
X20255357Y-15087300D01*
X20283928Y-15044443D01*
X20298214Y-15030157D01*
X20412500Y-15173014D02*
X20412500Y-15373014D01*
X20412500Y-15201586D02*
X20426786Y-15187300D01*
X20455357Y-15173014D01*
X20498214Y-15173014D01*
X20526786Y-15187300D01*
X20541071Y-15215871D01*
X20541071Y-15373014D01*
X20726786Y-15373014D02*
X20698214Y-15358729D01*
X20683928Y-15344443D01*
X20669643Y-15315871D01*
X20669643Y-15230157D01*
X20683928Y-15201586D01*
X20698214Y-15187300D01*
X20726786Y-15173014D01*
X20769643Y-15173014D01*
X20798214Y-15187300D01*
X20812500Y-15201586D01*
X20826786Y-15230157D01*
X20826786Y-15315871D01*
X20812500Y-15344443D01*
X20798214Y-15358729D01*
X20769643Y-15373014D01*
X20726786Y-15373014D01*
X20912500Y-15173014D02*
X21026786Y-15173014D01*
X20955357Y-15073014D02*
X20955357Y-15330157D01*
X20969643Y-15358729D01*
X20998214Y-15373014D01*
X21026786Y-15373014D01*
X21355357Y-15173014D02*
X21355357Y-15473014D01*
X21355357Y-15187300D02*
X21383928Y-15173014D01*
X21441071Y-15173014D01*
X21469643Y-15187300D01*
X21483928Y-15201586D01*
X21498214Y-15230157D01*
X21498214Y-15315871D01*
X21483928Y-15344443D01*
X21469643Y-15358729D01*
X21441071Y-15373014D01*
X21383928Y-15373014D01*
X21355357Y-15358729D01*
X21669643Y-15373014D02*
X21641071Y-15358729D01*
X21626786Y-15330157D01*
X21626786Y-15073014D01*
X21912500Y-15373014D02*
X21912500Y-15215871D01*
X21898214Y-15187300D01*
X21869643Y-15173014D01*
X21812500Y-15173014D01*
X21783928Y-15187300D01*
X21912500Y-15358729D02*
X21883928Y-15373014D01*
X21812500Y-15373014D01*
X21783928Y-15358729D01*
X21769643Y-15330157D01*
X21769643Y-15301586D01*
X21783928Y-15273014D01*
X21812500Y-15258729D01*
X21883928Y-15258729D01*
X21912500Y-15244443D01*
X22012500Y-15173014D02*
X22126786Y-15173014D01*
X22055357Y-15073014D02*
X22055357Y-15330157D01*
X22069643Y-15358729D01*
X22098214Y-15373014D01*
X22126786Y-15373014D01*
X22341071Y-15358729D02*
X22312500Y-15373014D01*
X22255357Y-15373014D01*
X22226786Y-15358729D01*
X22212500Y-15330157D01*
X22212500Y-15215871D01*
X22226786Y-15187300D01*
X22255357Y-15173014D01*
X22312500Y-15173014D01*
X22341071Y-15187300D01*
X22355357Y-15215871D01*
X22355357Y-15244443D01*
X22212500Y-15273014D01*
X22612500Y-15373014D02*
X22612500Y-15073014D01*
X22612500Y-15358729D02*
X22583928Y-15373014D01*
X22526786Y-15373014D01*
X22498214Y-15358729D01*
X22483928Y-15344443D01*
X22469643Y-15315871D01*
X22469643Y-15230157D01*
X22483928Y-15201586D01*
X22498214Y-15187300D01*
X22526786Y-15173014D01*
X22583928Y-15173014D01*
X22612500Y-15187300D01*
X22726786Y-15487300D02*
X22741071Y-15473014D01*
X22769643Y-15430157D01*
X22783928Y-15401586D01*
X22798214Y-15358729D01*
X22812500Y-15287300D01*
X22812500Y-15230157D01*
X22798214Y-15158729D01*
X22783928Y-15115871D01*
X22769643Y-15087300D01*
X22741071Y-15044443D01*
X22726786Y-15030157D01*
M02*
